G04 MADE WITH FRITZING*
G04 WWW.FRITZING.ORG*
G04 DOUBLE SIDED*
G04 HOLES PLATED*
G04 CONTOUR ON CENTER OF CONTOUR VECTOR*
%ASAXBY*%
%FSLAX23Y23*%
%MOIN*%
%OFA0B0*%
%SFA1.0B1.0*%
%ADD10C,0.085000*%
%ADD11C,0.088000*%
%ADD12C,0.062000*%
%ADD13C,0.088740*%
%ADD14R,0.085000X0.085000*%
%ADD15R,0.001000X0.001000*%
%LNMASK1*%
G90*
G70*
G54D10*
X1034Y1191D03*
X1034Y691D03*
X534Y291D03*
X834Y291D03*
G54D11*
X1134Y891D03*
X1134Y991D03*
X1134Y1091D03*
X934Y391D03*
X934Y491D03*
X934Y591D03*
X934Y691D03*
X234Y391D03*
X234Y491D03*
X234Y591D03*
X234Y691D03*
G54D10*
X1234Y1091D03*
X1234Y1491D03*
X1234Y691D03*
X1234Y291D03*
X1134Y691D03*
X1134Y291D03*
G54D12*
X134Y991D03*
X234Y991D03*
X234Y1291D03*
X134Y1291D03*
X134Y991D03*
X234Y991D03*
X234Y1291D03*
X134Y1291D03*
X234Y991D03*
X334Y991D03*
X334Y1291D03*
X234Y1291D03*
X234Y991D03*
X334Y991D03*
X334Y1291D03*
X234Y1291D03*
G54D10*
X534Y1391D03*
X934Y1391D03*
X634Y1291D03*
X1034Y1291D03*
X134Y191D03*
X534Y191D03*
G54D11*
X1034Y1391D03*
X1134Y1391D03*
G54D13*
X834Y291D03*
X534Y291D03*
X1034Y1191D03*
X1034Y691D03*
G54D10*
X534Y1091D03*
X834Y1091D03*
X534Y991D03*
X834Y991D03*
X534Y891D03*
X834Y891D03*
X534Y791D03*
X834Y791D03*
X534Y691D03*
X834Y691D03*
X534Y591D03*
X834Y591D03*
X534Y491D03*
X834Y491D03*
X534Y391D03*
X834Y391D03*
G54D14*
X534Y1091D03*
G54D15*
X129Y1348D02*
X139Y1348D01*
X229Y1348D02*
X239Y1348D01*
X329Y1348D02*
X339Y1348D01*
X125Y1347D02*
X143Y1347D01*
X225Y1347D02*
X243Y1347D01*
X325Y1347D02*
X343Y1347D01*
X122Y1346D02*
X145Y1346D01*
X222Y1346D02*
X245Y1346D01*
X322Y1346D02*
X345Y1346D01*
X120Y1345D02*
X147Y1345D01*
X220Y1345D02*
X247Y1345D01*
X320Y1345D02*
X347Y1345D01*
X118Y1344D02*
X149Y1344D01*
X218Y1344D02*
X249Y1344D01*
X318Y1344D02*
X349Y1344D01*
X117Y1343D02*
X151Y1343D01*
X217Y1343D02*
X251Y1343D01*
X317Y1343D02*
X351Y1343D01*
X115Y1342D02*
X152Y1342D01*
X215Y1342D02*
X252Y1342D01*
X315Y1342D02*
X352Y1342D01*
X114Y1341D02*
X154Y1341D01*
X214Y1341D02*
X254Y1341D01*
X314Y1341D02*
X353Y1341D01*
X113Y1340D02*
X155Y1340D01*
X213Y1340D02*
X255Y1340D01*
X313Y1340D02*
X355Y1340D01*
X112Y1339D02*
X156Y1339D01*
X212Y1339D02*
X256Y1339D01*
X312Y1339D02*
X356Y1339D01*
X111Y1338D02*
X157Y1338D01*
X211Y1338D02*
X257Y1338D01*
X311Y1338D02*
X357Y1338D01*
X110Y1337D02*
X157Y1337D01*
X210Y1337D02*
X257Y1337D01*
X310Y1337D02*
X357Y1337D01*
X109Y1336D02*
X158Y1336D01*
X209Y1336D02*
X258Y1336D01*
X309Y1336D02*
X358Y1336D01*
X109Y1335D02*
X159Y1335D01*
X209Y1335D02*
X259Y1335D01*
X309Y1335D02*
X359Y1335D01*
X108Y1334D02*
X159Y1334D01*
X208Y1334D02*
X259Y1334D01*
X308Y1334D02*
X359Y1334D01*
X108Y1333D02*
X160Y1333D01*
X207Y1333D02*
X260Y1333D01*
X307Y1333D02*
X360Y1333D01*
X107Y1332D02*
X161Y1332D01*
X207Y1332D02*
X261Y1332D01*
X307Y1332D02*
X361Y1332D01*
X106Y1331D02*
X161Y1331D01*
X206Y1331D02*
X261Y1331D01*
X306Y1331D02*
X361Y1331D01*
X106Y1330D02*
X162Y1330D01*
X206Y1330D02*
X262Y1330D01*
X306Y1330D02*
X362Y1330D01*
X106Y1329D02*
X162Y1329D01*
X206Y1329D02*
X262Y1329D01*
X306Y1329D02*
X362Y1329D01*
X105Y1328D02*
X162Y1328D01*
X205Y1328D02*
X262Y1328D01*
X305Y1328D02*
X362Y1328D01*
X105Y1327D02*
X163Y1327D01*
X205Y1327D02*
X263Y1327D01*
X305Y1327D02*
X363Y1327D01*
X105Y1326D02*
X163Y1326D01*
X205Y1326D02*
X263Y1326D01*
X305Y1326D02*
X363Y1326D01*
X104Y1325D02*
X163Y1325D01*
X204Y1325D02*
X263Y1325D01*
X304Y1325D02*
X363Y1325D01*
X104Y1324D02*
X164Y1324D01*
X204Y1324D02*
X264Y1324D01*
X304Y1324D02*
X364Y1324D01*
X104Y1323D02*
X164Y1323D01*
X204Y1323D02*
X264Y1323D01*
X304Y1323D02*
X364Y1323D01*
X104Y1322D02*
X164Y1322D01*
X204Y1322D02*
X264Y1322D01*
X304Y1322D02*
X364Y1322D01*
X104Y1321D02*
X164Y1321D01*
X203Y1321D02*
X264Y1321D01*
X303Y1321D02*
X364Y1321D01*
X103Y1320D02*
X164Y1320D01*
X203Y1320D02*
X264Y1320D01*
X303Y1320D02*
X364Y1320D01*
X103Y1319D02*
X164Y1319D01*
X203Y1319D02*
X264Y1319D01*
X303Y1319D02*
X364Y1319D01*
X103Y1318D02*
X164Y1318D01*
X203Y1318D02*
X264Y1318D01*
X303Y1318D02*
X364Y1318D01*
X103Y1317D02*
X164Y1317D01*
X203Y1317D02*
X264Y1317D01*
X303Y1317D02*
X364Y1317D01*
X103Y1316D02*
X164Y1316D01*
X203Y1316D02*
X264Y1316D01*
X303Y1316D02*
X364Y1316D01*
X103Y1315D02*
X164Y1315D01*
X203Y1315D02*
X264Y1315D01*
X303Y1315D02*
X364Y1315D01*
X103Y1314D02*
X164Y1314D01*
X203Y1314D02*
X264Y1314D01*
X303Y1314D02*
X364Y1314D01*
X103Y1313D02*
X164Y1313D01*
X203Y1313D02*
X264Y1313D01*
X303Y1313D02*
X364Y1313D01*
X103Y1312D02*
X164Y1312D01*
X203Y1312D02*
X264Y1312D01*
X303Y1312D02*
X364Y1312D01*
X103Y1311D02*
X164Y1311D01*
X203Y1311D02*
X264Y1311D01*
X303Y1311D02*
X364Y1311D01*
X103Y1310D02*
X164Y1310D01*
X203Y1310D02*
X264Y1310D01*
X303Y1310D02*
X364Y1310D01*
X103Y1309D02*
X164Y1309D01*
X203Y1309D02*
X264Y1309D01*
X303Y1309D02*
X364Y1309D01*
X103Y1308D02*
X164Y1308D01*
X203Y1308D02*
X264Y1308D01*
X303Y1308D02*
X364Y1308D01*
X103Y1307D02*
X164Y1307D01*
X203Y1307D02*
X264Y1307D01*
X303Y1307D02*
X364Y1307D01*
X103Y1306D02*
X164Y1306D01*
X203Y1306D02*
X264Y1306D01*
X303Y1306D02*
X364Y1306D01*
X103Y1305D02*
X164Y1305D01*
X203Y1305D02*
X264Y1305D01*
X303Y1305D02*
X364Y1305D01*
X103Y1304D02*
X164Y1304D01*
X203Y1304D02*
X264Y1304D01*
X303Y1304D02*
X364Y1304D01*
X103Y1303D02*
X164Y1303D01*
X203Y1303D02*
X264Y1303D01*
X303Y1303D02*
X364Y1303D01*
X103Y1302D02*
X130Y1302D01*
X138Y1302D02*
X164Y1302D01*
X203Y1302D02*
X230Y1302D01*
X238Y1302D02*
X264Y1302D01*
X303Y1302D02*
X330Y1302D01*
X338Y1302D02*
X364Y1302D01*
X103Y1301D02*
X128Y1301D01*
X140Y1301D02*
X164Y1301D01*
X203Y1301D02*
X228Y1301D01*
X240Y1301D02*
X264Y1301D01*
X303Y1301D02*
X328Y1301D01*
X340Y1301D02*
X364Y1301D01*
X103Y1300D02*
X126Y1300D01*
X141Y1300D02*
X164Y1300D01*
X203Y1300D02*
X226Y1300D01*
X241Y1300D02*
X264Y1300D01*
X303Y1300D02*
X326Y1300D01*
X341Y1300D02*
X364Y1300D01*
X103Y1299D02*
X125Y1299D01*
X142Y1299D02*
X164Y1299D01*
X203Y1299D02*
X225Y1299D01*
X242Y1299D02*
X264Y1299D01*
X303Y1299D02*
X325Y1299D01*
X342Y1299D02*
X364Y1299D01*
X103Y1298D02*
X124Y1298D01*
X143Y1298D02*
X164Y1298D01*
X203Y1298D02*
X224Y1298D01*
X243Y1298D02*
X264Y1298D01*
X303Y1298D02*
X324Y1298D01*
X343Y1298D02*
X364Y1298D01*
X103Y1297D02*
X124Y1297D01*
X144Y1297D02*
X164Y1297D01*
X203Y1297D02*
X224Y1297D01*
X244Y1297D02*
X264Y1297D01*
X303Y1297D02*
X324Y1297D01*
X344Y1297D02*
X364Y1297D01*
X103Y1296D02*
X123Y1296D01*
X144Y1296D02*
X164Y1296D01*
X203Y1296D02*
X223Y1296D01*
X244Y1296D02*
X264Y1296D01*
X303Y1296D02*
X323Y1296D01*
X344Y1296D02*
X364Y1296D01*
X103Y1295D02*
X123Y1295D01*
X145Y1295D02*
X164Y1295D01*
X203Y1295D02*
X223Y1295D01*
X245Y1295D02*
X264Y1295D01*
X303Y1295D02*
X323Y1295D01*
X345Y1295D02*
X364Y1295D01*
X103Y1294D02*
X123Y1294D01*
X145Y1294D02*
X164Y1294D01*
X203Y1294D02*
X223Y1294D01*
X245Y1294D02*
X264Y1294D01*
X303Y1294D02*
X322Y1294D01*
X345Y1294D02*
X364Y1294D01*
X103Y1293D02*
X122Y1293D01*
X145Y1293D02*
X164Y1293D01*
X203Y1293D02*
X222Y1293D01*
X245Y1293D02*
X264Y1293D01*
X303Y1293D02*
X322Y1293D01*
X345Y1293D02*
X364Y1293D01*
X103Y1292D02*
X122Y1292D01*
X145Y1292D02*
X164Y1292D01*
X203Y1292D02*
X222Y1292D01*
X245Y1292D02*
X264Y1292D01*
X303Y1292D02*
X322Y1292D01*
X345Y1292D02*
X364Y1292D01*
X103Y1291D02*
X122Y1291D01*
X145Y1291D02*
X164Y1291D01*
X203Y1291D02*
X222Y1291D01*
X245Y1291D02*
X264Y1291D01*
X303Y1291D02*
X322Y1291D01*
X345Y1291D02*
X364Y1291D01*
X103Y1290D02*
X122Y1290D01*
X145Y1290D02*
X164Y1290D01*
X203Y1290D02*
X222Y1290D01*
X245Y1290D02*
X264Y1290D01*
X303Y1290D02*
X322Y1290D01*
X345Y1290D02*
X364Y1290D01*
X103Y1289D02*
X123Y1289D01*
X145Y1289D02*
X164Y1289D01*
X203Y1289D02*
X223Y1289D01*
X245Y1289D02*
X264Y1289D01*
X303Y1289D02*
X323Y1289D01*
X345Y1289D02*
X364Y1289D01*
X103Y1288D02*
X123Y1288D01*
X145Y1288D02*
X164Y1288D01*
X203Y1288D02*
X223Y1288D01*
X245Y1288D02*
X264Y1288D01*
X303Y1288D02*
X323Y1288D01*
X345Y1288D02*
X364Y1288D01*
X103Y1287D02*
X123Y1287D01*
X144Y1287D02*
X164Y1287D01*
X203Y1287D02*
X223Y1287D01*
X244Y1287D02*
X264Y1287D01*
X303Y1287D02*
X323Y1287D01*
X344Y1287D02*
X364Y1287D01*
X103Y1286D02*
X124Y1286D01*
X144Y1286D02*
X164Y1286D01*
X203Y1286D02*
X224Y1286D01*
X244Y1286D02*
X264Y1286D01*
X303Y1286D02*
X324Y1286D01*
X344Y1286D02*
X364Y1286D01*
X103Y1285D02*
X124Y1285D01*
X143Y1285D02*
X164Y1285D01*
X203Y1285D02*
X224Y1285D01*
X243Y1285D02*
X264Y1285D01*
X303Y1285D02*
X324Y1285D01*
X343Y1285D02*
X364Y1285D01*
X103Y1284D02*
X125Y1284D01*
X142Y1284D02*
X164Y1284D01*
X203Y1284D02*
X225Y1284D01*
X242Y1284D02*
X264Y1284D01*
X303Y1284D02*
X325Y1284D01*
X342Y1284D02*
X364Y1284D01*
X103Y1283D02*
X126Y1283D01*
X141Y1283D02*
X164Y1283D01*
X203Y1283D02*
X226Y1283D01*
X241Y1283D02*
X264Y1283D01*
X303Y1283D02*
X326Y1283D01*
X341Y1283D02*
X364Y1283D01*
X103Y1282D02*
X128Y1282D01*
X140Y1282D02*
X164Y1282D01*
X203Y1282D02*
X228Y1282D01*
X240Y1282D02*
X264Y1282D01*
X303Y1282D02*
X328Y1282D01*
X340Y1282D02*
X364Y1282D01*
X103Y1281D02*
X130Y1281D01*
X137Y1281D02*
X164Y1281D01*
X203Y1281D02*
X230Y1281D01*
X237Y1281D02*
X264Y1281D01*
X303Y1281D02*
X330Y1281D01*
X337Y1281D02*
X364Y1281D01*
X103Y1280D02*
X164Y1280D01*
X203Y1280D02*
X264Y1280D01*
X303Y1280D02*
X364Y1280D01*
X103Y1279D02*
X164Y1279D01*
X203Y1279D02*
X264Y1279D01*
X303Y1279D02*
X364Y1279D01*
X103Y1278D02*
X164Y1278D01*
X203Y1278D02*
X264Y1278D01*
X303Y1278D02*
X364Y1278D01*
X103Y1277D02*
X164Y1277D01*
X203Y1277D02*
X264Y1277D01*
X303Y1277D02*
X364Y1277D01*
X103Y1276D02*
X164Y1276D01*
X203Y1276D02*
X264Y1276D01*
X303Y1276D02*
X364Y1276D01*
X103Y1275D02*
X164Y1275D01*
X203Y1275D02*
X264Y1275D01*
X303Y1275D02*
X364Y1275D01*
X103Y1274D02*
X164Y1274D01*
X203Y1274D02*
X264Y1274D01*
X303Y1274D02*
X364Y1274D01*
X103Y1273D02*
X164Y1273D01*
X203Y1273D02*
X264Y1273D01*
X303Y1273D02*
X364Y1273D01*
X103Y1272D02*
X164Y1272D01*
X203Y1272D02*
X264Y1272D01*
X303Y1272D02*
X364Y1272D01*
X103Y1271D02*
X164Y1271D01*
X203Y1271D02*
X264Y1271D01*
X303Y1271D02*
X364Y1271D01*
X103Y1270D02*
X164Y1270D01*
X203Y1270D02*
X264Y1270D01*
X303Y1270D02*
X364Y1270D01*
X103Y1269D02*
X164Y1269D01*
X203Y1269D02*
X264Y1269D01*
X303Y1269D02*
X364Y1269D01*
X103Y1268D02*
X164Y1268D01*
X203Y1268D02*
X264Y1268D01*
X303Y1268D02*
X364Y1268D01*
X103Y1267D02*
X164Y1267D01*
X203Y1267D02*
X264Y1267D01*
X303Y1267D02*
X364Y1267D01*
X103Y1266D02*
X164Y1266D01*
X203Y1266D02*
X264Y1266D01*
X303Y1266D02*
X364Y1266D01*
X103Y1265D02*
X164Y1265D01*
X203Y1265D02*
X264Y1265D01*
X303Y1265D02*
X364Y1265D01*
X103Y1264D02*
X164Y1264D01*
X203Y1264D02*
X264Y1264D01*
X303Y1264D02*
X364Y1264D01*
X103Y1263D02*
X164Y1263D01*
X203Y1263D02*
X264Y1263D01*
X303Y1263D02*
X364Y1263D01*
X104Y1262D02*
X164Y1262D01*
X204Y1262D02*
X264Y1262D01*
X303Y1262D02*
X364Y1262D01*
X104Y1261D02*
X164Y1261D01*
X204Y1261D02*
X264Y1261D01*
X304Y1261D02*
X364Y1261D01*
X104Y1260D02*
X164Y1260D01*
X204Y1260D02*
X264Y1260D01*
X304Y1260D02*
X364Y1260D01*
X104Y1259D02*
X163Y1259D01*
X204Y1259D02*
X263Y1259D01*
X304Y1259D02*
X363Y1259D01*
X104Y1258D02*
X163Y1258D01*
X204Y1258D02*
X263Y1258D01*
X304Y1258D02*
X363Y1258D01*
X105Y1257D02*
X163Y1257D01*
X205Y1257D02*
X263Y1257D01*
X305Y1257D02*
X363Y1257D01*
X105Y1256D02*
X163Y1256D01*
X205Y1256D02*
X263Y1256D01*
X305Y1256D02*
X363Y1256D01*
X105Y1255D02*
X162Y1255D01*
X205Y1255D02*
X262Y1255D01*
X305Y1255D02*
X362Y1255D01*
X106Y1254D02*
X162Y1254D01*
X206Y1254D02*
X262Y1254D01*
X306Y1254D02*
X362Y1254D01*
X106Y1253D02*
X161Y1253D01*
X206Y1253D02*
X261Y1253D01*
X306Y1253D02*
X361Y1253D01*
X107Y1252D02*
X161Y1252D01*
X207Y1252D02*
X261Y1252D01*
X307Y1252D02*
X361Y1252D01*
X107Y1251D02*
X161Y1251D01*
X207Y1251D02*
X261Y1251D01*
X307Y1251D02*
X360Y1251D01*
X108Y1250D02*
X160Y1250D01*
X208Y1250D02*
X260Y1250D01*
X308Y1250D02*
X360Y1250D01*
X108Y1249D02*
X159Y1249D01*
X208Y1249D02*
X259Y1249D01*
X308Y1249D02*
X359Y1249D01*
X109Y1248D02*
X159Y1248D01*
X209Y1248D02*
X259Y1248D01*
X309Y1248D02*
X359Y1248D01*
X110Y1247D02*
X158Y1247D01*
X210Y1247D02*
X258Y1247D01*
X310Y1247D02*
X358Y1247D01*
X110Y1246D02*
X157Y1246D01*
X210Y1246D02*
X257Y1246D01*
X310Y1246D02*
X357Y1246D01*
X111Y1245D02*
X156Y1245D01*
X211Y1245D02*
X256Y1245D01*
X311Y1245D02*
X356Y1245D01*
X112Y1244D02*
X155Y1244D01*
X212Y1244D02*
X255Y1244D01*
X312Y1244D02*
X355Y1244D01*
X113Y1243D02*
X154Y1243D01*
X213Y1243D02*
X254Y1243D01*
X313Y1243D02*
X354Y1243D01*
X114Y1242D02*
X153Y1242D01*
X214Y1242D02*
X253Y1242D01*
X314Y1242D02*
X353Y1242D01*
X116Y1241D02*
X152Y1241D01*
X216Y1241D02*
X252Y1241D01*
X315Y1241D02*
X352Y1241D01*
X117Y1240D02*
X151Y1240D01*
X217Y1240D02*
X251Y1240D01*
X317Y1240D02*
X351Y1240D01*
X119Y1239D02*
X149Y1239D01*
X219Y1239D02*
X249Y1239D01*
X319Y1239D02*
X349Y1239D01*
X120Y1238D02*
X147Y1238D01*
X220Y1238D02*
X247Y1238D01*
X320Y1238D02*
X347Y1238D01*
X123Y1237D02*
X145Y1237D01*
X223Y1237D02*
X245Y1237D01*
X323Y1237D02*
X345Y1237D01*
X125Y1236D02*
X142Y1236D01*
X225Y1236D02*
X242Y1236D01*
X325Y1236D02*
X342Y1236D01*
X130Y1235D02*
X138Y1235D01*
X230Y1235D02*
X238Y1235D01*
X330Y1235D02*
X338Y1235D01*
X128Y1048D02*
X139Y1048D01*
X228Y1048D02*
X239Y1048D01*
X328Y1048D02*
X339Y1048D01*
X125Y1047D02*
X143Y1047D01*
X225Y1047D02*
X243Y1047D01*
X325Y1047D02*
X343Y1047D01*
X122Y1046D02*
X146Y1046D01*
X222Y1046D02*
X246Y1046D01*
X322Y1046D02*
X346Y1046D01*
X120Y1045D02*
X148Y1045D01*
X220Y1045D02*
X248Y1045D01*
X320Y1045D02*
X348Y1045D01*
X118Y1044D02*
X149Y1044D01*
X218Y1044D02*
X249Y1044D01*
X318Y1044D02*
X349Y1044D01*
X117Y1043D02*
X151Y1043D01*
X217Y1043D02*
X251Y1043D01*
X316Y1043D02*
X351Y1043D01*
X115Y1042D02*
X152Y1042D01*
X215Y1042D02*
X252Y1042D01*
X315Y1042D02*
X352Y1042D01*
X114Y1041D02*
X154Y1041D01*
X214Y1041D02*
X254Y1041D01*
X314Y1041D02*
X354Y1041D01*
X113Y1040D02*
X155Y1040D01*
X213Y1040D02*
X255Y1040D01*
X313Y1040D02*
X355Y1040D01*
X112Y1039D02*
X156Y1039D01*
X212Y1039D02*
X256Y1039D01*
X312Y1039D02*
X356Y1039D01*
X111Y1038D02*
X157Y1038D01*
X211Y1038D02*
X257Y1038D01*
X311Y1038D02*
X357Y1038D01*
X110Y1037D02*
X157Y1037D01*
X210Y1037D02*
X257Y1037D01*
X310Y1037D02*
X357Y1037D01*
X109Y1036D02*
X158Y1036D01*
X209Y1036D02*
X258Y1036D01*
X309Y1036D02*
X358Y1036D01*
X109Y1035D02*
X159Y1035D01*
X209Y1035D02*
X259Y1035D01*
X309Y1035D02*
X359Y1035D01*
X108Y1034D02*
X160Y1034D01*
X208Y1034D02*
X259Y1034D01*
X308Y1034D02*
X359Y1034D01*
X107Y1033D02*
X160Y1033D01*
X207Y1033D02*
X260Y1033D01*
X307Y1033D02*
X360Y1033D01*
X107Y1032D02*
X161Y1032D01*
X207Y1032D02*
X261Y1032D01*
X307Y1032D02*
X361Y1032D01*
X106Y1031D02*
X161Y1031D01*
X206Y1031D02*
X261Y1031D01*
X306Y1031D02*
X361Y1031D01*
X106Y1030D02*
X162Y1030D01*
X206Y1030D02*
X262Y1030D01*
X306Y1030D02*
X362Y1030D01*
X106Y1029D02*
X162Y1029D01*
X206Y1029D02*
X262Y1029D01*
X306Y1029D02*
X362Y1029D01*
X105Y1028D02*
X162Y1028D01*
X205Y1028D02*
X262Y1028D01*
X305Y1028D02*
X362Y1028D01*
X105Y1027D02*
X163Y1027D01*
X205Y1027D02*
X263Y1027D01*
X305Y1027D02*
X363Y1027D01*
X105Y1026D02*
X163Y1026D01*
X205Y1026D02*
X263Y1026D01*
X304Y1026D02*
X363Y1026D01*
X104Y1025D02*
X163Y1025D01*
X204Y1025D02*
X263Y1025D01*
X304Y1025D02*
X363Y1025D01*
X104Y1024D02*
X164Y1024D01*
X204Y1024D02*
X264Y1024D01*
X304Y1024D02*
X364Y1024D01*
X104Y1023D02*
X164Y1023D01*
X204Y1023D02*
X264Y1023D01*
X304Y1023D02*
X364Y1023D01*
X104Y1022D02*
X164Y1022D01*
X204Y1022D02*
X264Y1022D01*
X304Y1022D02*
X364Y1022D01*
X103Y1021D02*
X164Y1021D01*
X203Y1021D02*
X264Y1021D01*
X303Y1021D02*
X364Y1021D01*
X103Y1020D02*
X164Y1020D01*
X203Y1020D02*
X264Y1020D01*
X303Y1020D02*
X364Y1020D01*
X103Y1019D02*
X164Y1019D01*
X203Y1019D02*
X264Y1019D01*
X303Y1019D02*
X364Y1019D01*
X103Y1018D02*
X164Y1018D01*
X203Y1018D02*
X264Y1018D01*
X303Y1018D02*
X364Y1018D01*
X103Y1017D02*
X164Y1017D01*
X203Y1017D02*
X264Y1017D01*
X303Y1017D02*
X364Y1017D01*
X103Y1016D02*
X164Y1016D01*
X203Y1016D02*
X264Y1016D01*
X303Y1016D02*
X364Y1016D01*
X103Y1015D02*
X164Y1015D01*
X203Y1015D02*
X264Y1015D01*
X303Y1015D02*
X364Y1015D01*
X103Y1014D02*
X164Y1014D01*
X203Y1014D02*
X264Y1014D01*
X303Y1014D02*
X364Y1014D01*
X103Y1013D02*
X164Y1013D01*
X203Y1013D02*
X264Y1013D01*
X303Y1013D02*
X364Y1013D01*
X103Y1012D02*
X164Y1012D01*
X203Y1012D02*
X264Y1012D01*
X303Y1012D02*
X364Y1012D01*
X103Y1011D02*
X164Y1011D01*
X203Y1011D02*
X264Y1011D01*
X303Y1011D02*
X364Y1011D01*
X103Y1010D02*
X164Y1010D01*
X203Y1010D02*
X264Y1010D01*
X303Y1010D02*
X364Y1010D01*
X103Y1009D02*
X164Y1009D01*
X203Y1009D02*
X264Y1009D01*
X303Y1009D02*
X364Y1009D01*
X103Y1008D02*
X164Y1008D01*
X203Y1008D02*
X264Y1008D01*
X303Y1008D02*
X364Y1008D01*
X103Y1007D02*
X164Y1007D01*
X203Y1007D02*
X264Y1007D01*
X303Y1007D02*
X364Y1007D01*
X103Y1006D02*
X164Y1006D01*
X203Y1006D02*
X264Y1006D01*
X303Y1006D02*
X364Y1006D01*
X103Y1005D02*
X164Y1005D01*
X203Y1005D02*
X264Y1005D01*
X303Y1005D02*
X364Y1005D01*
X103Y1004D02*
X164Y1004D01*
X203Y1004D02*
X264Y1004D01*
X303Y1004D02*
X364Y1004D01*
X103Y1003D02*
X164Y1003D01*
X203Y1003D02*
X264Y1003D01*
X303Y1003D02*
X364Y1003D01*
X103Y1002D02*
X129Y1002D01*
X138Y1002D02*
X164Y1002D01*
X203Y1002D02*
X229Y1002D01*
X238Y1002D02*
X264Y1002D01*
X303Y1002D02*
X329Y1002D01*
X338Y1002D02*
X364Y1002D01*
X103Y1001D02*
X127Y1001D01*
X140Y1001D02*
X164Y1001D01*
X203Y1001D02*
X227Y1001D01*
X240Y1001D02*
X264Y1001D01*
X303Y1001D02*
X327Y1001D01*
X340Y1001D02*
X364Y1001D01*
X103Y1000D02*
X126Y1000D01*
X141Y1000D02*
X164Y1000D01*
X203Y1000D02*
X226Y1000D01*
X241Y1000D02*
X264Y1000D01*
X303Y1000D02*
X326Y1000D01*
X341Y1000D02*
X364Y1000D01*
X103Y999D02*
X125Y999D01*
X142Y999D02*
X164Y999D01*
X203Y999D02*
X225Y999D01*
X242Y999D02*
X264Y999D01*
X303Y999D02*
X325Y999D01*
X342Y999D02*
X364Y999D01*
X103Y998D02*
X124Y998D01*
X143Y998D02*
X164Y998D01*
X203Y998D02*
X224Y998D01*
X243Y998D02*
X264Y998D01*
X303Y998D02*
X324Y998D01*
X343Y998D02*
X364Y998D01*
X103Y997D02*
X124Y997D01*
X144Y997D02*
X164Y997D01*
X203Y997D02*
X224Y997D01*
X244Y997D02*
X264Y997D01*
X303Y997D02*
X324Y997D01*
X344Y997D02*
X364Y997D01*
X103Y996D02*
X123Y996D01*
X144Y996D02*
X164Y996D01*
X203Y996D02*
X223Y996D01*
X244Y996D02*
X264Y996D01*
X303Y996D02*
X323Y996D01*
X344Y996D02*
X364Y996D01*
X103Y995D02*
X123Y995D01*
X145Y995D02*
X164Y995D01*
X203Y995D02*
X223Y995D01*
X245Y995D02*
X264Y995D01*
X303Y995D02*
X323Y995D01*
X345Y995D02*
X364Y995D01*
X103Y994D02*
X122Y994D01*
X145Y994D02*
X164Y994D01*
X203Y994D02*
X222Y994D01*
X245Y994D02*
X264Y994D01*
X303Y994D02*
X322Y994D01*
X345Y994D02*
X364Y994D01*
X103Y993D02*
X122Y993D01*
X145Y993D02*
X164Y993D01*
X203Y993D02*
X222Y993D01*
X245Y993D02*
X264Y993D01*
X303Y993D02*
X322Y993D01*
X345Y993D02*
X364Y993D01*
X103Y992D02*
X122Y992D01*
X145Y992D02*
X164Y992D01*
X203Y992D02*
X222Y992D01*
X245Y992D02*
X264Y992D01*
X303Y992D02*
X322Y992D01*
X345Y992D02*
X364Y992D01*
X103Y991D02*
X122Y991D01*
X145Y991D02*
X164Y991D01*
X203Y991D02*
X222Y991D01*
X245Y991D02*
X264Y991D01*
X303Y991D02*
X322Y991D01*
X345Y991D02*
X364Y991D01*
X103Y990D02*
X122Y990D01*
X145Y990D02*
X164Y990D01*
X203Y990D02*
X222Y990D01*
X245Y990D02*
X264Y990D01*
X303Y990D02*
X322Y990D01*
X345Y990D02*
X364Y990D01*
X103Y989D02*
X123Y989D01*
X145Y989D02*
X164Y989D01*
X203Y989D02*
X223Y989D01*
X245Y989D02*
X264Y989D01*
X303Y989D02*
X323Y989D01*
X345Y989D02*
X364Y989D01*
X103Y988D02*
X123Y988D01*
X145Y988D02*
X164Y988D01*
X203Y988D02*
X223Y988D01*
X245Y988D02*
X264Y988D01*
X303Y988D02*
X323Y988D01*
X345Y988D02*
X364Y988D01*
X103Y987D02*
X123Y987D01*
X144Y987D02*
X164Y987D01*
X203Y987D02*
X223Y987D01*
X244Y987D02*
X264Y987D01*
X303Y987D02*
X323Y987D01*
X344Y987D02*
X364Y987D01*
X103Y986D02*
X124Y986D01*
X144Y986D02*
X164Y986D01*
X203Y986D02*
X224Y986D01*
X244Y986D02*
X264Y986D01*
X303Y986D02*
X324Y986D01*
X344Y986D02*
X364Y986D01*
X103Y985D02*
X125Y985D01*
X143Y985D02*
X164Y985D01*
X203Y985D02*
X225Y985D01*
X243Y985D02*
X264Y985D01*
X303Y985D02*
X325Y985D01*
X343Y985D02*
X364Y985D01*
X103Y984D02*
X125Y984D01*
X142Y984D02*
X164Y984D01*
X203Y984D02*
X225Y984D01*
X242Y984D02*
X264Y984D01*
X303Y984D02*
X325Y984D01*
X342Y984D02*
X364Y984D01*
X103Y983D02*
X127Y983D01*
X141Y983D02*
X164Y983D01*
X203Y983D02*
X227Y983D01*
X241Y983D02*
X264Y983D01*
X303Y983D02*
X327Y983D01*
X341Y983D02*
X364Y983D01*
X103Y982D02*
X128Y982D01*
X140Y982D02*
X164Y982D01*
X203Y982D02*
X228Y982D01*
X240Y982D02*
X264Y982D01*
X303Y982D02*
X328Y982D01*
X340Y982D02*
X364Y982D01*
X103Y981D02*
X131Y981D01*
X137Y981D02*
X164Y981D01*
X203Y981D02*
X231Y981D01*
X237Y981D02*
X264Y981D01*
X303Y981D02*
X331Y981D01*
X337Y981D02*
X364Y981D01*
X103Y980D02*
X164Y980D01*
X203Y980D02*
X264Y980D01*
X303Y980D02*
X364Y980D01*
X103Y979D02*
X164Y979D01*
X203Y979D02*
X264Y979D01*
X303Y979D02*
X364Y979D01*
X103Y978D02*
X164Y978D01*
X203Y978D02*
X264Y978D01*
X303Y978D02*
X364Y978D01*
X103Y977D02*
X164Y977D01*
X203Y977D02*
X264Y977D01*
X303Y977D02*
X364Y977D01*
X103Y976D02*
X164Y976D01*
X203Y976D02*
X264Y976D01*
X303Y976D02*
X364Y976D01*
X103Y975D02*
X164Y975D01*
X203Y975D02*
X264Y975D01*
X303Y975D02*
X364Y975D01*
X103Y974D02*
X164Y974D01*
X203Y974D02*
X264Y974D01*
X303Y974D02*
X364Y974D01*
X103Y973D02*
X164Y973D01*
X203Y973D02*
X264Y973D01*
X303Y973D02*
X364Y973D01*
X103Y972D02*
X164Y972D01*
X203Y972D02*
X264Y972D01*
X303Y972D02*
X364Y972D01*
X103Y971D02*
X164Y971D01*
X203Y971D02*
X264Y971D01*
X303Y971D02*
X364Y971D01*
X103Y970D02*
X164Y970D01*
X203Y970D02*
X264Y970D01*
X303Y970D02*
X364Y970D01*
X103Y969D02*
X164Y969D01*
X203Y969D02*
X264Y969D01*
X303Y969D02*
X364Y969D01*
X103Y968D02*
X164Y968D01*
X203Y968D02*
X264Y968D01*
X303Y968D02*
X364Y968D01*
X103Y967D02*
X164Y967D01*
X203Y967D02*
X264Y967D01*
X303Y967D02*
X364Y967D01*
X103Y966D02*
X164Y966D01*
X203Y966D02*
X264Y966D01*
X303Y966D02*
X364Y966D01*
X103Y965D02*
X164Y965D01*
X203Y965D02*
X264Y965D01*
X303Y965D02*
X364Y965D01*
X103Y964D02*
X164Y964D01*
X203Y964D02*
X264Y964D01*
X303Y964D02*
X364Y964D01*
X103Y963D02*
X164Y963D01*
X203Y963D02*
X264Y963D01*
X303Y963D02*
X364Y963D01*
X104Y962D02*
X164Y962D01*
X204Y962D02*
X264Y962D01*
X304Y962D02*
X364Y962D01*
X104Y961D02*
X164Y961D01*
X204Y961D02*
X264Y961D01*
X304Y961D02*
X364Y961D01*
X104Y960D02*
X164Y960D01*
X204Y960D02*
X264Y960D01*
X304Y960D02*
X364Y960D01*
X104Y959D02*
X163Y959D01*
X204Y959D02*
X263Y959D01*
X304Y959D02*
X363Y959D01*
X104Y958D02*
X163Y958D01*
X204Y958D02*
X263Y958D01*
X304Y958D02*
X363Y958D01*
X105Y957D02*
X163Y957D01*
X205Y957D02*
X263Y957D01*
X305Y957D02*
X363Y957D01*
X105Y956D02*
X163Y956D01*
X205Y956D02*
X263Y956D01*
X305Y956D02*
X363Y956D01*
X105Y955D02*
X162Y955D01*
X205Y955D02*
X262Y955D01*
X305Y955D02*
X362Y955D01*
X106Y954D02*
X162Y954D01*
X206Y954D02*
X262Y954D01*
X306Y954D02*
X362Y954D01*
X106Y953D02*
X161Y953D01*
X206Y953D02*
X261Y953D01*
X306Y953D02*
X361Y953D01*
X107Y952D02*
X161Y952D01*
X207Y952D02*
X261Y952D01*
X307Y952D02*
X361Y952D01*
X107Y951D02*
X160Y951D01*
X207Y951D02*
X260Y951D01*
X307Y951D02*
X360Y951D01*
X108Y950D02*
X160Y950D01*
X208Y950D02*
X260Y950D01*
X308Y950D02*
X360Y950D01*
X108Y949D02*
X159Y949D01*
X208Y949D02*
X259Y949D01*
X308Y949D02*
X359Y949D01*
X109Y948D02*
X159Y948D01*
X209Y948D02*
X259Y948D01*
X309Y948D02*
X359Y948D01*
X110Y947D02*
X158Y947D01*
X210Y947D02*
X258Y947D01*
X310Y947D02*
X358Y947D01*
X110Y946D02*
X157Y946D01*
X210Y946D02*
X257Y946D01*
X310Y946D02*
X357Y946D01*
X111Y945D02*
X156Y945D01*
X211Y945D02*
X256Y945D01*
X311Y945D02*
X356Y945D01*
X112Y944D02*
X155Y944D01*
X212Y944D02*
X255Y944D01*
X312Y944D02*
X355Y944D01*
X113Y943D02*
X154Y943D01*
X213Y943D02*
X254Y943D01*
X313Y943D02*
X354Y943D01*
X114Y942D02*
X153Y942D01*
X214Y942D02*
X253Y942D01*
X314Y942D02*
X353Y942D01*
X116Y941D02*
X152Y941D01*
X216Y941D02*
X252Y941D01*
X316Y941D02*
X352Y941D01*
X117Y940D02*
X150Y940D01*
X217Y940D02*
X250Y940D01*
X317Y940D02*
X350Y940D01*
X119Y939D02*
X149Y939D01*
X219Y939D02*
X249Y939D01*
X319Y939D02*
X349Y939D01*
X121Y938D02*
X147Y938D01*
X221Y938D02*
X247Y938D01*
X321Y938D02*
X347Y938D01*
X123Y937D02*
X145Y937D01*
X223Y937D02*
X245Y937D01*
X323Y937D02*
X345Y937D01*
X126Y936D02*
X142Y936D01*
X226Y936D02*
X242Y936D01*
X326Y936D02*
X342Y936D01*
X130Y935D02*
X137Y935D01*
X230Y935D02*
X237Y935D01*
X330Y935D02*
X337Y935D01*
D02*
G04 End of Mask1*
M02*