; NON-PLATED HOLES START AT T1
; THROUGH (PLATED) HOLES START AT T100
M48
INCH
T100C0.032000
T101C0.035000
T102C0.031496
T103C0.038000
%
T100
X001343Y009905
X001343Y012905
X003343Y012905
X003343Y009905
X002343Y009905
X002343Y012905
T101
X005343Y009905
X011343Y006905
X005343Y013905
X012343Y006905
X008343Y007905
X005343Y008905
X008343Y009905
X008343Y010905
X012343Y010905
X008343Y005905
X008343Y008905
X005343Y003905
X005343Y001905
X001343Y001905
X008343Y006905
X005343Y004905
X012343Y002905
X005343Y005905
X005343Y007905
X009343Y013905
X008343Y003905
X005343Y002905
X011343Y002905
X006343Y012905
X005343Y010905
X008343Y002905
X010343Y006905
X010343Y011905
X012343Y014905
X008343Y004905
X010343Y012905
X005343Y006905
T102
X005343Y002905
X008343Y002905
X010343Y006905
X010343Y011905
T103
X002343Y004905
X009343Y004905
X002343Y005905
X011343Y010905
X011343Y009905
X011343Y013905
X010343Y013905
X002343Y003905
X011343Y008905
X002343Y006905
X009343Y003905
X009343Y006905
X009343Y005905
T00
M30
