G04 MADE WITH FRITZING*
G04 WWW.FRITZING.ORG*
G04 DOUBLE SIDED*
G04 HOLES PLATED*
G04 CONTOUR ON CENTER OF CONTOUR VECTOR*
%ASAXBY*%
%FSLAX23Y23*%
%MOIN*%
%OFA0B0*%
%SFA1.0B1.0*%
%ADD10C,0.075000*%
%ADD11C,0.078000*%
%ADD12C,0.052000*%
%ADD13C,0.078740*%
%ADD14R,0.075000X0.075000*%
%ADD15C,0.048000*%
%ADD16C,0.024000*%
%ADD17R,0.001000X0.001000*%
%LNCOPPER0*%
G90*
G70*
G54D10*
X1034Y1191D03*
X1034Y691D03*
X534Y291D03*
X834Y291D03*
G54D11*
X1134Y891D03*
X1134Y991D03*
X1134Y1091D03*
X934Y391D03*
X934Y491D03*
X934Y591D03*
X934Y691D03*
X234Y391D03*
X234Y491D03*
X234Y591D03*
X234Y691D03*
G54D10*
X1234Y1091D03*
X1234Y1491D03*
X1234Y691D03*
X1234Y291D03*
X1134Y691D03*
X1134Y291D03*
G54D12*
X134Y991D03*
X234Y991D03*
X234Y1291D03*
X134Y1291D03*
X234Y991D03*
X334Y991D03*
X334Y1291D03*
X234Y1291D03*
G54D10*
X534Y1391D03*
X934Y1391D03*
X634Y1291D03*
X1034Y1291D03*
X134Y191D03*
X534Y191D03*
G54D11*
X1034Y1391D03*
X1134Y1391D03*
G54D13*
X834Y291D03*
X534Y291D03*
X1034Y1191D03*
X1034Y691D03*
G54D10*
X534Y1091D03*
X834Y1091D03*
X534Y991D03*
X834Y991D03*
X534Y891D03*
X834Y891D03*
X534Y791D03*
X834Y791D03*
X534Y691D03*
X834Y691D03*
X534Y591D03*
X834Y591D03*
X534Y491D03*
X834Y491D03*
X534Y391D03*
X834Y391D03*
G54D14*
X534Y1091D03*
G54D15*
X533Y292D02*
X534Y351D01*
D02*
X534Y230D02*
X533Y292D01*
D02*
X434Y991D02*
X495Y991D01*
D02*
X434Y1091D02*
X434Y991D01*
D02*
X233Y1091D02*
X434Y1091D01*
D02*
X234Y1029D02*
X233Y1091D01*
D02*
X635Y991D02*
X574Y991D01*
D02*
X634Y1251D02*
X635Y991D01*
D02*
X1135Y1489D02*
X1135Y1432D01*
D02*
X1195Y1490D02*
X1135Y1489D01*
D02*
X893Y591D02*
X874Y591D01*
D02*
X1035Y290D02*
X1034Y653D01*
D02*
X872Y290D02*
X1035Y290D01*
D02*
X834Y1489D02*
X1135Y1489D01*
D02*
X1135Y1489D02*
X1135Y1432D01*
D02*
X834Y1130D02*
X834Y1489D01*
D02*
X333Y891D02*
X434Y890D01*
D02*
X434Y890D02*
X495Y890D01*
D02*
X334Y952D02*
X333Y891D01*
D02*
X1034Y1251D02*
X1034Y1228D01*
G54D16*
D02*
X1164Y1091D02*
X1206Y1091D01*
D02*
X207Y1291D02*
X161Y1291D01*
G54D15*
D02*
X296Y1291D02*
X273Y1291D01*
D02*
X134Y1029D02*
X134Y1091D01*
D02*
X134Y1091D02*
X136Y1191D01*
D02*
X136Y1191D02*
X534Y1191D01*
D02*
X534Y1191D02*
X534Y1130D01*
D02*
X634Y89D02*
X434Y89D01*
D02*
X434Y89D02*
X233Y89D01*
D02*
X634Y490D02*
X634Y89D01*
D02*
X233Y89D02*
X234Y349D01*
D02*
X574Y490D02*
X634Y490D01*
D02*
X136Y891D02*
X134Y230D01*
D02*
X495Y891D02*
X136Y891D01*
D02*
X1235Y991D02*
X1234Y730D01*
D02*
X1176Y991D02*
X1235Y991D01*
D02*
X834Y1130D02*
X834Y1489D01*
D02*
X834Y1489D02*
X333Y1489D01*
D02*
X333Y1489D02*
X334Y1329D01*
D02*
X333Y691D02*
X333Y590D01*
D02*
X333Y590D02*
X276Y590D01*
D02*
X495Y691D02*
X333Y691D01*
D02*
X874Y890D02*
X1035Y890D01*
D02*
X1035Y890D02*
X1035Y991D01*
D02*
X1035Y991D02*
X1093Y991D01*
D02*
X893Y391D02*
X874Y391D01*
D02*
X1135Y251D02*
X1135Y190D01*
D02*
X1135Y190D02*
X734Y190D01*
D02*
X734Y190D02*
X734Y1091D01*
D02*
X734Y1091D02*
X795Y1091D01*
D02*
X874Y791D02*
X1035Y790D01*
D02*
X1035Y790D02*
X1135Y791D01*
D02*
X1135Y791D02*
X1135Y730D01*
D02*
X935Y991D02*
X874Y991D01*
D02*
X935Y1091D02*
X935Y991D01*
D02*
X1093Y1091D02*
X935Y1091D01*
D02*
X495Y791D02*
X233Y791D01*
D02*
X233Y791D02*
X234Y732D01*
D02*
X1034Y1330D02*
X1034Y1349D01*
D02*
X993Y1391D02*
X974Y1391D01*
D02*
X893Y491D02*
X874Y491D01*
D02*
X893Y691D02*
X874Y691D01*
D02*
X534Y1351D02*
X534Y1130D01*
D02*
X196Y1291D02*
X173Y1291D01*
D02*
X1134Y730D02*
X1134Y790D01*
D02*
X1134Y790D02*
X1134Y849D01*
D02*
X1174Y291D02*
X1195Y291D01*
D02*
X435Y491D02*
X276Y491D01*
D02*
X434Y589D02*
X435Y491D01*
D02*
X511Y590D02*
X434Y589D01*
G54D17*
X129Y1343D02*
X139Y1343D01*
X229Y1343D02*
X239Y1343D01*
X329Y1343D02*
X339Y1343D01*
X125Y1342D02*
X142Y1342D01*
X225Y1342D02*
X242Y1342D01*
X325Y1342D02*
X342Y1342D01*
X123Y1341D02*
X144Y1341D01*
X223Y1341D02*
X244Y1341D01*
X323Y1341D02*
X344Y1341D01*
X121Y1340D02*
X146Y1340D01*
X221Y1340D02*
X246Y1340D01*
X321Y1340D02*
X346Y1340D01*
X120Y1339D02*
X148Y1339D01*
X220Y1339D02*
X248Y1339D01*
X320Y1339D02*
X348Y1339D01*
X118Y1338D02*
X149Y1338D01*
X218Y1338D02*
X249Y1338D01*
X318Y1338D02*
X349Y1338D01*
X117Y1337D02*
X150Y1337D01*
X217Y1337D02*
X250Y1337D01*
X317Y1337D02*
X350Y1337D01*
X116Y1336D02*
X152Y1336D01*
X216Y1336D02*
X252Y1336D01*
X316Y1336D02*
X352Y1336D01*
X115Y1335D02*
X152Y1335D01*
X215Y1335D02*
X252Y1335D01*
X315Y1335D02*
X352Y1335D01*
X114Y1334D02*
X153Y1334D01*
X214Y1334D02*
X253Y1334D01*
X314Y1334D02*
X353Y1334D01*
X113Y1333D02*
X154Y1333D01*
X213Y1333D02*
X254Y1333D01*
X313Y1333D02*
X354Y1333D01*
X113Y1332D02*
X155Y1332D01*
X213Y1332D02*
X255Y1332D01*
X313Y1332D02*
X355Y1332D01*
X112Y1331D02*
X155Y1331D01*
X212Y1331D02*
X255Y1331D01*
X312Y1331D02*
X355Y1331D01*
X112Y1330D02*
X156Y1330D01*
X212Y1330D02*
X256Y1330D01*
X312Y1330D02*
X356Y1330D01*
X111Y1329D02*
X157Y1329D01*
X211Y1329D02*
X257Y1329D01*
X311Y1329D02*
X356Y1329D01*
X110Y1328D02*
X157Y1328D01*
X210Y1328D02*
X257Y1328D01*
X310Y1328D02*
X357Y1328D01*
X110Y1327D02*
X157Y1327D01*
X210Y1327D02*
X257Y1327D01*
X310Y1327D02*
X357Y1327D01*
X110Y1326D02*
X158Y1326D01*
X210Y1326D02*
X258Y1326D01*
X310Y1326D02*
X358Y1326D01*
X109Y1325D02*
X158Y1325D01*
X209Y1325D02*
X258Y1325D01*
X309Y1325D02*
X358Y1325D01*
X109Y1324D02*
X158Y1324D01*
X209Y1324D02*
X258Y1324D01*
X309Y1324D02*
X358Y1324D01*
X109Y1323D02*
X159Y1323D01*
X209Y1323D02*
X259Y1323D01*
X309Y1323D02*
X359Y1323D01*
X109Y1322D02*
X159Y1322D01*
X209Y1322D02*
X259Y1322D01*
X309Y1322D02*
X359Y1322D01*
X109Y1321D02*
X159Y1321D01*
X209Y1321D02*
X259Y1321D01*
X309Y1321D02*
X359Y1321D01*
X108Y1320D02*
X159Y1320D01*
X208Y1320D02*
X259Y1320D01*
X308Y1320D02*
X359Y1320D01*
X108Y1319D02*
X159Y1319D01*
X208Y1319D02*
X259Y1319D01*
X308Y1319D02*
X359Y1319D01*
X108Y1318D02*
X159Y1318D01*
X208Y1318D02*
X259Y1318D01*
X308Y1318D02*
X359Y1318D01*
X108Y1317D02*
X159Y1317D01*
X208Y1317D02*
X259Y1317D01*
X308Y1317D02*
X359Y1317D01*
X108Y1316D02*
X159Y1316D01*
X208Y1316D02*
X259Y1316D01*
X308Y1316D02*
X359Y1316D01*
X108Y1315D02*
X159Y1315D01*
X208Y1315D02*
X259Y1315D01*
X308Y1315D02*
X359Y1315D01*
X108Y1314D02*
X159Y1314D01*
X208Y1314D02*
X259Y1314D01*
X308Y1314D02*
X359Y1314D01*
X108Y1313D02*
X159Y1313D01*
X208Y1313D02*
X259Y1313D01*
X308Y1313D02*
X359Y1313D01*
X108Y1312D02*
X159Y1312D01*
X208Y1312D02*
X259Y1312D01*
X308Y1312D02*
X359Y1312D01*
X108Y1311D02*
X159Y1311D01*
X208Y1311D02*
X259Y1311D01*
X308Y1311D02*
X359Y1311D01*
X108Y1310D02*
X159Y1310D01*
X208Y1310D02*
X259Y1310D01*
X308Y1310D02*
X359Y1310D01*
X108Y1309D02*
X159Y1309D01*
X208Y1309D02*
X259Y1309D01*
X308Y1309D02*
X359Y1309D01*
X108Y1308D02*
X159Y1308D01*
X208Y1308D02*
X259Y1308D01*
X308Y1308D02*
X359Y1308D01*
X108Y1307D02*
X129Y1307D01*
X138Y1307D02*
X159Y1307D01*
X208Y1307D02*
X229Y1307D01*
X238Y1307D02*
X259Y1307D01*
X308Y1307D02*
X329Y1307D01*
X338Y1307D02*
X359Y1307D01*
X108Y1306D02*
X126Y1306D01*
X141Y1306D02*
X159Y1306D01*
X208Y1306D02*
X226Y1306D01*
X241Y1306D02*
X259Y1306D01*
X308Y1306D02*
X326Y1306D01*
X341Y1306D02*
X359Y1306D01*
X108Y1305D02*
X125Y1305D01*
X143Y1305D02*
X159Y1305D01*
X208Y1305D02*
X225Y1305D01*
X243Y1305D02*
X259Y1305D01*
X308Y1305D02*
X325Y1305D01*
X343Y1305D02*
X359Y1305D01*
X108Y1304D02*
X123Y1304D01*
X144Y1304D02*
X159Y1304D01*
X208Y1304D02*
X223Y1304D01*
X244Y1304D02*
X259Y1304D01*
X308Y1304D02*
X323Y1304D01*
X344Y1304D02*
X359Y1304D01*
X108Y1303D02*
X122Y1303D01*
X145Y1303D02*
X159Y1303D01*
X208Y1303D02*
X222Y1303D01*
X245Y1303D02*
X259Y1303D01*
X308Y1303D02*
X322Y1303D01*
X345Y1303D02*
X359Y1303D01*
X108Y1302D02*
X121Y1302D01*
X146Y1302D02*
X159Y1302D01*
X208Y1302D02*
X221Y1302D01*
X246Y1302D02*
X259Y1302D01*
X308Y1302D02*
X321Y1302D01*
X346Y1302D02*
X359Y1302D01*
X108Y1301D02*
X120Y1301D01*
X147Y1301D02*
X159Y1301D01*
X208Y1301D02*
X220Y1301D01*
X247Y1301D02*
X259Y1301D01*
X308Y1301D02*
X320Y1301D01*
X347Y1301D02*
X359Y1301D01*
X108Y1300D02*
X120Y1300D01*
X148Y1300D02*
X159Y1300D01*
X208Y1300D02*
X220Y1300D01*
X248Y1300D02*
X259Y1300D01*
X308Y1300D02*
X320Y1300D01*
X348Y1300D02*
X359Y1300D01*
X108Y1299D02*
X119Y1299D01*
X148Y1299D02*
X159Y1299D01*
X208Y1299D02*
X219Y1299D01*
X248Y1299D02*
X259Y1299D01*
X308Y1299D02*
X319Y1299D01*
X348Y1299D02*
X359Y1299D01*
X108Y1298D02*
X119Y1298D01*
X149Y1298D02*
X159Y1298D01*
X208Y1298D02*
X219Y1298D01*
X249Y1298D02*
X259Y1298D01*
X308Y1298D02*
X319Y1298D01*
X349Y1298D02*
X359Y1298D01*
X108Y1297D02*
X118Y1297D01*
X149Y1297D02*
X159Y1297D01*
X208Y1297D02*
X218Y1297D01*
X249Y1297D02*
X259Y1297D01*
X308Y1297D02*
X318Y1297D01*
X349Y1297D02*
X359Y1297D01*
X108Y1296D02*
X118Y1296D01*
X150Y1296D02*
X159Y1296D01*
X208Y1296D02*
X218Y1296D01*
X250Y1296D02*
X259Y1296D01*
X308Y1296D02*
X318Y1296D01*
X350Y1296D02*
X359Y1296D01*
X108Y1295D02*
X118Y1295D01*
X150Y1295D02*
X159Y1295D01*
X208Y1295D02*
X218Y1295D01*
X250Y1295D02*
X259Y1295D01*
X308Y1295D02*
X318Y1295D01*
X350Y1295D02*
X359Y1295D01*
X108Y1294D02*
X118Y1294D01*
X150Y1294D02*
X159Y1294D01*
X208Y1294D02*
X218Y1294D01*
X250Y1294D02*
X259Y1294D01*
X308Y1294D02*
X317Y1294D01*
X350Y1294D02*
X359Y1294D01*
X108Y1293D02*
X117Y1293D01*
X150Y1293D02*
X159Y1293D01*
X208Y1293D02*
X217Y1293D01*
X250Y1293D02*
X259Y1293D01*
X308Y1293D02*
X317Y1293D01*
X350Y1293D02*
X359Y1293D01*
X108Y1292D02*
X117Y1292D01*
X150Y1292D02*
X159Y1292D01*
X208Y1292D02*
X217Y1292D01*
X250Y1292D02*
X259Y1292D01*
X308Y1292D02*
X317Y1292D01*
X350Y1292D02*
X359Y1292D01*
X108Y1291D02*
X117Y1291D01*
X150Y1291D02*
X159Y1291D01*
X208Y1291D02*
X217Y1291D01*
X250Y1291D02*
X259Y1291D01*
X308Y1291D02*
X317Y1291D01*
X350Y1291D02*
X359Y1291D01*
X108Y1290D02*
X117Y1290D01*
X150Y1290D02*
X159Y1290D01*
X208Y1290D02*
X217Y1290D01*
X250Y1290D02*
X259Y1290D01*
X308Y1290D02*
X317Y1290D01*
X350Y1290D02*
X359Y1290D01*
X108Y1289D02*
X118Y1289D01*
X150Y1289D02*
X159Y1289D01*
X208Y1289D02*
X218Y1289D01*
X250Y1289D02*
X259Y1289D01*
X308Y1289D02*
X318Y1289D01*
X350Y1289D02*
X359Y1289D01*
X108Y1288D02*
X118Y1288D01*
X150Y1288D02*
X159Y1288D01*
X208Y1288D02*
X218Y1288D01*
X250Y1288D02*
X259Y1288D01*
X308Y1288D02*
X318Y1288D01*
X350Y1288D02*
X359Y1288D01*
X108Y1287D02*
X118Y1287D01*
X150Y1287D02*
X159Y1287D01*
X208Y1287D02*
X218Y1287D01*
X250Y1287D02*
X259Y1287D01*
X308Y1287D02*
X318Y1287D01*
X349Y1287D02*
X359Y1287D01*
X108Y1286D02*
X118Y1286D01*
X149Y1286D02*
X159Y1286D01*
X208Y1286D02*
X218Y1286D01*
X249Y1286D02*
X259Y1286D01*
X308Y1286D02*
X318Y1286D01*
X349Y1286D02*
X359Y1286D01*
X108Y1285D02*
X119Y1285D01*
X149Y1285D02*
X159Y1285D01*
X208Y1285D02*
X219Y1285D01*
X249Y1285D02*
X259Y1285D01*
X308Y1285D02*
X319Y1285D01*
X349Y1285D02*
X359Y1285D01*
X108Y1284D02*
X119Y1284D01*
X148Y1284D02*
X159Y1284D01*
X208Y1284D02*
X219Y1284D01*
X248Y1284D02*
X259Y1284D01*
X308Y1284D02*
X319Y1284D01*
X348Y1284D02*
X359Y1284D01*
X108Y1283D02*
X120Y1283D01*
X148Y1283D02*
X159Y1283D01*
X208Y1283D02*
X220Y1283D01*
X248Y1283D02*
X259Y1283D01*
X308Y1283D02*
X320Y1283D01*
X348Y1283D02*
X359Y1283D01*
X108Y1282D02*
X121Y1282D01*
X147Y1282D02*
X159Y1282D01*
X208Y1282D02*
X221Y1282D01*
X247Y1282D02*
X259Y1282D01*
X308Y1282D02*
X321Y1282D01*
X347Y1282D02*
X359Y1282D01*
X108Y1281D02*
X121Y1281D01*
X146Y1281D02*
X159Y1281D01*
X208Y1281D02*
X221Y1281D01*
X246Y1281D02*
X259Y1281D01*
X308Y1281D02*
X321Y1281D01*
X346Y1281D02*
X359Y1281D01*
X108Y1280D02*
X122Y1280D01*
X145Y1280D02*
X159Y1280D01*
X208Y1280D02*
X222Y1280D01*
X245Y1280D02*
X259Y1280D01*
X308Y1280D02*
X322Y1280D01*
X345Y1280D02*
X359Y1280D01*
X108Y1279D02*
X124Y1279D01*
X144Y1279D02*
X159Y1279D01*
X208Y1279D02*
X223Y1279D01*
X244Y1279D02*
X259Y1279D01*
X308Y1279D02*
X323Y1279D01*
X344Y1279D02*
X359Y1279D01*
X108Y1278D02*
X125Y1278D01*
X143Y1278D02*
X159Y1278D01*
X208Y1278D02*
X225Y1278D01*
X243Y1278D02*
X259Y1278D01*
X308Y1278D02*
X325Y1278D01*
X343Y1278D02*
X359Y1278D01*
X108Y1277D02*
X127Y1277D01*
X141Y1277D02*
X159Y1277D01*
X208Y1277D02*
X227Y1277D01*
X241Y1277D02*
X259Y1277D01*
X308Y1277D02*
X327Y1277D01*
X341Y1277D02*
X359Y1277D01*
X108Y1276D02*
X130Y1276D01*
X138Y1276D02*
X159Y1276D01*
X208Y1276D02*
X230Y1276D01*
X238Y1276D02*
X259Y1276D01*
X308Y1276D02*
X330Y1276D01*
X338Y1276D02*
X359Y1276D01*
X108Y1275D02*
X159Y1275D01*
X208Y1275D02*
X259Y1275D01*
X308Y1275D02*
X359Y1275D01*
X108Y1274D02*
X159Y1274D01*
X208Y1274D02*
X259Y1274D01*
X308Y1274D02*
X359Y1274D01*
X108Y1273D02*
X159Y1273D01*
X208Y1273D02*
X259Y1273D01*
X308Y1273D02*
X359Y1273D01*
X108Y1272D02*
X159Y1272D01*
X208Y1272D02*
X259Y1272D01*
X308Y1272D02*
X359Y1272D01*
X108Y1271D02*
X159Y1271D01*
X208Y1271D02*
X259Y1271D01*
X308Y1271D02*
X359Y1271D01*
X108Y1270D02*
X159Y1270D01*
X208Y1270D02*
X259Y1270D01*
X308Y1270D02*
X359Y1270D01*
X108Y1269D02*
X159Y1269D01*
X208Y1269D02*
X259Y1269D01*
X308Y1269D02*
X359Y1269D01*
X108Y1268D02*
X159Y1268D01*
X208Y1268D02*
X259Y1268D01*
X308Y1268D02*
X359Y1268D01*
X108Y1267D02*
X159Y1267D01*
X208Y1267D02*
X259Y1267D01*
X308Y1267D02*
X359Y1267D01*
X108Y1266D02*
X159Y1266D01*
X208Y1266D02*
X259Y1266D01*
X308Y1266D02*
X359Y1266D01*
X108Y1265D02*
X159Y1265D01*
X208Y1265D02*
X259Y1265D01*
X308Y1265D02*
X359Y1265D01*
X108Y1264D02*
X159Y1264D01*
X208Y1264D02*
X259Y1264D01*
X308Y1264D02*
X359Y1264D01*
X108Y1263D02*
X159Y1263D01*
X208Y1263D02*
X259Y1263D01*
X308Y1263D02*
X359Y1263D01*
X109Y1262D02*
X159Y1262D01*
X209Y1262D02*
X259Y1262D01*
X309Y1262D02*
X359Y1262D01*
X109Y1261D02*
X159Y1261D01*
X209Y1261D02*
X259Y1261D01*
X309Y1261D02*
X359Y1261D01*
X109Y1260D02*
X159Y1260D01*
X209Y1260D02*
X259Y1260D01*
X309Y1260D02*
X359Y1260D01*
X109Y1259D02*
X158Y1259D01*
X209Y1259D02*
X258Y1259D01*
X309Y1259D02*
X358Y1259D01*
X109Y1258D02*
X158Y1258D01*
X209Y1258D02*
X258Y1258D01*
X309Y1258D02*
X358Y1258D01*
X110Y1257D02*
X158Y1257D01*
X210Y1257D02*
X258Y1257D01*
X310Y1257D02*
X358Y1257D01*
X110Y1256D02*
X157Y1256D01*
X210Y1256D02*
X257Y1256D01*
X310Y1256D02*
X357Y1256D01*
X111Y1255D02*
X157Y1255D01*
X211Y1255D02*
X257Y1255D01*
X311Y1255D02*
X357Y1255D01*
X111Y1254D02*
X156Y1254D01*
X211Y1254D02*
X256Y1254D01*
X311Y1254D02*
X356Y1254D01*
X112Y1253D02*
X156Y1253D01*
X212Y1253D02*
X256Y1253D01*
X312Y1253D02*
X356Y1253D01*
X112Y1252D02*
X155Y1252D01*
X212Y1252D02*
X255Y1252D01*
X312Y1252D02*
X355Y1252D01*
X113Y1251D02*
X155Y1251D01*
X213Y1251D02*
X255Y1251D01*
X313Y1251D02*
X355Y1251D01*
X114Y1250D02*
X154Y1250D01*
X214Y1250D02*
X254Y1250D01*
X314Y1250D02*
X354Y1250D01*
X114Y1249D02*
X153Y1249D01*
X214Y1249D02*
X253Y1249D01*
X314Y1249D02*
X353Y1249D01*
X115Y1248D02*
X152Y1248D01*
X215Y1248D02*
X252Y1248D01*
X315Y1248D02*
X352Y1248D01*
X116Y1247D02*
X151Y1247D01*
X216Y1247D02*
X251Y1247D01*
X316Y1247D02*
X351Y1247D01*
X117Y1246D02*
X150Y1246D01*
X217Y1246D02*
X250Y1246D01*
X317Y1246D02*
X350Y1246D01*
X119Y1245D02*
X149Y1245D01*
X219Y1245D02*
X249Y1245D01*
X319Y1245D02*
X349Y1245D01*
X120Y1244D02*
X148Y1244D01*
X220Y1244D02*
X248Y1244D01*
X320Y1244D02*
X348Y1244D01*
X122Y1243D02*
X146Y1243D01*
X222Y1243D02*
X246Y1243D01*
X322Y1243D02*
X346Y1243D01*
X124Y1242D02*
X144Y1242D01*
X223Y1242D02*
X244Y1242D01*
X323Y1242D02*
X344Y1242D01*
X126Y1241D02*
X142Y1241D01*
X226Y1241D02*
X242Y1241D01*
X326Y1241D02*
X342Y1241D01*
X130Y1240D02*
X138Y1240D01*
X230Y1240D02*
X238Y1240D01*
X330Y1240D02*
X338Y1240D01*
X128Y1043D02*
X139Y1043D01*
X228Y1043D02*
X239Y1043D01*
X328Y1043D02*
X339Y1043D01*
X125Y1042D02*
X142Y1042D01*
X225Y1042D02*
X242Y1042D01*
X325Y1042D02*
X342Y1042D01*
X123Y1041D02*
X145Y1041D01*
X223Y1041D02*
X245Y1041D01*
X323Y1041D02*
X345Y1041D01*
X121Y1040D02*
X146Y1040D01*
X221Y1040D02*
X246Y1040D01*
X321Y1040D02*
X346Y1040D01*
X119Y1039D02*
X148Y1039D01*
X219Y1039D02*
X248Y1039D01*
X319Y1039D02*
X348Y1039D01*
X118Y1038D02*
X149Y1038D01*
X218Y1038D02*
X249Y1038D01*
X318Y1038D02*
X349Y1038D01*
X117Y1037D02*
X151Y1037D01*
X217Y1037D02*
X250Y1037D01*
X317Y1037D02*
X350Y1037D01*
X116Y1036D02*
X152Y1036D01*
X216Y1036D02*
X252Y1036D01*
X316Y1036D02*
X352Y1036D01*
X115Y1035D02*
X153Y1035D01*
X215Y1035D02*
X253Y1035D01*
X315Y1035D02*
X352Y1035D01*
X114Y1034D02*
X153Y1034D01*
X214Y1034D02*
X253Y1034D01*
X314Y1034D02*
X353Y1034D01*
X113Y1033D02*
X154Y1033D01*
X213Y1033D02*
X254Y1033D01*
X313Y1033D02*
X354Y1033D01*
X113Y1032D02*
X155Y1032D01*
X213Y1032D02*
X255Y1032D01*
X313Y1032D02*
X355Y1032D01*
X112Y1031D02*
X155Y1031D01*
X212Y1031D02*
X255Y1031D01*
X312Y1031D02*
X355Y1031D01*
X112Y1030D02*
X156Y1030D01*
X212Y1030D02*
X256Y1030D01*
X311Y1030D02*
X356Y1030D01*
X111Y1029D02*
X157Y1029D01*
X211Y1029D02*
X257Y1029D01*
X311Y1029D02*
X357Y1029D01*
X110Y1028D02*
X157Y1028D01*
X210Y1028D02*
X257Y1028D01*
X310Y1028D02*
X357Y1028D01*
X110Y1027D02*
X158Y1027D01*
X210Y1027D02*
X258Y1027D01*
X310Y1027D02*
X357Y1027D01*
X110Y1026D02*
X158Y1026D01*
X210Y1026D02*
X258Y1026D01*
X310Y1026D02*
X358Y1026D01*
X109Y1025D02*
X158Y1025D01*
X209Y1025D02*
X258Y1025D01*
X309Y1025D02*
X358Y1025D01*
X109Y1024D02*
X158Y1024D01*
X209Y1024D02*
X258Y1024D01*
X309Y1024D02*
X358Y1024D01*
X109Y1023D02*
X159Y1023D01*
X209Y1023D02*
X259Y1023D01*
X309Y1023D02*
X359Y1023D01*
X109Y1022D02*
X159Y1022D01*
X209Y1022D02*
X259Y1022D01*
X309Y1022D02*
X359Y1022D01*
X109Y1021D02*
X159Y1021D01*
X209Y1021D02*
X259Y1021D01*
X308Y1021D02*
X359Y1021D01*
X108Y1020D02*
X159Y1020D01*
X208Y1020D02*
X259Y1020D01*
X308Y1020D02*
X359Y1020D01*
X108Y1019D02*
X159Y1019D01*
X208Y1019D02*
X259Y1019D01*
X308Y1019D02*
X359Y1019D01*
X108Y1018D02*
X159Y1018D01*
X208Y1018D02*
X259Y1018D01*
X308Y1018D02*
X359Y1018D01*
X108Y1017D02*
X159Y1017D01*
X208Y1017D02*
X259Y1017D01*
X308Y1017D02*
X359Y1017D01*
X108Y1016D02*
X159Y1016D01*
X208Y1016D02*
X259Y1016D01*
X308Y1016D02*
X359Y1016D01*
X108Y1015D02*
X159Y1015D01*
X208Y1015D02*
X259Y1015D01*
X308Y1015D02*
X359Y1015D01*
X108Y1014D02*
X159Y1014D01*
X208Y1014D02*
X259Y1014D01*
X308Y1014D02*
X359Y1014D01*
X108Y1013D02*
X159Y1013D01*
X208Y1013D02*
X259Y1013D01*
X308Y1013D02*
X359Y1013D01*
X108Y1012D02*
X159Y1012D01*
X208Y1012D02*
X259Y1012D01*
X308Y1012D02*
X359Y1012D01*
X108Y1011D02*
X159Y1011D01*
X208Y1011D02*
X259Y1011D01*
X308Y1011D02*
X359Y1011D01*
X108Y1010D02*
X159Y1010D01*
X208Y1010D02*
X259Y1010D01*
X308Y1010D02*
X359Y1010D01*
X108Y1009D02*
X159Y1009D01*
X208Y1009D02*
X259Y1009D01*
X308Y1009D02*
X359Y1009D01*
X108Y1008D02*
X159Y1008D01*
X208Y1008D02*
X259Y1008D01*
X308Y1008D02*
X359Y1008D01*
X108Y1007D02*
X129Y1007D01*
X139Y1007D02*
X159Y1007D01*
X208Y1007D02*
X229Y1007D01*
X239Y1007D02*
X259Y1007D01*
X308Y1007D02*
X329Y1007D01*
X339Y1007D02*
X359Y1007D01*
X108Y1006D02*
X126Y1006D01*
X141Y1006D02*
X159Y1006D01*
X208Y1006D02*
X226Y1006D01*
X241Y1006D02*
X259Y1006D01*
X308Y1006D02*
X326Y1006D01*
X341Y1006D02*
X359Y1006D01*
X108Y1005D02*
X124Y1005D01*
X143Y1005D02*
X159Y1005D01*
X208Y1005D02*
X224Y1005D01*
X243Y1005D02*
X259Y1005D01*
X308Y1005D02*
X324Y1005D01*
X343Y1005D02*
X359Y1005D01*
X108Y1004D02*
X123Y1004D01*
X144Y1004D02*
X159Y1004D01*
X208Y1004D02*
X223Y1004D01*
X244Y1004D02*
X259Y1004D01*
X308Y1004D02*
X323Y1004D01*
X344Y1004D02*
X359Y1004D01*
X108Y1003D02*
X122Y1003D01*
X146Y1003D02*
X159Y1003D01*
X208Y1003D02*
X222Y1003D01*
X246Y1003D02*
X259Y1003D01*
X308Y1003D02*
X322Y1003D01*
X346Y1003D02*
X359Y1003D01*
X108Y1002D02*
X121Y1002D01*
X146Y1002D02*
X159Y1002D01*
X208Y1002D02*
X221Y1002D01*
X246Y1002D02*
X259Y1002D01*
X308Y1002D02*
X321Y1002D01*
X346Y1002D02*
X359Y1002D01*
X108Y1001D02*
X120Y1001D01*
X147Y1001D02*
X159Y1001D01*
X208Y1001D02*
X220Y1001D01*
X247Y1001D02*
X259Y1001D01*
X308Y1001D02*
X320Y1001D01*
X347Y1001D02*
X359Y1001D01*
X108Y1000D02*
X120Y1000D01*
X148Y1000D02*
X159Y1000D01*
X208Y1000D02*
X220Y1000D01*
X248Y1000D02*
X259Y1000D01*
X308Y1000D02*
X320Y1000D01*
X348Y1000D02*
X359Y1000D01*
X108Y999D02*
X119Y999D01*
X148Y999D02*
X159Y999D01*
X208Y999D02*
X219Y999D01*
X248Y999D02*
X259Y999D01*
X308Y999D02*
X319Y999D01*
X348Y999D02*
X359Y999D01*
X108Y998D02*
X119Y998D01*
X149Y998D02*
X159Y998D01*
X208Y998D02*
X219Y998D01*
X249Y998D02*
X259Y998D01*
X308Y998D02*
X319Y998D01*
X349Y998D02*
X359Y998D01*
X108Y997D02*
X118Y997D01*
X149Y997D02*
X159Y997D01*
X208Y997D02*
X218Y997D01*
X249Y997D02*
X259Y997D01*
X308Y997D02*
X318Y997D01*
X349Y997D02*
X359Y997D01*
X108Y996D02*
X118Y996D01*
X150Y996D02*
X159Y996D01*
X208Y996D02*
X218Y996D01*
X250Y996D02*
X259Y996D01*
X308Y996D02*
X318Y996D01*
X350Y996D02*
X359Y996D01*
X108Y995D02*
X118Y995D01*
X150Y995D02*
X159Y995D01*
X208Y995D02*
X218Y995D01*
X250Y995D02*
X259Y995D01*
X308Y995D02*
X318Y995D01*
X350Y995D02*
X359Y995D01*
X108Y994D02*
X118Y994D01*
X150Y994D02*
X159Y994D01*
X208Y994D02*
X218Y994D01*
X250Y994D02*
X259Y994D01*
X308Y994D02*
X317Y994D01*
X350Y994D02*
X359Y994D01*
X108Y993D02*
X117Y993D01*
X150Y993D02*
X159Y993D01*
X208Y993D02*
X217Y993D01*
X250Y993D02*
X259Y993D01*
X308Y993D02*
X317Y993D01*
X350Y993D02*
X359Y993D01*
X108Y992D02*
X117Y992D01*
X150Y992D02*
X159Y992D01*
X208Y992D02*
X217Y992D01*
X250Y992D02*
X259Y992D01*
X308Y992D02*
X317Y992D01*
X350Y992D02*
X359Y992D01*
X108Y991D02*
X117Y991D01*
X150Y991D02*
X159Y991D01*
X208Y991D02*
X217Y991D01*
X250Y991D02*
X259Y991D01*
X308Y991D02*
X317Y991D01*
X350Y991D02*
X359Y991D01*
X108Y990D02*
X117Y990D01*
X150Y990D02*
X159Y990D01*
X208Y990D02*
X217Y990D01*
X250Y990D02*
X259Y990D01*
X308Y990D02*
X317Y990D01*
X350Y990D02*
X359Y990D01*
X108Y989D02*
X118Y989D01*
X150Y989D02*
X159Y989D01*
X208Y989D02*
X218Y989D01*
X250Y989D02*
X259Y989D01*
X308Y989D02*
X318Y989D01*
X350Y989D02*
X359Y989D01*
X108Y988D02*
X118Y988D01*
X150Y988D02*
X159Y988D01*
X208Y988D02*
X218Y988D01*
X250Y988D02*
X259Y988D01*
X308Y988D02*
X318Y988D01*
X350Y988D02*
X359Y988D01*
X108Y987D02*
X118Y987D01*
X150Y987D02*
X159Y987D01*
X208Y987D02*
X218Y987D01*
X249Y987D02*
X259Y987D01*
X308Y987D02*
X318Y987D01*
X349Y987D02*
X359Y987D01*
X108Y986D02*
X118Y986D01*
X149Y986D02*
X159Y986D01*
X208Y986D02*
X218Y986D01*
X249Y986D02*
X259Y986D01*
X308Y986D02*
X318Y986D01*
X349Y986D02*
X359Y986D01*
X108Y985D02*
X119Y985D01*
X149Y985D02*
X159Y985D01*
X208Y985D02*
X219Y985D01*
X249Y985D02*
X259Y985D01*
X308Y985D02*
X319Y985D01*
X349Y985D02*
X359Y985D01*
X108Y984D02*
X119Y984D01*
X148Y984D02*
X159Y984D01*
X208Y984D02*
X219Y984D01*
X248Y984D02*
X259Y984D01*
X308Y984D02*
X319Y984D01*
X348Y984D02*
X359Y984D01*
X108Y983D02*
X120Y983D01*
X148Y983D02*
X159Y983D01*
X208Y983D02*
X220Y983D01*
X248Y983D02*
X259Y983D01*
X308Y983D02*
X320Y983D01*
X348Y983D02*
X359Y983D01*
X108Y982D02*
X121Y982D01*
X147Y982D02*
X159Y982D01*
X208Y982D02*
X221Y982D01*
X247Y982D02*
X259Y982D01*
X308Y982D02*
X321Y982D01*
X347Y982D02*
X359Y982D01*
X108Y981D02*
X121Y981D01*
X146Y981D02*
X159Y981D01*
X208Y981D02*
X221Y981D01*
X246Y981D02*
X259Y981D01*
X308Y981D02*
X321Y981D01*
X346Y981D02*
X359Y981D01*
X108Y980D02*
X122Y980D01*
X145Y980D02*
X159Y980D01*
X208Y980D02*
X222Y980D01*
X245Y980D02*
X259Y980D01*
X308Y980D02*
X322Y980D01*
X345Y980D02*
X359Y980D01*
X108Y979D02*
X124Y979D01*
X144Y979D02*
X159Y979D01*
X208Y979D02*
X224Y979D01*
X244Y979D02*
X259Y979D01*
X308Y979D02*
X324Y979D01*
X344Y979D02*
X359Y979D01*
X108Y978D02*
X125Y978D01*
X142Y978D02*
X159Y978D01*
X208Y978D02*
X225Y978D01*
X242Y978D02*
X259Y978D01*
X308Y978D02*
X325Y978D01*
X342Y978D02*
X359Y978D01*
X108Y977D02*
X127Y977D01*
X141Y977D02*
X159Y977D01*
X208Y977D02*
X227Y977D01*
X241Y977D02*
X259Y977D01*
X308Y977D02*
X327Y977D01*
X341Y977D02*
X359Y977D01*
X108Y976D02*
X130Y976D01*
X137Y976D02*
X159Y976D01*
X208Y976D02*
X230Y976D01*
X237Y976D02*
X259Y976D01*
X308Y976D02*
X330Y976D01*
X337Y976D02*
X359Y976D01*
X108Y975D02*
X159Y975D01*
X208Y975D02*
X259Y975D01*
X308Y975D02*
X359Y975D01*
X108Y974D02*
X159Y974D01*
X208Y974D02*
X259Y974D01*
X308Y974D02*
X359Y974D01*
X108Y973D02*
X159Y973D01*
X208Y973D02*
X259Y973D01*
X308Y973D02*
X359Y973D01*
X108Y972D02*
X159Y972D01*
X208Y972D02*
X259Y972D01*
X308Y972D02*
X359Y972D01*
X108Y971D02*
X159Y971D01*
X208Y971D02*
X259Y971D01*
X308Y971D02*
X359Y971D01*
X108Y970D02*
X159Y970D01*
X208Y970D02*
X259Y970D01*
X308Y970D02*
X359Y970D01*
X108Y969D02*
X159Y969D01*
X208Y969D02*
X259Y969D01*
X308Y969D02*
X359Y969D01*
X108Y968D02*
X159Y968D01*
X208Y968D02*
X259Y968D01*
X308Y968D02*
X359Y968D01*
X108Y967D02*
X159Y967D01*
X208Y967D02*
X259Y967D01*
X308Y967D02*
X359Y967D01*
X108Y966D02*
X159Y966D01*
X208Y966D02*
X259Y966D01*
X308Y966D02*
X359Y966D01*
X108Y965D02*
X159Y965D01*
X208Y965D02*
X259Y965D01*
X308Y965D02*
X359Y965D01*
X108Y964D02*
X159Y964D01*
X208Y964D02*
X259Y964D01*
X308Y964D02*
X359Y964D01*
X108Y963D02*
X159Y963D01*
X208Y963D02*
X259Y963D01*
X308Y963D02*
X359Y963D01*
X109Y962D02*
X159Y962D01*
X209Y962D02*
X259Y962D01*
X309Y962D02*
X359Y962D01*
X109Y961D02*
X159Y961D01*
X209Y961D02*
X259Y961D01*
X309Y961D02*
X359Y961D01*
X109Y960D02*
X159Y960D01*
X209Y960D02*
X259Y960D01*
X309Y960D02*
X359Y960D01*
X109Y959D02*
X158Y959D01*
X209Y959D02*
X258Y959D01*
X309Y959D02*
X358Y959D01*
X109Y958D02*
X158Y958D01*
X209Y958D02*
X258Y958D01*
X309Y958D02*
X358Y958D01*
X110Y957D02*
X158Y957D01*
X210Y957D02*
X258Y957D01*
X310Y957D02*
X358Y957D01*
X110Y956D02*
X157Y956D01*
X210Y956D02*
X257Y956D01*
X310Y956D02*
X357Y956D01*
X111Y955D02*
X157Y955D01*
X211Y955D02*
X257Y955D01*
X311Y955D02*
X357Y955D01*
X111Y954D02*
X156Y954D01*
X211Y954D02*
X256Y954D01*
X311Y954D02*
X356Y954D01*
X112Y953D02*
X156Y953D01*
X212Y953D02*
X256Y953D01*
X312Y953D02*
X356Y953D01*
X112Y952D02*
X155Y952D01*
X212Y952D02*
X255Y952D01*
X312Y952D02*
X355Y952D01*
X113Y951D02*
X155Y951D01*
X213Y951D02*
X255Y951D01*
X313Y951D02*
X355Y951D01*
X114Y950D02*
X154Y950D01*
X214Y950D02*
X254Y950D01*
X314Y950D02*
X354Y950D01*
X115Y949D02*
X153Y949D01*
X214Y949D02*
X253Y949D01*
X314Y949D02*
X353Y949D01*
X115Y948D02*
X152Y948D01*
X215Y948D02*
X252Y948D01*
X315Y948D02*
X352Y948D01*
X116Y947D02*
X151Y947D01*
X216Y947D02*
X251Y947D01*
X316Y947D02*
X351Y947D01*
X117Y946D02*
X150Y946D01*
X217Y946D02*
X250Y946D01*
X317Y946D02*
X350Y946D01*
X119Y945D02*
X149Y945D01*
X219Y945D02*
X249Y945D01*
X319Y945D02*
X349Y945D01*
X120Y944D02*
X148Y944D01*
X220Y944D02*
X248Y944D01*
X320Y944D02*
X348Y944D01*
X122Y943D02*
X146Y943D01*
X222Y943D02*
X246Y943D01*
X322Y943D02*
X346Y943D01*
X124Y942D02*
X144Y942D01*
X224Y942D02*
X244Y942D01*
X324Y942D02*
X344Y942D01*
X126Y941D02*
X141Y941D01*
X226Y941D02*
X241Y941D01*
X326Y941D02*
X341Y941D01*
X131Y940D02*
X137Y940D01*
X231Y940D02*
X237Y940D01*
X330Y940D02*
X337Y940D01*
D02*
G04 End of Copper0*
M02*