; NON-PLATED HOLES START AT T1
; THROUGH (PLATED) HOLES START AT T100
M48
INCH
T100C0.035000
T101C0.039370
T102C0.038000
%
T100
X005426Y007369
X003426Y010369
X008426Y007369
X005426Y004369
X008426Y002369
X005426Y002369
X008426Y008369
X008426Y003369
X005426Y005369
X005426Y006369
X008426Y006369
X008426Y005369
X008426Y001369
X005426Y001369
X008426Y004369
X004426Y008369
X005426Y008369
X005426Y010369
X002426Y008369
X005426Y003369
T101
X009426Y001369
X004426Y004369
X004426Y003369
X009426Y007369
X004426Y002369
X009426Y006369
X009426Y004369
X009426Y002369
X002426Y008369
X009426Y005369
X004426Y005369
X009426Y003369
X001426Y011369
X002426Y011369
X004426Y008369
T102
X006426Y009369
X007426Y009369
X002426Y006369
X004426Y009369
X002426Y007369
X002426Y009369
X002426Y005369
X008426Y009369
X003426Y009369
T00
M30
