G04 MADE WITH FRITZING*
G04 WWW.FRITZING.ORG*
G04 SINGLE SIDED*
G04 HOLES NOT PLATED*
G04 CONTOUR ON CENTER OF CONTOUR VECTOR*
%ASAXBY*%
%FSLAX23Y23*%
%MOIN*%
%OFA0B0*%
%SFA1.0B1.0*%
%ADD10C,0.075000*%
%ADD11C,0.078000*%
%ADD12C,0.078740*%
%ADD13R,0.075000X0.075000*%
%ADD14R,0.078000X0.078000*%
%ADD15C,0.048000*%
%ADD16C,0.024000*%
%ADD17C,0.020000*%
%LNCOPPER0*%
G90*
G70*
G54D10*
X843Y137D03*
X543Y137D03*
X843Y237D03*
X543Y237D03*
X843Y337D03*
X543Y337D03*
X843Y437D03*
X543Y437D03*
X843Y537D03*
X543Y537D03*
X843Y637D03*
X543Y637D03*
X843Y737D03*
X543Y737D03*
X843Y837D03*
X543Y837D03*
G54D11*
X843Y937D03*
X743Y937D03*
X643Y937D03*
X243Y737D03*
X243Y637D03*
X243Y537D03*
X443Y937D03*
X343Y937D03*
X243Y937D03*
G54D12*
X943Y237D03*
X443Y237D03*
X443Y337D03*
X943Y437D03*
X943Y137D03*
X943Y337D03*
X443Y537D03*
X243Y1137D03*
X943Y637D03*
X143Y1137D03*
X943Y537D03*
X443Y837D03*
X243Y837D03*
X443Y437D03*
X943Y737D03*
G54D10*
X243Y837D03*
X443Y837D03*
X343Y1037D03*
X543Y1037D03*
G54D13*
X843Y137D03*
G54D14*
X843Y937D03*
X243Y737D03*
G54D15*
X912Y337D02*
X871Y337D01*
D02*
X912Y237D02*
X871Y237D01*
G54D16*
D02*
X943Y437D02*
X843Y437D01*
G54D15*
D02*
X843Y907D02*
X843Y866D01*
D02*
X514Y637D02*
X273Y637D01*
D02*
X243Y767D02*
X243Y806D01*
D02*
X514Y237D02*
X473Y237D01*
D02*
X514Y137D02*
X143Y137D01*
D02*
X143Y137D02*
X143Y536D01*
D02*
X143Y536D02*
X213Y537D01*
G54D16*
D02*
X943Y737D02*
X843Y737D01*
G54D15*
D02*
X643Y1036D02*
X643Y967D01*
D02*
X571Y1037D02*
X643Y1036D01*
D02*
X514Y337D02*
X473Y337D01*
G54D16*
D02*
X443Y907D02*
X443Y868D01*
G54D15*
D02*
X912Y537D02*
X871Y537D01*
D02*
X943Y137D02*
X843Y137D01*
D02*
X213Y937D02*
X143Y938D01*
D02*
X143Y938D02*
X143Y1106D01*
D02*
X243Y967D02*
X244Y1036D01*
D02*
X244Y1036D02*
X314Y1037D01*
D02*
X743Y838D02*
X743Y938D01*
D02*
X571Y837D02*
X743Y838D01*
D02*
X743Y938D02*
X755Y964D01*
D02*
X543Y237D02*
X443Y237D01*
G54D16*
D02*
X943Y337D02*
X843Y337D01*
D02*
X543Y337D02*
X443Y337D01*
D02*
X843Y837D02*
X844Y838D01*
D02*
X844Y838D02*
X843Y907D01*
G54D15*
D02*
X844Y1136D02*
X273Y1137D01*
D02*
X843Y967D02*
X844Y1136D01*
G54D16*
D02*
X943Y237D02*
X843Y237D01*
G54D15*
D02*
X912Y637D02*
X871Y637D01*
D02*
X514Y437D02*
X473Y437D01*
G54D16*
D02*
X943Y537D02*
X843Y537D01*
G54D15*
D02*
X912Y137D02*
X871Y137D01*
D02*
X514Y537D02*
X473Y537D01*
D02*
X442Y1136D02*
X443Y866D01*
D02*
X273Y1137D02*
X442Y1136D01*
G54D16*
D02*
X543Y537D02*
X443Y537D01*
G54D15*
D02*
X912Y437D02*
X871Y437D01*
G54D16*
D02*
X543Y437D02*
X443Y437D01*
D02*
X442Y967D02*
X442Y1036D01*
D02*
X442Y1036D02*
X442Y1136D01*
D02*
X442Y1136D02*
X273Y1137D01*
G54D15*
D02*
X143Y536D02*
X143Y1106D01*
D02*
X213Y537D02*
X143Y536D01*
G54D16*
D02*
X943Y637D02*
X843Y637D01*
G54D15*
D02*
X442Y737D02*
X341Y737D01*
D02*
X341Y737D02*
X342Y907D01*
D02*
X514Y737D02*
X442Y737D01*
D02*
X912Y737D02*
X871Y737D01*
G54D16*
D02*
X543Y637D02*
X544Y639D01*
D02*
X544Y639D02*
X443Y639D01*
D02*
X443Y639D02*
X273Y637D01*
G54D17*
X472Y908D02*
X414Y908D01*
X414Y966D01*
X472Y966D01*
X472Y908D01*
D02*
G04 End of Copper0*
M02*