G04 MADE WITH FRITZING*
G04 WWW.FRITZING.ORG*
G04 SINGLE SIDED*
G04 HOLES NOT PLATED*
G04 CONTOUR ON CENTER OF CONTOUR VECTOR*
%ASAXBY*%
%FSLAX23Y23*%
%MOIN*%
%OFA0B0*%
%SFA1.0B1.0*%
%ADD10C,0.085000*%
%ADD11C,0.088000*%
%ADD12C,0.088740*%
%ADD13R,0.085000X0.085000*%
%ADD14R,0.088000X0.088000*%
%ADD15C,0.030000*%
%LNMASK0*%
G90*
G70*
G54D10*
X843Y137D03*
X543Y137D03*
X843Y237D03*
X543Y237D03*
X843Y337D03*
X543Y337D03*
X843Y437D03*
X543Y437D03*
X843Y537D03*
X543Y537D03*
X843Y637D03*
X543Y637D03*
X843Y737D03*
X543Y737D03*
X843Y837D03*
X543Y837D03*
G54D11*
X843Y937D03*
X743Y937D03*
X643Y937D03*
X243Y737D03*
X243Y637D03*
X243Y537D03*
X443Y937D03*
X343Y937D03*
X243Y937D03*
G54D12*
X943Y237D03*
X443Y237D03*
X443Y337D03*
X943Y437D03*
X943Y137D03*
X943Y337D03*
X443Y537D03*
X243Y1137D03*
X943Y637D03*
X143Y1137D03*
X943Y537D03*
X443Y837D03*
X243Y837D03*
X443Y437D03*
X943Y737D03*
G54D10*
X243Y837D03*
X443Y837D03*
X343Y1037D03*
X543Y1037D03*
G54D13*
X843Y137D03*
G54D14*
X843Y937D03*
X243Y737D03*
G54D15*
G36*
X472Y908D02*
X414Y908D01*
X414Y966D01*
X472Y966D01*
X472Y908D01*
G37*
D02*
G04 End of Mask0*
M02*