G04 MADE WITH FRITZING*
G04 WWW.FRITZING.ORG*
G04 DOUBLE SIDED*
G04 HOLES PLATED*
G04 CONTOUR ON CENTER OF CONTOUR VECTOR*
%ASAXBY*%
%FSLAX23Y23*%
%MOIN*%
%OFA0B0*%
%SFA1.0B1.0*%
%ADD10R,0.040000X0.015000*%
%ADD11C,0.010000*%
%ADD12C,0.005000*%
%ADD13C,0.008000*%
%ADD14R,0.001000X0.001000*%
%LNSILK1*%
G90*
G70*
G54D10*
X218Y1130D03*
X218Y1105D03*
X218Y1080D03*
X118Y1130D03*
X118Y1105D03*
X118Y1080D03*
X318Y1130D03*
X318Y1105D03*
X318Y1080D03*
X218Y1130D03*
X218Y1105D03*
X218Y1080D03*
G54D11*
X1168Y838D02*
X1168Y1138D01*
D02*
X1168Y1138D02*
X1068Y1138D01*
D02*
X1068Y1138D02*
X1068Y838D01*
D02*
X1068Y838D02*
X1168Y838D01*
D02*
X968Y338D02*
X968Y738D01*
D02*
X968Y738D02*
X868Y738D01*
D02*
X868Y738D02*
X868Y338D01*
D02*
X868Y338D02*
X968Y338D01*
G54D12*
D02*
X968Y373D02*
X933Y338D01*
G54D11*
D02*
X268Y338D02*
X268Y738D01*
D02*
X268Y738D02*
X168Y738D01*
D02*
X168Y738D02*
X168Y338D01*
D02*
X168Y338D02*
X268Y338D01*
D02*
X1185Y1197D02*
X1185Y1397D01*
D02*
X1185Y1397D02*
X1251Y1397D01*
D02*
X1251Y1397D02*
X1251Y1197D01*
D02*
X1251Y1197D02*
X1185Y1197D01*
D02*
X1251Y578D02*
X1251Y378D01*
D02*
X1251Y378D02*
X1185Y378D01*
D02*
X1185Y378D02*
X1185Y578D01*
D02*
X1185Y578D02*
X1251Y578D01*
D02*
X1151Y578D02*
X1151Y378D01*
D02*
X1151Y378D02*
X1085Y378D01*
D02*
X1085Y378D02*
X1085Y578D01*
D02*
X1085Y578D02*
X1151Y578D01*
G54D13*
D02*
X38Y1333D02*
X38Y1203D01*
D02*
X38Y1073D02*
X58Y1073D01*
D02*
X58Y1073D02*
X58Y1203D01*
D02*
X58Y1203D02*
X38Y1203D01*
D02*
X38Y1073D02*
X38Y943D01*
D02*
X38Y1203D02*
X38Y1073D01*
D02*
X298Y1203D02*
X278Y1203D01*
D02*
X278Y1203D02*
X278Y1073D01*
D02*
X278Y1073D02*
X298Y1073D01*
D02*
X298Y1073D02*
X298Y1203D01*
D02*
X188Y1213D02*
X188Y1063D01*
D02*
X188Y1213D02*
X248Y1213D01*
D02*
X248Y1063D02*
X248Y1213D01*
D02*
X248Y1063D02*
X188Y1063D01*
D02*
X88Y1213D02*
X88Y1063D01*
D02*
X88Y1213D02*
X148Y1213D01*
D02*
X148Y1063D02*
X148Y1213D01*
D02*
X148Y1063D02*
X88Y1063D01*
D02*
X138Y1073D02*
X158Y1073D01*
D02*
X158Y1073D02*
X158Y1203D01*
D02*
X158Y1203D02*
X138Y1203D01*
D02*
X138Y1203D02*
X138Y1073D01*
D02*
X398Y943D02*
X398Y1073D01*
D02*
X398Y1203D02*
X378Y1203D01*
D02*
X378Y1203D02*
X378Y1073D01*
D02*
X378Y1073D02*
X398Y1073D01*
D02*
X398Y1203D02*
X398Y1333D01*
D02*
X398Y1073D02*
X398Y1203D01*
D02*
X288Y1213D02*
X288Y1063D01*
D02*
X288Y1213D02*
X348Y1213D01*
D02*
X348Y1063D02*
X348Y1213D01*
D02*
X348Y1063D02*
X288Y1063D01*
D02*
X188Y1213D02*
X188Y1063D01*
D02*
X188Y1213D02*
X248Y1213D01*
D02*
X248Y1063D02*
X248Y1213D01*
D02*
X248Y1063D02*
X188Y1063D01*
G54D11*
D02*
X627Y1421D02*
X827Y1421D01*
D02*
X827Y1421D02*
X827Y1355D01*
D02*
X827Y1355D02*
X627Y1355D01*
D02*
X627Y1355D02*
X627Y1421D01*
D02*
X727Y1321D02*
X927Y1321D01*
D02*
X927Y1321D02*
X927Y1255D01*
D02*
X927Y1255D02*
X727Y1255D01*
D02*
X727Y1255D02*
X727Y1321D01*
D02*
X227Y221D02*
X427Y221D01*
D02*
X427Y221D02*
X427Y155D01*
D02*
X427Y155D02*
X227Y155D01*
D02*
X227Y155D02*
X227Y221D01*
D02*
X968Y1338D02*
X1168Y1338D01*
D02*
X1168Y1338D02*
X1168Y1438D01*
D02*
X1168Y1438D02*
X968Y1438D01*
D02*
X968Y1438D02*
X968Y1338D01*
D02*
X468Y1138D02*
X468Y338D01*
D02*
X468Y338D02*
X868Y338D01*
D02*
X868Y338D02*
X868Y1138D01*
D02*
X468Y1138D02*
X618Y1138D01*
D02*
X718Y1138D02*
X868Y1138D01*
G54D14*
X893Y1701D02*
X894Y1701D01*
X888Y1700D02*
X896Y1700D01*
X887Y1699D02*
X897Y1699D01*
X885Y1698D02*
X897Y1698D01*
X885Y1697D02*
X897Y1697D01*
X884Y1696D02*
X897Y1696D01*
X883Y1695D02*
X896Y1695D01*
X883Y1694D02*
X893Y1694D01*
X883Y1693D02*
X889Y1693D01*
X882Y1692D02*
X889Y1692D01*
X882Y1691D02*
X888Y1691D01*
X882Y1690D02*
X888Y1690D01*
X882Y1689D02*
X888Y1689D01*
X882Y1688D02*
X888Y1688D01*
X882Y1687D02*
X888Y1687D01*
X882Y1686D02*
X888Y1686D01*
X882Y1685D02*
X888Y1685D01*
X882Y1684D02*
X889Y1684D01*
X882Y1683D02*
X890Y1683D01*
X883Y1682D02*
X891Y1682D01*
X883Y1681D02*
X892Y1681D01*
X884Y1680D02*
X893Y1680D01*
X885Y1679D02*
X893Y1679D01*
X886Y1678D02*
X894Y1678D01*
X887Y1677D02*
X895Y1677D01*
X888Y1676D02*
X896Y1676D01*
X889Y1675D02*
X897Y1675D01*
X889Y1674D02*
X898Y1674D01*
X884Y1673D02*
X919Y1673D01*
X883Y1672D02*
X920Y1672D01*
X882Y1671D02*
X920Y1671D01*
X882Y1670D02*
X921Y1670D01*
X882Y1669D02*
X920Y1669D01*
X883Y1668D02*
X920Y1668D01*
X884Y1667D02*
X919Y1667D01*
X894Y1651D02*
X902Y1651D01*
X890Y1650D02*
X905Y1650D01*
X916Y1650D02*
X920Y1650D01*
X889Y1649D02*
X906Y1649D01*
X915Y1649D02*
X920Y1649D01*
X888Y1648D02*
X906Y1648D01*
X915Y1648D02*
X921Y1648D01*
X887Y1647D02*
X906Y1647D01*
X915Y1647D02*
X921Y1647D01*
X886Y1646D02*
X906Y1646D01*
X915Y1646D02*
X921Y1646D01*
X885Y1645D02*
X906Y1645D01*
X915Y1645D02*
X921Y1645D01*
X884Y1644D02*
X894Y1644D01*
X899Y1644D02*
X906Y1644D01*
X915Y1644D02*
X921Y1644D01*
X883Y1643D02*
X891Y1643D01*
X900Y1643D02*
X906Y1643D01*
X915Y1643D02*
X921Y1643D01*
X883Y1642D02*
X890Y1642D01*
X900Y1642D02*
X906Y1642D01*
X915Y1642D02*
X921Y1642D01*
X883Y1641D02*
X889Y1641D01*
X900Y1641D02*
X906Y1641D01*
X915Y1641D02*
X921Y1641D01*
X882Y1640D02*
X889Y1640D01*
X900Y1640D02*
X906Y1640D01*
X915Y1640D02*
X921Y1640D01*
X882Y1639D02*
X888Y1639D01*
X900Y1639D02*
X906Y1639D01*
X915Y1639D02*
X921Y1639D01*
X882Y1638D02*
X888Y1638D01*
X900Y1638D02*
X906Y1638D01*
X915Y1638D02*
X921Y1638D01*
X882Y1637D02*
X888Y1637D01*
X900Y1637D02*
X906Y1637D01*
X915Y1637D02*
X921Y1637D01*
X882Y1636D02*
X888Y1636D01*
X900Y1636D02*
X906Y1636D01*
X915Y1636D02*
X921Y1636D01*
X882Y1635D02*
X888Y1635D01*
X900Y1635D02*
X906Y1635D01*
X915Y1635D02*
X921Y1635D01*
X882Y1634D02*
X888Y1634D01*
X900Y1634D02*
X906Y1634D01*
X915Y1634D02*
X921Y1634D01*
X882Y1633D02*
X888Y1633D01*
X900Y1633D02*
X906Y1633D01*
X915Y1633D02*
X921Y1633D01*
X882Y1632D02*
X888Y1632D01*
X900Y1632D02*
X906Y1632D01*
X915Y1632D02*
X921Y1632D01*
X882Y1631D02*
X888Y1631D01*
X900Y1631D02*
X906Y1631D01*
X915Y1631D02*
X921Y1631D01*
X882Y1630D02*
X888Y1630D01*
X900Y1630D02*
X906Y1630D01*
X915Y1630D02*
X921Y1630D01*
X882Y1629D02*
X888Y1629D01*
X900Y1629D02*
X906Y1629D01*
X915Y1629D02*
X921Y1629D01*
X882Y1628D02*
X889Y1628D01*
X900Y1628D02*
X906Y1628D01*
X914Y1628D02*
X921Y1628D01*
X883Y1627D02*
X889Y1627D01*
X900Y1627D02*
X906Y1627D01*
X914Y1627D02*
X920Y1627D01*
X883Y1626D02*
X890Y1626D01*
X900Y1626D02*
X906Y1626D01*
X913Y1626D02*
X920Y1626D01*
X883Y1625D02*
X891Y1625D01*
X900Y1625D02*
X906Y1625D01*
X912Y1625D02*
X920Y1625D01*
X884Y1624D02*
X892Y1624D01*
X900Y1624D02*
X906Y1624D01*
X911Y1624D02*
X919Y1624D01*
X884Y1623D02*
X919Y1623D01*
X885Y1622D02*
X918Y1622D01*
X886Y1621D02*
X917Y1621D01*
X887Y1620D02*
X916Y1620D01*
X888Y1619D02*
X915Y1619D01*
X890Y1618D02*
X914Y1618D01*
X1126Y1618D02*
X1146Y1618D01*
X892Y1617D02*
X911Y1617D01*
X1125Y1617D02*
X1147Y1617D01*
X1124Y1616D02*
X1147Y1616D01*
X1124Y1615D02*
X1148Y1615D01*
X1124Y1614D02*
X1148Y1614D01*
X1125Y1613D02*
X1148Y1613D01*
X1126Y1612D02*
X1148Y1612D01*
X1142Y1611D02*
X1148Y1611D01*
X1142Y1610D02*
X1148Y1610D01*
X1142Y1609D02*
X1148Y1609D01*
X1142Y1608D02*
X1148Y1608D01*
X1142Y1607D02*
X1148Y1607D01*
X1142Y1606D02*
X1148Y1606D01*
X1141Y1605D02*
X1148Y1605D01*
X1094Y1604D02*
X1148Y1604D01*
X1094Y1603D02*
X1148Y1603D01*
X1094Y1602D02*
X1148Y1602D01*
X884Y1601D02*
X906Y1601D01*
X1094Y1601D02*
X1148Y1601D01*
X883Y1600D02*
X910Y1600D01*
X1094Y1600D02*
X1148Y1600D01*
X882Y1599D02*
X913Y1599D01*
X1094Y1599D02*
X1148Y1599D01*
X882Y1598D02*
X916Y1598D01*
X1094Y1598D02*
X1148Y1598D01*
X882Y1597D02*
X919Y1597D01*
X1094Y1597D02*
X1100Y1597D01*
X1142Y1597D02*
X1148Y1597D01*
X883Y1596D02*
X920Y1596D01*
X1094Y1596D02*
X1100Y1596D01*
X1142Y1596D02*
X1148Y1596D01*
X885Y1595D02*
X920Y1595D01*
X1094Y1595D02*
X1100Y1595D01*
X1142Y1595D02*
X1148Y1595D01*
X906Y1594D02*
X921Y1594D01*
X1094Y1594D02*
X1100Y1594D01*
X1142Y1594D02*
X1148Y1594D01*
X909Y1593D02*
X921Y1593D01*
X1094Y1593D02*
X1100Y1593D01*
X1142Y1593D02*
X1148Y1593D01*
X913Y1592D02*
X921Y1592D01*
X1094Y1592D02*
X1100Y1592D01*
X1142Y1592D02*
X1148Y1592D01*
X912Y1591D02*
X921Y1591D01*
X1094Y1591D02*
X1100Y1591D01*
X1142Y1591D02*
X1148Y1591D01*
X910Y1590D02*
X921Y1590D01*
X1094Y1590D02*
X1100Y1590D01*
X1142Y1590D02*
X1148Y1590D01*
X908Y1589D02*
X920Y1589D01*
X1094Y1589D02*
X1100Y1589D01*
X1142Y1589D02*
X1148Y1589D01*
X907Y1588D02*
X919Y1588D01*
X1094Y1588D02*
X1100Y1588D01*
X1142Y1588D02*
X1148Y1588D01*
X896Y1587D02*
X918Y1587D01*
X1095Y1587D02*
X1100Y1587D01*
X1142Y1587D02*
X1148Y1587D01*
X895Y1586D02*
X916Y1586D01*
X1095Y1586D02*
X1100Y1586D01*
X1142Y1586D02*
X1147Y1586D01*
X894Y1585D02*
X914Y1585D01*
X1096Y1585D02*
X1099Y1585D01*
X1143Y1585D02*
X1147Y1585D01*
X894Y1584D02*
X913Y1584D01*
X894Y1583D02*
X914Y1583D01*
X895Y1582D02*
X915Y1582D01*
X895Y1581D02*
X917Y1581D01*
X906Y1580D02*
X919Y1580D01*
X908Y1579D02*
X920Y1579D01*
X909Y1578D02*
X920Y1578D01*
X911Y1577D02*
X921Y1577D01*
X913Y1576D02*
X921Y1576D01*
X911Y1575D02*
X921Y1575D01*
X908Y1574D02*
X921Y1574D01*
X894Y1573D02*
X921Y1573D01*
X884Y1572D02*
X920Y1572D01*
X883Y1571D02*
X920Y1571D01*
X882Y1570D02*
X918Y1570D01*
X882Y1569D02*
X915Y1569D01*
X883Y1568D02*
X911Y1568D01*
X1102Y1568D02*
X1111Y1568D01*
X1143Y1568D02*
X1146Y1568D01*
X883Y1567D02*
X908Y1567D01*
X1100Y1567D02*
X1113Y1567D01*
X1141Y1567D02*
X1147Y1567D01*
X885Y1566D02*
X893Y1566D01*
X1098Y1566D02*
X1114Y1566D01*
X1140Y1566D02*
X1147Y1566D01*
X1097Y1565D02*
X1115Y1565D01*
X1138Y1565D02*
X1148Y1565D01*
X1096Y1564D02*
X1116Y1564D01*
X1136Y1564D02*
X1147Y1564D01*
X1096Y1563D02*
X1117Y1563D01*
X1135Y1563D02*
X1147Y1563D01*
X1095Y1562D02*
X1117Y1562D01*
X1133Y1562D02*
X1146Y1562D01*
X1095Y1561D02*
X1102Y1561D01*
X1110Y1561D02*
X1118Y1561D01*
X1131Y1561D02*
X1144Y1561D01*
X1095Y1560D02*
X1101Y1560D01*
X1111Y1560D02*
X1118Y1560D01*
X1129Y1560D02*
X1143Y1560D01*
X1095Y1559D02*
X1101Y1559D01*
X1112Y1559D02*
X1118Y1559D01*
X1128Y1559D02*
X1141Y1559D01*
X1094Y1558D02*
X1100Y1558D01*
X1112Y1558D02*
X1118Y1558D01*
X1126Y1558D02*
X1139Y1558D01*
X1094Y1557D02*
X1100Y1557D01*
X1112Y1557D02*
X1118Y1557D01*
X1124Y1557D02*
X1137Y1557D01*
X1094Y1556D02*
X1100Y1556D01*
X1112Y1556D02*
X1118Y1556D01*
X1123Y1556D02*
X1136Y1556D01*
X1094Y1555D02*
X1100Y1555D01*
X1112Y1555D02*
X1118Y1555D01*
X1121Y1555D02*
X1134Y1555D01*
X1094Y1554D02*
X1100Y1554D01*
X1112Y1554D02*
X1132Y1554D01*
X1094Y1553D02*
X1100Y1553D01*
X1112Y1553D02*
X1131Y1553D01*
X1094Y1552D02*
X1100Y1552D01*
X1112Y1552D02*
X1129Y1552D01*
X894Y1551D02*
X909Y1551D01*
X1094Y1551D02*
X1100Y1551D01*
X1112Y1551D02*
X1127Y1551D01*
X890Y1550D02*
X913Y1550D01*
X1094Y1550D02*
X1100Y1550D01*
X1112Y1550D02*
X1125Y1550D01*
X889Y1549D02*
X914Y1549D01*
X1094Y1549D02*
X1100Y1549D01*
X1112Y1549D02*
X1124Y1549D01*
X888Y1548D02*
X915Y1548D01*
X1094Y1548D02*
X1100Y1548D01*
X1112Y1548D02*
X1122Y1548D01*
X887Y1547D02*
X916Y1547D01*
X1094Y1547D02*
X1100Y1547D01*
X1112Y1547D02*
X1120Y1547D01*
X886Y1546D02*
X917Y1546D01*
X1094Y1546D02*
X1100Y1546D01*
X1112Y1546D02*
X1119Y1546D01*
X885Y1545D02*
X918Y1545D01*
X1094Y1545D02*
X1100Y1545D01*
X1112Y1545D02*
X1118Y1545D01*
X884Y1544D02*
X893Y1544D01*
X909Y1544D02*
X919Y1544D01*
X1094Y1544D02*
X1100Y1544D01*
X1112Y1544D02*
X1118Y1544D01*
X883Y1543D02*
X891Y1543D01*
X911Y1543D02*
X919Y1543D01*
X1094Y1543D02*
X1100Y1543D01*
X1112Y1543D02*
X1118Y1543D01*
X883Y1542D02*
X890Y1542D01*
X912Y1542D02*
X920Y1542D01*
X1094Y1542D02*
X1100Y1542D01*
X1112Y1542D02*
X1118Y1542D01*
X883Y1541D02*
X889Y1541D01*
X913Y1541D02*
X920Y1541D01*
X1094Y1541D02*
X1144Y1541D01*
X882Y1540D02*
X889Y1540D01*
X914Y1540D02*
X920Y1540D01*
X1094Y1540D02*
X1146Y1540D01*
X882Y1539D02*
X888Y1539D01*
X914Y1539D02*
X921Y1539D01*
X1094Y1539D02*
X1147Y1539D01*
X882Y1538D02*
X888Y1538D01*
X915Y1538D02*
X921Y1538D01*
X1094Y1538D02*
X1148Y1538D01*
X882Y1537D02*
X888Y1537D01*
X915Y1537D02*
X921Y1537D01*
X1094Y1537D02*
X1148Y1537D01*
X882Y1536D02*
X888Y1536D01*
X915Y1536D02*
X921Y1536D01*
X1094Y1536D02*
X1147Y1536D01*
X882Y1535D02*
X888Y1535D01*
X915Y1535D02*
X921Y1535D01*
X1094Y1535D02*
X1146Y1535D01*
X882Y1534D02*
X888Y1534D01*
X915Y1534D02*
X921Y1534D01*
X1095Y1534D02*
X1144Y1534D01*
X882Y1533D02*
X888Y1533D01*
X915Y1533D02*
X921Y1533D01*
X882Y1532D02*
X888Y1532D01*
X915Y1532D02*
X921Y1532D01*
X882Y1531D02*
X888Y1531D01*
X915Y1531D02*
X921Y1531D01*
X882Y1530D02*
X888Y1530D01*
X915Y1530D02*
X921Y1530D01*
X882Y1529D02*
X888Y1529D01*
X915Y1529D02*
X921Y1529D01*
X882Y1528D02*
X889Y1528D01*
X914Y1528D02*
X920Y1528D01*
X883Y1527D02*
X889Y1527D01*
X914Y1527D02*
X920Y1527D01*
X883Y1526D02*
X890Y1526D01*
X913Y1526D02*
X920Y1526D01*
X883Y1525D02*
X891Y1525D01*
X912Y1525D02*
X920Y1525D01*
X884Y1524D02*
X892Y1524D01*
X911Y1524D02*
X919Y1524D01*
X884Y1523D02*
X918Y1523D01*
X885Y1522D02*
X918Y1522D01*
X886Y1521D02*
X917Y1521D01*
X887Y1520D02*
X916Y1520D01*
X888Y1519D02*
X915Y1519D01*
X890Y1518D02*
X914Y1518D01*
X892Y1517D02*
X911Y1517D01*
X963Y1511D02*
X989Y1511D01*
X1016Y1511D02*
X1019Y1511D01*
X963Y1510D02*
X991Y1510D01*
X1015Y1510D02*
X1020Y1510D01*
X963Y1509D02*
X992Y1509D01*
X1015Y1509D02*
X1020Y1509D01*
X963Y1508D02*
X993Y1508D01*
X1014Y1508D02*
X1020Y1508D01*
X963Y1507D02*
X994Y1507D01*
X1014Y1507D02*
X1020Y1507D01*
X963Y1506D02*
X995Y1506D01*
X1014Y1506D02*
X1020Y1506D01*
X963Y1505D02*
X995Y1505D01*
X1014Y1505D02*
X1020Y1505D01*
X1037Y1505D02*
X1039Y1505D01*
X963Y1504D02*
X969Y1504D01*
X988Y1504D02*
X996Y1504D01*
X1014Y1504D02*
X1020Y1504D01*
X1036Y1504D02*
X1040Y1504D01*
X963Y1503D02*
X969Y1503D01*
X989Y1503D02*
X996Y1503D01*
X1014Y1503D02*
X1020Y1503D01*
X1035Y1503D02*
X1041Y1503D01*
X963Y1502D02*
X969Y1502D01*
X990Y1502D02*
X996Y1502D01*
X1014Y1502D02*
X1020Y1502D01*
X1035Y1502D02*
X1041Y1502D01*
X877Y1501D02*
X890Y1501D01*
X963Y1501D02*
X969Y1501D01*
X990Y1501D02*
X996Y1501D01*
X1014Y1501D02*
X1020Y1501D01*
X1035Y1501D02*
X1041Y1501D01*
X873Y1500D02*
X894Y1500D01*
X963Y1500D02*
X969Y1500D01*
X990Y1500D02*
X996Y1500D01*
X1014Y1500D02*
X1020Y1500D01*
X1035Y1500D02*
X1041Y1500D01*
X872Y1499D02*
X896Y1499D01*
X963Y1499D02*
X969Y1499D01*
X990Y1499D02*
X996Y1499D01*
X1014Y1499D02*
X1020Y1499D01*
X1035Y1499D02*
X1041Y1499D01*
X871Y1498D02*
X897Y1498D01*
X963Y1498D02*
X969Y1498D01*
X990Y1498D02*
X996Y1498D01*
X1014Y1498D02*
X1020Y1498D01*
X1035Y1498D02*
X1041Y1498D01*
X870Y1497D02*
X898Y1497D01*
X963Y1497D02*
X969Y1497D01*
X990Y1497D02*
X996Y1497D01*
X1014Y1497D02*
X1020Y1497D01*
X1035Y1497D02*
X1041Y1497D01*
X869Y1496D02*
X898Y1496D01*
X963Y1496D02*
X969Y1496D01*
X990Y1496D02*
X996Y1496D01*
X1014Y1496D02*
X1020Y1496D01*
X1035Y1496D02*
X1041Y1496D01*
X869Y1495D02*
X899Y1495D01*
X963Y1495D02*
X969Y1495D01*
X989Y1495D02*
X996Y1495D01*
X1014Y1495D02*
X1020Y1495D01*
X1035Y1495D02*
X1041Y1495D01*
X868Y1494D02*
X877Y1494D01*
X891Y1494D02*
X899Y1494D01*
X963Y1494D02*
X969Y1494D01*
X988Y1494D02*
X996Y1494D01*
X1014Y1494D02*
X1020Y1494D01*
X1035Y1494D02*
X1041Y1494D01*
X868Y1493D02*
X875Y1493D01*
X893Y1493D02*
X900Y1493D01*
X963Y1493D02*
X995Y1493D01*
X1014Y1493D02*
X1020Y1493D01*
X1035Y1493D02*
X1041Y1493D01*
X868Y1492D02*
X874Y1492D01*
X894Y1492D02*
X900Y1492D01*
X963Y1492D02*
X995Y1492D01*
X1014Y1492D02*
X1020Y1492D01*
X1035Y1492D02*
X1041Y1492D01*
X868Y1491D02*
X874Y1491D01*
X894Y1491D02*
X900Y1491D01*
X963Y1491D02*
X994Y1491D01*
X1014Y1491D02*
X1020Y1491D01*
X1035Y1491D02*
X1041Y1491D01*
X867Y1490D02*
X874Y1490D01*
X894Y1490D02*
X900Y1490D01*
X963Y1490D02*
X993Y1490D01*
X1014Y1490D02*
X1020Y1490D01*
X1035Y1490D02*
X1041Y1490D01*
X867Y1489D02*
X874Y1489D01*
X894Y1489D02*
X900Y1489D01*
X963Y1489D02*
X992Y1489D01*
X1014Y1489D02*
X1020Y1489D01*
X1035Y1489D02*
X1041Y1489D01*
X867Y1488D02*
X874Y1488D01*
X894Y1488D02*
X900Y1488D01*
X963Y1488D02*
X990Y1488D01*
X1014Y1488D02*
X1020Y1488D01*
X1035Y1488D02*
X1041Y1488D01*
X867Y1487D02*
X874Y1487D01*
X894Y1487D02*
X900Y1487D01*
X963Y1487D02*
X988Y1487D01*
X1014Y1487D02*
X1020Y1487D01*
X1035Y1487D02*
X1041Y1487D01*
X867Y1486D02*
X874Y1486D01*
X894Y1486D02*
X900Y1486D01*
X963Y1486D02*
X969Y1486D01*
X975Y1486D02*
X982Y1486D01*
X1014Y1486D02*
X1020Y1486D01*
X1035Y1486D02*
X1041Y1486D01*
X867Y1485D02*
X874Y1485D01*
X894Y1485D02*
X900Y1485D01*
X963Y1485D02*
X969Y1485D01*
X976Y1485D02*
X983Y1485D01*
X1014Y1485D02*
X1020Y1485D01*
X1035Y1485D02*
X1041Y1485D01*
X867Y1484D02*
X874Y1484D01*
X894Y1484D02*
X900Y1484D01*
X963Y1484D02*
X969Y1484D01*
X976Y1484D02*
X983Y1484D01*
X1014Y1484D02*
X1020Y1484D01*
X1035Y1484D02*
X1041Y1484D01*
X867Y1483D02*
X874Y1483D01*
X894Y1483D02*
X900Y1483D01*
X963Y1483D02*
X969Y1483D01*
X977Y1483D02*
X984Y1483D01*
X1014Y1483D02*
X1020Y1483D01*
X1035Y1483D02*
X1041Y1483D01*
X867Y1482D02*
X874Y1482D01*
X894Y1482D02*
X900Y1482D01*
X963Y1482D02*
X969Y1482D01*
X977Y1482D02*
X984Y1482D01*
X1014Y1482D02*
X1042Y1482D01*
X867Y1481D02*
X874Y1481D01*
X894Y1481D02*
X900Y1481D01*
X963Y1481D02*
X969Y1481D01*
X978Y1481D02*
X985Y1481D01*
X1014Y1481D02*
X1043Y1481D01*
X867Y1480D02*
X874Y1480D01*
X894Y1480D02*
X900Y1480D01*
X963Y1480D02*
X969Y1480D01*
X978Y1480D02*
X986Y1480D01*
X1014Y1480D02*
X1044Y1480D01*
X867Y1479D02*
X874Y1479D01*
X894Y1479D02*
X900Y1479D01*
X963Y1479D02*
X969Y1479D01*
X979Y1479D02*
X986Y1479D01*
X1014Y1479D02*
X1044Y1479D01*
X867Y1478D02*
X874Y1478D01*
X894Y1478D02*
X900Y1478D01*
X963Y1478D02*
X969Y1478D01*
X980Y1478D02*
X987Y1478D01*
X1014Y1478D02*
X1044Y1478D01*
X867Y1477D02*
X874Y1477D01*
X894Y1477D02*
X900Y1477D01*
X963Y1477D02*
X969Y1477D01*
X980Y1477D02*
X987Y1477D01*
X1014Y1477D02*
X1044Y1477D01*
X867Y1476D02*
X874Y1476D01*
X894Y1476D02*
X900Y1476D01*
X963Y1476D02*
X969Y1476D01*
X981Y1476D02*
X988Y1476D01*
X1014Y1476D02*
X1043Y1476D01*
X867Y1475D02*
X874Y1475D01*
X894Y1475D02*
X900Y1475D01*
X963Y1475D02*
X969Y1475D01*
X981Y1475D02*
X989Y1475D01*
X1035Y1475D02*
X1041Y1475D01*
X867Y1474D02*
X874Y1474D01*
X894Y1474D02*
X900Y1474D01*
X963Y1474D02*
X969Y1474D01*
X982Y1474D02*
X989Y1474D01*
X1035Y1474D02*
X1041Y1474D01*
X867Y1473D02*
X919Y1473D01*
X963Y1473D02*
X969Y1473D01*
X983Y1473D02*
X990Y1473D01*
X1035Y1473D02*
X1041Y1473D01*
X867Y1472D02*
X920Y1472D01*
X963Y1472D02*
X969Y1472D01*
X983Y1472D02*
X990Y1472D01*
X1035Y1472D02*
X1041Y1472D01*
X867Y1471D02*
X920Y1471D01*
X963Y1471D02*
X969Y1471D01*
X984Y1471D02*
X991Y1471D01*
X1035Y1471D02*
X1041Y1471D01*
X867Y1470D02*
X921Y1470D01*
X963Y1470D02*
X969Y1470D01*
X984Y1470D02*
X991Y1470D01*
X1035Y1470D02*
X1041Y1470D01*
X867Y1469D02*
X920Y1469D01*
X963Y1469D02*
X969Y1469D01*
X985Y1469D02*
X992Y1469D01*
X1035Y1469D02*
X1041Y1469D01*
X867Y1468D02*
X920Y1468D01*
X963Y1468D02*
X969Y1468D01*
X985Y1468D02*
X993Y1468D01*
X1035Y1468D02*
X1041Y1468D01*
X868Y1467D02*
X919Y1467D01*
X963Y1467D02*
X969Y1467D01*
X986Y1467D02*
X993Y1467D01*
X1035Y1467D02*
X1041Y1467D01*
X963Y1466D02*
X969Y1466D01*
X987Y1466D02*
X994Y1466D01*
X1035Y1466D02*
X1041Y1466D01*
X963Y1465D02*
X969Y1465D01*
X987Y1465D02*
X994Y1465D01*
X1035Y1465D02*
X1041Y1465D01*
X963Y1464D02*
X969Y1464D01*
X988Y1464D02*
X995Y1464D01*
X1035Y1464D02*
X1041Y1464D01*
X963Y1463D02*
X969Y1463D01*
X988Y1463D02*
X996Y1463D01*
X1035Y1463D02*
X1041Y1463D01*
X963Y1462D02*
X969Y1462D01*
X989Y1462D02*
X996Y1462D01*
X1035Y1462D02*
X1041Y1462D01*
X963Y1461D02*
X969Y1461D01*
X990Y1461D02*
X996Y1461D01*
X1035Y1461D02*
X1041Y1461D01*
X963Y1460D02*
X969Y1460D01*
X990Y1460D02*
X996Y1460D01*
X1035Y1460D02*
X1041Y1460D01*
X963Y1459D02*
X968Y1459D01*
X991Y1459D02*
X996Y1459D01*
X1036Y1459D02*
X1040Y1459D01*
X964Y1458D02*
X967Y1458D01*
X992Y1458D02*
X995Y1458D01*
X1037Y1458D02*
X1039Y1458D01*
X1212Y1446D02*
X1221Y1446D01*
X1212Y1445D02*
X1221Y1445D01*
X1212Y1444D02*
X1221Y1444D01*
X1212Y1443D02*
X1221Y1443D01*
X1212Y1442D02*
X1221Y1442D01*
X1212Y1441D02*
X1221Y1441D01*
X1212Y1440D02*
X1221Y1440D01*
X1212Y1439D02*
X1221Y1439D01*
X1212Y1438D02*
X1221Y1438D01*
X1212Y1437D02*
X1221Y1437D01*
X1212Y1436D02*
X1221Y1436D01*
X1212Y1435D02*
X1221Y1435D01*
X1212Y1434D02*
X1221Y1434D01*
X1212Y1433D02*
X1221Y1433D01*
X1212Y1432D02*
X1221Y1432D01*
X1212Y1431D02*
X1221Y1431D01*
X1212Y1430D02*
X1221Y1430D01*
X1212Y1429D02*
X1221Y1429D01*
X1212Y1428D02*
X1221Y1428D01*
X1212Y1427D02*
X1221Y1427D01*
X1212Y1426D02*
X1221Y1426D01*
X1212Y1425D02*
X1221Y1425D01*
X1212Y1424D02*
X1221Y1424D01*
X1212Y1423D02*
X1221Y1423D01*
X1212Y1422D02*
X1221Y1422D01*
X1212Y1421D02*
X1221Y1421D01*
X314Y1420D02*
X337Y1420D01*
X361Y1420D02*
X364Y1420D01*
X389Y1420D02*
X391Y1420D01*
X411Y1420D02*
X437Y1420D01*
X461Y1420D02*
X464Y1420D01*
X1212Y1420D02*
X1221Y1420D01*
X313Y1419D02*
X339Y1419D01*
X360Y1419D02*
X365Y1419D01*
X388Y1419D02*
X392Y1419D01*
X410Y1419D02*
X439Y1419D01*
X460Y1419D02*
X465Y1419D01*
X1212Y1419D02*
X1221Y1419D01*
X311Y1418D02*
X340Y1418D01*
X359Y1418D02*
X365Y1418D01*
X387Y1418D02*
X393Y1418D01*
X409Y1418D02*
X440Y1418D01*
X459Y1418D02*
X465Y1418D01*
X1212Y1418D02*
X1221Y1418D01*
X311Y1417D02*
X341Y1417D01*
X359Y1417D02*
X365Y1417D01*
X387Y1417D02*
X393Y1417D01*
X409Y1417D02*
X441Y1417D01*
X459Y1417D02*
X465Y1417D01*
X1212Y1417D02*
X1221Y1417D01*
X310Y1416D02*
X341Y1416D01*
X359Y1416D02*
X365Y1416D01*
X387Y1416D02*
X393Y1416D01*
X410Y1416D02*
X441Y1416D01*
X459Y1416D02*
X465Y1416D01*
X1212Y1416D02*
X1221Y1416D01*
X310Y1415D02*
X342Y1415D01*
X359Y1415D02*
X365Y1415D01*
X387Y1415D02*
X393Y1415D01*
X410Y1415D02*
X442Y1415D01*
X459Y1415D02*
X465Y1415D01*
X1212Y1415D02*
X1221Y1415D01*
X309Y1414D02*
X342Y1414D01*
X359Y1414D02*
X365Y1414D01*
X387Y1414D02*
X393Y1414D01*
X409Y1414D02*
X442Y1414D01*
X459Y1414D02*
X465Y1414D01*
X1212Y1414D02*
X1221Y1414D01*
X309Y1413D02*
X315Y1413D01*
X336Y1413D02*
X343Y1413D01*
X359Y1413D02*
X365Y1413D01*
X387Y1413D02*
X393Y1413D01*
X409Y1413D02*
X415Y1413D01*
X423Y1413D02*
X429Y1413D01*
X436Y1413D02*
X443Y1413D01*
X459Y1413D02*
X465Y1413D01*
X1212Y1413D02*
X1221Y1413D01*
X309Y1412D02*
X316Y1412D01*
X337Y1412D02*
X343Y1412D01*
X359Y1412D02*
X365Y1412D01*
X387Y1412D02*
X393Y1412D01*
X409Y1412D02*
X416Y1412D01*
X423Y1412D02*
X429Y1412D01*
X437Y1412D02*
X443Y1412D01*
X459Y1412D02*
X465Y1412D01*
X1212Y1412D02*
X1221Y1412D01*
X310Y1411D02*
X316Y1411D01*
X337Y1411D02*
X343Y1411D01*
X359Y1411D02*
X365Y1411D01*
X387Y1411D02*
X393Y1411D01*
X410Y1411D02*
X416Y1411D01*
X423Y1411D02*
X429Y1411D01*
X437Y1411D02*
X443Y1411D01*
X459Y1411D02*
X465Y1411D01*
X1063Y1411D02*
X1079Y1411D01*
X1212Y1411D02*
X1221Y1411D01*
X310Y1410D02*
X317Y1410D01*
X337Y1410D02*
X343Y1410D01*
X359Y1410D02*
X365Y1410D01*
X387Y1410D02*
X393Y1410D01*
X410Y1410D02*
X417Y1410D01*
X423Y1410D02*
X429Y1410D01*
X437Y1410D02*
X443Y1410D01*
X459Y1410D02*
X465Y1410D01*
X1063Y1410D02*
X1078Y1410D01*
X1212Y1410D02*
X1221Y1410D01*
X310Y1409D02*
X318Y1409D01*
X338Y1409D02*
X342Y1409D01*
X359Y1409D02*
X365Y1409D01*
X387Y1409D02*
X393Y1409D01*
X410Y1409D02*
X418Y1409D01*
X423Y1409D02*
X429Y1409D01*
X438Y1409D02*
X442Y1409D01*
X459Y1409D02*
X465Y1409D01*
X1063Y1409D02*
X1077Y1409D01*
X1212Y1409D02*
X1221Y1409D01*
X311Y1408D02*
X319Y1408D01*
X339Y1408D02*
X341Y1408D01*
X359Y1408D02*
X365Y1408D01*
X387Y1408D02*
X393Y1408D01*
X411Y1408D02*
X419Y1408D01*
X423Y1408D02*
X429Y1408D01*
X439Y1408D02*
X441Y1408D01*
X459Y1408D02*
X465Y1408D01*
X1063Y1408D02*
X1077Y1408D01*
X1212Y1408D02*
X1221Y1408D01*
X312Y1407D02*
X319Y1407D01*
X359Y1407D02*
X365Y1407D01*
X387Y1407D02*
X393Y1407D01*
X411Y1407D02*
X419Y1407D01*
X423Y1407D02*
X429Y1407D01*
X459Y1407D02*
X465Y1407D01*
X1063Y1407D02*
X1076Y1407D01*
X1212Y1407D02*
X1221Y1407D01*
X312Y1406D02*
X320Y1406D01*
X359Y1406D02*
X365Y1406D01*
X387Y1406D02*
X393Y1406D01*
X412Y1406D02*
X420Y1406D01*
X423Y1406D02*
X429Y1406D01*
X459Y1406D02*
X465Y1406D01*
X1063Y1406D02*
X1076Y1406D01*
X1212Y1406D02*
X1221Y1406D01*
X313Y1405D02*
X321Y1405D01*
X359Y1405D02*
X365Y1405D01*
X387Y1405D02*
X393Y1405D01*
X413Y1405D02*
X421Y1405D01*
X423Y1405D02*
X429Y1405D01*
X459Y1405D02*
X465Y1405D01*
X1063Y1405D02*
X1075Y1405D01*
X1212Y1405D02*
X1221Y1405D01*
X314Y1404D02*
X322Y1404D01*
X359Y1404D02*
X365Y1404D01*
X387Y1404D02*
X393Y1404D01*
X414Y1404D02*
X429Y1404D01*
X459Y1404D02*
X465Y1404D01*
X1063Y1404D02*
X1069Y1404D01*
X1212Y1404D02*
X1221Y1404D01*
X315Y1403D02*
X323Y1403D01*
X359Y1403D02*
X365Y1403D01*
X387Y1403D02*
X393Y1403D01*
X415Y1403D02*
X429Y1403D01*
X459Y1403D02*
X465Y1403D01*
X1063Y1403D02*
X1069Y1403D01*
X1212Y1403D02*
X1221Y1403D01*
X315Y1402D02*
X323Y1402D01*
X359Y1402D02*
X365Y1402D01*
X374Y1402D02*
X378Y1402D01*
X387Y1402D02*
X393Y1402D01*
X415Y1402D02*
X429Y1402D01*
X459Y1402D02*
X465Y1402D01*
X474Y1402D02*
X476Y1402D01*
X1063Y1402D02*
X1069Y1402D01*
X1212Y1402D02*
X1221Y1402D01*
X316Y1401D02*
X324Y1401D01*
X359Y1401D02*
X365Y1401D01*
X374Y1401D02*
X379Y1401D01*
X387Y1401D02*
X393Y1401D01*
X416Y1401D02*
X429Y1401D01*
X459Y1401D02*
X465Y1401D01*
X474Y1401D02*
X476Y1401D01*
X1063Y1401D02*
X1069Y1401D01*
X1212Y1401D02*
X1221Y1401D01*
X317Y1400D02*
X325Y1400D01*
X359Y1400D02*
X365Y1400D01*
X373Y1400D02*
X379Y1400D01*
X387Y1400D02*
X393Y1400D01*
X417Y1400D02*
X429Y1400D01*
X459Y1400D02*
X465Y1400D01*
X473Y1400D02*
X476Y1400D01*
X1063Y1400D02*
X1069Y1400D01*
X1212Y1400D02*
X1221Y1400D01*
X318Y1399D02*
X326Y1399D01*
X359Y1399D02*
X365Y1399D01*
X373Y1399D02*
X379Y1399D01*
X387Y1399D02*
X393Y1399D01*
X418Y1399D02*
X429Y1399D01*
X459Y1399D02*
X465Y1399D01*
X473Y1399D02*
X475Y1399D01*
X1063Y1399D02*
X1069Y1399D01*
X1212Y1399D02*
X1221Y1399D01*
X318Y1398D02*
X326Y1398D01*
X359Y1398D02*
X365Y1398D01*
X373Y1398D02*
X379Y1398D01*
X387Y1398D02*
X393Y1398D01*
X418Y1398D02*
X429Y1398D01*
X459Y1398D02*
X465Y1398D01*
X473Y1398D02*
X475Y1398D01*
X1063Y1398D02*
X1069Y1398D01*
X319Y1397D02*
X327Y1397D01*
X359Y1397D02*
X365Y1397D01*
X373Y1397D02*
X379Y1397D01*
X387Y1397D02*
X393Y1397D01*
X419Y1397D02*
X429Y1397D01*
X459Y1397D02*
X465Y1397D01*
X473Y1397D02*
X475Y1397D01*
X1063Y1397D02*
X1069Y1397D01*
X320Y1396D02*
X328Y1396D01*
X359Y1396D02*
X365Y1396D01*
X373Y1396D02*
X379Y1396D01*
X387Y1396D02*
X393Y1396D01*
X420Y1396D02*
X429Y1396D01*
X459Y1396D02*
X465Y1396D01*
X473Y1396D02*
X475Y1396D01*
X1063Y1396D02*
X1069Y1396D01*
X321Y1395D02*
X329Y1395D01*
X359Y1395D02*
X365Y1395D01*
X373Y1395D02*
X379Y1395D01*
X387Y1395D02*
X393Y1395D01*
X421Y1395D02*
X429Y1395D01*
X459Y1395D02*
X465Y1395D01*
X473Y1395D02*
X475Y1395D01*
X1063Y1395D02*
X1069Y1395D01*
X322Y1394D02*
X330Y1394D01*
X359Y1394D02*
X365Y1394D01*
X373Y1394D02*
X379Y1394D01*
X387Y1394D02*
X393Y1394D01*
X422Y1394D02*
X430Y1394D01*
X459Y1394D02*
X465Y1394D01*
X473Y1394D02*
X474Y1394D01*
X1063Y1394D02*
X1069Y1394D01*
X322Y1393D02*
X330Y1393D01*
X359Y1393D02*
X365Y1393D01*
X373Y1393D02*
X379Y1393D01*
X387Y1393D02*
X393Y1393D01*
X422Y1393D02*
X430Y1393D01*
X459Y1393D02*
X465Y1393D01*
X473Y1393D02*
X474Y1393D01*
X560Y1393D02*
X626Y1393D01*
X827Y1393D02*
X874Y1393D01*
X1063Y1393D02*
X1073Y1393D01*
X323Y1392D02*
X331Y1392D01*
X359Y1392D02*
X365Y1392D01*
X373Y1392D02*
X379Y1392D01*
X387Y1392D02*
X393Y1392D01*
X423Y1392D02*
X431Y1392D01*
X459Y1392D02*
X465Y1392D01*
X473Y1392D02*
X474Y1392D01*
X560Y1392D02*
X626Y1392D01*
X827Y1392D02*
X874Y1392D01*
X1063Y1392D02*
X1073Y1392D01*
X324Y1391D02*
X332Y1391D01*
X359Y1391D02*
X365Y1391D01*
X373Y1391D02*
X379Y1391D01*
X387Y1391D02*
X393Y1391D01*
X423Y1391D02*
X432Y1391D01*
X440Y1391D02*
X440Y1391D01*
X459Y1391D02*
X465Y1391D01*
X473Y1391D02*
X474Y1391D01*
X560Y1391D02*
X626Y1391D01*
X827Y1391D02*
X874Y1391D01*
X1063Y1391D02*
X1072Y1391D01*
X325Y1390D02*
X333Y1390D01*
X359Y1390D02*
X365Y1390D01*
X373Y1390D02*
X379Y1390D01*
X387Y1390D02*
X393Y1390D01*
X423Y1390D02*
X433Y1390D01*
X438Y1390D02*
X442Y1390D01*
X459Y1390D02*
X465Y1390D01*
X473Y1390D02*
X474Y1390D01*
X560Y1390D02*
X626Y1390D01*
X827Y1390D02*
X874Y1390D01*
X1063Y1390D02*
X1072Y1390D01*
X325Y1389D02*
X334Y1389D01*
X359Y1389D02*
X365Y1389D01*
X373Y1389D02*
X379Y1389D01*
X387Y1389D02*
X393Y1389D01*
X423Y1389D02*
X433Y1389D01*
X437Y1389D02*
X443Y1389D01*
X459Y1389D02*
X465Y1389D01*
X473Y1389D02*
X474Y1389D01*
X560Y1389D02*
X626Y1389D01*
X827Y1389D02*
X874Y1389D01*
X1063Y1389D02*
X1072Y1389D01*
X326Y1388D02*
X334Y1388D01*
X359Y1388D02*
X365Y1388D01*
X373Y1388D02*
X379Y1388D01*
X387Y1388D02*
X393Y1388D01*
X423Y1388D02*
X434Y1388D01*
X437Y1388D02*
X443Y1388D01*
X459Y1388D02*
X465Y1388D01*
X473Y1388D02*
X474Y1388D01*
X560Y1388D02*
X626Y1388D01*
X827Y1388D02*
X874Y1388D01*
X1063Y1388D02*
X1072Y1388D01*
X327Y1387D02*
X335Y1387D01*
X359Y1387D02*
X365Y1387D01*
X373Y1387D02*
X379Y1387D01*
X387Y1387D02*
X393Y1387D01*
X423Y1387D02*
X435Y1387D01*
X437Y1387D02*
X443Y1387D01*
X459Y1387D02*
X465Y1387D01*
X473Y1387D02*
X474Y1387D01*
X560Y1387D02*
X626Y1387D01*
X827Y1387D02*
X874Y1387D01*
X1063Y1387D02*
X1072Y1387D01*
X328Y1386D02*
X336Y1386D01*
X359Y1386D02*
X365Y1386D01*
X373Y1386D02*
X379Y1386D01*
X387Y1386D02*
X393Y1386D01*
X423Y1386D02*
X443Y1386D01*
X459Y1386D02*
X465Y1386D01*
X473Y1386D02*
X474Y1386D01*
X560Y1386D02*
X626Y1386D01*
X827Y1386D02*
X874Y1386D01*
X1063Y1386D02*
X1069Y1386D01*
X329Y1385D02*
X337Y1385D01*
X359Y1385D02*
X365Y1385D01*
X373Y1385D02*
X379Y1385D01*
X387Y1385D02*
X393Y1385D01*
X423Y1385D02*
X443Y1385D01*
X459Y1385D02*
X465Y1385D01*
X473Y1385D02*
X474Y1385D01*
X560Y1385D02*
X626Y1385D01*
X827Y1385D02*
X874Y1385D01*
X1063Y1385D02*
X1069Y1385D01*
X329Y1384D02*
X337Y1384D01*
X359Y1384D02*
X365Y1384D01*
X373Y1384D02*
X379Y1384D01*
X387Y1384D02*
X393Y1384D01*
X423Y1384D02*
X443Y1384D01*
X459Y1384D02*
X465Y1384D01*
X473Y1384D02*
X474Y1384D01*
X560Y1384D02*
X626Y1384D01*
X827Y1384D02*
X874Y1384D01*
X1063Y1384D02*
X1069Y1384D01*
X330Y1383D02*
X338Y1383D01*
X359Y1383D02*
X365Y1383D01*
X373Y1383D02*
X379Y1383D01*
X387Y1383D02*
X393Y1383D01*
X423Y1383D02*
X443Y1383D01*
X459Y1383D02*
X465Y1383D01*
X473Y1383D02*
X474Y1383D01*
X1063Y1383D02*
X1069Y1383D01*
X331Y1382D02*
X339Y1382D01*
X359Y1382D02*
X365Y1382D01*
X373Y1382D02*
X379Y1382D01*
X387Y1382D02*
X393Y1382D01*
X423Y1382D02*
X429Y1382D01*
X431Y1382D02*
X443Y1382D01*
X459Y1382D02*
X465Y1382D01*
X473Y1382D02*
X475Y1382D01*
X1063Y1382D02*
X1069Y1382D01*
X332Y1381D02*
X340Y1381D01*
X359Y1381D02*
X365Y1381D01*
X373Y1381D02*
X379Y1381D01*
X387Y1381D02*
X393Y1381D01*
X423Y1381D02*
X429Y1381D01*
X432Y1381D02*
X443Y1381D01*
X459Y1381D02*
X465Y1381D01*
X473Y1381D02*
X475Y1381D01*
X1063Y1381D02*
X1069Y1381D01*
X332Y1380D02*
X341Y1380D01*
X359Y1380D02*
X365Y1380D01*
X373Y1380D02*
X379Y1380D01*
X387Y1380D02*
X393Y1380D01*
X423Y1380D02*
X429Y1380D01*
X432Y1380D02*
X443Y1380D01*
X459Y1380D02*
X465Y1380D01*
X473Y1380D02*
X475Y1380D01*
X1063Y1380D02*
X1069Y1380D01*
X311Y1379D02*
X313Y1379D01*
X333Y1379D02*
X341Y1379D01*
X359Y1379D02*
X365Y1379D01*
X373Y1379D02*
X379Y1379D01*
X387Y1379D02*
X393Y1379D01*
X411Y1379D02*
X413Y1379D01*
X423Y1379D02*
X429Y1379D01*
X433Y1379D02*
X443Y1379D01*
X459Y1379D02*
X465Y1379D01*
X473Y1379D02*
X475Y1379D01*
X1063Y1379D02*
X1069Y1379D01*
X310Y1378D02*
X314Y1378D01*
X334Y1378D02*
X342Y1378D01*
X359Y1378D02*
X365Y1378D01*
X373Y1378D02*
X379Y1378D01*
X387Y1378D02*
X393Y1378D01*
X410Y1378D02*
X414Y1378D01*
X423Y1378D02*
X429Y1378D01*
X434Y1378D02*
X443Y1378D01*
X459Y1378D02*
X465Y1378D01*
X473Y1378D02*
X475Y1378D01*
X1063Y1378D02*
X1069Y1378D01*
X310Y1377D02*
X315Y1377D01*
X335Y1377D02*
X342Y1377D01*
X359Y1377D02*
X365Y1377D01*
X373Y1377D02*
X379Y1377D01*
X387Y1377D02*
X393Y1377D01*
X410Y1377D02*
X415Y1377D01*
X423Y1377D02*
X429Y1377D01*
X435Y1377D02*
X443Y1377D01*
X459Y1377D02*
X465Y1377D01*
X473Y1377D02*
X476Y1377D01*
X1063Y1377D02*
X1069Y1377D01*
X309Y1376D02*
X315Y1376D01*
X336Y1376D02*
X343Y1376D01*
X359Y1376D02*
X366Y1376D01*
X373Y1376D02*
X380Y1376D01*
X386Y1376D02*
X393Y1376D01*
X409Y1376D02*
X415Y1376D01*
X423Y1376D02*
X429Y1376D01*
X436Y1376D02*
X443Y1376D01*
X459Y1376D02*
X466Y1376D01*
X473Y1376D02*
X476Y1376D01*
X1063Y1376D02*
X1069Y1376D01*
X309Y1375D02*
X316Y1375D01*
X336Y1375D02*
X343Y1375D01*
X359Y1375D02*
X366Y1375D01*
X372Y1375D02*
X380Y1375D01*
X386Y1375D02*
X393Y1375D01*
X409Y1375D02*
X415Y1375D01*
X423Y1375D02*
X429Y1375D01*
X436Y1375D02*
X443Y1375D01*
X459Y1375D02*
X466Y1375D01*
X472Y1375D02*
X476Y1375D01*
X969Y1375D02*
X969Y1375D01*
X1063Y1375D02*
X1069Y1375D01*
X309Y1374D02*
X316Y1374D01*
X337Y1374D02*
X343Y1374D01*
X360Y1374D02*
X367Y1374D01*
X371Y1374D02*
X381Y1374D01*
X385Y1374D02*
X392Y1374D01*
X409Y1374D02*
X416Y1374D01*
X423Y1374D02*
X429Y1374D01*
X437Y1374D02*
X443Y1374D01*
X460Y1374D02*
X467Y1374D01*
X471Y1374D02*
X477Y1374D01*
X968Y1374D02*
X970Y1374D01*
X1063Y1374D02*
X1069Y1374D01*
X310Y1373D02*
X343Y1373D01*
X360Y1373D02*
X392Y1373D01*
X410Y1373D02*
X443Y1373D01*
X460Y1373D02*
X477Y1373D01*
X967Y1373D02*
X971Y1373D01*
X1063Y1373D02*
X1069Y1373D01*
X310Y1372D02*
X342Y1372D01*
X361Y1372D02*
X391Y1372D01*
X410Y1372D02*
X443Y1372D01*
X461Y1372D02*
X477Y1372D01*
X966Y1372D02*
X972Y1372D01*
X1063Y1372D02*
X1069Y1372D01*
X311Y1371D02*
X342Y1371D01*
X362Y1371D02*
X391Y1371D01*
X410Y1371D02*
X443Y1371D01*
X462Y1371D02*
X478Y1371D01*
X967Y1371D02*
X973Y1371D01*
X1063Y1371D02*
X1069Y1371D01*
X311Y1370D02*
X342Y1370D01*
X362Y1370D02*
X390Y1370D01*
X409Y1370D02*
X443Y1370D01*
X462Y1370D02*
X478Y1370D01*
X968Y1370D02*
X974Y1370D01*
X1063Y1370D02*
X1069Y1370D01*
X312Y1369D02*
X341Y1369D01*
X363Y1369D02*
X389Y1369D01*
X409Y1369D02*
X443Y1369D01*
X463Y1369D02*
X479Y1369D01*
X969Y1369D02*
X975Y1369D01*
X1063Y1369D02*
X1069Y1369D01*
X314Y1368D02*
X340Y1368D01*
X363Y1368D02*
X375Y1368D01*
X377Y1368D02*
X389Y1368D01*
X410Y1368D02*
X442Y1368D01*
X463Y1368D02*
X475Y1368D01*
X477Y1368D02*
X479Y1368D01*
X970Y1368D02*
X976Y1368D01*
X1063Y1368D02*
X1069Y1368D01*
X315Y1367D02*
X338Y1367D01*
X364Y1367D02*
X374Y1367D01*
X378Y1367D02*
X388Y1367D01*
X411Y1367D02*
X441Y1367D01*
X464Y1367D02*
X474Y1367D01*
X478Y1367D02*
X480Y1367D01*
X971Y1367D02*
X977Y1367D01*
X1063Y1367D02*
X1069Y1367D01*
X972Y1366D02*
X978Y1366D01*
X1063Y1366D02*
X1069Y1366D01*
X973Y1365D02*
X979Y1365D01*
X1063Y1365D02*
X1069Y1365D01*
X974Y1364D02*
X980Y1364D01*
X1063Y1364D02*
X1069Y1364D01*
X975Y1363D02*
X981Y1363D01*
X1063Y1363D02*
X1069Y1363D01*
X976Y1362D02*
X981Y1362D01*
X1063Y1362D02*
X1069Y1362D01*
X977Y1361D02*
X982Y1361D01*
X1063Y1361D02*
X1069Y1361D01*
X978Y1360D02*
X983Y1360D01*
X1063Y1360D02*
X1069Y1360D01*
X979Y1359D02*
X984Y1359D01*
X1063Y1359D02*
X1068Y1359D01*
X980Y1358D02*
X985Y1358D01*
X1064Y1358D02*
X1067Y1358D01*
X981Y1357D02*
X986Y1357D01*
X982Y1356D02*
X987Y1356D01*
X983Y1355D02*
X988Y1355D01*
X984Y1354D02*
X989Y1354D01*
X984Y1353D02*
X991Y1353D01*
X985Y1352D02*
X992Y1352D01*
X986Y1351D02*
X993Y1351D01*
X987Y1350D02*
X994Y1350D01*
X988Y1349D02*
X995Y1349D01*
X989Y1348D02*
X996Y1348D01*
X990Y1347D02*
X997Y1347D01*
X991Y1346D02*
X998Y1346D01*
X992Y1345D02*
X999Y1345D01*
X993Y1344D02*
X1000Y1344D01*
X994Y1343D02*
X1001Y1343D01*
X995Y1342D02*
X1002Y1342D01*
X996Y1341D02*
X1003Y1341D01*
X997Y1340D02*
X1003Y1340D01*
X998Y1339D02*
X1002Y1339D01*
X999Y1338D02*
X1001Y1338D01*
X35Y1337D02*
X95Y1337D01*
X139Y1337D02*
X195Y1337D01*
X239Y1337D02*
X295Y1337D01*
X339Y1337D02*
X399Y1337D01*
X34Y1336D02*
X94Y1336D01*
X140Y1336D02*
X194Y1336D01*
X240Y1336D02*
X294Y1336D01*
X340Y1336D02*
X400Y1336D01*
X34Y1335D02*
X93Y1335D01*
X141Y1335D02*
X193Y1335D01*
X241Y1335D02*
X293Y1335D01*
X341Y1335D02*
X400Y1335D01*
X34Y1334D02*
X92Y1334D01*
X142Y1334D02*
X192Y1334D01*
X242Y1334D02*
X292Y1334D01*
X342Y1334D02*
X400Y1334D01*
X34Y1333D02*
X92Y1333D01*
X142Y1333D02*
X192Y1333D01*
X242Y1333D02*
X292Y1333D01*
X342Y1333D02*
X400Y1333D01*
X34Y1332D02*
X91Y1332D01*
X143Y1332D02*
X191Y1332D01*
X243Y1332D02*
X291Y1332D01*
X343Y1332D02*
X400Y1332D01*
X35Y1331D02*
X90Y1331D01*
X144Y1331D02*
X190Y1331D01*
X244Y1331D02*
X290Y1331D01*
X344Y1331D02*
X399Y1331D01*
X36Y1330D02*
X90Y1330D01*
X144Y1330D02*
X190Y1330D01*
X244Y1330D02*
X290Y1330D01*
X344Y1330D02*
X398Y1330D01*
X660Y1293D02*
X726Y1293D01*
X927Y1293D02*
X974Y1293D01*
X660Y1292D02*
X726Y1292D01*
X927Y1292D02*
X974Y1292D01*
X660Y1291D02*
X726Y1291D01*
X927Y1291D02*
X974Y1291D01*
X660Y1290D02*
X726Y1290D01*
X927Y1290D02*
X974Y1290D01*
X660Y1289D02*
X726Y1289D01*
X927Y1289D02*
X974Y1289D01*
X660Y1288D02*
X726Y1288D01*
X927Y1288D02*
X974Y1288D01*
X660Y1287D02*
X726Y1287D01*
X927Y1287D02*
X974Y1287D01*
X660Y1286D02*
X726Y1286D01*
X927Y1286D02*
X974Y1286D01*
X660Y1285D02*
X726Y1285D01*
X927Y1285D02*
X974Y1285D01*
X660Y1284D02*
X726Y1284D01*
X927Y1284D02*
X974Y1284D01*
X141Y1243D02*
X141Y1243D01*
X293Y1243D02*
X293Y1243D01*
X140Y1242D02*
X141Y1242D01*
X293Y1242D02*
X293Y1242D01*
X140Y1241D02*
X141Y1241D01*
X293Y1241D02*
X294Y1241D01*
X139Y1240D02*
X141Y1240D01*
X293Y1240D02*
X295Y1240D01*
X137Y1239D02*
X141Y1239D01*
X293Y1239D02*
X297Y1239D01*
X136Y1238D02*
X141Y1238D01*
X293Y1238D02*
X298Y1238D01*
X135Y1237D02*
X141Y1237D01*
X293Y1237D02*
X299Y1237D01*
X133Y1236D02*
X141Y1236D01*
X293Y1236D02*
X300Y1236D01*
X133Y1235D02*
X141Y1235D01*
X293Y1235D02*
X300Y1235D01*
X133Y1234D02*
X141Y1234D01*
X293Y1234D02*
X300Y1234D01*
X133Y1233D02*
X141Y1233D01*
X293Y1233D02*
X300Y1233D01*
X133Y1232D02*
X141Y1232D01*
X293Y1232D02*
X300Y1232D01*
X133Y1231D02*
X141Y1231D01*
X293Y1231D02*
X300Y1231D01*
X133Y1230D02*
X141Y1230D01*
X293Y1230D02*
X300Y1230D01*
X133Y1229D02*
X141Y1229D01*
X293Y1229D02*
X300Y1229D01*
X133Y1228D02*
X141Y1228D01*
X293Y1228D02*
X300Y1228D01*
X133Y1227D02*
X141Y1227D01*
X293Y1227D02*
X300Y1227D01*
X133Y1226D02*
X141Y1226D01*
X293Y1226D02*
X300Y1226D01*
X133Y1225D02*
X141Y1225D01*
X293Y1225D02*
X300Y1225D01*
X133Y1224D02*
X141Y1224D01*
X293Y1224D02*
X300Y1224D01*
X133Y1223D02*
X141Y1223D01*
X293Y1223D02*
X300Y1223D01*
X133Y1222D02*
X141Y1222D01*
X293Y1222D02*
X300Y1222D01*
X133Y1221D02*
X141Y1221D01*
X293Y1221D02*
X300Y1221D01*
X133Y1220D02*
X141Y1220D01*
X293Y1220D02*
X300Y1220D01*
X133Y1219D02*
X141Y1219D01*
X293Y1219D02*
X300Y1219D01*
X133Y1218D02*
X141Y1218D01*
X293Y1218D02*
X300Y1218D01*
X133Y1217D02*
X141Y1217D01*
X293Y1217D02*
X300Y1217D01*
X133Y1216D02*
X141Y1216D01*
X293Y1216D02*
X300Y1216D01*
X133Y1215D02*
X141Y1215D01*
X293Y1215D02*
X300Y1215D01*
X133Y1214D02*
X141Y1214D01*
X293Y1214D02*
X300Y1214D01*
X133Y1213D02*
X141Y1213D01*
X293Y1213D02*
X300Y1213D01*
X133Y1212D02*
X141Y1212D01*
X293Y1212D02*
X300Y1212D01*
X133Y1211D02*
X141Y1211D01*
X293Y1211D02*
X300Y1211D01*
X133Y1210D02*
X141Y1210D01*
X293Y1210D02*
X300Y1210D01*
X133Y1209D02*
X141Y1209D01*
X293Y1209D02*
X300Y1209D01*
X133Y1208D02*
X141Y1208D01*
X293Y1208D02*
X300Y1208D01*
X133Y1207D02*
X141Y1207D01*
X293Y1207D02*
X300Y1207D01*
X133Y1206D02*
X141Y1206D01*
X293Y1206D02*
X300Y1206D01*
X133Y1205D02*
X141Y1205D01*
X293Y1205D02*
X300Y1205D01*
X134Y1204D02*
X140Y1204D01*
X293Y1204D02*
X300Y1204D01*
X134Y1203D02*
X140Y1203D01*
X294Y1203D02*
X300Y1203D01*
X134Y1202D02*
X140Y1202D01*
X294Y1202D02*
X300Y1202D01*
X135Y1201D02*
X139Y1201D01*
X295Y1201D02*
X299Y1201D01*
X136Y1200D02*
X138Y1200D01*
X296Y1200D02*
X298Y1200D01*
X1212Y1198D02*
X1221Y1198D01*
X1212Y1197D02*
X1221Y1197D01*
X1212Y1196D02*
X1221Y1196D01*
X1212Y1195D02*
X1221Y1195D01*
X1212Y1194D02*
X1221Y1194D01*
X1212Y1193D02*
X1221Y1193D01*
X1212Y1192D02*
X1221Y1192D01*
X1212Y1191D02*
X1221Y1191D01*
X1212Y1190D02*
X1221Y1190D01*
X1212Y1189D02*
X1221Y1189D01*
X1212Y1188D02*
X1221Y1188D01*
X1212Y1187D02*
X1221Y1187D01*
X1212Y1186D02*
X1221Y1186D01*
X1212Y1185D02*
X1221Y1185D01*
X1212Y1184D02*
X1221Y1184D01*
X1212Y1183D02*
X1221Y1183D01*
X1212Y1182D02*
X1221Y1182D01*
X1212Y1181D02*
X1221Y1181D01*
X1212Y1180D02*
X1221Y1180D01*
X1212Y1179D02*
X1221Y1179D01*
X1212Y1178D02*
X1221Y1178D01*
X1212Y1177D02*
X1221Y1177D01*
X1212Y1176D02*
X1221Y1176D01*
X1212Y1175D02*
X1221Y1175D01*
X1212Y1174D02*
X1221Y1174D01*
X1212Y1173D02*
X1221Y1173D01*
X1212Y1172D02*
X1221Y1172D01*
X1212Y1171D02*
X1221Y1171D01*
X1212Y1170D02*
X1221Y1170D01*
X1212Y1169D02*
X1221Y1169D01*
X1212Y1168D02*
X1221Y1168D01*
X1212Y1167D02*
X1221Y1167D01*
X1212Y1166D02*
X1221Y1166D01*
X1212Y1165D02*
X1221Y1165D01*
X1212Y1164D02*
X1221Y1164D01*
X1212Y1163D02*
X1221Y1163D01*
X1212Y1162D02*
X1221Y1162D01*
X1212Y1161D02*
X1221Y1161D01*
X1212Y1160D02*
X1221Y1160D01*
X1212Y1159D02*
X1221Y1159D01*
X1212Y1158D02*
X1221Y1158D01*
X1212Y1157D02*
X1221Y1157D01*
X1212Y1156D02*
X1221Y1156D01*
X1212Y1155D02*
X1221Y1155D01*
X1212Y1154D02*
X1221Y1154D01*
X1212Y1153D02*
X1221Y1153D01*
X1212Y1152D02*
X1221Y1152D01*
X1212Y1151D02*
X1221Y1151D01*
X1212Y1150D02*
X1221Y1150D01*
X1212Y1149D02*
X1221Y1149D01*
X1212Y1148D02*
X1221Y1148D01*
X1212Y1147D02*
X1221Y1147D01*
X1212Y1146D02*
X1221Y1146D01*
X1212Y1145D02*
X1221Y1145D01*
X1212Y1144D02*
X1221Y1144D01*
X1212Y1143D02*
X1221Y1143D01*
X1212Y1142D02*
X1221Y1142D01*
X1212Y1141D02*
X1221Y1141D01*
X1212Y1140D02*
X1221Y1140D01*
X1212Y1139D02*
X1221Y1139D01*
X1212Y1138D02*
X1221Y1138D01*
X1212Y1137D02*
X1221Y1137D01*
X1212Y1136D02*
X1221Y1136D01*
X1212Y1135D02*
X1221Y1135D01*
X1212Y1134D02*
X1221Y1134D01*
X1212Y1133D02*
X1221Y1133D01*
X1212Y1132D02*
X1221Y1132D01*
X1212Y1131D02*
X1212Y1131D01*
X135Y1077D02*
X139Y1077D01*
X295Y1077D02*
X299Y1077D01*
X134Y1076D02*
X140Y1076D01*
X294Y1076D02*
X300Y1076D01*
X134Y1075D02*
X140Y1075D01*
X294Y1075D02*
X300Y1075D01*
X134Y1074D02*
X140Y1074D01*
X294Y1074D02*
X300Y1074D01*
X133Y1073D02*
X141Y1073D01*
X293Y1073D02*
X300Y1073D01*
X133Y1072D02*
X141Y1072D01*
X293Y1072D02*
X300Y1072D01*
X133Y1071D02*
X141Y1071D01*
X293Y1071D02*
X300Y1071D01*
X133Y1070D02*
X141Y1070D01*
X293Y1070D02*
X300Y1070D01*
X133Y1069D02*
X141Y1069D01*
X293Y1069D02*
X300Y1069D01*
X133Y1068D02*
X141Y1068D01*
X293Y1068D02*
X300Y1068D01*
X133Y1067D02*
X141Y1067D01*
X293Y1067D02*
X300Y1067D01*
X133Y1066D02*
X141Y1066D01*
X293Y1066D02*
X300Y1066D01*
X133Y1065D02*
X141Y1065D01*
X293Y1065D02*
X300Y1065D01*
X133Y1064D02*
X141Y1064D01*
X293Y1064D02*
X300Y1064D01*
X133Y1063D02*
X141Y1063D01*
X293Y1063D02*
X300Y1063D01*
X133Y1062D02*
X141Y1062D01*
X293Y1062D02*
X300Y1062D01*
X133Y1061D02*
X141Y1061D01*
X293Y1061D02*
X300Y1061D01*
X133Y1060D02*
X141Y1060D01*
X293Y1060D02*
X300Y1060D01*
X133Y1059D02*
X141Y1059D01*
X293Y1059D02*
X300Y1059D01*
X133Y1058D02*
X141Y1058D01*
X293Y1058D02*
X300Y1058D01*
X133Y1057D02*
X141Y1057D01*
X293Y1057D02*
X300Y1057D01*
X133Y1056D02*
X141Y1056D01*
X293Y1056D02*
X300Y1056D01*
X133Y1055D02*
X141Y1055D01*
X293Y1055D02*
X300Y1055D01*
X133Y1054D02*
X141Y1054D01*
X293Y1054D02*
X300Y1054D01*
X133Y1053D02*
X141Y1053D01*
X293Y1053D02*
X300Y1053D01*
X133Y1052D02*
X141Y1052D01*
X293Y1052D02*
X300Y1052D01*
X133Y1051D02*
X141Y1051D01*
X293Y1051D02*
X300Y1051D01*
X133Y1050D02*
X141Y1050D01*
X293Y1050D02*
X300Y1050D01*
X133Y1049D02*
X141Y1049D01*
X293Y1049D02*
X300Y1049D01*
X133Y1048D02*
X141Y1048D01*
X293Y1048D02*
X300Y1048D01*
X133Y1047D02*
X141Y1047D01*
X293Y1047D02*
X300Y1047D01*
X133Y1046D02*
X141Y1046D01*
X293Y1046D02*
X300Y1046D01*
X133Y1045D02*
X141Y1045D01*
X293Y1045D02*
X300Y1045D01*
X133Y1044D02*
X141Y1044D01*
X293Y1044D02*
X300Y1044D01*
X133Y1043D02*
X141Y1043D01*
X293Y1043D02*
X300Y1043D01*
X133Y1042D02*
X141Y1042D01*
X293Y1042D02*
X300Y1042D01*
X134Y1041D02*
X141Y1041D01*
X293Y1041D02*
X300Y1041D01*
X135Y1040D02*
X141Y1040D01*
X293Y1040D02*
X299Y1040D01*
X137Y1039D02*
X141Y1039D01*
X293Y1039D02*
X297Y1039D01*
X138Y1038D02*
X141Y1038D01*
X293Y1038D02*
X296Y1038D01*
X139Y1037D02*
X141Y1037D01*
X293Y1037D02*
X295Y1037D01*
X140Y1036D02*
X141Y1036D01*
X293Y1036D02*
X294Y1036D01*
X141Y1035D02*
X141Y1035D01*
X293Y1035D02*
X293Y1035D01*
X178Y1027D02*
X188Y1027D01*
X178Y1026D02*
X188Y1026D01*
X178Y1025D02*
X187Y1025D01*
X178Y1024D02*
X187Y1024D01*
X178Y1023D02*
X187Y1023D01*
X178Y1022D02*
X186Y1022D01*
X178Y1021D02*
X186Y1021D01*
X178Y1020D02*
X184Y1020D01*
X178Y1019D02*
X184Y1019D01*
X178Y1018D02*
X184Y1018D01*
X178Y1017D02*
X184Y1017D01*
X178Y1016D02*
X184Y1016D01*
X178Y1015D02*
X184Y1015D01*
X178Y1014D02*
X184Y1014D01*
X178Y1013D02*
X184Y1013D01*
X178Y1012D02*
X184Y1012D01*
X178Y1011D02*
X184Y1011D01*
X178Y1010D02*
X184Y1010D01*
X178Y1009D02*
X183Y1009D01*
X178Y1008D02*
X183Y1008D01*
X180Y1007D02*
X182Y1007D01*
X180Y991D02*
X185Y991D01*
X179Y990D02*
X185Y990D01*
X178Y989D02*
X185Y989D01*
X178Y988D02*
X185Y988D01*
X178Y987D02*
X185Y987D01*
X178Y986D02*
X185Y986D01*
X179Y985D02*
X185Y985D01*
X179Y963D02*
X185Y963D01*
X178Y962D02*
X186Y962D01*
X178Y961D02*
X186Y961D01*
X178Y960D02*
X186Y960D01*
X178Y959D02*
X186Y959D01*
X178Y958D02*
X186Y958D01*
X180Y957D02*
X186Y957D01*
X35Y947D02*
X90Y947D01*
X144Y947D02*
X190Y947D01*
X244Y947D02*
X290Y947D01*
X344Y947D02*
X399Y947D01*
X34Y946D02*
X91Y946D01*
X143Y946D02*
X191Y946D01*
X243Y946D02*
X291Y946D01*
X343Y946D02*
X400Y946D01*
X34Y945D02*
X91Y945D01*
X143Y945D02*
X191Y945D01*
X243Y945D02*
X291Y945D01*
X343Y945D02*
X400Y945D01*
X34Y944D02*
X92Y944D01*
X142Y944D02*
X192Y944D01*
X242Y944D02*
X292Y944D01*
X342Y944D02*
X400Y944D01*
X34Y943D02*
X93Y943D01*
X141Y943D02*
X193Y943D01*
X241Y943D02*
X293Y943D01*
X341Y943D02*
X400Y943D01*
X34Y942D02*
X94Y942D01*
X140Y942D02*
X194Y942D01*
X240Y942D02*
X294Y942D01*
X340Y942D02*
X400Y942D01*
X35Y941D02*
X95Y941D01*
X139Y941D02*
X195Y941D01*
X239Y941D02*
X294Y941D01*
X339Y941D02*
X399Y941D01*
X37Y940D02*
X96Y940D01*
X138Y940D02*
X196Y940D01*
X238Y940D02*
X296Y940D01*
X338Y940D02*
X397Y940D01*
X1165Y875D02*
X1165Y875D01*
X1164Y874D02*
X1166Y874D01*
X1163Y873D02*
X1167Y873D01*
X1162Y872D02*
X1168Y872D01*
X1161Y871D02*
X1167Y871D01*
X1160Y870D02*
X1166Y870D01*
X1159Y869D02*
X1165Y869D01*
X1158Y868D02*
X1164Y868D01*
X1157Y867D02*
X1163Y867D01*
X1156Y866D02*
X1162Y866D01*
X1155Y865D02*
X1161Y865D01*
X1154Y864D02*
X1160Y864D01*
X1153Y863D02*
X1159Y863D01*
X1152Y862D02*
X1158Y862D01*
X1151Y861D02*
X1157Y861D01*
X1150Y860D02*
X1156Y860D01*
X1150Y859D02*
X1155Y859D01*
X1149Y858D02*
X1154Y858D01*
X1148Y857D02*
X1153Y857D01*
X1146Y856D02*
X1152Y856D01*
X1145Y855D02*
X1151Y855D01*
X1144Y854D02*
X1150Y854D01*
X1143Y853D02*
X1149Y853D01*
X1142Y852D02*
X1148Y852D01*
X1141Y851D02*
X1147Y851D01*
X1140Y850D02*
X1146Y850D01*
X1139Y849D02*
X1145Y849D01*
X1138Y848D02*
X1144Y848D01*
X1137Y847D02*
X1143Y847D01*
X1136Y846D02*
X1142Y846D01*
X1135Y845D02*
X1141Y845D01*
X1134Y844D02*
X1140Y844D01*
X1133Y843D02*
X1139Y843D01*
X1132Y842D02*
X1138Y842D01*
X1131Y841D02*
X1137Y841D01*
X1131Y840D02*
X1136Y840D01*
X1132Y839D02*
X1135Y839D01*
X1133Y838D02*
X1134Y838D01*
X560Y793D02*
X572Y793D01*
X611Y793D02*
X631Y793D01*
X707Y793D02*
X709Y793D01*
X735Y793D02*
X736Y793D01*
X772Y793D02*
X774Y793D01*
X921Y793D02*
X922Y793D01*
X955Y793D02*
X963Y793D01*
X985Y793D02*
X986Y793D01*
X1007Y793D02*
X1036Y793D01*
X560Y792D02*
X575Y792D01*
X609Y792D02*
X634Y792D01*
X706Y792D02*
X710Y792D01*
X734Y792D02*
X738Y792D01*
X768Y792D02*
X774Y792D01*
X920Y792D02*
X924Y792D01*
X955Y792D02*
X964Y792D01*
X983Y792D02*
X988Y792D01*
X1006Y792D02*
X1038Y792D01*
X560Y791D02*
X577Y791D01*
X608Y791D02*
X635Y791D01*
X705Y791D02*
X711Y791D01*
X733Y791D02*
X738Y791D01*
X767Y791D02*
X774Y791D01*
X919Y791D02*
X924Y791D01*
X955Y791D02*
X964Y791D01*
X983Y791D02*
X988Y791D01*
X1005Y791D02*
X1038Y791D01*
X560Y790D02*
X578Y790D01*
X607Y790D02*
X636Y790D01*
X705Y790D02*
X711Y790D01*
X733Y790D02*
X739Y790D01*
X766Y790D02*
X774Y790D01*
X919Y790D02*
X925Y790D01*
X955Y790D02*
X965Y790D01*
X983Y790D02*
X988Y790D01*
X1005Y790D02*
X1038Y790D01*
X560Y789D02*
X579Y789D01*
X606Y789D02*
X637Y789D01*
X705Y789D02*
X711Y789D01*
X732Y789D02*
X739Y789D01*
X765Y789D02*
X774Y789D01*
X919Y789D02*
X925Y789D01*
X955Y789D02*
X965Y789D01*
X982Y789D02*
X988Y789D01*
X1005Y789D02*
X1038Y789D01*
X560Y788D02*
X579Y788D01*
X606Y788D02*
X638Y788D01*
X705Y788D02*
X712Y788D01*
X732Y788D02*
X738Y788D01*
X764Y788D02*
X774Y788D01*
X919Y788D02*
X925Y788D01*
X955Y788D02*
X965Y788D01*
X982Y788D02*
X988Y788D01*
X1005Y788D02*
X1038Y788D01*
X560Y787D02*
X580Y787D01*
X605Y787D02*
X638Y787D01*
X706Y787D02*
X712Y787D01*
X732Y787D02*
X738Y787D01*
X763Y787D02*
X774Y787D01*
X919Y787D02*
X925Y787D01*
X955Y787D02*
X966Y787D01*
X982Y787D02*
X988Y787D01*
X1006Y787D02*
X1037Y787D01*
X573Y786D02*
X581Y786D01*
X605Y786D02*
X611Y786D01*
X631Y786D02*
X638Y786D01*
X706Y786D02*
X712Y786D01*
X731Y786D02*
X738Y786D01*
X763Y786D02*
X771Y786D01*
X919Y786D02*
X925Y786D01*
X955Y786D02*
X966Y786D01*
X982Y786D02*
X988Y786D01*
X1019Y786D02*
X1025Y786D01*
X574Y785D02*
X581Y785D01*
X605Y785D02*
X611Y785D01*
X632Y785D02*
X638Y785D01*
X706Y785D02*
X712Y785D01*
X731Y785D02*
X737Y785D01*
X762Y785D02*
X770Y785D01*
X919Y785D02*
X925Y785D01*
X955Y785D02*
X967Y785D01*
X982Y785D02*
X988Y785D01*
X1019Y785D02*
X1025Y785D01*
X575Y784D02*
X582Y784D01*
X605Y784D02*
X612Y784D01*
X633Y784D02*
X639Y784D01*
X707Y784D02*
X713Y784D01*
X731Y784D02*
X737Y784D01*
X762Y784D02*
X769Y784D01*
X919Y784D02*
X925Y784D01*
X955Y784D02*
X967Y784D01*
X982Y784D02*
X988Y784D01*
X1019Y784D02*
X1025Y784D01*
X575Y783D02*
X582Y783D01*
X605Y783D02*
X613Y783D01*
X633Y783D02*
X638Y783D01*
X707Y783D02*
X713Y783D01*
X730Y783D02*
X737Y783D01*
X761Y783D02*
X768Y783D01*
X919Y783D02*
X925Y783D01*
X955Y783D02*
X968Y783D01*
X982Y783D02*
X988Y783D01*
X1019Y783D02*
X1025Y783D01*
X576Y782D02*
X583Y782D01*
X606Y782D02*
X614Y782D01*
X633Y782D02*
X638Y782D01*
X707Y782D02*
X713Y782D01*
X730Y782D02*
X737Y782D01*
X761Y782D02*
X768Y782D01*
X919Y782D02*
X925Y782D01*
X955Y782D02*
X968Y782D01*
X982Y782D02*
X988Y782D01*
X1019Y782D02*
X1025Y782D01*
X576Y781D02*
X583Y781D01*
X606Y781D02*
X614Y781D01*
X634Y781D02*
X637Y781D01*
X707Y781D02*
X736Y781D01*
X761Y781D02*
X767Y781D01*
X919Y781D02*
X925Y781D01*
X955Y781D02*
X969Y781D01*
X982Y781D02*
X988Y781D01*
X1019Y781D02*
X1025Y781D01*
X577Y780D02*
X584Y780D01*
X607Y780D02*
X615Y780D01*
X708Y780D02*
X736Y780D01*
X760Y780D02*
X767Y780D01*
X919Y780D02*
X925Y780D01*
X955Y780D02*
X969Y780D01*
X982Y780D02*
X988Y780D01*
X1019Y780D02*
X1025Y780D01*
X577Y779D02*
X584Y779D01*
X608Y779D02*
X616Y779D01*
X708Y779D02*
X736Y779D01*
X760Y779D02*
X766Y779D01*
X919Y779D02*
X925Y779D01*
X955Y779D02*
X961Y779D01*
X963Y779D02*
X969Y779D01*
X982Y779D02*
X988Y779D01*
X1019Y779D02*
X1025Y779D01*
X578Y778D02*
X585Y778D01*
X609Y778D02*
X617Y778D01*
X708Y778D02*
X735Y778D01*
X759Y778D02*
X766Y778D01*
X919Y778D02*
X925Y778D01*
X955Y778D02*
X961Y778D01*
X963Y778D02*
X970Y778D01*
X982Y778D02*
X988Y778D01*
X1019Y778D02*
X1025Y778D01*
X578Y777D02*
X585Y777D01*
X609Y777D02*
X617Y777D01*
X709Y777D02*
X735Y777D01*
X759Y777D02*
X765Y777D01*
X776Y777D02*
X776Y777D01*
X919Y777D02*
X925Y777D01*
X955Y777D02*
X961Y777D01*
X964Y777D02*
X970Y777D01*
X982Y777D02*
X988Y777D01*
X1019Y777D02*
X1025Y777D01*
X579Y776D02*
X586Y776D01*
X610Y776D02*
X618Y776D01*
X709Y776D02*
X735Y776D01*
X758Y776D02*
X765Y776D01*
X776Y776D02*
X776Y776D01*
X919Y776D02*
X925Y776D01*
X955Y776D02*
X961Y776D01*
X964Y776D02*
X971Y776D01*
X982Y776D02*
X988Y776D01*
X1019Y776D02*
X1025Y776D01*
X579Y775D02*
X586Y775D01*
X611Y775D02*
X619Y775D01*
X709Y775D02*
X734Y775D01*
X758Y775D02*
X764Y775D01*
X776Y775D02*
X776Y775D01*
X919Y775D02*
X925Y775D01*
X955Y775D02*
X961Y775D01*
X964Y775D02*
X971Y775D01*
X982Y775D02*
X988Y775D01*
X1019Y775D02*
X1025Y775D01*
X580Y774D02*
X587Y774D01*
X612Y774D02*
X620Y774D01*
X709Y774D02*
X716Y774D01*
X728Y774D02*
X734Y774D01*
X757Y774D02*
X764Y774D01*
X776Y774D02*
X777Y774D01*
X919Y774D02*
X925Y774D01*
X955Y774D02*
X961Y774D01*
X965Y774D02*
X972Y774D01*
X982Y774D02*
X988Y774D01*
X1019Y774D02*
X1025Y774D01*
X580Y773D02*
X587Y773D01*
X613Y773D02*
X621Y773D01*
X710Y773D02*
X716Y773D01*
X728Y773D02*
X734Y773D01*
X757Y773D02*
X763Y773D01*
X776Y773D02*
X777Y773D01*
X919Y773D02*
X925Y773D01*
X955Y773D02*
X961Y773D01*
X965Y773D02*
X972Y773D01*
X982Y773D02*
X988Y773D01*
X1019Y773D02*
X1025Y773D01*
X581Y772D02*
X587Y772D01*
X613Y772D02*
X621Y772D01*
X710Y772D02*
X716Y772D01*
X727Y772D02*
X734Y772D01*
X756Y772D02*
X763Y772D01*
X776Y772D02*
X777Y772D01*
X919Y772D02*
X925Y772D01*
X955Y772D02*
X961Y772D01*
X966Y772D02*
X973Y772D01*
X982Y772D02*
X988Y772D01*
X1019Y772D02*
X1025Y772D01*
X581Y771D02*
X588Y771D01*
X614Y771D02*
X622Y771D01*
X710Y771D02*
X717Y771D01*
X727Y771D02*
X733Y771D01*
X756Y771D02*
X762Y771D01*
X776Y771D02*
X778Y771D01*
X919Y771D02*
X925Y771D01*
X955Y771D02*
X961Y771D01*
X966Y771D02*
X973Y771D01*
X982Y771D02*
X988Y771D01*
X1019Y771D02*
X1025Y771D01*
X582Y770D02*
X588Y770D01*
X615Y770D02*
X623Y770D01*
X711Y770D02*
X717Y770D01*
X727Y770D02*
X733Y770D01*
X756Y770D02*
X762Y770D01*
X776Y770D02*
X778Y770D01*
X919Y770D02*
X925Y770D01*
X955Y770D02*
X961Y770D01*
X967Y770D02*
X973Y770D01*
X982Y770D02*
X988Y770D01*
X1019Y770D02*
X1025Y770D01*
X582Y769D02*
X588Y769D01*
X616Y769D02*
X624Y769D01*
X711Y769D02*
X717Y769D01*
X726Y769D02*
X733Y769D01*
X755Y769D02*
X762Y769D01*
X776Y769D02*
X779Y769D01*
X919Y769D02*
X925Y769D01*
X955Y769D02*
X961Y769D01*
X967Y769D02*
X974Y769D01*
X982Y769D02*
X988Y769D01*
X1019Y769D02*
X1025Y769D01*
X582Y768D02*
X588Y768D01*
X616Y768D02*
X624Y768D01*
X711Y768D02*
X718Y768D01*
X726Y768D02*
X732Y768D01*
X755Y768D02*
X761Y768D01*
X776Y768D02*
X779Y768D01*
X919Y768D02*
X925Y768D01*
X955Y768D02*
X961Y768D01*
X968Y768D02*
X974Y768D01*
X982Y768D02*
X988Y768D01*
X1019Y768D02*
X1025Y768D01*
X582Y767D02*
X589Y767D01*
X617Y767D02*
X625Y767D01*
X711Y767D02*
X718Y767D01*
X726Y767D02*
X732Y767D01*
X755Y767D02*
X761Y767D01*
X776Y767D02*
X780Y767D01*
X919Y767D02*
X925Y767D01*
X955Y767D02*
X961Y767D01*
X968Y767D02*
X975Y767D01*
X982Y767D02*
X988Y767D01*
X1019Y767D02*
X1025Y767D01*
X583Y766D02*
X589Y766D01*
X618Y766D02*
X626Y766D01*
X712Y766D02*
X718Y766D01*
X725Y766D02*
X732Y766D01*
X755Y766D02*
X761Y766D01*
X776Y766D02*
X781Y766D01*
X919Y766D02*
X925Y766D01*
X955Y766D02*
X961Y766D01*
X968Y766D02*
X975Y766D01*
X982Y766D02*
X988Y766D01*
X1019Y766D02*
X1025Y766D01*
X582Y765D02*
X589Y765D01*
X619Y765D02*
X627Y765D01*
X712Y765D02*
X718Y765D01*
X725Y765D02*
X732Y765D01*
X755Y765D02*
X761Y765D01*
X776Y765D02*
X781Y765D01*
X919Y765D02*
X925Y765D01*
X955Y765D02*
X961Y765D01*
X969Y765D02*
X976Y765D01*
X982Y765D02*
X988Y765D01*
X1019Y765D02*
X1025Y765D01*
X582Y764D02*
X588Y764D01*
X620Y764D02*
X628Y764D01*
X712Y764D02*
X719Y764D01*
X725Y764D02*
X731Y764D01*
X755Y764D02*
X761Y764D01*
X776Y764D02*
X782Y764D01*
X919Y764D02*
X925Y764D01*
X955Y764D02*
X961Y764D01*
X969Y764D02*
X976Y764D01*
X982Y764D02*
X988Y764D01*
X1019Y764D02*
X1025Y764D01*
X582Y763D02*
X588Y763D01*
X620Y763D02*
X628Y763D01*
X713Y763D02*
X719Y763D01*
X725Y763D02*
X731Y763D01*
X755Y763D02*
X762Y763D01*
X776Y763D02*
X782Y763D01*
X919Y763D02*
X925Y763D01*
X955Y763D02*
X961Y763D01*
X970Y763D02*
X976Y763D01*
X982Y763D02*
X988Y763D01*
X1019Y763D02*
X1025Y763D01*
X582Y762D02*
X588Y762D01*
X621Y762D02*
X629Y762D01*
X713Y762D02*
X719Y762D01*
X724Y762D02*
X731Y762D01*
X756Y762D02*
X762Y762D01*
X776Y762D02*
X782Y762D01*
X919Y762D02*
X925Y762D01*
X955Y762D02*
X961Y762D01*
X970Y762D02*
X977Y762D01*
X982Y762D02*
X988Y762D01*
X1019Y762D02*
X1025Y762D01*
X581Y761D02*
X588Y761D01*
X622Y761D02*
X630Y761D01*
X713Y761D02*
X720Y761D01*
X724Y761D02*
X730Y761D01*
X756Y761D02*
X763Y761D01*
X776Y761D02*
X782Y761D01*
X919Y761D02*
X925Y761D01*
X955Y761D02*
X961Y761D01*
X971Y761D02*
X977Y761D01*
X982Y761D02*
X988Y761D01*
X1019Y761D02*
X1025Y761D01*
X581Y760D02*
X587Y760D01*
X623Y760D02*
X631Y760D01*
X714Y760D02*
X720Y760D01*
X724Y760D02*
X730Y760D01*
X756Y760D02*
X763Y760D01*
X776Y760D02*
X782Y760D01*
X919Y760D02*
X925Y760D01*
X955Y760D02*
X961Y760D01*
X971Y760D02*
X978Y760D01*
X982Y760D02*
X988Y760D01*
X1019Y760D02*
X1025Y760D01*
X580Y759D02*
X587Y759D01*
X623Y759D02*
X631Y759D01*
X714Y759D02*
X720Y759D01*
X723Y759D02*
X730Y759D01*
X757Y759D02*
X764Y759D01*
X776Y759D02*
X782Y759D01*
X919Y759D02*
X925Y759D01*
X955Y759D02*
X961Y759D01*
X971Y759D02*
X978Y759D01*
X982Y759D02*
X988Y759D01*
X1019Y759D02*
X1025Y759D01*
X580Y758D02*
X586Y758D01*
X624Y758D02*
X632Y758D01*
X714Y758D02*
X720Y758D01*
X723Y758D02*
X729Y758D01*
X757Y758D02*
X764Y758D01*
X776Y758D02*
X782Y758D01*
X919Y758D02*
X925Y758D01*
X955Y758D02*
X961Y758D01*
X972Y758D02*
X979Y758D01*
X982Y758D02*
X988Y758D01*
X1019Y758D02*
X1025Y758D01*
X579Y757D02*
X586Y757D01*
X625Y757D02*
X633Y757D01*
X714Y757D02*
X721Y757D01*
X723Y757D02*
X729Y757D01*
X758Y757D02*
X765Y757D01*
X776Y757D02*
X782Y757D01*
X919Y757D02*
X925Y757D01*
X955Y757D02*
X961Y757D01*
X972Y757D02*
X979Y757D01*
X982Y757D02*
X988Y757D01*
X1019Y757D02*
X1025Y757D01*
X579Y756D02*
X585Y756D01*
X626Y756D02*
X634Y756D01*
X715Y756D02*
X721Y756D01*
X723Y756D02*
X729Y756D01*
X758Y756D02*
X765Y756D01*
X776Y756D02*
X782Y756D01*
X919Y756D02*
X925Y756D01*
X955Y756D02*
X961Y756D01*
X973Y756D02*
X980Y756D01*
X982Y756D02*
X988Y756D01*
X1019Y756D02*
X1025Y756D01*
X578Y755D02*
X585Y755D01*
X627Y755D02*
X634Y755D01*
X715Y755D02*
X729Y755D01*
X759Y755D02*
X766Y755D01*
X776Y755D02*
X782Y755D01*
X919Y755D02*
X925Y755D01*
X955Y755D02*
X961Y755D01*
X973Y755D02*
X980Y755D01*
X982Y755D02*
X988Y755D01*
X1019Y755D02*
X1025Y755D01*
X578Y754D02*
X584Y754D01*
X627Y754D02*
X635Y754D01*
X715Y754D02*
X728Y754D01*
X759Y754D02*
X766Y754D01*
X776Y754D02*
X782Y754D01*
X919Y754D02*
X925Y754D01*
X955Y754D02*
X961Y754D01*
X974Y754D02*
X980Y754D01*
X982Y754D02*
X988Y754D01*
X1019Y754D02*
X1025Y754D01*
X577Y753D02*
X584Y753D01*
X628Y753D02*
X636Y753D01*
X716Y753D02*
X728Y753D01*
X760Y753D02*
X767Y753D01*
X776Y753D02*
X782Y753D01*
X919Y753D02*
X925Y753D01*
X955Y753D02*
X961Y753D01*
X974Y753D02*
X988Y753D01*
X1019Y753D02*
X1025Y753D01*
X538Y752D02*
X539Y752D01*
X577Y752D02*
X583Y752D01*
X629Y752D02*
X637Y752D01*
X716Y752D02*
X728Y752D01*
X760Y752D02*
X767Y752D01*
X776Y752D02*
X782Y752D01*
X919Y752D02*
X925Y752D01*
X955Y752D02*
X961Y752D01*
X975Y752D02*
X988Y752D01*
X1019Y752D02*
X1025Y752D01*
X537Y751D02*
X539Y751D01*
X576Y751D02*
X583Y751D01*
X606Y751D02*
X610Y751D01*
X630Y751D02*
X637Y751D01*
X716Y751D02*
X727Y751D01*
X761Y751D02*
X768Y751D01*
X776Y751D02*
X782Y751D01*
X836Y751D02*
X837Y751D01*
X906Y751D02*
X910Y751D01*
X919Y751D02*
X925Y751D01*
X934Y751D02*
X937Y751D01*
X955Y751D02*
X961Y751D01*
X975Y751D02*
X988Y751D01*
X1019Y751D02*
X1025Y751D01*
X534Y750D02*
X539Y750D01*
X576Y750D02*
X582Y750D01*
X605Y750D02*
X611Y750D01*
X630Y750D02*
X638Y750D01*
X716Y750D02*
X727Y750D01*
X761Y750D02*
X768Y750D01*
X776Y750D02*
X782Y750D01*
X834Y750D02*
X838Y750D01*
X905Y750D02*
X911Y750D01*
X919Y750D02*
X925Y750D01*
X933Y750D02*
X938Y750D01*
X955Y750D02*
X961Y750D01*
X975Y750D02*
X988Y750D01*
X1019Y750D02*
X1025Y750D01*
X533Y749D02*
X539Y749D01*
X575Y749D02*
X582Y749D01*
X605Y749D02*
X611Y749D01*
X631Y749D02*
X638Y749D01*
X717Y749D02*
X727Y749D01*
X762Y749D02*
X769Y749D01*
X776Y749D02*
X782Y749D01*
X832Y749D02*
X838Y749D01*
X905Y749D02*
X911Y749D01*
X919Y749D02*
X925Y749D01*
X933Y749D02*
X938Y749D01*
X955Y749D02*
X961Y749D01*
X976Y749D02*
X988Y749D01*
X1019Y749D02*
X1025Y749D01*
X533Y748D02*
X539Y748D01*
X574Y748D02*
X581Y748D01*
X605Y748D02*
X611Y748D01*
X632Y748D02*
X638Y748D01*
X717Y748D02*
X727Y748D01*
X762Y748D02*
X769Y748D01*
X776Y748D02*
X782Y748D01*
X805Y748D02*
X805Y748D01*
X832Y748D02*
X838Y748D01*
X905Y748D02*
X911Y748D01*
X919Y748D02*
X925Y748D01*
X932Y748D02*
X939Y748D01*
X955Y748D02*
X961Y748D01*
X976Y748D02*
X988Y748D01*
X1019Y748D02*
X1025Y748D01*
X533Y747D02*
X539Y747D01*
X574Y747D02*
X581Y747D01*
X605Y747D02*
X612Y747D01*
X633Y747D02*
X639Y747D01*
X717Y747D02*
X726Y747D01*
X763Y747D02*
X770Y747D01*
X776Y747D02*
X782Y747D01*
X805Y747D02*
X810Y747D01*
X832Y747D02*
X838Y747D01*
X905Y747D02*
X911Y747D01*
X919Y747D02*
X925Y747D01*
X932Y747D02*
X939Y747D01*
X955Y747D02*
X961Y747D01*
X977Y747D02*
X988Y747D01*
X1019Y747D02*
X1025Y747D01*
X533Y746D02*
X539Y746D01*
X558Y746D02*
X580Y746D01*
X605Y746D02*
X638Y746D01*
X718Y746D02*
X726Y746D01*
X763Y746D02*
X785Y746D01*
X805Y746D02*
X838Y746D01*
X905Y746D02*
X939Y746D01*
X955Y746D02*
X961Y746D01*
X977Y746D02*
X988Y746D01*
X1008Y746D02*
X1035Y746D01*
X533Y745D02*
X539Y745D01*
X556Y745D02*
X580Y745D01*
X606Y745D02*
X638Y745D01*
X718Y745D02*
X726Y745D01*
X764Y745D02*
X787Y745D01*
X806Y745D02*
X838Y745D01*
X905Y745D02*
X939Y745D01*
X955Y745D02*
X961Y745D01*
X978Y745D02*
X988Y745D01*
X1006Y745D02*
X1037Y745D01*
X533Y744D02*
X539Y744D01*
X555Y744D02*
X579Y744D01*
X606Y744D02*
X638Y744D01*
X718Y744D02*
X725Y744D01*
X764Y744D02*
X788Y744D01*
X806Y744D02*
X838Y744D01*
X905Y744D02*
X939Y744D01*
X955Y744D02*
X961Y744D01*
X978Y744D02*
X988Y744D01*
X1005Y744D02*
X1038Y744D01*
X533Y743D02*
X539Y743D01*
X555Y743D02*
X579Y743D01*
X607Y743D02*
X638Y743D01*
X718Y743D02*
X725Y743D01*
X765Y743D02*
X788Y743D01*
X807Y743D02*
X837Y743D01*
X905Y743D02*
X939Y743D01*
X955Y743D02*
X961Y743D01*
X979Y743D02*
X988Y743D01*
X1005Y743D02*
X1038Y743D01*
X533Y742D02*
X538Y742D01*
X555Y742D02*
X578Y742D01*
X608Y742D02*
X637Y742D01*
X719Y742D02*
X725Y742D01*
X766Y742D02*
X788Y742D01*
X808Y742D02*
X837Y742D01*
X905Y742D02*
X939Y742D01*
X955Y742D02*
X961Y742D01*
X979Y742D02*
X988Y742D01*
X1005Y742D02*
X1038Y742D01*
X533Y741D02*
X538Y741D01*
X555Y741D02*
X577Y741D01*
X609Y741D02*
X636Y741D01*
X719Y741D02*
X724Y741D01*
X767Y741D02*
X788Y741D01*
X809Y741D02*
X836Y741D01*
X905Y741D02*
X939Y741D01*
X955Y741D02*
X961Y741D01*
X979Y741D02*
X988Y741D01*
X1005Y741D02*
X1038Y741D01*
X534Y740D02*
X537Y740D01*
X556Y740D02*
X575Y740D01*
X610Y740D02*
X634Y740D01*
X720Y740D02*
X724Y740D01*
X769Y740D02*
X787Y740D01*
X810Y740D02*
X834Y740D01*
X905Y740D02*
X939Y740D01*
X956Y740D02*
X960Y740D01*
X980Y740D02*
X988Y740D01*
X1006Y740D02*
X1037Y740D01*
X1112Y646D02*
X1121Y646D01*
X1212Y646D02*
X1221Y646D01*
X1112Y645D02*
X1121Y645D01*
X1212Y645D02*
X1221Y645D01*
X1112Y644D02*
X1121Y644D01*
X1212Y644D02*
X1221Y644D01*
X1112Y643D02*
X1121Y643D01*
X1212Y643D02*
X1221Y643D01*
X1112Y642D02*
X1121Y642D01*
X1212Y642D02*
X1221Y642D01*
X1112Y641D02*
X1121Y641D01*
X1212Y641D02*
X1221Y641D01*
X1112Y640D02*
X1121Y640D01*
X1212Y640D02*
X1221Y640D01*
X1112Y639D02*
X1121Y639D01*
X1212Y639D02*
X1221Y639D01*
X1112Y638D02*
X1121Y638D01*
X1212Y638D02*
X1221Y638D01*
X1112Y637D02*
X1121Y637D01*
X1212Y637D02*
X1221Y637D01*
X1112Y636D02*
X1121Y636D01*
X1212Y636D02*
X1221Y636D01*
X1112Y635D02*
X1121Y635D01*
X1212Y635D02*
X1221Y635D01*
X1112Y634D02*
X1121Y634D01*
X1212Y634D02*
X1221Y634D01*
X1112Y633D02*
X1121Y633D01*
X1212Y633D02*
X1221Y633D01*
X1112Y632D02*
X1121Y632D01*
X1212Y632D02*
X1221Y632D01*
X1112Y631D02*
X1121Y631D01*
X1212Y631D02*
X1221Y631D01*
X1112Y630D02*
X1121Y630D01*
X1212Y630D02*
X1221Y630D01*
X1112Y629D02*
X1121Y629D01*
X1212Y629D02*
X1221Y629D01*
X1112Y628D02*
X1121Y628D01*
X1212Y628D02*
X1221Y628D01*
X1112Y627D02*
X1121Y627D01*
X1212Y627D02*
X1221Y627D01*
X1112Y626D02*
X1121Y626D01*
X1212Y626D02*
X1221Y626D01*
X1112Y625D02*
X1121Y625D01*
X1212Y625D02*
X1221Y625D01*
X1112Y624D02*
X1121Y624D01*
X1212Y624D02*
X1221Y624D01*
X1112Y623D02*
X1121Y623D01*
X1212Y623D02*
X1221Y623D01*
X1112Y622D02*
X1121Y622D01*
X1212Y622D02*
X1221Y622D01*
X1112Y621D02*
X1121Y621D01*
X1212Y621D02*
X1221Y621D01*
X1112Y620D02*
X1121Y620D01*
X1212Y620D02*
X1221Y620D01*
X1112Y619D02*
X1121Y619D01*
X1212Y619D02*
X1221Y619D01*
X1112Y618D02*
X1121Y618D01*
X1212Y618D02*
X1221Y618D01*
X1112Y617D02*
X1121Y617D01*
X1212Y617D02*
X1221Y617D01*
X1112Y616D02*
X1121Y616D01*
X1212Y616D02*
X1221Y616D01*
X1112Y615D02*
X1121Y615D01*
X1212Y615D02*
X1221Y615D01*
X1112Y614D02*
X1121Y614D01*
X1212Y614D02*
X1221Y614D01*
X1112Y613D02*
X1121Y613D01*
X1212Y613D02*
X1221Y613D01*
X1112Y612D02*
X1121Y612D01*
X1212Y612D02*
X1221Y612D01*
X1112Y611D02*
X1121Y611D01*
X1212Y611D02*
X1221Y611D01*
X1112Y610D02*
X1121Y610D01*
X1212Y610D02*
X1221Y610D01*
X1112Y609D02*
X1121Y609D01*
X1212Y609D02*
X1221Y609D01*
X1112Y608D02*
X1121Y608D01*
X1212Y608D02*
X1221Y608D01*
X1112Y607D02*
X1121Y607D01*
X1212Y607D02*
X1221Y607D01*
X1112Y606D02*
X1121Y606D01*
X1212Y606D02*
X1221Y606D01*
X1112Y605D02*
X1121Y605D01*
X1212Y605D02*
X1221Y605D01*
X1112Y604D02*
X1121Y604D01*
X1212Y604D02*
X1221Y604D01*
X1112Y603D02*
X1121Y603D01*
X1212Y603D02*
X1221Y603D01*
X1112Y602D02*
X1121Y602D01*
X1212Y602D02*
X1221Y602D01*
X1112Y601D02*
X1121Y601D01*
X1212Y601D02*
X1221Y601D01*
X1112Y600D02*
X1121Y600D01*
X1212Y600D02*
X1221Y600D01*
X1112Y599D02*
X1121Y599D01*
X1212Y599D02*
X1221Y599D01*
X1112Y598D02*
X1121Y598D01*
X1212Y598D02*
X1221Y598D01*
X1112Y597D02*
X1121Y597D01*
X1212Y597D02*
X1221Y597D01*
X1112Y596D02*
X1121Y596D01*
X1212Y596D02*
X1221Y596D01*
X1112Y595D02*
X1121Y595D01*
X1212Y595D02*
X1221Y595D01*
X1112Y594D02*
X1121Y594D01*
X1212Y594D02*
X1221Y594D01*
X1112Y593D02*
X1121Y593D01*
X1212Y593D02*
X1221Y593D01*
X1112Y592D02*
X1121Y592D01*
X1212Y592D02*
X1221Y592D01*
X1112Y591D02*
X1121Y591D01*
X1212Y591D02*
X1221Y591D01*
X1112Y590D02*
X1121Y590D01*
X1212Y590D02*
X1221Y590D01*
X1112Y589D02*
X1121Y589D01*
X1212Y589D02*
X1221Y589D01*
X1112Y588D02*
X1121Y588D01*
X1212Y588D02*
X1221Y588D01*
X1112Y587D02*
X1121Y587D01*
X1212Y587D02*
X1221Y587D01*
X1112Y586D02*
X1121Y586D01*
X1212Y586D02*
X1221Y586D01*
X1112Y585D02*
X1121Y585D01*
X1212Y585D02*
X1221Y585D01*
X1112Y584D02*
X1121Y584D01*
X1212Y584D02*
X1221Y584D01*
X1112Y583D02*
X1121Y583D01*
X1212Y583D02*
X1221Y583D01*
X1112Y582D02*
X1121Y582D01*
X1212Y582D02*
X1221Y582D01*
X1112Y581D02*
X1121Y581D01*
X1212Y581D02*
X1221Y581D01*
X1112Y580D02*
X1121Y580D01*
X1212Y580D02*
X1221Y580D01*
X1112Y379D02*
X1121Y379D01*
X1212Y379D02*
X1221Y379D01*
X1112Y378D02*
X1121Y378D01*
X1212Y378D02*
X1221Y378D01*
X1112Y377D02*
X1121Y377D01*
X1212Y377D02*
X1221Y377D01*
X1112Y376D02*
X1121Y376D01*
X1212Y376D02*
X1221Y376D01*
X265Y375D02*
X266Y375D01*
X1112Y375D02*
X1121Y375D01*
X1212Y375D02*
X1221Y375D01*
X264Y374D02*
X267Y374D01*
X1112Y374D02*
X1121Y374D01*
X1212Y374D02*
X1221Y374D01*
X263Y373D02*
X268Y373D01*
X1112Y373D02*
X1121Y373D01*
X1212Y373D02*
X1221Y373D01*
X262Y372D02*
X268Y372D01*
X1112Y372D02*
X1121Y372D01*
X1212Y372D02*
X1221Y372D01*
X261Y371D02*
X267Y371D01*
X1112Y371D02*
X1121Y371D01*
X1212Y371D02*
X1221Y371D01*
X260Y370D02*
X266Y370D01*
X1112Y370D02*
X1121Y370D01*
X1212Y370D02*
X1221Y370D01*
X259Y369D02*
X265Y369D01*
X1112Y369D02*
X1121Y369D01*
X1212Y369D02*
X1221Y369D01*
X258Y368D02*
X264Y368D01*
X1112Y368D02*
X1121Y368D01*
X1212Y368D02*
X1221Y368D01*
X257Y367D02*
X263Y367D01*
X1112Y367D02*
X1121Y367D01*
X1212Y367D02*
X1221Y367D01*
X256Y366D02*
X262Y366D01*
X1112Y366D02*
X1121Y366D01*
X1212Y366D02*
X1221Y366D01*
X255Y365D02*
X261Y365D01*
X1112Y365D02*
X1121Y365D01*
X1212Y365D02*
X1221Y365D01*
X254Y364D02*
X260Y364D01*
X1112Y364D02*
X1121Y364D01*
X1212Y364D02*
X1221Y364D01*
X253Y363D02*
X259Y363D01*
X1112Y363D02*
X1121Y363D01*
X1212Y363D02*
X1221Y363D01*
X252Y362D02*
X258Y362D01*
X1112Y362D02*
X1121Y362D01*
X1212Y362D02*
X1221Y362D01*
X251Y361D02*
X257Y361D01*
X1112Y361D02*
X1121Y361D01*
X1212Y361D02*
X1221Y361D01*
X250Y360D02*
X256Y360D01*
X1112Y360D02*
X1121Y360D01*
X1212Y360D02*
X1221Y360D01*
X250Y359D02*
X255Y359D01*
X1112Y359D02*
X1121Y359D01*
X1212Y359D02*
X1221Y359D01*
X249Y358D02*
X254Y358D01*
X1112Y358D02*
X1121Y358D01*
X1212Y358D02*
X1221Y358D01*
X248Y357D02*
X253Y357D01*
X1112Y357D02*
X1121Y357D01*
X1212Y357D02*
X1221Y357D01*
X246Y356D02*
X252Y356D01*
X1112Y356D02*
X1121Y356D01*
X1212Y356D02*
X1221Y356D01*
X245Y355D02*
X251Y355D01*
X1112Y355D02*
X1121Y355D01*
X1212Y355D02*
X1221Y355D01*
X244Y354D02*
X250Y354D01*
X1112Y354D02*
X1121Y354D01*
X1212Y354D02*
X1221Y354D01*
X243Y353D02*
X249Y353D01*
X1112Y353D02*
X1121Y353D01*
X1212Y353D02*
X1221Y353D01*
X242Y352D02*
X248Y352D01*
X1112Y352D02*
X1121Y352D01*
X1212Y352D02*
X1221Y352D01*
X241Y351D02*
X247Y351D01*
X1112Y351D02*
X1121Y351D01*
X1212Y351D02*
X1221Y351D01*
X240Y350D02*
X246Y350D01*
X1112Y350D02*
X1121Y350D01*
X1212Y350D02*
X1221Y350D01*
X239Y349D02*
X245Y349D01*
X1112Y349D02*
X1121Y349D01*
X1212Y349D02*
X1221Y349D01*
X238Y348D02*
X244Y348D01*
X1112Y348D02*
X1121Y348D01*
X1212Y348D02*
X1221Y348D01*
X237Y347D02*
X243Y347D01*
X1112Y347D02*
X1121Y347D01*
X1212Y347D02*
X1221Y347D01*
X236Y346D02*
X242Y346D01*
X1112Y346D02*
X1121Y346D01*
X1212Y346D02*
X1221Y346D01*
X235Y345D02*
X241Y345D01*
X1112Y345D02*
X1121Y345D01*
X1212Y345D02*
X1221Y345D01*
X234Y344D02*
X240Y344D01*
X1112Y344D02*
X1121Y344D01*
X1212Y344D02*
X1221Y344D01*
X233Y343D02*
X239Y343D01*
X1112Y343D02*
X1121Y343D01*
X1212Y343D02*
X1221Y343D01*
X232Y342D02*
X238Y342D01*
X1112Y342D02*
X1121Y342D01*
X1212Y342D02*
X1221Y342D01*
X231Y341D02*
X237Y341D01*
X1112Y341D02*
X1121Y341D01*
X1212Y341D02*
X1221Y341D01*
X232Y340D02*
X236Y340D01*
X1112Y340D02*
X1121Y340D01*
X1212Y340D02*
X1221Y340D01*
X233Y339D02*
X235Y339D01*
X1112Y339D02*
X1121Y339D01*
X1212Y339D02*
X1221Y339D01*
X234Y338D02*
X234Y338D01*
X1112Y338D02*
X1121Y338D01*
X1212Y338D02*
X1221Y338D01*
X1112Y337D02*
X1121Y337D01*
X1212Y337D02*
X1221Y337D01*
X1112Y336D02*
X1121Y336D01*
X1212Y336D02*
X1221Y336D01*
X1112Y335D02*
X1121Y335D01*
X1212Y335D02*
X1221Y335D01*
X1112Y334D02*
X1121Y334D01*
X1212Y334D02*
X1221Y334D01*
X1112Y333D02*
X1121Y333D01*
X1212Y333D02*
X1221Y333D01*
X1112Y332D02*
X1121Y332D01*
X1212Y332D02*
X1221Y332D01*
X673Y299D02*
X699Y299D01*
X725Y299D02*
X730Y299D01*
X673Y298D02*
X701Y298D01*
X724Y298D02*
X732Y298D01*
X673Y297D02*
X703Y297D01*
X723Y297D02*
X732Y297D01*
X673Y296D02*
X704Y296D01*
X723Y296D02*
X732Y296D01*
X673Y295D02*
X704Y295D01*
X723Y295D02*
X732Y295D01*
X673Y294D02*
X705Y294D01*
X723Y294D02*
X732Y294D01*
X60Y293D02*
X84Y293D01*
X135Y293D02*
X137Y293D01*
X621Y293D02*
X623Y293D01*
X673Y293D02*
X706Y293D01*
X723Y293D02*
X731Y293D01*
X762Y293D02*
X764Y293D01*
X58Y292D02*
X86Y292D01*
X133Y292D02*
X138Y292D01*
X620Y292D02*
X624Y292D01*
X673Y292D02*
X679Y292D01*
X683Y292D02*
X688Y292D01*
X698Y292D02*
X706Y292D01*
X723Y292D02*
X729Y292D01*
X761Y292D02*
X765Y292D01*
X57Y291D02*
X87Y291D01*
X133Y291D02*
X138Y291D01*
X619Y291D02*
X625Y291D01*
X673Y291D02*
X679Y291D01*
X683Y291D02*
X688Y291D01*
X700Y291D02*
X706Y291D01*
X723Y291D02*
X729Y291D01*
X760Y291D02*
X766Y291D01*
X56Y290D02*
X88Y290D01*
X133Y290D02*
X139Y290D01*
X619Y290D02*
X625Y290D01*
X673Y290D02*
X679Y290D01*
X683Y290D02*
X689Y290D01*
X700Y290D02*
X706Y290D01*
X723Y290D02*
X729Y290D01*
X760Y290D02*
X766Y290D01*
X56Y289D02*
X88Y289D01*
X133Y289D02*
X139Y289D01*
X619Y289D02*
X625Y289D01*
X673Y289D02*
X679Y289D01*
X683Y289D02*
X689Y289D01*
X700Y289D02*
X707Y289D01*
X723Y289D02*
X729Y289D01*
X760Y289D02*
X766Y289D01*
X55Y288D02*
X88Y288D01*
X133Y288D02*
X139Y288D01*
X619Y288D02*
X625Y288D01*
X673Y288D02*
X679Y288D01*
X683Y288D02*
X689Y288D01*
X700Y288D02*
X707Y288D01*
X723Y288D02*
X729Y288D01*
X760Y288D02*
X766Y288D01*
X55Y287D02*
X89Y287D01*
X133Y287D02*
X139Y287D01*
X619Y287D02*
X625Y287D01*
X673Y287D02*
X679Y287D01*
X683Y287D02*
X689Y287D01*
X700Y287D02*
X707Y287D01*
X723Y287D02*
X729Y287D01*
X760Y287D02*
X766Y287D01*
X55Y286D02*
X61Y286D01*
X83Y286D02*
X89Y286D01*
X133Y286D02*
X139Y286D01*
X619Y286D02*
X625Y286D01*
X673Y286D02*
X679Y286D01*
X683Y286D02*
X689Y286D01*
X700Y286D02*
X707Y286D01*
X723Y286D02*
X729Y286D01*
X760Y286D02*
X766Y286D01*
X55Y285D02*
X61Y285D01*
X83Y285D02*
X89Y285D01*
X133Y285D02*
X139Y285D01*
X619Y285D02*
X625Y285D01*
X673Y285D02*
X679Y285D01*
X683Y285D02*
X689Y285D01*
X700Y285D02*
X706Y285D01*
X723Y285D02*
X729Y285D01*
X760Y285D02*
X766Y285D01*
X55Y284D02*
X61Y284D01*
X83Y284D02*
X89Y284D01*
X133Y284D02*
X139Y284D01*
X619Y284D02*
X625Y284D01*
X673Y284D02*
X679Y284D01*
X683Y284D02*
X689Y284D01*
X700Y284D02*
X706Y284D01*
X723Y284D02*
X729Y284D01*
X760Y284D02*
X766Y284D01*
X55Y283D02*
X61Y283D01*
X83Y283D02*
X89Y283D01*
X133Y283D02*
X139Y283D01*
X619Y283D02*
X625Y283D01*
X673Y283D02*
X679Y283D01*
X683Y283D02*
X689Y283D01*
X700Y283D02*
X706Y283D01*
X723Y283D02*
X729Y283D01*
X760Y283D02*
X766Y283D01*
X55Y282D02*
X61Y282D01*
X83Y282D02*
X89Y282D01*
X133Y282D02*
X139Y282D01*
X619Y282D02*
X625Y282D01*
X673Y282D02*
X679Y282D01*
X683Y282D02*
X689Y282D01*
X698Y282D02*
X706Y282D01*
X723Y282D02*
X729Y282D01*
X760Y282D02*
X766Y282D01*
X55Y281D02*
X61Y281D01*
X83Y281D02*
X89Y281D01*
X133Y281D02*
X139Y281D01*
X619Y281D02*
X625Y281D01*
X673Y281D02*
X706Y281D01*
X723Y281D02*
X729Y281D01*
X760Y281D02*
X766Y281D01*
X55Y280D02*
X61Y280D01*
X83Y280D02*
X89Y280D01*
X133Y280D02*
X139Y280D01*
X619Y280D02*
X625Y280D01*
X673Y280D02*
X705Y280D01*
X723Y280D02*
X729Y280D01*
X760Y280D02*
X766Y280D01*
X55Y279D02*
X61Y279D01*
X83Y279D02*
X89Y279D01*
X133Y279D02*
X139Y279D01*
X619Y279D02*
X625Y279D01*
X673Y279D02*
X704Y279D01*
X723Y279D02*
X729Y279D01*
X760Y279D02*
X766Y279D01*
X55Y278D02*
X61Y278D01*
X83Y278D02*
X89Y278D01*
X133Y278D02*
X139Y278D01*
X619Y278D02*
X625Y278D01*
X673Y278D02*
X704Y278D01*
X723Y278D02*
X729Y278D01*
X760Y278D02*
X766Y278D01*
X55Y277D02*
X61Y277D01*
X83Y277D02*
X89Y277D01*
X133Y277D02*
X139Y277D01*
X619Y277D02*
X625Y277D01*
X673Y277D02*
X702Y277D01*
X723Y277D02*
X729Y277D01*
X760Y277D02*
X766Y277D01*
X55Y276D02*
X61Y276D01*
X83Y276D02*
X89Y276D01*
X133Y276D02*
X139Y276D01*
X619Y276D02*
X625Y276D01*
X673Y276D02*
X701Y276D01*
X723Y276D02*
X729Y276D01*
X760Y276D02*
X766Y276D01*
X55Y275D02*
X61Y275D01*
X83Y275D02*
X89Y275D01*
X133Y275D02*
X139Y275D01*
X619Y275D02*
X625Y275D01*
X673Y275D02*
X698Y275D01*
X723Y275D02*
X729Y275D01*
X758Y275D02*
X774Y275D01*
X55Y274D02*
X61Y274D01*
X83Y274D02*
X89Y274D01*
X133Y274D02*
X139Y274D01*
X619Y274D02*
X625Y274D01*
X673Y274D02*
X679Y274D01*
X683Y274D02*
X692Y274D01*
X723Y274D02*
X729Y274D01*
X757Y274D02*
X775Y274D01*
X55Y273D02*
X61Y273D01*
X83Y273D02*
X89Y273D01*
X132Y273D02*
X139Y273D01*
X618Y273D02*
X625Y273D01*
X673Y273D02*
X679Y273D01*
X682Y273D02*
X693Y273D01*
X723Y273D02*
X729Y273D01*
X757Y273D02*
X775Y273D01*
X7Y272D02*
X37Y272D01*
X55Y272D02*
X61Y272D01*
X83Y272D02*
X89Y272D01*
X112Y272D02*
X139Y272D01*
X617Y272D02*
X625Y272D01*
X662Y272D02*
X694Y272D01*
X706Y272D02*
X737Y272D01*
X757Y272D02*
X775Y272D01*
X6Y271D02*
X38Y271D01*
X55Y271D02*
X61Y271D01*
X83Y271D02*
X89Y271D01*
X110Y271D02*
X139Y271D01*
X615Y271D02*
X625Y271D01*
X660Y271D02*
X694Y271D01*
X706Y271D02*
X738Y271D01*
X757Y271D02*
X776Y271D01*
X5Y270D02*
X39Y270D01*
X55Y270D02*
X61Y270D01*
X83Y270D02*
X89Y270D01*
X109Y270D02*
X139Y270D01*
X614Y270D02*
X624Y270D01*
X659Y270D02*
X695Y270D01*
X705Y270D02*
X738Y270D01*
X758Y270D02*
X776Y270D01*
X5Y269D02*
X39Y269D01*
X55Y269D02*
X61Y269D01*
X83Y269D02*
X89Y269D01*
X108Y269D02*
X139Y269D01*
X613Y269D02*
X623Y269D01*
X658Y269D02*
X695Y269D01*
X705Y269D02*
X755Y269D01*
X759Y269D02*
X777Y269D01*
X5Y268D02*
X39Y268D01*
X55Y268D02*
X61Y268D01*
X83Y268D02*
X89Y268D01*
X107Y268D02*
X139Y268D01*
X612Y268D02*
X622Y268D01*
X657Y268D02*
X696Y268D01*
X705Y268D02*
X756Y268D01*
X760Y268D02*
X766Y268D01*
X5Y267D02*
X39Y267D01*
X55Y267D02*
X61Y267D01*
X83Y267D02*
X89Y267D01*
X106Y267D02*
X139Y267D01*
X611Y267D02*
X621Y267D01*
X656Y267D02*
X696Y267D01*
X705Y267D02*
X756Y267D01*
X760Y267D02*
X766Y267D01*
X5Y266D02*
X39Y266D01*
X55Y266D02*
X61Y266D01*
X83Y266D02*
X89Y266D01*
X106Y266D02*
X139Y266D01*
X610Y266D02*
X619Y266D01*
X656Y266D02*
X697Y266D01*
X705Y266D02*
X757Y266D01*
X760Y266D02*
X766Y266D01*
X5Y265D02*
X38Y265D01*
X55Y265D02*
X61Y265D01*
X83Y265D02*
X89Y265D01*
X105Y265D02*
X113Y265D01*
X133Y265D02*
X139Y265D01*
X608Y265D02*
X618Y265D01*
X655Y265D02*
X663Y265D01*
X673Y265D02*
X679Y265D01*
X683Y265D02*
X698Y265D01*
X705Y265D02*
X757Y265D01*
X760Y265D02*
X766Y265D01*
X6Y264D02*
X38Y264D01*
X55Y264D02*
X61Y264D01*
X83Y264D02*
X89Y264D01*
X105Y264D02*
X112Y264D01*
X133Y264D02*
X139Y264D01*
X607Y264D02*
X617Y264D01*
X655Y264D02*
X662Y264D01*
X673Y264D02*
X679Y264D01*
X683Y264D02*
X689Y264D01*
X691Y264D02*
X698Y264D01*
X706Y264D02*
X757Y264D01*
X760Y264D02*
X766Y264D01*
X8Y263D02*
X36Y263D01*
X55Y263D02*
X61Y263D01*
X83Y263D02*
X89Y263D01*
X105Y263D02*
X111Y263D01*
X133Y263D02*
X139Y263D01*
X606Y263D02*
X616Y263D01*
X655Y263D02*
X661Y263D01*
X673Y263D02*
X679Y263D01*
X683Y263D02*
X689Y263D01*
X692Y263D02*
X699Y263D01*
X707Y263D02*
X757Y263D01*
X760Y263D02*
X766Y263D01*
X781Y263D02*
X781Y263D01*
X55Y262D02*
X61Y262D01*
X83Y262D02*
X89Y262D01*
X105Y262D02*
X111Y262D01*
X133Y262D02*
X139Y262D01*
X605Y262D02*
X615Y262D01*
X655Y262D02*
X661Y262D01*
X673Y262D02*
X679Y262D01*
X683Y262D02*
X689Y262D01*
X692Y262D02*
X699Y262D01*
X723Y262D02*
X729Y262D01*
X750Y262D02*
X757Y262D01*
X760Y262D02*
X766Y262D01*
X781Y262D02*
X781Y262D01*
X55Y261D02*
X61Y261D01*
X83Y261D02*
X89Y261D01*
X105Y261D02*
X111Y261D01*
X133Y261D02*
X139Y261D01*
X605Y261D02*
X614Y261D01*
X655Y261D02*
X661Y261D01*
X673Y261D02*
X679Y261D01*
X683Y261D02*
X689Y261D01*
X693Y261D02*
X700Y261D01*
X723Y261D02*
X729Y261D01*
X750Y261D02*
X757Y261D01*
X760Y261D02*
X766Y261D01*
X781Y261D02*
X782Y261D01*
X55Y260D02*
X61Y260D01*
X83Y260D02*
X89Y260D01*
X105Y260D02*
X111Y260D01*
X133Y260D02*
X139Y260D01*
X605Y260D02*
X612Y260D01*
X655Y260D02*
X661Y260D01*
X673Y260D02*
X679Y260D01*
X683Y260D02*
X689Y260D01*
X693Y260D02*
X701Y260D01*
X723Y260D02*
X729Y260D01*
X750Y260D02*
X757Y260D01*
X760Y260D02*
X766Y260D01*
X781Y260D02*
X783Y260D01*
X55Y259D02*
X61Y259D01*
X83Y259D02*
X89Y259D01*
X105Y259D02*
X111Y259D01*
X133Y259D02*
X139Y259D01*
X605Y259D02*
X611Y259D01*
X655Y259D02*
X661Y259D01*
X673Y259D02*
X679Y259D01*
X683Y259D02*
X689Y259D01*
X694Y259D02*
X701Y259D01*
X723Y259D02*
X729Y259D01*
X750Y259D02*
X757Y259D01*
X760Y259D02*
X766Y259D01*
X781Y259D02*
X784Y259D01*
X55Y258D02*
X61Y258D01*
X83Y258D02*
X89Y258D01*
X105Y258D02*
X111Y258D01*
X133Y258D02*
X139Y258D01*
X605Y258D02*
X611Y258D01*
X655Y258D02*
X661Y258D01*
X673Y258D02*
X679Y258D01*
X683Y258D02*
X689Y258D01*
X694Y258D02*
X702Y258D01*
X723Y258D02*
X729Y258D01*
X750Y258D02*
X757Y258D01*
X760Y258D02*
X766Y258D01*
X781Y258D02*
X785Y258D01*
X55Y257D02*
X61Y257D01*
X83Y257D02*
X89Y257D01*
X105Y257D02*
X111Y257D01*
X133Y257D02*
X139Y257D01*
X605Y257D02*
X611Y257D01*
X655Y257D02*
X661Y257D01*
X673Y257D02*
X679Y257D01*
X683Y257D02*
X689Y257D01*
X695Y257D02*
X702Y257D01*
X723Y257D02*
X729Y257D01*
X750Y257D02*
X757Y257D01*
X760Y257D02*
X766Y257D01*
X781Y257D02*
X786Y257D01*
X55Y256D02*
X61Y256D01*
X83Y256D02*
X89Y256D01*
X105Y256D02*
X111Y256D01*
X133Y256D02*
X139Y256D01*
X605Y256D02*
X611Y256D01*
X655Y256D02*
X661Y256D01*
X673Y256D02*
X679Y256D01*
X683Y256D02*
X689Y256D01*
X696Y256D02*
X703Y256D01*
X723Y256D02*
X729Y256D01*
X750Y256D02*
X757Y256D01*
X760Y256D02*
X766Y256D01*
X781Y256D02*
X787Y256D01*
X55Y255D02*
X61Y255D01*
X83Y255D02*
X89Y255D01*
X105Y255D02*
X111Y255D01*
X133Y255D02*
X139Y255D01*
X605Y255D02*
X611Y255D01*
X655Y255D02*
X661Y255D01*
X673Y255D02*
X679Y255D01*
X683Y255D02*
X689Y255D01*
X696Y255D02*
X703Y255D01*
X723Y255D02*
X729Y255D01*
X750Y255D02*
X757Y255D01*
X760Y255D02*
X766Y255D01*
X781Y255D02*
X787Y255D01*
X55Y254D02*
X61Y254D01*
X83Y254D02*
X89Y254D01*
X105Y254D02*
X111Y254D01*
X133Y254D02*
X139Y254D01*
X605Y254D02*
X611Y254D01*
X655Y254D02*
X661Y254D01*
X673Y254D02*
X679Y254D01*
X683Y254D02*
X689Y254D01*
X697Y254D02*
X704Y254D01*
X723Y254D02*
X729Y254D01*
X750Y254D02*
X757Y254D01*
X760Y254D02*
X766Y254D01*
X781Y254D02*
X787Y254D01*
X55Y253D02*
X61Y253D01*
X83Y253D02*
X89Y253D01*
X105Y253D02*
X111Y253D01*
X133Y253D02*
X139Y253D01*
X605Y253D02*
X611Y253D01*
X655Y253D02*
X661Y253D01*
X673Y253D02*
X679Y253D01*
X683Y253D02*
X689Y253D01*
X697Y253D02*
X705Y253D01*
X723Y253D02*
X729Y253D01*
X750Y253D02*
X757Y253D01*
X760Y253D02*
X766Y253D01*
X781Y253D02*
X787Y253D01*
X55Y252D02*
X61Y252D01*
X83Y252D02*
X89Y252D01*
X105Y252D02*
X111Y252D01*
X133Y252D02*
X139Y252D01*
X605Y252D02*
X611Y252D01*
X655Y252D02*
X661Y252D01*
X673Y252D02*
X679Y252D01*
X683Y252D02*
X689Y252D01*
X698Y252D02*
X705Y252D01*
X723Y252D02*
X757Y252D01*
X760Y252D02*
X766Y252D01*
X781Y252D02*
X787Y252D01*
X55Y251D02*
X61Y251D01*
X83Y251D02*
X89Y251D01*
X105Y251D02*
X111Y251D01*
X133Y251D02*
X139Y251D01*
X605Y251D02*
X611Y251D01*
X655Y251D02*
X661Y251D01*
X673Y251D02*
X679Y251D01*
X683Y251D02*
X689Y251D01*
X699Y251D02*
X706Y251D01*
X723Y251D02*
X757Y251D01*
X760Y251D02*
X766Y251D01*
X781Y251D02*
X787Y251D01*
X55Y250D02*
X61Y250D01*
X83Y250D02*
X89Y250D01*
X105Y250D02*
X111Y250D01*
X133Y250D02*
X139Y250D01*
X605Y250D02*
X611Y250D01*
X655Y250D02*
X661Y250D01*
X673Y250D02*
X679Y250D01*
X683Y250D02*
X689Y250D01*
X699Y250D02*
X706Y250D01*
X723Y250D02*
X757Y250D01*
X760Y250D02*
X766Y250D01*
X781Y250D02*
X787Y250D01*
X838Y250D02*
X839Y250D01*
X55Y249D02*
X61Y249D01*
X83Y249D02*
X89Y249D01*
X105Y249D02*
X111Y249D01*
X133Y249D02*
X139Y249D01*
X605Y249D02*
X611Y249D01*
X635Y249D02*
X636Y249D01*
X655Y249D02*
X661Y249D01*
X673Y249D02*
X679Y249D01*
X683Y249D02*
X689Y249D01*
X700Y249D02*
X706Y249D01*
X723Y249D02*
X757Y249D01*
X760Y249D02*
X766Y249D01*
X781Y249D02*
X787Y249D01*
X836Y249D02*
X839Y249D01*
X55Y248D02*
X61Y248D01*
X83Y248D02*
X89Y248D01*
X105Y248D02*
X112Y248D01*
X133Y248D02*
X139Y248D01*
X605Y248D02*
X611Y248D01*
X634Y248D02*
X638Y248D01*
X655Y248D02*
X662Y248D01*
X673Y248D02*
X679Y248D01*
X683Y248D02*
X689Y248D01*
X700Y248D02*
X706Y248D01*
X723Y248D02*
X756Y248D01*
X760Y248D02*
X766Y248D01*
X781Y248D02*
X787Y248D01*
X834Y248D02*
X839Y248D01*
X55Y247D02*
X61Y247D01*
X83Y247D02*
X89Y247D01*
X105Y247D02*
X113Y247D01*
X133Y247D02*
X139Y247D01*
X605Y247D02*
X611Y247D01*
X633Y247D02*
X638Y247D01*
X655Y247D02*
X662Y247D01*
X673Y247D02*
X678Y247D01*
X683Y247D02*
X689Y247D01*
X701Y247D02*
X706Y247D01*
X723Y247D02*
X756Y247D01*
X761Y247D02*
X766Y247D01*
X781Y247D02*
X787Y247D01*
X832Y247D02*
X839Y247D01*
X55Y246D02*
X89Y246D01*
X106Y246D02*
X139Y246D01*
X605Y246D02*
X639Y246D01*
X656Y246D02*
X689Y246D01*
X702Y246D02*
X705Y246D01*
X724Y246D02*
X755Y246D01*
X761Y246D02*
X765Y246D01*
X781Y246D02*
X787Y246D01*
X806Y246D02*
X806Y246D01*
X827Y246D02*
X839Y246D01*
X55Y245D02*
X89Y245D01*
X106Y245D02*
X139Y245D01*
X605Y245D02*
X639Y245D01*
X656Y245D02*
X689Y245D01*
X781Y245D02*
X787Y245D01*
X806Y245D02*
X812Y245D01*
X822Y245D02*
X839Y245D01*
X55Y244D02*
X88Y244D01*
X107Y244D02*
X139Y244D01*
X605Y244D02*
X639Y244D01*
X657Y244D02*
X689Y244D01*
X781Y244D02*
X787Y244D01*
X807Y244D02*
X839Y244D01*
X56Y243D02*
X88Y243D01*
X108Y243D02*
X139Y243D01*
X605Y243D02*
X639Y243D01*
X658Y243D02*
X689Y243D01*
X781Y243D02*
X787Y243D01*
X807Y243D02*
X839Y243D01*
X1187Y243D02*
X1239Y243D01*
X57Y242D02*
X87Y242D01*
X109Y242D02*
X139Y242D01*
X605Y242D02*
X638Y242D01*
X658Y242D02*
X689Y242D01*
X781Y242D02*
X787Y242D01*
X808Y242D02*
X839Y242D01*
X1187Y242D02*
X1239Y242D01*
X58Y241D02*
X86Y241D01*
X110Y241D02*
X139Y241D01*
X605Y241D02*
X638Y241D01*
X660Y241D02*
X689Y241D01*
X781Y241D02*
X786Y241D01*
X810Y241D02*
X839Y241D01*
X1186Y241D02*
X1239Y241D01*
X59Y240D02*
X85Y240D01*
X112Y240D02*
X139Y240D01*
X605Y240D02*
X637Y240D01*
X662Y240D02*
X689Y240D01*
X782Y240D02*
X785Y240D01*
X812Y240D02*
X839Y240D01*
X1186Y240D02*
X1239Y240D01*
X1186Y239D02*
X1239Y239D01*
X1187Y238D02*
X1239Y238D01*
X1188Y237D02*
X1239Y237D01*
X1215Y236D02*
X1221Y236D01*
X1233Y236D02*
X1239Y236D01*
X1215Y235D02*
X1221Y235D01*
X1233Y235D02*
X1239Y235D01*
X1215Y234D02*
X1221Y234D01*
X1233Y234D02*
X1239Y234D01*
X1215Y233D02*
X1221Y233D01*
X1233Y233D02*
X1239Y233D01*
X1215Y232D02*
X1221Y232D01*
X1233Y232D02*
X1239Y232D01*
X1214Y231D02*
X1221Y231D01*
X1233Y231D02*
X1239Y231D01*
X1212Y230D02*
X1221Y230D01*
X1233Y230D02*
X1239Y230D01*
X1210Y229D02*
X1221Y229D01*
X1233Y229D02*
X1239Y229D01*
X1209Y228D02*
X1221Y228D01*
X1233Y228D02*
X1239Y228D01*
X1207Y227D02*
X1221Y227D01*
X1233Y227D02*
X1239Y227D01*
X1205Y226D02*
X1221Y226D01*
X1233Y226D02*
X1239Y226D01*
X1204Y225D02*
X1221Y225D01*
X1233Y225D02*
X1239Y225D01*
X1202Y224D02*
X1221Y224D01*
X1233Y224D02*
X1239Y224D01*
X1200Y223D02*
X1213Y223D01*
X1215Y223D02*
X1221Y223D01*
X1233Y223D02*
X1239Y223D01*
X1198Y222D02*
X1211Y222D01*
X1215Y222D02*
X1221Y222D01*
X1233Y222D02*
X1239Y222D01*
X1197Y221D02*
X1210Y221D01*
X1215Y221D02*
X1221Y221D01*
X1233Y221D02*
X1239Y221D01*
X1195Y220D02*
X1208Y220D01*
X1215Y220D02*
X1221Y220D01*
X1233Y220D02*
X1239Y220D01*
X1193Y219D02*
X1206Y219D01*
X1215Y219D02*
X1222Y219D01*
X1233Y219D02*
X1239Y219D01*
X1192Y218D02*
X1205Y218D01*
X1216Y218D02*
X1222Y218D01*
X1233Y218D02*
X1239Y218D01*
X1190Y217D02*
X1203Y217D01*
X1216Y217D02*
X1223Y217D01*
X1232Y217D02*
X1239Y217D01*
X1290Y217D02*
X1303Y217D01*
X1188Y216D02*
X1201Y216D01*
X1216Y216D02*
X1238Y216D01*
X1288Y216D02*
X1301Y216D01*
X1187Y215D02*
X1199Y215D01*
X1217Y215D02*
X1238Y215D01*
X1287Y215D02*
X1299Y215D01*
X1186Y214D02*
X1198Y214D01*
X1217Y214D02*
X1237Y214D01*
X1286Y214D02*
X1298Y214D01*
X1186Y213D02*
X1196Y213D01*
X1218Y213D02*
X1237Y213D01*
X1286Y213D02*
X1296Y213D01*
X1186Y212D02*
X1194Y212D01*
X1219Y212D02*
X1236Y212D01*
X1286Y212D02*
X1294Y212D01*
X1186Y211D02*
X1193Y211D01*
X1220Y211D02*
X1234Y211D01*
X1286Y211D02*
X1293Y211D01*
X1187Y210D02*
X1191Y210D01*
X1222Y210D02*
X1233Y210D01*
X1287Y210D02*
X1291Y210D01*
X160Y194D02*
X226Y194D01*
X427Y194D02*
X474Y194D01*
X160Y193D02*
X226Y193D01*
X427Y193D02*
X474Y193D01*
X1187Y193D02*
X1191Y193D01*
X1235Y193D02*
X1238Y193D01*
X160Y192D02*
X226Y192D01*
X427Y192D02*
X474Y192D01*
X1186Y192D02*
X1191Y192D01*
X1234Y192D02*
X1239Y192D01*
X160Y191D02*
X226Y191D01*
X427Y191D02*
X474Y191D01*
X1186Y191D02*
X1192Y191D01*
X1233Y191D02*
X1239Y191D01*
X160Y190D02*
X226Y190D01*
X427Y190D02*
X474Y190D01*
X1186Y190D02*
X1192Y190D01*
X1233Y190D02*
X1239Y190D01*
X160Y189D02*
X226Y189D01*
X427Y189D02*
X474Y189D01*
X1186Y189D02*
X1192Y189D01*
X1233Y189D02*
X1239Y189D01*
X160Y188D02*
X226Y188D01*
X427Y188D02*
X474Y188D01*
X1186Y188D02*
X1192Y188D01*
X1233Y188D02*
X1239Y188D01*
X160Y187D02*
X226Y187D01*
X427Y187D02*
X474Y187D01*
X1186Y187D02*
X1192Y187D01*
X1233Y187D02*
X1239Y187D01*
X160Y186D02*
X226Y186D01*
X427Y186D02*
X474Y186D01*
X1186Y186D02*
X1192Y186D01*
X1211Y186D02*
X1214Y186D01*
X1233Y186D02*
X1239Y186D01*
X1286Y186D02*
X1292Y186D01*
X160Y185D02*
X226Y185D01*
X427Y185D02*
X474Y185D01*
X1186Y185D02*
X1192Y185D01*
X1210Y185D02*
X1215Y185D01*
X1233Y185D02*
X1239Y185D01*
X1286Y185D02*
X1292Y185D01*
X1186Y184D02*
X1192Y184D01*
X1210Y184D02*
X1215Y184D01*
X1233Y184D02*
X1239Y184D01*
X1286Y184D02*
X1292Y184D01*
X1186Y183D02*
X1192Y183D01*
X1210Y183D02*
X1216Y183D01*
X1233Y183D02*
X1239Y183D01*
X1286Y183D02*
X1292Y183D01*
X1186Y182D02*
X1192Y182D01*
X1210Y182D02*
X1216Y182D01*
X1233Y182D02*
X1239Y182D01*
X1286Y182D02*
X1292Y182D01*
X1186Y181D02*
X1192Y181D01*
X1210Y181D02*
X1216Y181D01*
X1233Y181D02*
X1239Y181D01*
X1286Y181D02*
X1292Y181D01*
X1186Y180D02*
X1192Y180D01*
X1210Y180D02*
X1216Y180D01*
X1233Y180D02*
X1239Y180D01*
X1286Y180D02*
X1292Y180D01*
X1186Y179D02*
X1192Y179D01*
X1210Y179D02*
X1216Y179D01*
X1233Y179D02*
X1239Y179D01*
X1286Y179D02*
X1292Y179D01*
X1186Y178D02*
X1192Y178D01*
X1210Y178D02*
X1216Y178D01*
X1233Y178D02*
X1239Y178D01*
X1286Y178D02*
X1292Y178D01*
X1186Y177D02*
X1192Y177D01*
X1210Y177D02*
X1216Y177D01*
X1233Y177D02*
X1239Y177D01*
X1286Y177D02*
X1292Y177D01*
X1186Y176D02*
X1192Y176D01*
X1210Y176D02*
X1216Y176D01*
X1233Y176D02*
X1239Y176D01*
X1286Y176D02*
X1292Y176D01*
X1186Y175D02*
X1192Y175D01*
X1210Y175D02*
X1216Y175D01*
X1233Y175D02*
X1239Y175D01*
X1286Y175D02*
X1292Y175D01*
X1186Y174D02*
X1192Y174D01*
X1210Y174D02*
X1216Y174D01*
X1233Y174D02*
X1239Y174D01*
X1286Y174D02*
X1292Y174D01*
X1186Y173D02*
X1192Y173D01*
X1210Y173D02*
X1216Y173D01*
X1233Y173D02*
X1239Y173D01*
X1286Y173D02*
X1292Y173D01*
X1186Y172D02*
X1192Y172D01*
X1210Y172D02*
X1216Y172D01*
X1233Y172D02*
X1239Y172D01*
X1286Y172D02*
X1292Y172D01*
X1186Y171D02*
X1192Y171D01*
X1210Y171D02*
X1216Y171D01*
X1233Y171D02*
X1239Y171D01*
X1286Y171D02*
X1292Y171D01*
X1186Y170D02*
X1192Y170D01*
X1210Y170D02*
X1216Y170D01*
X1233Y170D02*
X1239Y170D01*
X1286Y170D02*
X1292Y170D01*
X1186Y169D02*
X1192Y169D01*
X1209Y169D02*
X1216Y169D01*
X1233Y169D02*
X1239Y169D01*
X1286Y169D02*
X1292Y169D01*
X1186Y168D02*
X1192Y168D01*
X1209Y168D02*
X1216Y168D01*
X1233Y168D02*
X1239Y168D01*
X1286Y168D02*
X1292Y168D01*
X1186Y167D02*
X1192Y167D01*
X1208Y167D02*
X1217Y167D01*
X1233Y167D02*
X1239Y167D01*
X1286Y167D02*
X1292Y167D01*
X1186Y166D02*
X1239Y166D01*
X1286Y166D02*
X1292Y166D01*
X1186Y165D02*
X1239Y165D01*
X1286Y165D02*
X1292Y165D01*
X1186Y164D02*
X1239Y164D01*
X1286Y164D02*
X1292Y164D01*
X1187Y163D02*
X1238Y163D01*
X1286Y163D02*
X1292Y163D01*
X1187Y162D02*
X1238Y162D01*
X1286Y162D02*
X1292Y162D01*
X1188Y161D02*
X1211Y161D01*
X1214Y161D02*
X1237Y161D01*
X1286Y161D02*
X1291Y161D01*
X1190Y160D02*
X1209Y160D01*
X1216Y160D02*
X1235Y160D01*
X1287Y160D02*
X1291Y160D01*
D02*
G04 End of Silk1*
M02*