G04 MADE WITH FRITZING*
G04 WWW.FRITZING.ORG*
G04 DOUBLE SIDED*
G04 HOLES PLATED*
G04 CONTOUR ON CENTER OF CONTOUR VECTOR*
%ASAXBY*%
%FSLAX23Y23*%
%MOIN*%
%OFA0B0*%
%SFA1.0B1.0*%
%ADD10R,0.001000X0.001000*%
%LNSILK0*%
G90*
G70*
G54D10*
X997Y1680D02*
X1022Y1680D01*
X1084Y1680D02*
X1088Y1680D01*
X1132Y1680D02*
X1136Y1680D01*
X995Y1679D02*
X1025Y1679D01*
X1082Y1679D02*
X1090Y1679D01*
X1130Y1679D02*
X1138Y1679D01*
X994Y1678D02*
X1026Y1678D01*
X1082Y1678D02*
X1091Y1678D01*
X1130Y1678D02*
X1139Y1678D01*
X994Y1677D02*
X1028Y1677D01*
X1081Y1677D02*
X1091Y1677D01*
X1129Y1677D02*
X1139Y1677D01*
X993Y1676D02*
X1029Y1676D01*
X1081Y1676D02*
X1091Y1676D01*
X1129Y1676D02*
X1140Y1676D01*
X993Y1675D02*
X1030Y1675D01*
X1080Y1675D02*
X1092Y1675D01*
X1129Y1675D02*
X1140Y1675D01*
X993Y1674D02*
X1031Y1674D01*
X1080Y1674D02*
X1092Y1674D01*
X1128Y1674D02*
X1140Y1674D01*
X242Y1673D02*
X247Y1673D01*
X281Y1673D02*
X338Y1673D01*
X372Y1673D02*
X416Y1673D01*
X471Y1673D02*
X500Y1673D01*
X546Y1673D02*
X602Y1673D01*
X633Y1673D02*
X664Y1673D01*
X730Y1673D02*
X777Y1673D01*
X993Y1673D02*
X1032Y1673D01*
X1080Y1673D02*
X1092Y1673D01*
X1128Y1673D02*
X1140Y1673D01*
X241Y1672D02*
X249Y1672D01*
X281Y1672D02*
X339Y1672D01*
X370Y1672D02*
X416Y1672D01*
X470Y1672D02*
X501Y1672D01*
X545Y1672D02*
X602Y1672D01*
X632Y1672D02*
X666Y1672D01*
X728Y1672D02*
X777Y1672D01*
X994Y1672D02*
X1032Y1672D01*
X1080Y1672D02*
X1092Y1672D01*
X1128Y1672D02*
X1140Y1672D01*
X240Y1671D02*
X249Y1671D01*
X281Y1671D02*
X340Y1671D01*
X370Y1671D02*
X416Y1671D01*
X469Y1671D02*
X502Y1671D01*
X544Y1671D02*
X602Y1671D01*
X631Y1671D02*
X668Y1671D01*
X726Y1671D02*
X777Y1671D01*
X995Y1671D02*
X1033Y1671D01*
X1080Y1671D02*
X1092Y1671D01*
X1128Y1671D02*
X1140Y1671D01*
X240Y1670D02*
X250Y1670D01*
X281Y1670D02*
X340Y1670D01*
X369Y1670D02*
X416Y1670D01*
X468Y1670D02*
X503Y1670D01*
X543Y1670D02*
X602Y1670D01*
X631Y1670D02*
X669Y1670D01*
X725Y1670D02*
X777Y1670D01*
X996Y1670D02*
X1034Y1670D01*
X1080Y1670D02*
X1092Y1670D01*
X1128Y1670D02*
X1140Y1670D01*
X239Y1669D02*
X250Y1669D01*
X281Y1669D02*
X340Y1669D01*
X369Y1669D02*
X416Y1669D01*
X468Y1669D02*
X503Y1669D01*
X543Y1669D02*
X602Y1669D01*
X630Y1669D02*
X670Y1669D01*
X723Y1669D02*
X777Y1669D01*
X997Y1669D02*
X1035Y1669D01*
X1080Y1669D02*
X1092Y1669D01*
X1128Y1669D02*
X1140Y1669D01*
X239Y1668D02*
X250Y1668D01*
X281Y1668D02*
X341Y1668D01*
X369Y1668D02*
X416Y1668D01*
X468Y1668D02*
X503Y1668D01*
X543Y1668D02*
X602Y1668D01*
X630Y1668D02*
X672Y1668D01*
X722Y1668D02*
X777Y1668D01*
X1020Y1668D02*
X1035Y1668D01*
X1080Y1668D02*
X1092Y1668D01*
X1128Y1668D02*
X1140Y1668D01*
X239Y1667D02*
X251Y1667D01*
X281Y1667D02*
X341Y1667D01*
X369Y1667D02*
X416Y1667D01*
X468Y1667D02*
X503Y1667D01*
X543Y1667D02*
X602Y1667D01*
X630Y1667D02*
X672Y1667D01*
X721Y1667D02*
X777Y1667D01*
X1021Y1667D02*
X1036Y1667D01*
X1080Y1667D02*
X1092Y1667D01*
X1128Y1667D02*
X1140Y1667D01*
X239Y1666D02*
X251Y1666D01*
X281Y1666D02*
X341Y1666D01*
X369Y1666D02*
X416Y1666D01*
X468Y1666D02*
X503Y1666D01*
X543Y1666D02*
X602Y1666D01*
X630Y1666D02*
X673Y1666D01*
X721Y1666D02*
X777Y1666D01*
X1022Y1666D02*
X1037Y1666D01*
X1080Y1666D02*
X1092Y1666D01*
X1128Y1666D02*
X1140Y1666D01*
X239Y1665D02*
X251Y1665D01*
X281Y1665D02*
X341Y1665D01*
X369Y1665D02*
X416Y1665D01*
X468Y1665D02*
X503Y1665D01*
X544Y1665D02*
X602Y1665D01*
X631Y1665D02*
X674Y1665D01*
X720Y1665D02*
X777Y1665D01*
X1023Y1665D02*
X1038Y1665D01*
X1080Y1665D02*
X1092Y1665D01*
X1128Y1665D02*
X1140Y1665D01*
X239Y1664D02*
X251Y1664D01*
X281Y1664D02*
X341Y1664D01*
X370Y1664D02*
X416Y1664D01*
X468Y1664D02*
X503Y1664D01*
X544Y1664D02*
X602Y1664D01*
X632Y1664D02*
X674Y1664D01*
X719Y1664D02*
X777Y1664D01*
X1024Y1664D02*
X1039Y1664D01*
X1080Y1664D02*
X1092Y1664D01*
X1128Y1664D02*
X1140Y1664D01*
X207Y1663D02*
X211Y1663D01*
X239Y1663D02*
X251Y1663D01*
X281Y1663D02*
X341Y1663D01*
X371Y1663D02*
X416Y1663D01*
X468Y1663D02*
X503Y1663D01*
X545Y1663D02*
X602Y1663D01*
X633Y1663D02*
X675Y1663D01*
X719Y1663D02*
X777Y1663D01*
X1025Y1663D02*
X1039Y1663D01*
X1080Y1663D02*
X1092Y1663D01*
X1128Y1663D02*
X1140Y1663D01*
X205Y1662D02*
X212Y1662D01*
X239Y1662D02*
X251Y1662D01*
X281Y1662D02*
X341Y1662D01*
X373Y1662D02*
X416Y1662D01*
X468Y1662D02*
X503Y1662D01*
X547Y1662D02*
X602Y1662D01*
X634Y1662D02*
X675Y1662D01*
X719Y1662D02*
X777Y1662D01*
X1026Y1662D02*
X1040Y1662D01*
X1080Y1662D02*
X1092Y1662D01*
X1128Y1662D02*
X1140Y1662D01*
X204Y1661D02*
X213Y1661D01*
X239Y1661D02*
X251Y1661D01*
X281Y1661D02*
X293Y1661D01*
X330Y1661D02*
X340Y1661D01*
X405Y1661D02*
X416Y1661D01*
X468Y1661D02*
X479Y1661D01*
X492Y1661D02*
X503Y1661D01*
X591Y1661D02*
X602Y1661D01*
X662Y1661D02*
X676Y1661D01*
X718Y1661D02*
X732Y1661D01*
X765Y1661D02*
X777Y1661D01*
X1026Y1661D02*
X1041Y1661D01*
X1080Y1661D02*
X1092Y1661D01*
X1128Y1661D02*
X1140Y1661D01*
X204Y1660D02*
X214Y1660D01*
X239Y1660D02*
X251Y1660D01*
X281Y1660D02*
X293Y1660D01*
X330Y1660D02*
X340Y1660D01*
X405Y1660D02*
X416Y1660D01*
X468Y1660D02*
X479Y1660D01*
X492Y1660D02*
X503Y1660D01*
X591Y1660D02*
X602Y1660D01*
X663Y1660D02*
X676Y1660D01*
X718Y1660D02*
X731Y1660D01*
X765Y1660D02*
X777Y1660D01*
X1027Y1660D02*
X1042Y1660D01*
X1080Y1660D02*
X1092Y1660D01*
X1128Y1660D02*
X1140Y1660D01*
X203Y1659D02*
X214Y1659D01*
X239Y1659D02*
X251Y1659D01*
X281Y1659D02*
X293Y1659D01*
X331Y1659D02*
X339Y1659D01*
X405Y1659D02*
X416Y1659D01*
X468Y1659D02*
X479Y1659D01*
X492Y1659D02*
X503Y1659D01*
X591Y1659D02*
X602Y1659D01*
X664Y1659D02*
X677Y1659D01*
X718Y1659D02*
X730Y1659D01*
X765Y1659D02*
X777Y1659D01*
X1028Y1659D02*
X1042Y1659D01*
X1080Y1659D02*
X1092Y1659D01*
X1128Y1659D02*
X1140Y1659D01*
X203Y1658D02*
X214Y1658D01*
X239Y1658D02*
X251Y1658D01*
X281Y1658D02*
X293Y1658D01*
X332Y1658D02*
X338Y1658D01*
X405Y1658D02*
X416Y1658D01*
X468Y1658D02*
X479Y1658D01*
X492Y1658D02*
X503Y1658D01*
X591Y1658D02*
X602Y1658D01*
X664Y1658D02*
X677Y1658D01*
X718Y1658D02*
X729Y1658D01*
X765Y1658D02*
X777Y1658D01*
X1029Y1658D02*
X1043Y1658D01*
X1080Y1658D02*
X1092Y1658D01*
X1128Y1658D02*
X1140Y1658D01*
X203Y1657D02*
X214Y1657D01*
X239Y1657D02*
X251Y1657D01*
X281Y1657D02*
X293Y1657D01*
X333Y1657D02*
X337Y1657D01*
X405Y1657D02*
X416Y1657D01*
X468Y1657D02*
X479Y1657D01*
X492Y1657D02*
X503Y1657D01*
X591Y1657D02*
X602Y1657D01*
X665Y1657D02*
X678Y1657D01*
X717Y1657D02*
X729Y1657D01*
X765Y1657D02*
X777Y1657D01*
X1029Y1657D02*
X1044Y1657D01*
X1080Y1657D02*
X1092Y1657D01*
X1128Y1657D02*
X1140Y1657D01*
X203Y1656D02*
X214Y1656D01*
X239Y1656D02*
X251Y1656D01*
X281Y1656D02*
X293Y1656D01*
X405Y1656D02*
X416Y1656D01*
X468Y1656D02*
X479Y1656D01*
X492Y1656D02*
X503Y1656D01*
X591Y1656D02*
X602Y1656D01*
X665Y1656D02*
X678Y1656D01*
X717Y1656D02*
X729Y1656D01*
X765Y1656D02*
X777Y1656D01*
X1030Y1656D02*
X1045Y1656D01*
X1080Y1656D02*
X1092Y1656D01*
X1128Y1656D02*
X1140Y1656D01*
X203Y1655D02*
X214Y1655D01*
X239Y1655D02*
X251Y1655D01*
X281Y1655D02*
X293Y1655D01*
X405Y1655D02*
X416Y1655D01*
X468Y1655D02*
X479Y1655D01*
X492Y1655D02*
X503Y1655D01*
X591Y1655D02*
X602Y1655D01*
X666Y1655D02*
X679Y1655D01*
X717Y1655D02*
X729Y1655D01*
X765Y1655D02*
X777Y1655D01*
X1031Y1655D02*
X1045Y1655D01*
X1080Y1655D02*
X1092Y1655D01*
X1128Y1655D02*
X1140Y1655D01*
X203Y1654D02*
X214Y1654D01*
X239Y1654D02*
X251Y1654D01*
X281Y1654D02*
X293Y1654D01*
X405Y1654D02*
X416Y1654D01*
X468Y1654D02*
X479Y1654D01*
X492Y1654D02*
X503Y1654D01*
X591Y1654D02*
X602Y1654D01*
X666Y1654D02*
X679Y1654D01*
X717Y1654D02*
X729Y1654D01*
X765Y1654D02*
X777Y1654D01*
X1032Y1654D02*
X1046Y1654D01*
X1080Y1654D02*
X1092Y1654D01*
X1128Y1654D02*
X1140Y1654D01*
X203Y1653D02*
X214Y1653D01*
X239Y1653D02*
X251Y1653D01*
X281Y1653D02*
X293Y1653D01*
X405Y1653D02*
X416Y1653D01*
X468Y1653D02*
X479Y1653D01*
X492Y1653D02*
X503Y1653D01*
X591Y1653D02*
X602Y1653D01*
X667Y1653D02*
X680Y1653D01*
X717Y1653D02*
X729Y1653D01*
X765Y1653D02*
X777Y1653D01*
X1033Y1653D02*
X1047Y1653D01*
X1080Y1653D02*
X1093Y1653D01*
X1128Y1653D02*
X1140Y1653D01*
X203Y1652D02*
X214Y1652D01*
X239Y1652D02*
X251Y1652D01*
X281Y1652D02*
X293Y1652D01*
X405Y1652D02*
X416Y1652D01*
X468Y1652D02*
X479Y1652D01*
X492Y1652D02*
X503Y1652D01*
X591Y1652D02*
X602Y1652D01*
X667Y1652D02*
X680Y1652D01*
X717Y1652D02*
X729Y1652D01*
X765Y1652D02*
X777Y1652D01*
X1033Y1652D02*
X1048Y1652D01*
X1081Y1652D02*
X1093Y1652D01*
X1127Y1652D02*
X1139Y1652D01*
X203Y1651D02*
X214Y1651D01*
X239Y1651D02*
X251Y1651D01*
X281Y1651D02*
X293Y1651D01*
X405Y1651D02*
X416Y1651D01*
X468Y1651D02*
X479Y1651D01*
X492Y1651D02*
X503Y1651D01*
X591Y1651D02*
X602Y1651D01*
X668Y1651D02*
X681Y1651D01*
X717Y1651D02*
X729Y1651D01*
X765Y1651D02*
X777Y1651D01*
X1034Y1651D02*
X1048Y1651D01*
X1081Y1651D02*
X1093Y1651D01*
X1127Y1651D02*
X1139Y1651D01*
X203Y1650D02*
X214Y1650D01*
X239Y1650D02*
X251Y1650D01*
X281Y1650D02*
X293Y1650D01*
X405Y1650D02*
X416Y1650D01*
X468Y1650D02*
X479Y1650D01*
X492Y1650D02*
X503Y1650D01*
X591Y1650D02*
X602Y1650D01*
X668Y1650D02*
X681Y1650D01*
X717Y1650D02*
X729Y1650D01*
X765Y1650D02*
X777Y1650D01*
X1035Y1650D02*
X1049Y1650D01*
X1082Y1650D02*
X1094Y1650D01*
X1126Y1650D02*
X1139Y1650D01*
X203Y1649D02*
X214Y1649D01*
X239Y1649D02*
X251Y1649D01*
X281Y1649D02*
X293Y1649D01*
X405Y1649D02*
X416Y1649D01*
X468Y1649D02*
X479Y1649D01*
X492Y1649D02*
X503Y1649D01*
X591Y1649D02*
X602Y1649D01*
X669Y1649D02*
X682Y1649D01*
X717Y1649D02*
X729Y1649D01*
X765Y1649D02*
X777Y1649D01*
X1036Y1649D02*
X1050Y1649D01*
X1082Y1649D02*
X1094Y1649D01*
X1126Y1649D02*
X1138Y1649D01*
X203Y1648D02*
X214Y1648D01*
X239Y1648D02*
X251Y1648D01*
X281Y1648D02*
X293Y1648D01*
X405Y1648D02*
X416Y1648D01*
X468Y1648D02*
X479Y1648D01*
X492Y1648D02*
X503Y1648D01*
X591Y1648D02*
X602Y1648D01*
X669Y1648D02*
X682Y1648D01*
X717Y1648D02*
X729Y1648D01*
X765Y1648D02*
X777Y1648D01*
X1036Y1648D02*
X1050Y1648D01*
X1082Y1648D02*
X1094Y1648D01*
X1126Y1648D02*
X1138Y1648D01*
X203Y1647D02*
X214Y1647D01*
X239Y1647D02*
X251Y1647D01*
X281Y1647D02*
X293Y1647D01*
X405Y1647D02*
X416Y1647D01*
X468Y1647D02*
X479Y1647D01*
X492Y1647D02*
X503Y1647D01*
X591Y1647D02*
X602Y1647D01*
X670Y1647D02*
X683Y1647D01*
X717Y1647D02*
X729Y1647D01*
X765Y1647D02*
X777Y1647D01*
X1037Y1647D02*
X1051Y1647D01*
X1083Y1647D02*
X1095Y1647D01*
X1125Y1647D02*
X1137Y1647D01*
X203Y1646D02*
X214Y1646D01*
X239Y1646D02*
X251Y1646D01*
X281Y1646D02*
X293Y1646D01*
X405Y1646D02*
X416Y1646D01*
X468Y1646D02*
X479Y1646D01*
X492Y1646D02*
X503Y1646D01*
X591Y1646D02*
X602Y1646D01*
X670Y1646D02*
X683Y1646D01*
X717Y1646D02*
X729Y1646D01*
X765Y1646D02*
X777Y1646D01*
X1038Y1646D02*
X1051Y1646D01*
X1083Y1646D02*
X1095Y1646D01*
X1125Y1646D02*
X1137Y1646D01*
X203Y1645D02*
X214Y1645D01*
X239Y1645D02*
X251Y1645D01*
X281Y1645D02*
X293Y1645D01*
X405Y1645D02*
X416Y1645D01*
X468Y1645D02*
X479Y1645D01*
X492Y1645D02*
X503Y1645D01*
X591Y1645D02*
X602Y1645D01*
X671Y1645D02*
X684Y1645D01*
X717Y1645D02*
X729Y1645D01*
X765Y1645D02*
X777Y1645D01*
X1039Y1645D02*
X1051Y1645D01*
X1083Y1645D02*
X1096Y1645D01*
X1124Y1645D02*
X1137Y1645D01*
X203Y1644D02*
X214Y1644D01*
X239Y1644D02*
X251Y1644D01*
X281Y1644D02*
X293Y1644D01*
X405Y1644D02*
X416Y1644D01*
X468Y1644D02*
X479Y1644D01*
X492Y1644D02*
X503Y1644D01*
X591Y1644D02*
X602Y1644D01*
X671Y1644D02*
X684Y1644D01*
X717Y1644D02*
X729Y1644D01*
X765Y1644D02*
X777Y1644D01*
X1039Y1644D02*
X1052Y1644D01*
X1084Y1644D02*
X1096Y1644D01*
X1124Y1644D02*
X1136Y1644D01*
X203Y1643D02*
X214Y1643D01*
X239Y1643D02*
X251Y1643D01*
X281Y1643D02*
X293Y1643D01*
X405Y1643D02*
X416Y1643D01*
X468Y1643D02*
X479Y1643D01*
X492Y1643D02*
X503Y1643D01*
X561Y1643D02*
X602Y1643D01*
X672Y1643D02*
X685Y1643D01*
X717Y1643D02*
X729Y1643D01*
X765Y1643D02*
X777Y1643D01*
X1040Y1643D02*
X1052Y1643D01*
X1084Y1643D02*
X1096Y1643D01*
X1124Y1643D02*
X1136Y1643D01*
X203Y1642D02*
X214Y1642D01*
X239Y1642D02*
X251Y1642D01*
X281Y1642D02*
X293Y1642D01*
X405Y1642D02*
X416Y1642D01*
X468Y1642D02*
X479Y1642D01*
X492Y1642D02*
X503Y1642D01*
X558Y1642D02*
X602Y1642D01*
X672Y1642D02*
X685Y1642D01*
X717Y1642D02*
X729Y1642D01*
X765Y1642D02*
X777Y1642D01*
X1040Y1642D02*
X1052Y1642D01*
X1085Y1642D02*
X1097Y1642D01*
X1123Y1642D02*
X1136Y1642D01*
X203Y1641D02*
X214Y1641D01*
X239Y1641D02*
X251Y1641D01*
X281Y1641D02*
X293Y1641D01*
X405Y1641D02*
X416Y1641D01*
X468Y1641D02*
X479Y1641D01*
X492Y1641D02*
X503Y1641D01*
X557Y1641D02*
X602Y1641D01*
X673Y1641D02*
X686Y1641D01*
X717Y1641D02*
X729Y1641D01*
X765Y1641D02*
X777Y1641D01*
X1041Y1641D02*
X1052Y1641D01*
X1085Y1641D02*
X1097Y1641D01*
X1123Y1641D02*
X1135Y1641D01*
X203Y1640D02*
X214Y1640D01*
X239Y1640D02*
X251Y1640D01*
X281Y1640D02*
X293Y1640D01*
X405Y1640D02*
X416Y1640D01*
X468Y1640D02*
X479Y1640D01*
X492Y1640D02*
X503Y1640D01*
X556Y1640D02*
X602Y1640D01*
X673Y1640D02*
X686Y1640D01*
X717Y1640D02*
X729Y1640D01*
X765Y1640D02*
X777Y1640D01*
X1041Y1640D02*
X1052Y1640D01*
X1085Y1640D02*
X1098Y1640D01*
X1123Y1640D02*
X1135Y1640D01*
X203Y1639D02*
X214Y1639D01*
X239Y1639D02*
X251Y1639D01*
X281Y1639D02*
X293Y1639D01*
X405Y1639D02*
X416Y1639D01*
X468Y1639D02*
X479Y1639D01*
X492Y1639D02*
X503Y1639D01*
X555Y1639D02*
X602Y1639D01*
X674Y1639D02*
X687Y1639D01*
X717Y1639D02*
X729Y1639D01*
X765Y1639D02*
X777Y1639D01*
X1041Y1639D02*
X1052Y1639D01*
X1086Y1639D02*
X1098Y1639D01*
X1122Y1639D02*
X1134Y1639D01*
X203Y1638D02*
X214Y1638D01*
X239Y1638D02*
X251Y1638D01*
X281Y1638D02*
X295Y1638D01*
X405Y1638D02*
X416Y1638D01*
X468Y1638D02*
X479Y1638D01*
X492Y1638D02*
X503Y1638D01*
X555Y1638D02*
X602Y1638D01*
X674Y1638D02*
X687Y1638D01*
X717Y1638D02*
X729Y1638D01*
X765Y1638D02*
X777Y1638D01*
X1041Y1638D02*
X1052Y1638D01*
X1086Y1638D02*
X1098Y1638D01*
X1122Y1638D02*
X1134Y1638D01*
X203Y1637D02*
X214Y1637D01*
X239Y1637D02*
X251Y1637D01*
X281Y1637D02*
X296Y1637D01*
X405Y1637D02*
X416Y1637D01*
X468Y1637D02*
X479Y1637D01*
X492Y1637D02*
X503Y1637D01*
X555Y1637D02*
X602Y1637D01*
X675Y1637D02*
X687Y1637D01*
X717Y1637D02*
X729Y1637D01*
X765Y1637D02*
X777Y1637D01*
X1041Y1637D02*
X1053Y1637D01*
X1087Y1637D02*
X1099Y1637D01*
X1121Y1637D02*
X1134Y1637D01*
X203Y1636D02*
X214Y1636D01*
X239Y1636D02*
X251Y1636D01*
X281Y1636D02*
X297Y1636D01*
X405Y1636D02*
X416Y1636D01*
X468Y1636D02*
X479Y1636D01*
X492Y1636D02*
X503Y1636D01*
X555Y1636D02*
X602Y1636D01*
X675Y1636D02*
X688Y1636D01*
X717Y1636D02*
X729Y1636D01*
X765Y1636D02*
X777Y1636D01*
X1041Y1636D02*
X1053Y1636D01*
X1087Y1636D02*
X1099Y1636D01*
X1121Y1636D02*
X1133Y1636D01*
X203Y1635D02*
X214Y1635D01*
X239Y1635D02*
X251Y1635D01*
X282Y1635D02*
X298Y1635D01*
X405Y1635D02*
X416Y1635D01*
X468Y1635D02*
X479Y1635D01*
X492Y1635D02*
X503Y1635D01*
X555Y1635D02*
X602Y1635D01*
X676Y1635D02*
X688Y1635D01*
X717Y1635D02*
X729Y1635D01*
X765Y1635D02*
X777Y1635D01*
X1041Y1635D02*
X1053Y1635D01*
X1087Y1635D02*
X1100Y1635D01*
X1121Y1635D02*
X1133Y1635D01*
X203Y1634D02*
X214Y1634D01*
X239Y1634D02*
X251Y1634D01*
X282Y1634D02*
X299Y1634D01*
X405Y1634D02*
X416Y1634D01*
X468Y1634D02*
X479Y1634D01*
X492Y1634D02*
X503Y1634D01*
X556Y1634D02*
X602Y1634D01*
X676Y1634D02*
X688Y1634D01*
X717Y1634D02*
X729Y1634D01*
X765Y1634D02*
X777Y1634D01*
X1041Y1634D02*
X1053Y1634D01*
X1088Y1634D02*
X1100Y1634D01*
X1120Y1634D02*
X1132Y1634D01*
X203Y1633D02*
X214Y1633D01*
X239Y1633D02*
X251Y1633D01*
X283Y1633D02*
X300Y1633D01*
X404Y1633D02*
X416Y1633D01*
X468Y1633D02*
X479Y1633D01*
X492Y1633D02*
X503Y1633D01*
X557Y1633D02*
X602Y1633D01*
X677Y1633D02*
X689Y1633D01*
X717Y1633D02*
X729Y1633D01*
X765Y1633D02*
X777Y1633D01*
X1041Y1633D02*
X1053Y1633D01*
X1088Y1633D02*
X1100Y1633D01*
X1120Y1633D02*
X1132Y1633D01*
X203Y1632D02*
X214Y1632D01*
X239Y1632D02*
X251Y1632D01*
X284Y1632D02*
X302Y1632D01*
X376Y1632D02*
X416Y1632D01*
X464Y1632D02*
X507Y1632D01*
X558Y1632D02*
X602Y1632D01*
X677Y1632D02*
X689Y1632D01*
X717Y1632D02*
X729Y1632D01*
X765Y1632D02*
X777Y1632D01*
X1041Y1632D02*
X1053Y1632D01*
X1089Y1632D02*
X1101Y1632D01*
X1119Y1632D02*
X1132Y1632D01*
X203Y1631D02*
X214Y1631D01*
X239Y1631D02*
X251Y1631D01*
X285Y1631D02*
X303Y1631D01*
X375Y1631D02*
X416Y1631D01*
X462Y1631D02*
X509Y1631D01*
X560Y1631D02*
X602Y1631D01*
X678Y1631D02*
X689Y1631D01*
X718Y1631D02*
X729Y1631D01*
X765Y1631D02*
X777Y1631D01*
X1041Y1631D02*
X1053Y1631D01*
X1089Y1631D02*
X1101Y1631D01*
X1119Y1631D02*
X1131Y1631D01*
X203Y1630D02*
X214Y1630D01*
X239Y1630D02*
X251Y1630D01*
X286Y1630D02*
X304Y1630D01*
X373Y1630D02*
X416Y1630D01*
X460Y1630D02*
X511Y1630D01*
X591Y1630D02*
X602Y1630D01*
X678Y1630D02*
X689Y1630D01*
X718Y1630D02*
X730Y1630D01*
X765Y1630D02*
X777Y1630D01*
X1041Y1630D02*
X1053Y1630D01*
X1089Y1630D02*
X1102Y1630D01*
X1119Y1630D02*
X1131Y1630D01*
X203Y1629D02*
X214Y1629D01*
X239Y1629D02*
X251Y1629D01*
X287Y1629D02*
X305Y1629D01*
X372Y1629D02*
X416Y1629D01*
X459Y1629D02*
X512Y1629D01*
X591Y1629D02*
X602Y1629D01*
X678Y1629D02*
X689Y1629D01*
X718Y1629D02*
X731Y1629D01*
X765Y1629D02*
X777Y1629D01*
X993Y1629D02*
X1019Y1629D01*
X1041Y1629D02*
X1053Y1629D01*
X1090Y1629D02*
X1102Y1629D01*
X1118Y1629D02*
X1130Y1629D01*
X203Y1628D02*
X214Y1628D01*
X239Y1628D02*
X251Y1628D01*
X288Y1628D02*
X306Y1628D01*
X371Y1628D02*
X416Y1628D01*
X458Y1628D02*
X512Y1628D01*
X591Y1628D02*
X602Y1628D01*
X678Y1628D02*
X689Y1628D01*
X718Y1628D02*
X733Y1628D01*
X765Y1628D02*
X777Y1628D01*
X993Y1628D02*
X1020Y1628D01*
X1041Y1628D02*
X1053Y1628D01*
X1090Y1628D02*
X1102Y1628D01*
X1118Y1628D02*
X1130Y1628D01*
X203Y1627D02*
X214Y1627D01*
X239Y1627D02*
X251Y1627D01*
X290Y1627D02*
X308Y1627D01*
X370Y1627D02*
X416Y1627D01*
X458Y1627D02*
X513Y1627D01*
X591Y1627D02*
X602Y1627D01*
X678Y1627D02*
X689Y1627D01*
X719Y1627D02*
X777Y1627D01*
X993Y1627D02*
X1021Y1627D01*
X1041Y1627D02*
X1053Y1627D01*
X1091Y1627D02*
X1103Y1627D01*
X1117Y1627D02*
X1130Y1627D01*
X203Y1626D02*
X214Y1626D01*
X239Y1626D02*
X251Y1626D01*
X291Y1626D02*
X309Y1626D01*
X370Y1626D02*
X416Y1626D01*
X457Y1626D02*
X514Y1626D01*
X591Y1626D02*
X602Y1626D01*
X678Y1626D02*
X689Y1626D01*
X719Y1626D02*
X777Y1626D01*
X993Y1626D02*
X1022Y1626D01*
X1041Y1626D02*
X1053Y1626D01*
X1091Y1626D02*
X1103Y1626D01*
X1117Y1626D02*
X1129Y1626D01*
X203Y1625D02*
X214Y1625D01*
X239Y1625D02*
X251Y1625D01*
X292Y1625D02*
X310Y1625D01*
X369Y1625D02*
X416Y1625D01*
X457Y1625D02*
X514Y1625D01*
X591Y1625D02*
X602Y1625D01*
X678Y1625D02*
X689Y1625D01*
X720Y1625D02*
X777Y1625D01*
X993Y1625D02*
X1022Y1625D01*
X1041Y1625D02*
X1053Y1625D01*
X1091Y1625D02*
X1103Y1625D01*
X1117Y1625D02*
X1129Y1625D01*
X203Y1624D02*
X214Y1624D01*
X239Y1624D02*
X251Y1624D01*
X293Y1624D02*
X311Y1624D01*
X369Y1624D02*
X416Y1624D01*
X456Y1624D02*
X515Y1624D01*
X591Y1624D02*
X602Y1624D01*
X678Y1624D02*
X689Y1624D01*
X720Y1624D02*
X777Y1624D01*
X993Y1624D02*
X1022Y1624D01*
X1041Y1624D02*
X1053Y1624D01*
X1092Y1624D02*
X1104Y1624D01*
X1116Y1624D02*
X1129Y1624D01*
X203Y1623D02*
X214Y1623D01*
X239Y1623D02*
X251Y1623D01*
X294Y1623D02*
X312Y1623D01*
X369Y1623D02*
X416Y1623D01*
X456Y1623D02*
X515Y1623D01*
X591Y1623D02*
X602Y1623D01*
X678Y1623D02*
X689Y1623D01*
X721Y1623D02*
X777Y1623D01*
X993Y1623D02*
X1022Y1623D01*
X1041Y1623D02*
X1053Y1623D01*
X1092Y1623D02*
X1104Y1623D01*
X1116Y1623D02*
X1128Y1623D01*
X201Y1622D02*
X251Y1622D01*
X296Y1622D02*
X313Y1622D01*
X369Y1622D02*
X416Y1622D01*
X456Y1622D02*
X515Y1622D01*
X591Y1622D02*
X602Y1622D01*
X677Y1622D02*
X689Y1622D01*
X722Y1622D02*
X777Y1622D01*
X993Y1622D02*
X1022Y1622D01*
X1041Y1622D02*
X1053Y1622D01*
X1092Y1622D02*
X1105Y1622D01*
X1115Y1622D02*
X1128Y1622D01*
X199Y1621D02*
X251Y1621D01*
X297Y1621D02*
X315Y1621D01*
X369Y1621D02*
X416Y1621D01*
X456Y1621D02*
X515Y1621D01*
X591Y1621D02*
X602Y1621D01*
X677Y1621D02*
X689Y1621D01*
X723Y1621D02*
X777Y1621D01*
X993Y1621D02*
X1022Y1621D01*
X1041Y1621D02*
X1053Y1621D01*
X1093Y1621D02*
X1105Y1621D01*
X1115Y1621D02*
X1127Y1621D01*
X198Y1620D02*
X251Y1620D01*
X298Y1620D02*
X315Y1620D01*
X369Y1620D02*
X380Y1620D01*
X456Y1620D02*
X467Y1620D01*
X504Y1620D02*
X515Y1620D01*
X591Y1620D02*
X602Y1620D01*
X677Y1620D02*
X689Y1620D01*
X724Y1620D02*
X777Y1620D01*
X993Y1620D02*
X1021Y1620D01*
X1041Y1620D02*
X1053Y1620D01*
X1093Y1620D02*
X1105Y1620D01*
X1115Y1620D02*
X1127Y1620D01*
X198Y1619D02*
X251Y1619D01*
X299Y1619D02*
X316Y1619D01*
X369Y1619D02*
X380Y1619D01*
X456Y1619D02*
X467Y1619D01*
X504Y1619D02*
X515Y1619D01*
X591Y1619D02*
X602Y1619D01*
X676Y1619D02*
X688Y1619D01*
X725Y1619D02*
X777Y1619D01*
X993Y1619D02*
X1021Y1619D01*
X1041Y1619D02*
X1053Y1619D01*
X1094Y1619D02*
X1106Y1619D01*
X1114Y1619D02*
X1127Y1619D01*
X197Y1618D02*
X251Y1618D01*
X300Y1618D02*
X316Y1618D01*
X369Y1618D02*
X380Y1618D01*
X456Y1618D02*
X467Y1618D01*
X504Y1618D02*
X515Y1618D01*
X591Y1618D02*
X602Y1618D01*
X676Y1618D02*
X688Y1618D01*
X727Y1618D02*
X777Y1618D01*
X993Y1618D02*
X1019Y1618D01*
X1041Y1618D02*
X1053Y1618D01*
X1094Y1618D02*
X1106Y1618D01*
X1114Y1618D02*
X1126Y1618D01*
X197Y1617D02*
X251Y1617D01*
X301Y1617D02*
X317Y1617D01*
X369Y1617D02*
X380Y1617D01*
X456Y1617D02*
X467Y1617D01*
X504Y1617D02*
X515Y1617D01*
X591Y1617D02*
X602Y1617D01*
X675Y1617D02*
X688Y1617D01*
X728Y1617D02*
X777Y1617D01*
X993Y1617D02*
X1005Y1617D01*
X1041Y1617D02*
X1053Y1617D01*
X1094Y1617D02*
X1107Y1617D01*
X1114Y1617D02*
X1126Y1617D01*
X197Y1616D02*
X251Y1616D01*
X303Y1616D02*
X317Y1616D01*
X369Y1616D02*
X380Y1616D01*
X456Y1616D02*
X467Y1616D01*
X504Y1616D02*
X515Y1616D01*
X591Y1616D02*
X602Y1616D01*
X675Y1616D02*
X687Y1616D01*
X731Y1616D02*
X777Y1616D01*
X993Y1616D02*
X1004Y1616D01*
X1041Y1616D02*
X1053Y1616D01*
X1095Y1616D02*
X1107Y1616D01*
X1113Y1616D02*
X1125Y1616D01*
X197Y1615D02*
X251Y1615D01*
X304Y1615D02*
X317Y1615D01*
X369Y1615D02*
X380Y1615D01*
X456Y1615D02*
X467Y1615D01*
X504Y1615D02*
X515Y1615D01*
X591Y1615D02*
X602Y1615D01*
X674Y1615D02*
X687Y1615D01*
X765Y1615D02*
X777Y1615D01*
X993Y1615D02*
X1004Y1615D01*
X1041Y1615D02*
X1053Y1615D01*
X1095Y1615D02*
X1107Y1615D01*
X1113Y1615D02*
X1125Y1615D01*
X198Y1614D02*
X251Y1614D01*
X305Y1614D02*
X317Y1614D01*
X369Y1614D02*
X380Y1614D01*
X456Y1614D02*
X467Y1614D01*
X504Y1614D02*
X515Y1614D01*
X591Y1614D02*
X602Y1614D01*
X674Y1614D02*
X686Y1614D01*
X765Y1614D02*
X777Y1614D01*
X993Y1614D02*
X1004Y1614D01*
X1041Y1614D02*
X1053Y1614D01*
X1096Y1614D02*
X1108Y1614D01*
X1112Y1614D02*
X1125Y1614D01*
X198Y1613D02*
X251Y1613D01*
X305Y1613D02*
X317Y1613D01*
X369Y1613D02*
X380Y1613D01*
X456Y1613D02*
X467Y1613D01*
X504Y1613D02*
X515Y1613D01*
X591Y1613D02*
X602Y1613D01*
X673Y1613D02*
X686Y1613D01*
X765Y1613D02*
X777Y1613D01*
X993Y1613D02*
X1004Y1613D01*
X1041Y1613D02*
X1053Y1613D01*
X1096Y1613D02*
X1108Y1613D01*
X1112Y1613D02*
X1124Y1613D01*
X199Y1612D02*
X251Y1612D01*
X305Y1612D02*
X317Y1612D01*
X369Y1612D02*
X380Y1612D01*
X456Y1612D02*
X467Y1612D01*
X504Y1612D02*
X515Y1612D01*
X591Y1612D02*
X602Y1612D01*
X673Y1612D02*
X685Y1612D01*
X765Y1612D02*
X777Y1612D01*
X993Y1612D02*
X1004Y1612D01*
X1041Y1612D02*
X1053Y1612D01*
X1096Y1612D02*
X1109Y1612D01*
X1112Y1612D02*
X1124Y1612D01*
X201Y1611D02*
X251Y1611D01*
X305Y1611D02*
X317Y1611D01*
X369Y1611D02*
X380Y1611D01*
X456Y1611D02*
X467Y1611D01*
X504Y1611D02*
X515Y1611D01*
X591Y1611D02*
X602Y1611D01*
X672Y1611D02*
X685Y1611D01*
X765Y1611D02*
X777Y1611D01*
X993Y1611D02*
X1004Y1611D01*
X1041Y1611D02*
X1053Y1611D01*
X1097Y1611D02*
X1109Y1611D01*
X1111Y1611D02*
X1123Y1611D01*
X203Y1610D02*
X215Y1610D01*
X305Y1610D02*
X317Y1610D01*
X369Y1610D02*
X380Y1610D01*
X456Y1610D02*
X467Y1610D01*
X504Y1610D02*
X515Y1610D01*
X591Y1610D02*
X602Y1610D01*
X672Y1610D02*
X684Y1610D01*
X765Y1610D02*
X777Y1610D01*
X993Y1610D02*
X1004Y1610D01*
X1041Y1610D02*
X1053Y1610D01*
X1097Y1610D02*
X1123Y1610D01*
X203Y1609D02*
X214Y1609D01*
X305Y1609D02*
X317Y1609D01*
X369Y1609D02*
X380Y1609D01*
X456Y1609D02*
X467Y1609D01*
X504Y1609D02*
X515Y1609D01*
X591Y1609D02*
X602Y1609D01*
X671Y1609D02*
X684Y1609D01*
X765Y1609D02*
X777Y1609D01*
X993Y1609D02*
X1004Y1609D01*
X1041Y1609D02*
X1053Y1609D01*
X1098Y1609D02*
X1123Y1609D01*
X203Y1608D02*
X214Y1608D01*
X305Y1608D02*
X317Y1608D01*
X369Y1608D02*
X380Y1608D01*
X456Y1608D02*
X467Y1608D01*
X504Y1608D02*
X515Y1608D01*
X591Y1608D02*
X602Y1608D01*
X671Y1608D02*
X684Y1608D01*
X765Y1608D02*
X777Y1608D01*
X993Y1608D02*
X1004Y1608D01*
X1041Y1608D02*
X1053Y1608D01*
X1098Y1608D02*
X1122Y1608D01*
X203Y1607D02*
X214Y1607D01*
X305Y1607D02*
X317Y1607D01*
X369Y1607D02*
X380Y1607D01*
X456Y1607D02*
X467Y1607D01*
X504Y1607D02*
X515Y1607D01*
X591Y1607D02*
X602Y1607D01*
X670Y1607D02*
X683Y1607D01*
X765Y1607D02*
X777Y1607D01*
X993Y1607D02*
X1004Y1607D01*
X1041Y1607D02*
X1053Y1607D01*
X1098Y1607D02*
X1122Y1607D01*
X203Y1606D02*
X214Y1606D01*
X305Y1606D02*
X317Y1606D01*
X369Y1606D02*
X380Y1606D01*
X456Y1606D02*
X467Y1606D01*
X504Y1606D02*
X515Y1606D01*
X591Y1606D02*
X602Y1606D01*
X670Y1606D02*
X683Y1606D01*
X765Y1606D02*
X777Y1606D01*
X993Y1606D02*
X1004Y1606D01*
X1041Y1606D02*
X1053Y1606D01*
X1099Y1606D02*
X1122Y1606D01*
X203Y1605D02*
X214Y1605D01*
X305Y1605D02*
X317Y1605D01*
X369Y1605D02*
X380Y1605D01*
X456Y1605D02*
X467Y1605D01*
X504Y1605D02*
X515Y1605D01*
X591Y1605D02*
X602Y1605D01*
X669Y1605D02*
X682Y1605D01*
X765Y1605D02*
X777Y1605D01*
X993Y1605D02*
X1004Y1605D01*
X1041Y1605D02*
X1053Y1605D01*
X1099Y1605D02*
X1121Y1605D01*
X203Y1604D02*
X214Y1604D01*
X305Y1604D02*
X317Y1604D01*
X369Y1604D02*
X380Y1604D01*
X456Y1604D02*
X467Y1604D01*
X504Y1604D02*
X515Y1604D01*
X591Y1604D02*
X602Y1604D01*
X669Y1604D02*
X682Y1604D01*
X765Y1604D02*
X777Y1604D01*
X993Y1604D02*
X1005Y1604D01*
X1041Y1604D02*
X1052Y1604D01*
X1099Y1604D02*
X1121Y1604D01*
X203Y1603D02*
X214Y1603D01*
X305Y1603D02*
X317Y1603D01*
X369Y1603D02*
X380Y1603D01*
X456Y1603D02*
X467Y1603D01*
X504Y1603D02*
X515Y1603D01*
X591Y1603D02*
X602Y1603D01*
X668Y1603D02*
X681Y1603D01*
X765Y1603D02*
X777Y1603D01*
X993Y1603D02*
X1005Y1603D01*
X1041Y1603D02*
X1052Y1603D01*
X1100Y1603D02*
X1120Y1603D01*
X203Y1602D02*
X214Y1602D01*
X305Y1602D02*
X317Y1602D01*
X369Y1602D02*
X380Y1602D01*
X456Y1602D02*
X467Y1602D01*
X504Y1602D02*
X515Y1602D01*
X591Y1602D02*
X602Y1602D01*
X668Y1602D02*
X681Y1602D01*
X765Y1602D02*
X777Y1602D01*
X993Y1602D02*
X1005Y1602D01*
X1041Y1602D02*
X1052Y1602D01*
X1100Y1602D02*
X1120Y1602D01*
X203Y1601D02*
X214Y1601D01*
X305Y1601D02*
X317Y1601D01*
X369Y1601D02*
X380Y1601D01*
X456Y1601D02*
X467Y1601D01*
X504Y1601D02*
X515Y1601D01*
X591Y1601D02*
X602Y1601D01*
X667Y1601D02*
X680Y1601D01*
X765Y1601D02*
X777Y1601D01*
X994Y1601D02*
X1006Y1601D01*
X1040Y1601D02*
X1052Y1601D01*
X1101Y1601D02*
X1120Y1601D01*
X203Y1600D02*
X214Y1600D01*
X305Y1600D02*
X317Y1600D01*
X369Y1600D02*
X380Y1600D01*
X456Y1600D02*
X467Y1600D01*
X504Y1600D02*
X515Y1600D01*
X591Y1600D02*
X602Y1600D01*
X667Y1600D02*
X680Y1600D01*
X765Y1600D02*
X777Y1600D01*
X994Y1600D02*
X1007Y1600D01*
X1039Y1600D02*
X1052Y1600D01*
X1101Y1600D02*
X1119Y1600D01*
X203Y1599D02*
X214Y1599D01*
X305Y1599D02*
X317Y1599D01*
X369Y1599D02*
X380Y1599D01*
X456Y1599D02*
X467Y1599D01*
X504Y1599D02*
X515Y1599D01*
X591Y1599D02*
X602Y1599D01*
X666Y1599D02*
X679Y1599D01*
X765Y1599D02*
X777Y1599D01*
X994Y1599D02*
X1008Y1599D01*
X1037Y1599D02*
X1052Y1599D01*
X1101Y1599D02*
X1119Y1599D01*
X203Y1598D02*
X214Y1598D01*
X305Y1598D02*
X317Y1598D01*
X369Y1598D02*
X380Y1598D01*
X456Y1598D02*
X467Y1598D01*
X504Y1598D02*
X515Y1598D01*
X591Y1598D02*
X602Y1598D01*
X666Y1598D02*
X678Y1598D01*
X765Y1598D02*
X777Y1598D01*
X995Y1598D02*
X1051Y1598D01*
X1102Y1598D02*
X1118Y1598D01*
X203Y1597D02*
X214Y1597D01*
X305Y1597D02*
X317Y1597D01*
X369Y1597D02*
X380Y1597D01*
X456Y1597D02*
X467Y1597D01*
X504Y1597D02*
X515Y1597D01*
X591Y1597D02*
X602Y1597D01*
X665Y1597D02*
X678Y1597D01*
X765Y1597D02*
X777Y1597D01*
X995Y1597D02*
X1051Y1597D01*
X1102Y1597D02*
X1118Y1597D01*
X203Y1596D02*
X214Y1596D01*
X305Y1596D02*
X317Y1596D01*
X369Y1596D02*
X380Y1596D01*
X420Y1596D02*
X425Y1596D01*
X456Y1596D02*
X467Y1596D01*
X504Y1596D02*
X515Y1596D01*
X591Y1596D02*
X602Y1596D01*
X665Y1596D02*
X677Y1596D01*
X765Y1596D02*
X777Y1596D01*
X996Y1596D02*
X1050Y1596D01*
X1103Y1596D02*
X1118Y1596D01*
X203Y1595D02*
X214Y1595D01*
X305Y1595D02*
X317Y1595D01*
X369Y1595D02*
X380Y1595D01*
X417Y1595D02*
X426Y1595D01*
X456Y1595D02*
X467Y1595D01*
X504Y1595D02*
X515Y1595D01*
X591Y1595D02*
X602Y1595D01*
X664Y1595D02*
X677Y1595D01*
X765Y1595D02*
X777Y1595D01*
X996Y1595D02*
X1050Y1595D01*
X1103Y1595D02*
X1117Y1595D01*
X203Y1594D02*
X214Y1594D01*
X305Y1594D02*
X317Y1594D01*
X369Y1594D02*
X380Y1594D01*
X415Y1594D02*
X427Y1594D01*
X456Y1594D02*
X467Y1594D01*
X504Y1594D02*
X515Y1594D01*
X591Y1594D02*
X602Y1594D01*
X663Y1594D02*
X676Y1594D01*
X765Y1594D02*
X777Y1594D01*
X997Y1594D02*
X1049Y1594D01*
X1103Y1594D02*
X1117Y1594D01*
X203Y1593D02*
X214Y1593D01*
X305Y1593D02*
X317Y1593D01*
X369Y1593D02*
X380Y1593D01*
X413Y1593D02*
X427Y1593D01*
X456Y1593D02*
X467Y1593D01*
X504Y1593D02*
X515Y1593D01*
X591Y1593D02*
X602Y1593D01*
X663Y1593D02*
X676Y1593D01*
X765Y1593D02*
X777Y1593D01*
X998Y1593D02*
X1048Y1593D01*
X1104Y1593D02*
X1116Y1593D01*
X203Y1592D02*
X214Y1592D01*
X305Y1592D02*
X317Y1592D01*
X369Y1592D02*
X380Y1592D01*
X410Y1592D02*
X428Y1592D01*
X456Y1592D02*
X467Y1592D01*
X504Y1592D02*
X515Y1592D01*
X591Y1592D02*
X602Y1592D01*
X661Y1592D02*
X675Y1592D01*
X765Y1592D02*
X777Y1592D01*
X998Y1592D02*
X1047Y1592D01*
X1104Y1592D02*
X1116Y1592D01*
X203Y1591D02*
X214Y1591D01*
X305Y1591D02*
X317Y1591D01*
X369Y1591D02*
X428Y1591D01*
X456Y1591D02*
X515Y1591D01*
X591Y1591D02*
X602Y1591D01*
X634Y1591D02*
X675Y1591D01*
X765Y1591D02*
X777Y1591D01*
X1000Y1591D02*
X1046Y1591D01*
X1105Y1591D02*
X1116Y1591D01*
X203Y1590D02*
X214Y1590D01*
X305Y1590D02*
X317Y1590D01*
X369Y1590D02*
X428Y1590D01*
X456Y1590D02*
X515Y1590D01*
X591Y1590D02*
X602Y1590D01*
X632Y1590D02*
X674Y1590D01*
X765Y1590D02*
X777Y1590D01*
X1001Y1590D02*
X1045Y1590D01*
X1105Y1590D02*
X1115Y1590D01*
X203Y1589D02*
X214Y1589D01*
X305Y1589D02*
X317Y1589D01*
X369Y1589D02*
X428Y1589D01*
X456Y1589D02*
X515Y1589D01*
X591Y1589D02*
X602Y1589D01*
X631Y1589D02*
X674Y1589D01*
X765Y1589D02*
X777Y1589D01*
X1002Y1589D02*
X1044Y1589D01*
X1106Y1589D02*
X1115Y1589D01*
X203Y1588D02*
X214Y1588D01*
X305Y1588D02*
X317Y1588D01*
X369Y1588D02*
X427Y1588D01*
X456Y1588D02*
X514Y1588D01*
X591Y1588D02*
X602Y1588D01*
X631Y1588D02*
X673Y1588D01*
X765Y1588D02*
X777Y1588D01*
X1004Y1588D02*
X1042Y1588D01*
X1106Y1588D02*
X1114Y1588D01*
X203Y1587D02*
X214Y1587D01*
X305Y1587D02*
X317Y1587D01*
X369Y1587D02*
X427Y1587D01*
X457Y1587D02*
X514Y1587D01*
X591Y1587D02*
X602Y1587D01*
X630Y1587D02*
X673Y1587D01*
X765Y1587D02*
X777Y1587D01*
X1007Y1587D02*
X1039Y1587D01*
X1108Y1587D02*
X1112Y1587D01*
X203Y1586D02*
X214Y1586D01*
X305Y1586D02*
X317Y1586D01*
X370Y1586D02*
X426Y1586D01*
X457Y1586D02*
X514Y1586D01*
X591Y1586D02*
X602Y1586D01*
X630Y1586D02*
X672Y1586D01*
X765Y1586D02*
X777Y1586D01*
X203Y1585D02*
X214Y1585D01*
X305Y1585D02*
X317Y1585D01*
X371Y1585D02*
X424Y1585D01*
X458Y1585D02*
X513Y1585D01*
X591Y1585D02*
X602Y1585D01*
X630Y1585D02*
X671Y1585D01*
X765Y1585D02*
X777Y1585D01*
X203Y1584D02*
X214Y1584D01*
X306Y1584D02*
X316Y1584D01*
X371Y1584D02*
X422Y1584D01*
X459Y1584D02*
X512Y1584D01*
X591Y1584D02*
X602Y1584D01*
X630Y1584D02*
X670Y1584D01*
X766Y1584D02*
X776Y1584D01*
X204Y1583D02*
X214Y1583D01*
X306Y1583D02*
X316Y1583D01*
X372Y1583D02*
X420Y1583D01*
X460Y1583D02*
X511Y1583D01*
X592Y1583D02*
X602Y1583D01*
X631Y1583D02*
X668Y1583D01*
X766Y1583D02*
X776Y1583D01*
X205Y1582D02*
X213Y1582D01*
X307Y1582D02*
X315Y1582D01*
X374Y1582D02*
X418Y1582D01*
X461Y1582D02*
X510Y1582D01*
X592Y1582D02*
X601Y1582D01*
X631Y1582D02*
X667Y1582D01*
X767Y1582D02*
X775Y1582D01*
X205Y1581D02*
X212Y1581D01*
X308Y1581D02*
X314Y1581D01*
X375Y1581D02*
X415Y1581D01*
X462Y1581D02*
X509Y1581D01*
X593Y1581D02*
X600Y1581D01*
X632Y1581D02*
X665Y1581D01*
X768Y1581D02*
X774Y1581D01*
X207Y1580D02*
X211Y1580D01*
X309Y1580D02*
X313Y1580D01*
X377Y1580D02*
X412Y1580D01*
X465Y1580D02*
X506Y1580D01*
X595Y1580D02*
X599Y1580D01*
X634Y1580D02*
X662Y1580D01*
X769Y1580D02*
X773Y1580D01*
X899Y133D02*
X916Y133D01*
X1121Y133D02*
X1158Y133D01*
X898Y132D02*
X919Y132D01*
X1118Y132D02*
X1158Y132D01*
X897Y131D02*
X921Y131D01*
X1117Y131D02*
X1158Y131D01*
X896Y130D02*
X923Y130D01*
X1115Y130D02*
X1158Y130D01*
X896Y129D02*
X924Y129D01*
X1114Y129D02*
X1158Y129D01*
X896Y128D02*
X925Y128D01*
X1113Y128D02*
X1158Y128D01*
X896Y127D02*
X926Y127D01*
X1112Y127D02*
X1158Y127D01*
X897Y126D02*
X927Y126D01*
X1112Y126D02*
X1158Y126D01*
X898Y125D02*
X927Y125D01*
X1111Y125D02*
X1158Y125D01*
X899Y124D02*
X928Y124D01*
X1111Y124D02*
X1158Y124D01*
X915Y123D02*
X928Y123D01*
X1110Y123D02*
X1122Y123D01*
X1149Y123D02*
X1158Y123D01*
X918Y122D02*
X929Y122D01*
X1110Y122D02*
X1120Y122D01*
X1149Y122D02*
X1158Y122D01*
X919Y121D02*
X929Y121D01*
X1110Y121D02*
X1120Y121D01*
X1149Y121D02*
X1158Y121D01*
X920Y120D02*
X929Y120D01*
X1110Y120D02*
X1119Y120D01*
X1149Y120D02*
X1158Y120D01*
X920Y119D02*
X930Y119D01*
X1110Y119D02*
X1119Y119D01*
X1149Y119D02*
X1158Y119D01*
X921Y118D02*
X930Y118D01*
X1110Y118D02*
X1119Y118D01*
X1149Y118D02*
X1158Y118D01*
X921Y117D02*
X930Y117D01*
X1109Y117D02*
X1119Y117D01*
X1149Y117D02*
X1158Y117D01*
X921Y116D02*
X930Y116D01*
X1109Y116D02*
X1119Y116D01*
X1149Y116D02*
X1158Y116D01*
X921Y115D02*
X930Y115D01*
X1109Y115D02*
X1119Y115D01*
X1149Y115D02*
X1158Y115D01*
X921Y114D02*
X930Y114D01*
X1109Y114D02*
X1119Y114D01*
X1149Y114D02*
X1158Y114D01*
X921Y113D02*
X930Y113D01*
X1110Y113D02*
X1119Y113D01*
X1149Y113D02*
X1158Y113D01*
X910Y112D02*
X936Y112D01*
X982Y112D02*
X998Y112D01*
X1053Y112D02*
X1070Y112D01*
X1110Y112D02*
X1119Y112D01*
X1149Y112D02*
X1158Y112D01*
X908Y111D02*
X938Y111D01*
X978Y111D02*
X1002Y111D01*
X1050Y111D02*
X1074Y111D01*
X1110Y111D02*
X1119Y111D01*
X1149Y111D02*
X1158Y111D01*
X907Y110D02*
X939Y110D01*
X976Y110D02*
X1004Y110D01*
X1048Y110D02*
X1076Y110D01*
X1110Y110D02*
X1120Y110D01*
X1149Y110D02*
X1158Y110D01*
X906Y109D02*
X940Y109D01*
X975Y109D02*
X1005Y109D01*
X1047Y109D02*
X1077Y109D01*
X1110Y109D02*
X1121Y109D01*
X1149Y109D02*
X1158Y109D01*
X906Y108D02*
X940Y108D01*
X974Y108D02*
X1006Y108D01*
X1046Y108D02*
X1078Y108D01*
X1110Y108D02*
X1124Y108D01*
X1149Y108D02*
X1158Y108D01*
X906Y107D02*
X940Y107D01*
X972Y107D02*
X1007Y107D01*
X1044Y107D02*
X1079Y107D01*
X1111Y107D02*
X1158Y107D01*
X906Y106D02*
X940Y106D01*
X971Y106D02*
X1008Y106D01*
X1043Y106D02*
X1080Y106D01*
X1111Y106D02*
X1158Y106D01*
X907Y105D02*
X939Y105D01*
X970Y105D02*
X1010Y105D01*
X1042Y105D02*
X1082Y105D01*
X1112Y105D02*
X1158Y105D01*
X907Y104D02*
X939Y104D01*
X969Y104D02*
X1011Y104D01*
X1041Y104D02*
X1083Y104D01*
X1113Y104D02*
X1158Y104D01*
X908Y103D02*
X938Y103D01*
X968Y103D02*
X1011Y103D01*
X1040Y103D02*
X1083Y103D01*
X1113Y103D02*
X1158Y103D01*
X921Y102D02*
X930Y102D01*
X968Y102D02*
X982Y102D01*
X998Y102D02*
X1012Y102D01*
X1040Y102D02*
X1054Y102D01*
X1070Y102D02*
X1084Y102D01*
X1114Y102D02*
X1158Y102D01*
X921Y101D02*
X930Y101D01*
X967Y101D02*
X980Y101D01*
X1000Y101D02*
X1013Y101D01*
X1039Y101D02*
X1052Y101D01*
X1072Y101D02*
X1084Y101D01*
X1116Y101D02*
X1158Y101D01*
X921Y100D02*
X930Y100D01*
X967Y100D02*
X978Y100D01*
X1001Y100D02*
X1013Y100D01*
X1039Y100D02*
X1050Y100D01*
X1073Y100D02*
X1085Y100D01*
X1117Y100D02*
X1158Y100D01*
X921Y99D02*
X930Y99D01*
X966Y99D02*
X977Y99D01*
X1002Y99D02*
X1013Y99D01*
X1038Y99D02*
X1049Y99D01*
X1074Y99D02*
X1085Y99D01*
X1119Y99D02*
X1158Y99D01*
X921Y98D02*
X930Y98D01*
X966Y98D02*
X976Y98D01*
X1003Y98D02*
X1014Y98D01*
X1038Y98D02*
X1048Y98D01*
X1075Y98D02*
X1086Y98D01*
X1123Y98D02*
X1158Y98D01*
X921Y97D02*
X930Y97D01*
X966Y97D02*
X976Y97D01*
X1004Y97D02*
X1014Y97D01*
X1038Y97D02*
X1048Y97D01*
X1076Y97D02*
X1086Y97D01*
X1130Y97D02*
X1141Y97D01*
X1149Y97D02*
X1158Y97D01*
X921Y96D02*
X930Y96D01*
X966Y96D02*
X975Y96D01*
X1005Y96D02*
X1014Y96D01*
X1038Y96D02*
X1047Y96D01*
X1077Y96D02*
X1086Y96D01*
X1129Y96D02*
X1140Y96D01*
X1149Y96D02*
X1158Y96D01*
X921Y95D02*
X930Y95D01*
X966Y95D02*
X975Y95D01*
X1005Y95D02*
X1014Y95D01*
X1038Y95D02*
X1047Y95D01*
X1077Y95D02*
X1086Y95D01*
X1129Y95D02*
X1140Y95D01*
X1149Y95D02*
X1158Y95D01*
X921Y94D02*
X930Y94D01*
X966Y94D02*
X975Y94D01*
X1005Y94D02*
X1014Y94D01*
X1038Y94D02*
X1047Y94D01*
X1077Y94D02*
X1086Y94D01*
X1128Y94D02*
X1139Y94D01*
X1149Y94D02*
X1158Y94D01*
X921Y93D02*
X930Y93D01*
X966Y93D02*
X975Y93D01*
X1005Y93D02*
X1014Y93D01*
X1037Y93D02*
X1047Y93D01*
X1077Y93D02*
X1086Y93D01*
X1128Y93D02*
X1138Y93D01*
X1149Y93D02*
X1158Y93D01*
X921Y92D02*
X930Y92D01*
X966Y92D02*
X975Y92D01*
X1005Y92D02*
X1014Y92D01*
X1037Y92D02*
X1047Y92D01*
X1077Y92D02*
X1086Y92D01*
X1127Y92D02*
X1138Y92D01*
X1149Y92D02*
X1158Y92D01*
X921Y91D02*
X930Y91D01*
X966Y91D02*
X975Y91D01*
X1005Y91D02*
X1014Y91D01*
X1037Y91D02*
X1047Y91D01*
X1077Y91D02*
X1086Y91D01*
X1126Y91D02*
X1137Y91D01*
X1149Y91D02*
X1158Y91D01*
X921Y90D02*
X930Y90D01*
X966Y90D02*
X975Y90D01*
X1005Y90D02*
X1014Y90D01*
X1037Y90D02*
X1047Y90D01*
X1077Y90D02*
X1086Y90D01*
X1126Y90D02*
X1137Y90D01*
X1149Y90D02*
X1158Y90D01*
X921Y89D02*
X930Y89D01*
X966Y89D02*
X975Y89D01*
X1005Y89D02*
X1014Y89D01*
X1037Y89D02*
X1047Y89D01*
X1077Y89D02*
X1086Y89D01*
X1125Y89D02*
X1136Y89D01*
X1149Y89D02*
X1158Y89D01*
X921Y88D02*
X930Y88D01*
X966Y88D02*
X975Y88D01*
X1005Y88D02*
X1014Y88D01*
X1037Y88D02*
X1047Y88D01*
X1077Y88D02*
X1086Y88D01*
X1125Y88D02*
X1136Y88D01*
X1149Y88D02*
X1158Y88D01*
X921Y87D02*
X930Y87D01*
X966Y87D02*
X975Y87D01*
X1005Y87D02*
X1014Y87D01*
X1037Y87D02*
X1047Y87D01*
X1077Y87D02*
X1086Y87D01*
X1124Y87D02*
X1135Y87D01*
X1149Y87D02*
X1158Y87D01*
X921Y86D02*
X930Y86D01*
X966Y86D02*
X1014Y86D01*
X1037Y86D02*
X1086Y86D01*
X1124Y86D02*
X1134Y86D01*
X1149Y86D02*
X1158Y86D01*
X921Y85D02*
X930Y85D01*
X966Y85D02*
X1014Y85D01*
X1037Y85D02*
X1086Y85D01*
X1123Y85D02*
X1134Y85D01*
X1149Y85D02*
X1158Y85D01*
X921Y84D02*
X930Y84D01*
X966Y84D02*
X1014Y84D01*
X1037Y84D02*
X1086Y84D01*
X1122Y84D02*
X1133Y84D01*
X1149Y84D02*
X1158Y84D01*
X921Y83D02*
X930Y83D01*
X966Y83D02*
X1014Y83D01*
X1037Y83D02*
X1086Y83D01*
X1122Y83D02*
X1133Y83D01*
X1149Y83D02*
X1158Y83D01*
X921Y82D02*
X930Y82D01*
X966Y82D02*
X1014Y82D01*
X1038Y82D02*
X1086Y82D01*
X1121Y82D02*
X1132Y82D01*
X1149Y82D02*
X1158Y82D01*
X921Y81D02*
X930Y81D01*
X966Y81D02*
X1014Y81D01*
X1038Y81D02*
X1086Y81D01*
X1121Y81D02*
X1131Y81D01*
X1149Y81D02*
X1158Y81D01*
X921Y80D02*
X930Y80D01*
X966Y80D02*
X1014Y80D01*
X1038Y80D02*
X1086Y80D01*
X1120Y80D02*
X1131Y80D01*
X1149Y80D02*
X1158Y80D01*
X921Y79D02*
X930Y79D01*
X966Y79D02*
X1014Y79D01*
X1038Y79D02*
X1086Y79D01*
X1119Y79D02*
X1130Y79D01*
X1149Y79D02*
X1158Y79D01*
X921Y78D02*
X930Y78D01*
X967Y78D02*
X1014Y78D01*
X1039Y78D02*
X1086Y78D01*
X1119Y78D02*
X1130Y78D01*
X1149Y78D02*
X1158Y78D01*
X921Y77D02*
X930Y77D01*
X969Y77D02*
X1014Y77D01*
X1041Y77D02*
X1086Y77D01*
X1118Y77D02*
X1129Y77D01*
X1149Y77D02*
X1158Y77D01*
X921Y76D02*
X930Y76D01*
X1005Y76D02*
X1014Y76D01*
X1077Y76D02*
X1086Y76D01*
X1118Y76D02*
X1129Y76D01*
X1149Y76D02*
X1158Y76D01*
X921Y75D02*
X930Y75D01*
X1005Y75D02*
X1014Y75D01*
X1077Y75D02*
X1086Y75D01*
X1117Y75D02*
X1128Y75D01*
X1149Y75D02*
X1158Y75D01*
X921Y74D02*
X930Y74D01*
X1005Y74D02*
X1014Y74D01*
X1077Y74D02*
X1086Y74D01*
X1117Y74D02*
X1127Y74D01*
X1149Y74D02*
X1158Y74D01*
X921Y73D02*
X930Y73D01*
X1005Y73D02*
X1014Y73D01*
X1077Y73D02*
X1086Y73D01*
X1116Y73D02*
X1127Y73D01*
X1149Y73D02*
X1158Y73D01*
X921Y72D02*
X930Y72D01*
X1005Y72D02*
X1014Y72D01*
X1077Y72D02*
X1086Y72D01*
X1115Y72D02*
X1126Y72D01*
X1149Y72D02*
X1158Y72D01*
X921Y71D02*
X930Y71D01*
X1004Y71D02*
X1014Y71D01*
X1076Y71D02*
X1086Y71D01*
X1115Y71D02*
X1126Y71D01*
X1149Y71D02*
X1158Y71D01*
X921Y70D02*
X930Y70D01*
X1004Y70D02*
X1014Y70D01*
X1076Y70D02*
X1086Y70D01*
X1114Y70D02*
X1125Y70D01*
X1149Y70D02*
X1158Y70D01*
X921Y69D02*
X930Y69D01*
X1003Y69D02*
X1014Y69D01*
X1075Y69D02*
X1086Y69D01*
X1114Y69D02*
X1124Y69D01*
X1149Y69D02*
X1158Y69D01*
X921Y68D02*
X930Y68D01*
X1001Y68D02*
X1013Y68D01*
X1073Y68D02*
X1085Y68D01*
X1113Y68D02*
X1124Y68D01*
X1149Y68D02*
X1158Y68D01*
X921Y67D02*
X930Y67D01*
X1000Y67D02*
X1013Y67D01*
X1072Y67D02*
X1085Y67D01*
X1112Y67D02*
X1123Y67D01*
X1149Y67D02*
X1158Y67D01*
X921Y66D02*
X930Y66D01*
X999Y66D02*
X1012Y66D01*
X1071Y66D02*
X1084Y66D01*
X1112Y66D02*
X1123Y66D01*
X1149Y66D02*
X1158Y66D01*
X921Y65D02*
X930Y65D01*
X968Y65D02*
X1012Y65D01*
X1040Y65D02*
X1084Y65D01*
X1111Y65D02*
X1122Y65D01*
X1149Y65D02*
X1158Y65D01*
X921Y64D02*
X930Y64D01*
X967Y64D02*
X1011Y64D01*
X1039Y64D02*
X1083Y64D01*
X1111Y64D02*
X1122Y64D01*
X1149Y64D02*
X1158Y64D01*
X921Y63D02*
X930Y63D01*
X966Y63D02*
X1010Y63D01*
X1038Y63D02*
X1082Y63D01*
X1110Y63D02*
X1121Y63D01*
X1149Y63D02*
X1158Y63D01*
X921Y62D02*
X930Y62D01*
X966Y62D02*
X1009Y62D01*
X1038Y62D02*
X1081Y62D01*
X1110Y62D02*
X1120Y62D01*
X1149Y62D02*
X1158Y62D01*
X921Y61D02*
X930Y61D01*
X966Y61D02*
X1008Y61D01*
X1038Y61D02*
X1080Y61D01*
X1110Y61D02*
X1120Y61D01*
X1149Y61D02*
X1158Y61D01*
X921Y60D02*
X930Y60D01*
X966Y60D02*
X1007Y60D01*
X1038Y60D02*
X1079Y60D01*
X1110Y60D02*
X1119Y60D01*
X1149Y60D02*
X1158Y60D01*
X921Y59D02*
X930Y59D01*
X966Y59D02*
X1005Y59D01*
X1038Y59D02*
X1077Y59D01*
X1110Y59D02*
X1119Y59D01*
X1149Y59D02*
X1158Y59D01*
X922Y58D02*
X929Y58D01*
X966Y58D02*
X1004Y58D01*
X1038Y58D02*
X1076Y58D01*
X1110Y58D02*
X1118Y58D01*
X1150Y58D02*
X1158Y58D01*
X922Y57D02*
X928Y57D01*
X967Y57D02*
X1002Y57D01*
X1039Y57D02*
X1074Y57D01*
X1111Y57D02*
X1117Y57D01*
X1151Y57D02*
X1157Y57D01*
X924Y56D02*
X927Y56D01*
X968Y56D02*
X1000Y56D01*
X1040Y56D02*
X1072Y56D01*
X1112Y56D02*
X1116Y56D01*
X1152Y56D02*
X1155Y56D01*
D02*
G04 End of Silk0*
M02*