G04 MADE WITH FRITZING*
G04 WWW.FRITZING.ORG*
G04 DOUBLE SIDED*
G04 HOLES PLATED*
G04 CONTOUR ON CENTER OF CONTOUR VECTOR*
%ASAXBY*%
%FSLAX23Y23*%
%MOIN*%
%OFA0B0*%
%SFA1.0B1.0*%
%ADD10C,0.010000*%
%ADD11R,0.001000X0.001000*%
%LNSILK1*%
G90*
G70*
G54D10*
X329Y916D02*
X329Y116D01*
D02*
X329Y116D02*
X729Y116D01*
D02*
X729Y116D02*
X729Y916D01*
D02*
X329Y916D02*
X479Y916D01*
D02*
X579Y916D02*
X729Y916D01*
D02*
X829Y1116D02*
X529Y1116D01*
D02*
X529Y1116D02*
X529Y1016D01*
D02*
X529Y1016D02*
X829Y1016D01*
D02*
X829Y1016D02*
X829Y1116D01*
D02*
X129Y916D02*
X129Y616D01*
D02*
X129Y616D02*
X229Y616D01*
D02*
X229Y616D02*
X229Y916D01*
D02*
X229Y916D02*
X129Y916D01*
D02*
X529Y1116D02*
X229Y1116D01*
D02*
X229Y1116D02*
X229Y1016D01*
D02*
X229Y1016D02*
X529Y1016D01*
D02*
X529Y1016D02*
X529Y1116D01*
G54D11*
X494Y1117D02*
X496Y1117D01*
X794Y1117D02*
X796Y1117D01*
X493Y1116D02*
X497Y1116D01*
X793Y1116D02*
X797Y1116D01*
X493Y1115D02*
X498Y1115D01*
X792Y1115D02*
X798Y1115D01*
X493Y1114D02*
X499Y1114D01*
X793Y1114D02*
X799Y1114D01*
X494Y1113D02*
X500Y1113D01*
X794Y1113D02*
X800Y1113D01*
X495Y1112D02*
X501Y1112D01*
X795Y1112D02*
X801Y1112D01*
X496Y1111D02*
X502Y1111D01*
X796Y1111D02*
X802Y1111D01*
X523Y1090D02*
X523Y1090D01*
X823Y1090D02*
X823Y1090D01*
X523Y1089D02*
X524Y1089D01*
X823Y1089D02*
X824Y1089D01*
X523Y1088D02*
X525Y1088D01*
X823Y1088D02*
X825Y1088D01*
X523Y1087D02*
X526Y1087D01*
X823Y1087D02*
X826Y1087D01*
X523Y1086D02*
X527Y1086D01*
X823Y1086D02*
X827Y1086D01*
X523Y1085D02*
X528Y1085D01*
X823Y1085D02*
X828Y1085D01*
X523Y1084D02*
X529Y1084D01*
X823Y1084D02*
X829Y1084D01*
X524Y1083D02*
X529Y1083D01*
X824Y1083D02*
X829Y1083D01*
X525Y1082D02*
X528Y1082D01*
X825Y1082D02*
X828Y1082D01*
X526Y1081D02*
X527Y1081D01*
X826Y1081D02*
X827Y1081D01*
X262Y1016D02*
X284Y1016D01*
X309Y1016D02*
X327Y1016D01*
X260Y1015D02*
X286Y1015D01*
X308Y1015D02*
X327Y1015D01*
X259Y1014D02*
X287Y1014D01*
X307Y1014D02*
X327Y1014D01*
X258Y1013D02*
X288Y1013D01*
X307Y1013D02*
X327Y1013D01*
X258Y1012D02*
X289Y1012D01*
X307Y1012D02*
X327Y1012D01*
X257Y1011D02*
X289Y1011D01*
X307Y1011D02*
X327Y1011D01*
X257Y1010D02*
X290Y1010D01*
X308Y1010D02*
X327Y1010D01*
X257Y1009D02*
X263Y1009D01*
X283Y1009D02*
X290Y1009D01*
X321Y1009D02*
X327Y1009D01*
X257Y1008D02*
X263Y1008D01*
X284Y1008D02*
X290Y1008D01*
X321Y1008D02*
X327Y1008D01*
X257Y1007D02*
X264Y1007D01*
X284Y1007D02*
X290Y1007D01*
X321Y1007D02*
X327Y1007D01*
X257Y1006D02*
X265Y1006D01*
X285Y1006D02*
X290Y1006D01*
X321Y1006D02*
X327Y1006D01*
X258Y1005D02*
X265Y1005D01*
X285Y1005D02*
X290Y1005D01*
X321Y1005D02*
X327Y1005D01*
X258Y1004D02*
X266Y1004D01*
X286Y1004D02*
X289Y1004D01*
X321Y1004D02*
X327Y1004D01*
X259Y1003D02*
X267Y1003D01*
X321Y1003D02*
X327Y1003D01*
X260Y1002D02*
X268Y1002D01*
X321Y1002D02*
X327Y1002D01*
X260Y1001D02*
X268Y1001D01*
X321Y1001D02*
X327Y1001D01*
X261Y1000D02*
X269Y1000D01*
X321Y1000D02*
X327Y1000D01*
X262Y999D02*
X270Y999D01*
X321Y999D02*
X327Y999D01*
X263Y998D02*
X271Y998D01*
X321Y998D02*
X327Y998D01*
X264Y997D02*
X272Y997D01*
X321Y997D02*
X327Y997D01*
X264Y996D02*
X272Y996D01*
X321Y996D02*
X327Y996D01*
X265Y995D02*
X273Y995D01*
X321Y995D02*
X327Y995D01*
X266Y994D02*
X274Y994D01*
X321Y994D02*
X327Y994D01*
X267Y993D02*
X275Y993D01*
X321Y993D02*
X327Y993D01*
X267Y992D02*
X275Y992D01*
X321Y992D02*
X327Y992D01*
X268Y991D02*
X276Y991D01*
X321Y991D02*
X327Y991D01*
X269Y990D02*
X277Y990D01*
X321Y990D02*
X327Y990D01*
X270Y989D02*
X278Y989D01*
X321Y989D02*
X327Y989D01*
X271Y988D02*
X279Y988D01*
X321Y988D02*
X327Y988D01*
X581Y988D02*
X585Y988D01*
X618Y988D02*
X623Y988D01*
X880Y988D02*
X885Y988D01*
X271Y987D02*
X279Y987D01*
X321Y987D02*
X327Y987D01*
X579Y987D02*
X586Y987D01*
X616Y987D02*
X625Y987D01*
X272Y986D02*
X280Y986D01*
X321Y986D02*
X327Y986D01*
X336Y986D02*
X339Y986D01*
X578Y986D02*
X586Y986D01*
X615Y986D02*
X626Y986D01*
X273Y985D02*
X281Y985D01*
X321Y985D02*
X327Y985D01*
X335Y985D02*
X340Y985D01*
X577Y985D02*
X586Y985D01*
X613Y985D02*
X627Y985D01*
X274Y984D02*
X282Y984D01*
X321Y984D02*
X327Y984D01*
X334Y984D02*
X340Y984D01*
X576Y984D02*
X586Y984D01*
X612Y984D02*
X627Y984D01*
X274Y983D02*
X282Y983D01*
X321Y983D02*
X327Y983D01*
X334Y983D02*
X340Y983D01*
X575Y983D02*
X586Y983D01*
X611Y983D02*
X627Y983D01*
X275Y982D02*
X283Y982D01*
X321Y982D02*
X327Y982D01*
X334Y982D02*
X340Y982D01*
X575Y982D02*
X584Y982D01*
X609Y982D02*
X628Y982D01*
X875Y982D02*
X884Y982D01*
X276Y981D02*
X284Y981D01*
X321Y981D02*
X327Y981D01*
X334Y981D02*
X340Y981D01*
X575Y981D02*
X581Y981D01*
X608Y981D02*
X619Y981D01*
X622Y981D02*
X628Y981D01*
X875Y981D02*
X881Y981D01*
X277Y980D02*
X285Y980D01*
X321Y980D02*
X327Y980D01*
X334Y980D02*
X340Y980D01*
X575Y980D02*
X581Y980D01*
X607Y980D02*
X617Y980D01*
X622Y980D02*
X628Y980D01*
X875Y980D02*
X881Y980D01*
X278Y979D02*
X286Y979D01*
X321Y979D02*
X327Y979D01*
X334Y979D02*
X340Y979D01*
X575Y979D02*
X581Y979D01*
X606Y979D02*
X616Y979D01*
X622Y979D02*
X628Y979D01*
X875Y979D02*
X881Y979D01*
X278Y978D02*
X286Y978D01*
X321Y978D02*
X327Y978D01*
X334Y978D02*
X340Y978D01*
X575Y978D02*
X581Y978D01*
X604Y978D02*
X615Y978D01*
X622Y978D02*
X628Y978D01*
X875Y978D02*
X881Y978D01*
X279Y977D02*
X287Y977D01*
X321Y977D02*
X327Y977D01*
X334Y977D02*
X340Y977D01*
X575Y977D02*
X581Y977D01*
X603Y977D02*
X614Y977D01*
X622Y977D02*
X628Y977D01*
X875Y977D02*
X881Y977D01*
X280Y976D02*
X288Y976D01*
X321Y976D02*
X327Y976D01*
X334Y976D02*
X340Y976D01*
X575Y976D02*
X581Y976D01*
X602Y976D02*
X612Y976D01*
X622Y976D02*
X628Y976D01*
X875Y976D02*
X881Y976D01*
X259Y975D02*
X260Y975D01*
X281Y975D02*
X289Y975D01*
X321Y975D02*
X327Y975D01*
X334Y975D02*
X340Y975D01*
X575Y975D02*
X581Y975D01*
X600Y975D02*
X611Y975D01*
X622Y975D02*
X628Y975D01*
X875Y975D02*
X881Y975D01*
X258Y974D02*
X262Y974D01*
X281Y974D02*
X289Y974D01*
X321Y974D02*
X327Y974D01*
X334Y974D02*
X340Y974D01*
X575Y974D02*
X581Y974D01*
X599Y974D02*
X610Y974D01*
X622Y974D02*
X628Y974D01*
X875Y974D02*
X881Y974D01*
X257Y973D02*
X263Y973D01*
X282Y973D02*
X290Y973D01*
X321Y973D02*
X327Y973D01*
X334Y973D02*
X340Y973D01*
X575Y973D02*
X581Y973D01*
X598Y973D02*
X608Y973D01*
X622Y973D02*
X628Y973D01*
X875Y973D02*
X881Y973D01*
X257Y972D02*
X263Y972D01*
X283Y972D02*
X290Y972D01*
X321Y972D02*
X327Y972D01*
X334Y972D02*
X340Y972D01*
X575Y972D02*
X581Y972D01*
X597Y972D02*
X607Y972D01*
X622Y972D02*
X628Y972D01*
X875Y972D02*
X881Y972D01*
X257Y971D02*
X263Y971D01*
X284Y971D02*
X290Y971D01*
X321Y971D02*
X327Y971D01*
X334Y971D02*
X340Y971D01*
X575Y971D02*
X581Y971D01*
X595Y971D02*
X606Y971D01*
X622Y971D02*
X628Y971D01*
X875Y971D02*
X881Y971D01*
X257Y970D02*
X264Y970D01*
X284Y970D02*
X290Y970D01*
X321Y970D02*
X327Y970D01*
X334Y970D02*
X340Y970D01*
X575Y970D02*
X581Y970D01*
X594Y970D02*
X605Y970D01*
X622Y970D02*
X628Y970D01*
X875Y970D02*
X881Y970D01*
X257Y969D02*
X290Y969D01*
X309Y969D02*
X340Y969D01*
X575Y969D02*
X581Y969D01*
X593Y969D02*
X603Y969D01*
X622Y969D02*
X628Y969D01*
X875Y969D02*
X881Y969D01*
X258Y968D02*
X290Y968D01*
X308Y968D02*
X340Y968D01*
X575Y968D02*
X581Y968D01*
X591Y968D02*
X602Y968D01*
X622Y968D02*
X628Y968D01*
X875Y968D02*
X881Y968D01*
X258Y967D02*
X290Y967D01*
X307Y967D02*
X340Y967D01*
X575Y967D02*
X581Y967D01*
X590Y967D02*
X601Y967D01*
X622Y967D02*
X628Y967D01*
X875Y967D02*
X881Y967D01*
X259Y966D02*
X289Y966D01*
X307Y966D02*
X340Y966D01*
X575Y966D02*
X581Y966D01*
X589Y966D02*
X599Y966D01*
X622Y966D02*
X628Y966D01*
X875Y966D02*
X881Y966D01*
X260Y965D02*
X288Y965D01*
X307Y965D02*
X340Y965D01*
X575Y965D02*
X581Y965D01*
X588Y965D02*
X598Y965D01*
X622Y965D02*
X628Y965D01*
X875Y965D02*
X881Y965D01*
X261Y964D02*
X287Y964D01*
X307Y964D02*
X340Y964D01*
X575Y964D02*
X581Y964D01*
X586Y964D02*
X597Y964D01*
X622Y964D02*
X628Y964D01*
X875Y964D02*
X881Y964D01*
X263Y963D02*
X286Y963D01*
X308Y963D02*
X339Y963D01*
X575Y963D02*
X581Y963D01*
X585Y963D02*
X596Y963D01*
X622Y963D02*
X628Y963D01*
X875Y963D02*
X881Y963D01*
X575Y962D02*
X581Y962D01*
X584Y962D02*
X594Y962D01*
X621Y962D02*
X628Y962D01*
X875Y962D02*
X881Y962D01*
X575Y961D02*
X593Y961D01*
X619Y961D02*
X627Y961D01*
X575Y960D02*
X592Y960D01*
X617Y960D02*
X627Y960D01*
X575Y959D02*
X590Y959D01*
X616Y959D02*
X627Y959D01*
X576Y958D02*
X589Y958D01*
X616Y958D02*
X626Y958D01*
X577Y957D02*
X588Y957D01*
X616Y957D02*
X625Y957D01*
X578Y956D02*
X587Y956D01*
X616Y956D02*
X624Y956D01*
X579Y955D02*
X585Y955D01*
X617Y955D02*
X622Y955D01*
X879Y955D02*
X885Y955D01*
X575Y938D02*
X600Y938D01*
X623Y938D02*
X626Y938D01*
X876Y938D02*
X879Y938D01*
X575Y937D02*
X602Y937D01*
X622Y937D02*
X627Y937D01*
X875Y937D02*
X880Y937D01*
X575Y936D02*
X603Y936D01*
X622Y936D02*
X628Y936D01*
X875Y936D02*
X880Y936D01*
X575Y935D02*
X603Y935D01*
X622Y935D02*
X628Y935D01*
X875Y935D02*
X881Y935D01*
X575Y934D02*
X604Y934D01*
X622Y934D02*
X628Y934D01*
X875Y934D02*
X881Y934D01*
X575Y933D02*
X604Y933D01*
X622Y933D02*
X628Y933D01*
X875Y933D02*
X881Y933D01*
X575Y932D02*
X604Y932D01*
X622Y932D02*
X628Y932D01*
X875Y932D02*
X881Y932D01*
X575Y931D02*
X581Y931D01*
X598Y931D02*
X604Y931D01*
X622Y931D02*
X628Y931D01*
X875Y931D02*
X881Y931D01*
X575Y930D02*
X581Y930D01*
X598Y930D02*
X604Y930D01*
X622Y930D02*
X628Y930D01*
X875Y930D02*
X881Y930D01*
X575Y929D02*
X581Y929D01*
X598Y929D02*
X604Y929D01*
X622Y929D02*
X628Y929D01*
X875Y929D02*
X881Y929D01*
X575Y928D02*
X581Y928D01*
X598Y928D02*
X604Y928D01*
X622Y928D02*
X628Y928D01*
X875Y928D02*
X881Y928D01*
X575Y927D02*
X581Y927D01*
X598Y927D02*
X604Y927D01*
X622Y927D02*
X628Y927D01*
X875Y927D02*
X881Y927D01*
X575Y926D02*
X581Y926D01*
X598Y926D02*
X604Y926D01*
X622Y926D02*
X628Y926D01*
X875Y926D02*
X881Y926D01*
X575Y925D02*
X581Y925D01*
X598Y925D02*
X604Y925D01*
X622Y925D02*
X628Y925D01*
X875Y925D02*
X881Y925D01*
X575Y924D02*
X581Y924D01*
X598Y924D02*
X604Y924D01*
X622Y924D02*
X628Y924D01*
X875Y924D02*
X881Y924D01*
X575Y923D02*
X581Y923D01*
X598Y923D02*
X604Y923D01*
X622Y923D02*
X628Y923D01*
X875Y923D02*
X881Y923D01*
X575Y922D02*
X581Y922D01*
X598Y922D02*
X604Y922D01*
X622Y922D02*
X628Y922D01*
X875Y922D02*
X881Y922D01*
X575Y921D02*
X581Y921D01*
X598Y921D02*
X604Y921D01*
X622Y921D02*
X628Y921D01*
X875Y921D02*
X881Y921D01*
X575Y920D02*
X581Y920D01*
X598Y920D02*
X604Y920D01*
X622Y920D02*
X628Y920D01*
X875Y920D02*
X881Y920D01*
X575Y919D02*
X581Y919D01*
X598Y919D02*
X604Y919D01*
X622Y919D02*
X628Y919D01*
X875Y919D02*
X881Y919D01*
X162Y918D02*
X162Y918D01*
X575Y918D02*
X581Y918D01*
X598Y918D02*
X604Y918D01*
X622Y918D02*
X628Y918D01*
X875Y918D02*
X881Y918D01*
X161Y917D02*
X163Y917D01*
X575Y917D02*
X581Y917D01*
X598Y917D02*
X604Y917D01*
X622Y917D02*
X628Y917D01*
X875Y917D02*
X881Y917D01*
X160Y916D02*
X164Y916D01*
X575Y916D02*
X581Y916D01*
X598Y916D02*
X604Y916D01*
X622Y916D02*
X628Y916D01*
X875Y916D02*
X881Y916D01*
X159Y915D02*
X164Y915D01*
X575Y915D02*
X581Y915D01*
X598Y915D02*
X604Y915D01*
X622Y915D02*
X628Y915D01*
X875Y915D02*
X881Y915D01*
X158Y914D02*
X164Y914D01*
X575Y914D02*
X581Y914D01*
X598Y914D02*
X604Y914D01*
X622Y914D02*
X628Y914D01*
X875Y914D02*
X881Y914D01*
X157Y913D02*
X163Y913D01*
X575Y913D02*
X581Y913D01*
X598Y913D02*
X604Y913D01*
X622Y913D02*
X628Y913D01*
X875Y913D02*
X881Y913D01*
X156Y912D02*
X162Y912D01*
X575Y912D02*
X581Y912D01*
X598Y912D02*
X604Y912D01*
X622Y912D02*
X628Y912D01*
X875Y912D02*
X881Y912D01*
X155Y911D02*
X161Y911D01*
X575Y911D02*
X581Y911D01*
X598Y911D02*
X628Y911D01*
X575Y910D02*
X581Y910D01*
X598Y910D02*
X628Y910D01*
X575Y909D02*
X581Y909D01*
X599Y909D02*
X627Y909D01*
X575Y908D02*
X581Y908D01*
X599Y908D02*
X627Y908D01*
X575Y907D02*
X581Y907D01*
X600Y907D02*
X626Y907D01*
X575Y906D02*
X580Y906D01*
X601Y906D02*
X625Y906D01*
X576Y905D02*
X579Y905D01*
X602Y905D02*
X624Y905D01*
X134Y890D02*
X134Y890D01*
X133Y889D02*
X134Y889D01*
X132Y888D02*
X134Y888D01*
X131Y887D02*
X134Y887D01*
X130Y886D02*
X134Y886D01*
X129Y885D02*
X134Y885D01*
X128Y884D02*
X134Y884D01*
X128Y883D02*
X133Y883D01*
X129Y882D02*
X132Y882D01*
X130Y881D02*
X131Y881D01*
X72Y819D02*
X89Y819D01*
X70Y818D02*
X91Y818D01*
X69Y817D02*
X92Y817D01*
X69Y816D02*
X92Y816D01*
X69Y815D02*
X92Y815D01*
X69Y814D02*
X92Y814D01*
X70Y813D02*
X92Y813D01*
X86Y812D02*
X92Y812D01*
X86Y811D02*
X92Y811D01*
X86Y810D02*
X92Y810D01*
X86Y809D02*
X92Y809D01*
X86Y808D02*
X92Y808D01*
X86Y807D02*
X92Y807D01*
X86Y806D02*
X92Y806D01*
X39Y805D02*
X92Y805D01*
X39Y804D02*
X92Y804D01*
X39Y803D02*
X92Y803D01*
X39Y802D02*
X92Y802D01*
X39Y801D02*
X92Y801D01*
X39Y800D02*
X92Y800D01*
X39Y799D02*
X92Y799D01*
X39Y798D02*
X45Y798D01*
X86Y798D02*
X92Y798D01*
X39Y797D02*
X45Y797D01*
X86Y797D02*
X92Y797D01*
X39Y796D02*
X45Y796D01*
X86Y796D02*
X92Y796D01*
X39Y795D02*
X45Y795D01*
X86Y795D02*
X92Y795D01*
X39Y794D02*
X45Y794D01*
X86Y794D02*
X92Y794D01*
X39Y793D02*
X45Y793D01*
X86Y793D02*
X92Y793D01*
X39Y792D02*
X45Y792D01*
X86Y792D02*
X92Y792D01*
X39Y791D02*
X45Y791D01*
X86Y791D02*
X92Y791D01*
X39Y790D02*
X45Y790D01*
X86Y790D02*
X92Y790D01*
X39Y789D02*
X45Y789D01*
X86Y789D02*
X92Y789D01*
X39Y788D02*
X45Y788D01*
X86Y788D02*
X92Y788D01*
X39Y787D02*
X45Y787D01*
X86Y787D02*
X92Y787D01*
X40Y786D02*
X44Y786D01*
X87Y786D02*
X92Y786D01*
X41Y785D02*
X43Y785D01*
X88Y785D02*
X90Y785D01*
X42Y769D02*
X83Y769D01*
X40Y768D02*
X86Y768D01*
X40Y767D02*
X88Y767D01*
X39Y766D02*
X89Y766D01*
X39Y765D02*
X90Y765D01*
X40Y764D02*
X91Y764D01*
X40Y763D02*
X91Y763D01*
X83Y762D02*
X92Y762D01*
X85Y761D02*
X92Y761D01*
X86Y760D02*
X92Y760D01*
X86Y759D02*
X92Y759D01*
X86Y758D02*
X92Y758D01*
X86Y757D02*
X92Y757D01*
X86Y756D02*
X92Y756D01*
X86Y755D02*
X92Y755D01*
X86Y754D02*
X92Y754D01*
X86Y753D02*
X92Y753D01*
X86Y752D02*
X92Y752D01*
X86Y751D02*
X92Y751D01*
X86Y750D02*
X92Y750D01*
X86Y749D02*
X92Y749D01*
X86Y748D02*
X92Y748D01*
X86Y747D02*
X92Y747D01*
X86Y746D02*
X92Y746D01*
X86Y745D02*
X92Y745D01*
X86Y744D02*
X92Y744D01*
X86Y743D02*
X92Y743D01*
X84Y742D02*
X92Y742D01*
X41Y741D02*
X92Y741D01*
X40Y740D02*
X91Y740D01*
X39Y739D02*
X90Y739D01*
X39Y738D02*
X90Y738D01*
X39Y737D02*
X88Y737D01*
X40Y736D02*
X87Y736D01*
X41Y735D02*
X85Y735D01*
D02*
G04 End of Silk1*
M02*