; NON-PLATED HOLES START AT T1
; THROUGH (PLATED) HOLES START AT T100
M48
INCH
T100C0.035000
T101C0.038000
T102C0.039370
%
T100
X006790Y004656
X006790Y006656
X006790Y005656
X003790Y005656
X006790Y008656
X006790Y002656
X003790Y008656
X003790Y003656
X006790Y007656
X003790Y004656
X003790Y007656
X006790Y001656
X003790Y001656
X003790Y002656
X003790Y006656
X006790Y003656
T101
X004790Y010656
X001790Y007656
X001790Y008656
X003790Y010656
X006790Y010656
X007790Y010656
X002790Y010656
X001790Y006656
X005790Y010656
T102
X001790Y011656
X007790Y008656
X007790Y004656
X003790Y011656
X007790Y007656
X001790Y001656
X001790Y004656
X002790Y013656
X001790Y013656
X007790Y003656
X007790Y002656
X007790Y001656
X001790Y003656
X007790Y006656
X000790Y013656
X003790Y013656
X001790Y002656
T00
M30
