; NON-PLATED HOLES START AT T1
; THROUGH (PLATED) HOLES START AT T100
M48
INCH
T100C0.032000
T101C0.035000
T102C0.031496
T103C0.038000
%
T100
X001175Y012876
X003175Y012876
X001175Y009876
X002175Y009876
X002175Y012876
X003175Y009876
T101
X005175Y004876
X005175Y005876
X012175Y002876
X008175Y008876
X008175Y004876
X008175Y007876
X001175Y001876
X005175Y013876
X005175Y006876
X011175Y006876
X005175Y001876
X008175Y003876
X008175Y009876
X006175Y012876
X012175Y006876
X011175Y002876
X005175Y003876
X005175Y009876
X010175Y012876
X005175Y010876
X005175Y008876
X009175Y013876
X005175Y007876
X008175Y006876
X008175Y005876
X012175Y014876
X012175Y010876
X008175Y010876
T102
X008175Y002876
X010175Y011876
X010175Y006876
X005175Y002876
T103
X009175Y003876
X009175Y005876
X011175Y013876
X002175Y004876
X002175Y003876
X002175Y006876
X011175Y008876
X010175Y013876
X011175Y009876
X009175Y006876
X009175Y004876
X011175Y010876
X002175Y005876
T00
M30
