G04 MADE WITH FRITZING*
G04 WWW.FRITZING.ORG*
G04 DOUBLE SIDED*
G04 HOLES PLATED*
G04 CONTOUR ON CENTER OF CONTOUR VECTOR*
%ASAXBY*%
%FSLAX23Y23*%
%MOIN*%
%OFA0B0*%
%SFA1.0B1.0*%
%ADD10C,0.075000*%
%ADD11C,0.078000*%
%ADD12C,0.078740*%
%ADD13R,0.075000X0.075000*%
%ADD14R,0.078000X0.078000*%
%ADD15C,0.024000*%
%ADD16C,0.020000*%
%LNCOPPER0*%
G90*
G70*
G54D10*
X379Y866D03*
X679Y866D03*
X379Y766D03*
X679Y766D03*
X379Y666D03*
X679Y666D03*
X379Y566D03*
X679Y566D03*
X379Y466D03*
X679Y466D03*
X379Y366D03*
X679Y366D03*
X379Y266D03*
X679Y266D03*
X379Y166D03*
X679Y166D03*
G54D11*
X779Y1066D03*
X679Y1066D03*
X579Y1066D03*
X179Y866D03*
X179Y766D03*
X179Y666D03*
X479Y1066D03*
X379Y1066D03*
X279Y1066D03*
G54D12*
X779Y266D03*
X179Y166D03*
X179Y266D03*
X779Y466D03*
X779Y166D03*
X779Y366D03*
X179Y466D03*
X179Y1366D03*
X779Y766D03*
X79Y1366D03*
X779Y666D03*
X379Y1166D03*
X279Y1366D03*
X179Y1166D03*
X379Y1366D03*
X179Y366D03*
X779Y866D03*
G54D13*
X379Y866D03*
G54D14*
X779Y1066D03*
X179Y866D03*
G54D15*
X380Y894D02*
X381Y966D01*
D02*
X381Y966D02*
X578Y966D01*
D02*
X578Y966D02*
X679Y966D01*
D02*
X679Y966D02*
X679Y1036D01*
D02*
X348Y1366D02*
X310Y1366D01*
D02*
X578Y1264D02*
X758Y1087D01*
D02*
X477Y1365D02*
X578Y1264D01*
D02*
X410Y1366D02*
X477Y1365D01*
D02*
X748Y166D02*
X708Y166D01*
D02*
X280Y667D02*
X201Y745D01*
D02*
X381Y667D02*
X280Y667D01*
D02*
X400Y685D02*
X381Y667D01*
D02*
X78Y667D02*
X149Y666D01*
D02*
X78Y1264D02*
X78Y667D01*
D02*
X78Y1264D02*
X79Y1335D01*
D02*
X381Y1264D02*
X78Y1264D01*
D02*
X381Y1264D02*
X479Y1266D01*
D02*
X580Y1165D02*
X479Y1266D01*
D02*
X479Y1266D02*
X381Y1264D01*
D02*
X479Y1266D02*
X280Y1264D01*
D02*
X579Y1096D02*
X580Y1165D01*
D02*
X280Y1264D02*
X280Y1168D01*
D02*
X280Y1168D02*
X279Y1096D01*
D02*
X458Y1087D02*
X401Y1144D01*
D02*
X179Y896D02*
X179Y1135D01*
D02*
X280Y966D02*
X358Y1044D01*
D02*
X280Y764D02*
X280Y966D01*
D02*
X350Y765D02*
X280Y764D01*
D02*
X248Y1366D02*
X210Y1366D01*
D02*
X780Y966D02*
X779Y1036D01*
D02*
X699Y886D02*
X780Y966D01*
D02*
X78Y667D02*
X149Y666D01*
D02*
X280Y66D02*
X78Y66D01*
D02*
X78Y66D02*
X78Y667D01*
D02*
X359Y145D02*
X280Y66D01*
D02*
X757Y844D02*
X699Y786D01*
D02*
X757Y744D02*
X699Y686D01*
D02*
X757Y644D02*
X699Y586D01*
D02*
X748Y466D02*
X708Y466D01*
D02*
X748Y366D02*
X708Y366D01*
D02*
X748Y266D02*
X708Y266D01*
D02*
X353Y553D02*
X207Y479D01*
D02*
X353Y453D02*
X207Y379D01*
D02*
X353Y353D02*
X207Y279D01*
D02*
X353Y253D02*
X207Y179D01*
G54D16*
X508Y1037D02*
X450Y1037D01*
X450Y1095D01*
X508Y1095D01*
X508Y1037D01*
D02*
G04 End of Copper0*
M02*