G04 MADE WITH FRITZING*
G04 WWW.FRITZING.ORG*
G04 DOUBLE SIDED*
G04 HOLES PLATED*
G04 CONTOUR ON CENTER OF CONTOUR VECTOR*
%ASAXBY*%
%FSLAX23Y23*%
%MOIN*%
%OFA0B0*%
%SFA1.0B1.0*%
%ADD10R,0.001000X0.001000*%
%LNSILK0*%
G90*
G70*
G54D10*
X575Y1398D02*
X590Y1398D01*
X606Y1398D02*
X609Y1398D01*
X627Y1398D02*
X634Y1398D01*
X649Y1398D02*
X663Y1398D01*
X734Y1398D02*
X750Y1398D01*
X776Y1398D02*
X792Y1398D01*
X819Y1398D02*
X822Y1398D01*
X842Y1398D02*
X845Y1398D01*
X573Y1397D02*
X591Y1397D01*
X606Y1397D02*
X610Y1397D01*
X626Y1397D02*
X634Y1397D01*
X648Y1397D02*
X664Y1397D01*
X733Y1397D02*
X751Y1397D01*
X776Y1397D02*
X794Y1397D01*
X818Y1397D02*
X822Y1397D01*
X841Y1397D02*
X846Y1397D01*
X572Y1396D02*
X591Y1396D01*
X605Y1396D02*
X610Y1396D01*
X626Y1396D02*
X634Y1396D01*
X648Y1396D02*
X665Y1396D01*
X733Y1396D02*
X752Y1396D01*
X775Y1396D02*
X795Y1396D01*
X818Y1396D02*
X823Y1396D01*
X841Y1396D02*
X846Y1396D01*
X571Y1395D02*
X591Y1395D01*
X605Y1395D02*
X610Y1395D01*
X625Y1395D02*
X634Y1395D01*
X648Y1395D02*
X666Y1395D01*
X733Y1395D02*
X753Y1395D01*
X775Y1395D02*
X796Y1395D01*
X818Y1395D02*
X823Y1395D01*
X841Y1395D02*
X846Y1395D01*
X570Y1394D02*
X591Y1394D01*
X605Y1394D02*
X610Y1394D01*
X625Y1394D02*
X634Y1394D01*
X649Y1394D02*
X667Y1394D01*
X734Y1394D02*
X754Y1394D01*
X776Y1394D02*
X796Y1394D01*
X818Y1394D02*
X823Y1394D01*
X841Y1394D02*
X846Y1394D01*
X570Y1393D02*
X589Y1393D01*
X605Y1393D02*
X610Y1393D01*
X624Y1393D02*
X634Y1393D01*
X651Y1393D02*
X668Y1393D01*
X736Y1393D02*
X754Y1393D01*
X778Y1393D02*
X797Y1393D01*
X818Y1393D02*
X823Y1393D01*
X841Y1393D02*
X846Y1393D01*
X569Y1392D02*
X575Y1392D01*
X580Y1392D02*
X585Y1392D01*
X605Y1392D02*
X610Y1392D01*
X624Y1392D02*
X634Y1392D01*
X662Y1392D02*
X668Y1392D01*
X749Y1392D02*
X755Y1392D01*
X791Y1392D02*
X797Y1392D01*
X818Y1392D02*
X823Y1392D01*
X841Y1392D02*
X846Y1392D01*
X569Y1391D02*
X575Y1391D01*
X580Y1391D02*
X585Y1391D01*
X605Y1391D02*
X610Y1391D01*
X623Y1391D02*
X634Y1391D01*
X663Y1391D02*
X669Y1391D01*
X750Y1391D02*
X755Y1391D01*
X792Y1391D02*
X798Y1391D01*
X818Y1391D02*
X823Y1391D01*
X841Y1391D02*
X846Y1391D01*
X568Y1390D02*
X574Y1390D01*
X580Y1390D02*
X585Y1390D01*
X605Y1390D02*
X610Y1390D01*
X623Y1390D02*
X634Y1390D01*
X663Y1390D02*
X670Y1390D01*
X750Y1390D02*
X756Y1390D01*
X793Y1390D02*
X798Y1390D01*
X818Y1390D02*
X823Y1390D01*
X841Y1390D02*
X846Y1390D01*
X568Y1389D02*
X574Y1389D01*
X580Y1389D02*
X585Y1389D01*
X605Y1389D02*
X610Y1389D01*
X623Y1389D02*
X634Y1389D01*
X664Y1389D02*
X671Y1389D01*
X751Y1389D02*
X756Y1389D01*
X793Y1389D02*
X799Y1389D01*
X818Y1389D02*
X823Y1389D01*
X841Y1389D02*
X846Y1389D01*
X567Y1388D02*
X573Y1388D01*
X580Y1388D02*
X585Y1388D01*
X605Y1388D02*
X610Y1388D01*
X622Y1388D02*
X634Y1388D01*
X665Y1388D02*
X672Y1388D01*
X751Y1388D02*
X757Y1388D01*
X794Y1388D02*
X799Y1388D01*
X818Y1388D02*
X823Y1388D01*
X841Y1388D02*
X846Y1388D01*
X567Y1387D02*
X573Y1387D01*
X580Y1387D02*
X585Y1387D01*
X605Y1387D02*
X610Y1387D01*
X622Y1387D02*
X627Y1387D01*
X629Y1387D02*
X634Y1387D01*
X666Y1387D02*
X672Y1387D01*
X752Y1387D02*
X757Y1387D01*
X794Y1387D02*
X800Y1387D01*
X818Y1387D02*
X823Y1387D01*
X841Y1387D02*
X846Y1387D01*
X566Y1386D02*
X572Y1386D01*
X580Y1386D02*
X585Y1386D01*
X605Y1386D02*
X610Y1386D01*
X621Y1386D02*
X627Y1386D01*
X629Y1386D02*
X634Y1386D01*
X667Y1386D02*
X673Y1386D01*
X752Y1386D02*
X758Y1386D01*
X795Y1386D02*
X800Y1386D01*
X818Y1386D02*
X823Y1386D01*
X841Y1386D02*
X846Y1386D01*
X566Y1385D02*
X572Y1385D01*
X580Y1385D02*
X585Y1385D01*
X605Y1385D02*
X610Y1385D01*
X621Y1385D02*
X626Y1385D01*
X629Y1385D02*
X634Y1385D01*
X667Y1385D02*
X674Y1385D01*
X753Y1385D02*
X758Y1385D01*
X795Y1385D02*
X801Y1385D01*
X818Y1385D02*
X823Y1385D01*
X841Y1385D02*
X846Y1385D01*
X565Y1384D02*
X571Y1384D01*
X580Y1384D02*
X585Y1384D01*
X605Y1384D02*
X610Y1384D01*
X620Y1384D02*
X626Y1384D01*
X629Y1384D02*
X634Y1384D01*
X668Y1384D02*
X674Y1384D01*
X753Y1384D02*
X759Y1384D01*
X796Y1384D02*
X801Y1384D01*
X818Y1384D02*
X824Y1384D01*
X840Y1384D02*
X846Y1384D01*
X565Y1383D02*
X571Y1383D01*
X580Y1383D02*
X585Y1383D01*
X605Y1383D02*
X610Y1383D01*
X620Y1383D02*
X625Y1383D01*
X629Y1383D02*
X634Y1383D01*
X669Y1383D02*
X675Y1383D01*
X754Y1383D02*
X759Y1383D01*
X796Y1383D02*
X802Y1383D01*
X819Y1383D02*
X824Y1383D01*
X840Y1383D02*
X845Y1383D01*
X564Y1382D02*
X570Y1382D01*
X580Y1382D02*
X585Y1382D01*
X605Y1382D02*
X610Y1382D01*
X620Y1382D02*
X625Y1382D01*
X629Y1382D02*
X634Y1382D01*
X670Y1382D02*
X675Y1382D01*
X754Y1382D02*
X760Y1382D01*
X797Y1382D02*
X802Y1382D01*
X819Y1382D02*
X824Y1382D01*
X839Y1382D02*
X845Y1382D01*
X564Y1381D02*
X570Y1381D01*
X580Y1381D02*
X585Y1381D01*
X605Y1381D02*
X610Y1381D01*
X619Y1381D02*
X625Y1381D01*
X629Y1381D02*
X634Y1381D01*
X670Y1381D02*
X676Y1381D01*
X755Y1381D02*
X760Y1381D01*
X797Y1381D02*
X803Y1381D01*
X819Y1381D02*
X825Y1381D01*
X839Y1381D02*
X844Y1381D01*
X564Y1380D02*
X569Y1380D01*
X580Y1380D02*
X585Y1380D01*
X605Y1380D02*
X610Y1380D01*
X619Y1380D02*
X624Y1380D01*
X629Y1380D02*
X634Y1380D01*
X671Y1380D02*
X676Y1380D01*
X755Y1380D02*
X760Y1380D01*
X798Y1380D02*
X803Y1380D01*
X820Y1380D02*
X825Y1380D01*
X839Y1380D02*
X844Y1380D01*
X563Y1379D02*
X569Y1379D01*
X580Y1379D02*
X585Y1379D01*
X605Y1379D02*
X610Y1379D01*
X618Y1379D02*
X624Y1379D01*
X629Y1379D02*
X634Y1379D01*
X671Y1379D02*
X676Y1379D01*
X756Y1379D02*
X761Y1379D01*
X798Y1379D02*
X803Y1379D01*
X820Y1379D02*
X826Y1379D01*
X838Y1379D02*
X844Y1379D01*
X563Y1378D02*
X568Y1378D01*
X580Y1378D02*
X585Y1378D01*
X605Y1378D02*
X610Y1378D01*
X618Y1378D02*
X623Y1378D01*
X629Y1378D02*
X634Y1378D01*
X671Y1378D02*
X676Y1378D01*
X756Y1378D02*
X761Y1378D01*
X798Y1378D02*
X803Y1378D01*
X821Y1378D02*
X826Y1378D01*
X838Y1378D02*
X843Y1378D01*
X563Y1377D02*
X568Y1377D01*
X580Y1377D02*
X585Y1377D01*
X605Y1377D02*
X610Y1377D01*
X617Y1377D02*
X623Y1377D01*
X629Y1377D02*
X634Y1377D01*
X671Y1377D02*
X676Y1377D01*
X756Y1377D02*
X761Y1377D01*
X799Y1377D02*
X804Y1377D01*
X821Y1377D02*
X826Y1377D01*
X837Y1377D02*
X843Y1377D01*
X563Y1376D02*
X568Y1376D01*
X580Y1376D02*
X585Y1376D01*
X605Y1376D02*
X610Y1376D01*
X617Y1376D02*
X622Y1376D01*
X629Y1376D02*
X634Y1376D01*
X671Y1376D02*
X676Y1376D01*
X756Y1376D02*
X761Y1376D01*
X799Y1376D02*
X804Y1376D01*
X821Y1376D02*
X827Y1376D01*
X837Y1376D02*
X843Y1376D01*
X563Y1375D02*
X568Y1375D01*
X580Y1375D02*
X585Y1375D01*
X605Y1375D02*
X610Y1375D01*
X616Y1375D02*
X622Y1375D01*
X629Y1375D02*
X634Y1375D01*
X671Y1375D02*
X676Y1375D01*
X756Y1375D02*
X761Y1375D01*
X799Y1375D02*
X804Y1375D01*
X822Y1375D02*
X827Y1375D01*
X837Y1375D02*
X842Y1375D01*
X563Y1374D02*
X568Y1374D01*
X580Y1374D02*
X585Y1374D01*
X605Y1374D02*
X610Y1374D01*
X616Y1374D02*
X622Y1374D01*
X629Y1374D02*
X634Y1374D01*
X671Y1374D02*
X676Y1374D01*
X756Y1374D02*
X761Y1374D01*
X798Y1374D02*
X803Y1374D01*
X822Y1374D02*
X828Y1374D01*
X836Y1374D02*
X842Y1374D01*
X563Y1373D02*
X569Y1373D01*
X580Y1373D02*
X585Y1373D01*
X605Y1373D02*
X610Y1373D01*
X616Y1373D02*
X621Y1373D01*
X629Y1373D02*
X634Y1373D01*
X648Y1373D02*
X661Y1373D01*
X671Y1373D02*
X676Y1373D01*
X756Y1373D02*
X761Y1373D01*
X798Y1373D02*
X803Y1373D01*
X823Y1373D02*
X828Y1373D01*
X836Y1373D02*
X841Y1373D01*
X564Y1372D02*
X569Y1372D01*
X580Y1372D02*
X585Y1372D01*
X605Y1372D02*
X610Y1372D01*
X615Y1372D02*
X621Y1372D01*
X629Y1372D02*
X634Y1372D01*
X648Y1372D02*
X661Y1372D01*
X671Y1372D02*
X676Y1372D01*
X755Y1372D02*
X761Y1372D01*
X798Y1372D02*
X803Y1372D01*
X823Y1372D02*
X828Y1372D01*
X836Y1372D02*
X841Y1372D01*
X564Y1371D02*
X569Y1371D01*
X580Y1371D02*
X585Y1371D01*
X605Y1371D02*
X610Y1371D01*
X615Y1371D02*
X620Y1371D01*
X629Y1371D02*
X634Y1371D01*
X648Y1371D02*
X662Y1371D01*
X671Y1371D02*
X676Y1371D01*
X755Y1371D02*
X760Y1371D01*
X797Y1371D02*
X803Y1371D01*
X823Y1371D02*
X829Y1371D01*
X835Y1371D02*
X841Y1371D01*
X564Y1370D02*
X570Y1370D01*
X580Y1370D02*
X585Y1370D01*
X605Y1370D02*
X610Y1370D01*
X614Y1370D02*
X620Y1370D01*
X629Y1370D02*
X634Y1370D01*
X648Y1370D02*
X661Y1370D01*
X671Y1370D02*
X676Y1370D01*
X754Y1370D02*
X760Y1370D01*
X797Y1370D02*
X802Y1370D01*
X824Y1370D02*
X829Y1370D01*
X835Y1370D02*
X840Y1370D01*
X565Y1369D02*
X570Y1369D01*
X580Y1369D02*
X585Y1369D01*
X605Y1369D02*
X610Y1369D01*
X614Y1369D02*
X619Y1369D01*
X629Y1369D02*
X634Y1369D01*
X648Y1369D02*
X661Y1369D01*
X671Y1369D02*
X676Y1369D01*
X754Y1369D02*
X759Y1369D01*
X796Y1369D02*
X802Y1369D01*
X824Y1369D02*
X830Y1369D01*
X834Y1369D02*
X840Y1369D01*
X565Y1368D02*
X571Y1368D01*
X580Y1368D02*
X585Y1368D01*
X605Y1368D02*
X610Y1368D01*
X613Y1368D02*
X619Y1368D01*
X629Y1368D02*
X634Y1368D01*
X648Y1368D02*
X659Y1368D01*
X671Y1368D02*
X676Y1368D01*
X753Y1368D02*
X759Y1368D01*
X796Y1368D02*
X801Y1368D01*
X825Y1368D02*
X830Y1368D01*
X834Y1368D02*
X839Y1368D01*
X566Y1367D02*
X571Y1367D01*
X580Y1367D02*
X585Y1367D01*
X605Y1367D02*
X610Y1367D01*
X613Y1367D02*
X618Y1367D01*
X629Y1367D02*
X634Y1367D01*
X648Y1367D02*
X653Y1367D01*
X671Y1367D02*
X676Y1367D01*
X753Y1367D02*
X758Y1367D01*
X795Y1367D02*
X801Y1367D01*
X825Y1367D02*
X830Y1367D01*
X834Y1367D02*
X839Y1367D01*
X566Y1366D02*
X572Y1366D01*
X580Y1366D02*
X585Y1366D01*
X605Y1366D02*
X610Y1366D01*
X612Y1366D02*
X618Y1366D01*
X629Y1366D02*
X634Y1366D01*
X648Y1366D02*
X653Y1366D01*
X671Y1366D02*
X676Y1366D01*
X752Y1366D02*
X758Y1366D01*
X795Y1366D02*
X800Y1366D01*
X825Y1366D02*
X831Y1366D01*
X833Y1366D02*
X839Y1366D01*
X567Y1365D02*
X572Y1365D01*
X580Y1365D02*
X585Y1365D01*
X605Y1365D02*
X610Y1365D01*
X612Y1365D02*
X618Y1365D01*
X629Y1365D02*
X634Y1365D01*
X648Y1365D02*
X653Y1365D01*
X671Y1365D02*
X676Y1365D01*
X752Y1365D02*
X757Y1365D01*
X794Y1365D02*
X800Y1365D01*
X826Y1365D02*
X831Y1365D01*
X833Y1365D02*
X838Y1365D01*
X567Y1364D02*
X573Y1364D01*
X580Y1364D02*
X585Y1364D01*
X605Y1364D02*
X617Y1364D01*
X629Y1364D02*
X634Y1364D01*
X648Y1364D02*
X653Y1364D01*
X671Y1364D02*
X676Y1364D01*
X751Y1364D02*
X757Y1364D01*
X794Y1364D02*
X799Y1364D01*
X826Y1364D02*
X838Y1364D01*
X568Y1363D02*
X574Y1363D01*
X580Y1363D02*
X585Y1363D01*
X605Y1363D02*
X617Y1363D01*
X629Y1363D02*
X634Y1363D01*
X648Y1363D02*
X653Y1363D01*
X671Y1363D02*
X676Y1363D01*
X751Y1363D02*
X756Y1363D01*
X793Y1363D02*
X799Y1363D01*
X826Y1363D02*
X837Y1363D01*
X568Y1362D02*
X574Y1362D01*
X580Y1362D02*
X585Y1362D01*
X605Y1362D02*
X616Y1362D01*
X629Y1362D02*
X634Y1362D01*
X648Y1362D02*
X653Y1362D01*
X671Y1362D02*
X676Y1362D01*
X750Y1362D02*
X756Y1362D01*
X793Y1362D02*
X798Y1362D01*
X827Y1362D02*
X837Y1362D01*
X569Y1361D02*
X575Y1361D01*
X580Y1361D02*
X585Y1361D01*
X605Y1361D02*
X616Y1361D01*
X629Y1361D02*
X634Y1361D01*
X648Y1361D02*
X653Y1361D01*
X671Y1361D02*
X676Y1361D01*
X750Y1361D02*
X755Y1361D01*
X792Y1361D02*
X798Y1361D01*
X827Y1361D02*
X837Y1361D01*
X569Y1360D02*
X575Y1360D01*
X580Y1360D02*
X585Y1360D01*
X605Y1360D02*
X615Y1360D01*
X629Y1360D02*
X634Y1360D01*
X648Y1360D02*
X654Y1360D01*
X671Y1360D02*
X676Y1360D01*
X749Y1360D02*
X755Y1360D01*
X791Y1360D02*
X797Y1360D01*
X828Y1360D02*
X836Y1360D01*
X570Y1359D02*
X577Y1359D01*
X580Y1359D02*
X586Y1359D01*
X605Y1359D02*
X615Y1359D01*
X629Y1359D02*
X634Y1359D01*
X648Y1359D02*
X655Y1359D01*
X669Y1359D02*
X676Y1359D01*
X748Y1359D02*
X754Y1359D01*
X790Y1359D02*
X797Y1359D01*
X828Y1359D02*
X836Y1359D01*
X570Y1358D02*
X590Y1358D01*
X605Y1358D02*
X615Y1358D01*
X629Y1358D02*
X634Y1358D01*
X649Y1358D02*
X675Y1358D01*
X734Y1358D02*
X754Y1358D01*
X776Y1358D02*
X796Y1358D01*
X828Y1358D02*
X836Y1358D01*
X571Y1357D02*
X591Y1357D01*
X605Y1357D02*
X614Y1357D01*
X629Y1357D02*
X634Y1357D01*
X649Y1357D02*
X675Y1357D01*
X733Y1357D02*
X753Y1357D01*
X776Y1357D02*
X796Y1357D01*
X829Y1357D02*
X835Y1357D01*
X572Y1356D02*
X591Y1356D01*
X605Y1356D02*
X614Y1356D01*
X629Y1356D02*
X634Y1356D01*
X650Y1356D02*
X674Y1356D01*
X733Y1356D02*
X752Y1356D01*
X775Y1356D02*
X795Y1356D01*
X829Y1356D02*
X835Y1356D01*
X573Y1355D02*
X591Y1355D01*
X605Y1355D02*
X613Y1355D01*
X629Y1355D02*
X634Y1355D01*
X651Y1355D02*
X673Y1355D01*
X733Y1355D02*
X751Y1355D01*
X775Y1355D02*
X794Y1355D01*
X830Y1355D02*
X834Y1355D01*
X574Y1354D02*
X591Y1354D01*
X605Y1354D02*
X613Y1354D01*
X630Y1354D02*
X633Y1354D01*
X653Y1354D02*
X672Y1354D01*
X734Y1354D02*
X750Y1354D01*
X776Y1354D02*
X792Y1354D01*
X830Y1354D02*
X834Y1354D01*
X578Y1353D02*
X589Y1353D01*
X606Y1353D02*
X612Y1353D01*
X631Y1353D02*
X631Y1353D01*
X656Y1353D02*
X668Y1353D01*
X735Y1353D02*
X747Y1353D01*
X778Y1353D02*
X789Y1353D01*
X832Y1353D02*
X832Y1353D01*
X506Y88D02*
X506Y88D01*
X527Y88D02*
X556Y88D01*
X578Y88D02*
X600Y88D01*
X633Y88D02*
X646Y88D01*
X675Y88D02*
X704Y88D01*
X723Y88D02*
X736Y88D01*
X778Y88D02*
X801Y88D01*
X504Y87D02*
X508Y87D01*
X527Y87D02*
X558Y87D01*
X576Y87D02*
X601Y87D01*
X631Y87D02*
X648Y87D01*
X673Y87D02*
X704Y87D01*
X721Y87D02*
X740Y87D01*
X774Y87D02*
X801Y87D01*
X503Y86D02*
X509Y86D01*
X527Y86D02*
X559Y86D01*
X575Y86D02*
X601Y86D01*
X631Y86D02*
X649Y86D01*
X672Y86D02*
X704Y86D01*
X721Y86D02*
X741Y86D01*
X773Y86D02*
X801Y86D01*
X503Y85D02*
X509Y85D01*
X527Y85D02*
X559Y85D01*
X575Y85D02*
X601Y85D01*
X630Y85D02*
X649Y85D01*
X672Y85D02*
X704Y85D01*
X720Y85D02*
X742Y85D01*
X772Y85D02*
X801Y85D01*
X503Y84D02*
X509Y84D01*
X527Y84D02*
X559Y84D01*
X575Y84D02*
X601Y84D01*
X630Y84D02*
X649Y84D01*
X672Y84D02*
X704Y84D01*
X721Y84D02*
X743Y84D01*
X771Y84D02*
X801Y84D01*
X503Y83D02*
X509Y83D01*
X527Y83D02*
X559Y83D01*
X576Y83D02*
X601Y83D01*
X630Y83D02*
X649Y83D01*
X673Y83D02*
X704Y83D01*
X721Y83D02*
X744Y83D01*
X770Y83D02*
X801Y83D01*
X485Y82D02*
X487Y82D01*
X503Y82D02*
X509Y82D01*
X527Y82D02*
X559Y82D01*
X577Y82D02*
X601Y82D01*
X630Y82D02*
X649Y82D01*
X674Y82D02*
X704Y82D01*
X722Y82D02*
X744Y82D01*
X770Y82D02*
X801Y82D01*
X484Y81D02*
X488Y81D01*
X503Y81D02*
X509Y81D01*
X527Y81D02*
X533Y81D01*
X553Y81D02*
X559Y81D01*
X595Y81D02*
X601Y81D01*
X630Y81D02*
X636Y81D01*
X643Y81D02*
X649Y81D01*
X698Y81D02*
X704Y81D01*
X738Y81D02*
X745Y81D01*
X769Y81D02*
X777Y81D01*
X795Y81D02*
X801Y81D01*
X483Y80D02*
X489Y80D01*
X503Y80D02*
X509Y80D01*
X527Y80D02*
X532Y80D01*
X554Y80D02*
X558Y80D01*
X595Y80D02*
X601Y80D01*
X630Y80D02*
X636Y80D01*
X643Y80D02*
X649Y80D01*
X698Y80D02*
X704Y80D01*
X739Y80D02*
X745Y80D01*
X769Y80D02*
X775Y80D01*
X795Y80D02*
X801Y80D01*
X483Y79D02*
X489Y79D01*
X503Y79D02*
X509Y79D01*
X527Y79D02*
X532Y79D01*
X555Y79D02*
X557Y79D01*
X595Y79D02*
X601Y79D01*
X630Y79D02*
X636Y79D01*
X643Y79D02*
X649Y79D01*
X698Y79D02*
X704Y79D01*
X739Y79D02*
X746Y79D01*
X769Y79D02*
X775Y79D01*
X795Y79D02*
X801Y79D01*
X483Y78D02*
X489Y78D01*
X503Y78D02*
X509Y78D01*
X527Y78D02*
X532Y78D01*
X595Y78D02*
X601Y78D01*
X630Y78D02*
X636Y78D01*
X643Y78D02*
X649Y78D01*
X698Y78D02*
X704Y78D01*
X740Y78D02*
X746Y78D01*
X769Y78D02*
X775Y78D01*
X795Y78D02*
X801Y78D01*
X483Y77D02*
X489Y77D01*
X503Y77D02*
X509Y77D01*
X527Y77D02*
X532Y77D01*
X595Y77D02*
X601Y77D01*
X630Y77D02*
X636Y77D01*
X643Y77D02*
X649Y77D01*
X698Y77D02*
X704Y77D01*
X740Y77D02*
X747Y77D01*
X769Y77D02*
X775Y77D01*
X795Y77D02*
X801Y77D01*
X483Y76D02*
X489Y76D01*
X503Y76D02*
X509Y76D01*
X527Y76D02*
X532Y76D01*
X595Y76D02*
X601Y76D01*
X630Y76D02*
X636Y76D01*
X643Y76D02*
X649Y76D01*
X698Y76D02*
X704Y76D01*
X741Y76D02*
X747Y76D01*
X769Y76D02*
X775Y76D01*
X795Y76D02*
X801Y76D01*
X483Y75D02*
X489Y75D01*
X503Y75D02*
X509Y75D01*
X527Y75D02*
X532Y75D01*
X595Y75D02*
X601Y75D01*
X630Y75D02*
X636Y75D01*
X643Y75D02*
X649Y75D01*
X698Y75D02*
X704Y75D01*
X741Y75D02*
X748Y75D01*
X769Y75D02*
X775Y75D01*
X795Y75D02*
X801Y75D01*
X483Y74D02*
X489Y74D01*
X503Y74D02*
X509Y74D01*
X527Y74D02*
X532Y74D01*
X595Y74D02*
X601Y74D01*
X630Y74D02*
X636Y74D01*
X643Y74D02*
X649Y74D01*
X698Y74D02*
X704Y74D01*
X742Y74D02*
X748Y74D01*
X769Y74D02*
X775Y74D01*
X795Y74D02*
X801Y74D01*
X483Y73D02*
X489Y73D01*
X503Y73D02*
X509Y73D01*
X527Y73D02*
X532Y73D01*
X595Y73D02*
X601Y73D01*
X630Y73D02*
X636Y73D01*
X643Y73D02*
X649Y73D01*
X698Y73D02*
X704Y73D01*
X742Y73D02*
X749Y73D01*
X769Y73D02*
X775Y73D01*
X795Y73D02*
X801Y73D01*
X483Y72D02*
X489Y72D01*
X503Y72D02*
X509Y72D01*
X527Y72D02*
X532Y72D01*
X595Y72D02*
X601Y72D01*
X630Y72D02*
X636Y72D01*
X643Y72D02*
X649Y72D01*
X698Y72D02*
X704Y72D01*
X743Y72D02*
X749Y72D01*
X769Y72D02*
X775Y72D01*
X795Y72D02*
X801Y72D01*
X483Y71D02*
X489Y71D01*
X503Y71D02*
X509Y71D01*
X527Y71D02*
X532Y71D01*
X595Y71D02*
X601Y71D01*
X630Y71D02*
X636Y71D01*
X643Y71D02*
X649Y71D01*
X681Y71D02*
X704Y71D01*
X743Y71D02*
X750Y71D01*
X769Y71D02*
X775Y71D01*
X795Y71D02*
X801Y71D01*
X483Y70D02*
X489Y70D01*
X503Y70D02*
X509Y70D01*
X527Y70D02*
X532Y70D01*
X595Y70D02*
X601Y70D01*
X630Y70D02*
X636Y70D01*
X643Y70D02*
X649Y70D01*
X680Y70D02*
X704Y70D01*
X744Y70D02*
X750Y70D01*
X769Y70D02*
X775Y70D01*
X795Y70D02*
X801Y70D01*
X483Y69D02*
X489Y69D01*
X503Y69D02*
X509Y69D01*
X527Y69D02*
X533Y69D01*
X595Y69D02*
X601Y69D01*
X630Y69D02*
X636Y69D01*
X643Y69D02*
X649Y69D01*
X679Y69D02*
X704Y69D01*
X744Y69D02*
X751Y69D01*
X769Y69D02*
X775Y69D01*
X795Y69D02*
X801Y69D01*
X483Y68D02*
X489Y68D01*
X503Y68D02*
X509Y68D01*
X527Y68D02*
X534Y68D01*
X595Y68D02*
X601Y68D01*
X630Y68D02*
X636Y68D01*
X643Y68D02*
X649Y68D01*
X679Y68D02*
X704Y68D01*
X745Y68D02*
X751Y68D01*
X769Y68D02*
X775Y68D01*
X795Y68D02*
X801Y68D01*
X483Y67D02*
X489Y67D01*
X503Y67D02*
X509Y67D01*
X527Y67D02*
X535Y67D01*
X595Y67D02*
X601Y67D01*
X630Y67D02*
X636Y67D01*
X643Y67D02*
X649Y67D01*
X679Y67D02*
X704Y67D01*
X745Y67D02*
X752Y67D01*
X769Y67D02*
X775Y67D01*
X795Y67D02*
X801Y67D01*
X483Y66D02*
X489Y66D01*
X503Y66D02*
X509Y66D01*
X527Y66D02*
X536Y66D01*
X595Y66D02*
X601Y66D01*
X630Y66D02*
X636Y66D01*
X643Y66D02*
X649Y66D01*
X679Y66D02*
X704Y66D01*
X746Y66D02*
X752Y66D01*
X769Y66D02*
X775Y66D01*
X795Y66D02*
X801Y66D01*
X483Y65D02*
X489Y65D01*
X503Y65D02*
X509Y65D01*
X528Y65D02*
X538Y65D01*
X579Y65D02*
X601Y65D01*
X628Y65D02*
X652Y65D01*
X680Y65D02*
X704Y65D01*
X746Y65D02*
X752Y65D01*
X769Y65D02*
X775Y65D01*
X795Y65D02*
X801Y65D01*
X483Y64D02*
X489Y64D01*
X503Y64D02*
X509Y64D01*
X529Y64D02*
X539Y64D01*
X578Y64D02*
X601Y64D01*
X626Y64D02*
X653Y64D01*
X698Y64D02*
X704Y64D01*
X747Y64D02*
X752Y64D01*
X769Y64D02*
X775Y64D01*
X795Y64D02*
X801Y64D01*
X483Y63D02*
X489Y63D01*
X503Y63D02*
X509Y63D01*
X531Y63D02*
X540Y63D01*
X577Y63D02*
X601Y63D01*
X625Y63D02*
X654Y63D01*
X698Y63D02*
X704Y63D01*
X747Y63D02*
X752Y63D01*
X769Y63D02*
X777Y63D01*
X795Y63D02*
X801Y63D01*
X483Y62D02*
X489Y62D01*
X503Y62D02*
X509Y62D01*
X532Y62D02*
X541Y62D01*
X576Y62D02*
X601Y62D01*
X625Y62D02*
X655Y62D01*
X698Y62D02*
X704Y62D01*
X747Y62D02*
X753Y62D01*
X770Y62D02*
X801Y62D01*
X483Y61D02*
X489Y61D01*
X503Y61D02*
X509Y61D01*
X533Y61D02*
X542Y61D01*
X576Y61D02*
X601Y61D01*
X624Y61D02*
X655Y61D01*
X698Y61D02*
X704Y61D01*
X747Y61D02*
X752Y61D01*
X770Y61D02*
X801Y61D01*
X483Y60D02*
X489Y60D01*
X503Y60D02*
X509Y60D01*
X534Y60D02*
X543Y60D01*
X575Y60D02*
X601Y60D01*
X624Y60D02*
X656Y60D01*
X698Y60D02*
X704Y60D01*
X747Y60D02*
X752Y60D01*
X771Y60D02*
X801Y60D01*
X481Y59D02*
X509Y59D01*
X535Y59D02*
X545Y59D01*
X575Y59D02*
X600Y59D01*
X624Y59D02*
X656Y59D01*
X698Y59D02*
X704Y59D01*
X746Y59D02*
X752Y59D01*
X772Y59D02*
X801Y59D01*
X480Y58D02*
X509Y58D01*
X536Y58D02*
X545Y58D01*
X575Y58D02*
X581Y58D01*
X624Y58D02*
X629Y58D01*
X650Y58D02*
X656Y58D01*
X698Y58D02*
X704Y58D01*
X746Y58D02*
X752Y58D01*
X773Y58D02*
X801Y58D01*
X480Y57D02*
X509Y57D01*
X538Y57D02*
X546Y57D01*
X575Y57D02*
X581Y57D01*
X624Y57D02*
X629Y57D01*
X650Y57D02*
X656Y57D01*
X698Y57D02*
X704Y57D01*
X745Y57D02*
X752Y57D01*
X775Y57D02*
X801Y57D01*
X480Y56D02*
X509Y56D01*
X539Y56D02*
X546Y56D01*
X575Y56D02*
X581Y56D01*
X624Y56D02*
X629Y56D01*
X650Y56D02*
X656Y56D01*
X698Y56D02*
X704Y56D01*
X745Y56D02*
X751Y56D01*
X778Y56D02*
X801Y56D01*
X480Y55D02*
X509Y55D01*
X540Y55D02*
X546Y55D01*
X575Y55D02*
X581Y55D01*
X624Y55D02*
X629Y55D01*
X650Y55D02*
X656Y55D01*
X698Y55D02*
X704Y55D01*
X744Y55D02*
X751Y55D01*
X795Y55D02*
X801Y55D01*
X481Y54D02*
X509Y54D01*
X540Y54D02*
X546Y54D01*
X575Y54D02*
X581Y54D01*
X624Y54D02*
X629Y54D01*
X650Y54D02*
X656Y54D01*
X698Y54D02*
X704Y54D01*
X744Y54D02*
X750Y54D01*
X795Y54D02*
X801Y54D01*
X483Y53D02*
X489Y53D01*
X540Y53D02*
X546Y53D01*
X575Y53D02*
X581Y53D01*
X624Y53D02*
X629Y53D01*
X650Y53D02*
X656Y53D01*
X698Y53D02*
X704Y53D01*
X743Y53D02*
X750Y53D01*
X795Y53D02*
X801Y53D01*
X483Y52D02*
X489Y52D01*
X540Y52D02*
X546Y52D01*
X575Y52D02*
X581Y52D01*
X624Y52D02*
X629Y52D01*
X650Y52D02*
X656Y52D01*
X698Y52D02*
X704Y52D01*
X743Y52D02*
X749Y52D01*
X795Y52D02*
X801Y52D01*
X483Y51D02*
X489Y51D01*
X540Y51D02*
X546Y51D01*
X575Y51D02*
X581Y51D01*
X624Y51D02*
X629Y51D01*
X650Y51D02*
X656Y51D01*
X698Y51D02*
X704Y51D01*
X742Y51D02*
X749Y51D01*
X795Y51D02*
X801Y51D01*
X483Y50D02*
X489Y50D01*
X540Y50D02*
X546Y50D01*
X575Y50D02*
X581Y50D01*
X624Y50D02*
X629Y50D01*
X650Y50D02*
X656Y50D01*
X698Y50D02*
X704Y50D01*
X742Y50D02*
X748Y50D01*
X795Y50D02*
X801Y50D01*
X483Y49D02*
X489Y49D01*
X540Y49D02*
X546Y49D01*
X575Y49D02*
X581Y49D01*
X624Y49D02*
X629Y49D01*
X650Y49D02*
X656Y49D01*
X698Y49D02*
X704Y49D01*
X741Y49D02*
X748Y49D01*
X795Y49D02*
X801Y49D01*
X483Y48D02*
X489Y48D01*
X540Y48D02*
X546Y48D01*
X575Y48D02*
X581Y48D01*
X624Y48D02*
X629Y48D01*
X650Y48D02*
X656Y48D01*
X698Y48D02*
X704Y48D01*
X741Y48D02*
X747Y48D01*
X795Y48D02*
X801Y48D01*
X483Y47D02*
X489Y47D01*
X540Y47D02*
X546Y47D01*
X575Y47D02*
X581Y47D01*
X624Y47D02*
X629Y47D01*
X650Y47D02*
X656Y47D01*
X698Y47D02*
X704Y47D01*
X740Y47D02*
X747Y47D01*
X795Y47D02*
X801Y47D01*
X483Y46D02*
X489Y46D01*
X540Y46D02*
X546Y46D01*
X575Y46D02*
X581Y46D01*
X624Y46D02*
X629Y46D01*
X650Y46D02*
X656Y46D01*
X698Y46D02*
X704Y46D01*
X740Y46D02*
X746Y46D01*
X795Y46D02*
X801Y46D01*
X483Y45D02*
X489Y45D01*
X540Y45D02*
X546Y45D01*
X575Y45D02*
X581Y45D01*
X603Y45D02*
X606Y45D01*
X624Y45D02*
X629Y45D01*
X650Y45D02*
X656Y45D01*
X698Y45D02*
X704Y45D01*
X739Y45D02*
X746Y45D01*
X795Y45D02*
X801Y45D01*
X483Y44D02*
X489Y44D01*
X540Y44D02*
X546Y44D01*
X575Y44D02*
X581Y44D01*
X600Y44D02*
X607Y44D01*
X624Y44D02*
X629Y44D01*
X650Y44D02*
X656Y44D01*
X698Y44D02*
X704Y44D01*
X739Y44D02*
X745Y44D01*
X795Y44D02*
X801Y44D01*
X483Y43D02*
X489Y43D01*
X540Y43D02*
X546Y43D01*
X575Y43D02*
X581Y43D01*
X598Y43D02*
X607Y43D01*
X624Y43D02*
X630Y43D01*
X650Y43D02*
X656Y43D01*
X698Y43D02*
X704Y43D01*
X737Y43D02*
X745Y43D01*
X795Y43D02*
X801Y43D01*
X483Y42D02*
X489Y42D01*
X540Y42D02*
X546Y42D01*
X575Y42D02*
X607Y42D01*
X624Y42D02*
X656Y42D01*
X698Y42D02*
X704Y42D01*
X722Y42D02*
X744Y42D01*
X795Y42D02*
X801Y42D01*
X483Y41D02*
X489Y41D01*
X540Y41D02*
X546Y41D01*
X575Y41D02*
X607Y41D01*
X624Y41D02*
X655Y41D01*
X698Y41D02*
X704Y41D01*
X721Y41D02*
X744Y41D01*
X795Y41D02*
X801Y41D01*
X483Y40D02*
X489Y40D01*
X540Y40D02*
X546Y40D01*
X576Y40D02*
X606Y40D01*
X624Y40D02*
X655Y40D01*
X698Y40D02*
X704Y40D01*
X720Y40D02*
X743Y40D01*
X795Y40D02*
X801Y40D01*
X483Y39D02*
X489Y39D01*
X540Y39D02*
X546Y39D01*
X577Y39D02*
X605Y39D01*
X625Y39D02*
X654Y39D01*
X699Y39D02*
X704Y39D01*
X720Y39D02*
X742Y39D01*
X795Y39D02*
X801Y39D01*
X484Y38D02*
X489Y38D01*
X540Y38D02*
X545Y38D01*
X577Y38D02*
X603Y38D01*
X626Y38D02*
X653Y38D01*
X699Y38D02*
X704Y38D01*
X721Y38D02*
X741Y38D01*
X796Y38D02*
X801Y38D01*
X485Y37D02*
X488Y37D01*
X541Y37D02*
X544Y37D01*
X579Y37D02*
X600Y37D01*
X627Y37D02*
X652Y37D01*
X700Y37D02*
X703Y37D01*
X722Y37D02*
X739Y37D01*
X797Y37D02*
X800Y37D01*
D02*
G04 End of Silk0*
M02*