G04 MADE WITH FRITZING*
G04 WWW.FRITZING.ORG*
G04 DOUBLE SIDED*
G04 HOLES PLATED*
G04 CONTOUR ON CENTER OF CONTOUR VECTOR*
%ASAXBY*%
%FSLAX23Y23*%
%MOIN*%
%OFA0B0*%
%SFA1.0B1.0*%
%ADD10C,0.078000*%
%ADD11C,0.075000*%
%ADD12C,0.052000*%
%ADD13C,0.078740*%
%ADD14R,0.075000X0.075000*%
%ADD15C,0.048000*%
%ADD16R,0.001000X0.001000*%
%LNCOPPER1*%
G90*
G70*
G54D10*
X1118Y888D03*
X1118Y988D03*
X1118Y1088D03*
X918Y388D03*
X918Y488D03*
X918Y588D03*
X918Y688D03*
X218Y388D03*
X218Y488D03*
X218Y588D03*
X218Y688D03*
G54D11*
X1218Y1088D03*
X1218Y1488D03*
X1218Y688D03*
X1218Y288D03*
X1118Y688D03*
X1118Y288D03*
G54D12*
X118Y988D03*
X218Y988D03*
X218Y1288D03*
X118Y1288D03*
X118Y988D03*
X218Y988D03*
X218Y1288D03*
X118Y1288D03*
X218Y988D03*
X318Y988D03*
X318Y1288D03*
X218Y1288D03*
X218Y988D03*
X318Y988D03*
X318Y1288D03*
X218Y1288D03*
G54D11*
X518Y1388D03*
X918Y1388D03*
X618Y1288D03*
X1018Y1288D03*
X118Y188D03*
X518Y188D03*
G54D10*
X1018Y1388D03*
X1118Y1388D03*
G54D13*
X818Y288D03*
X518Y288D03*
X1018Y1188D03*
X1018Y688D03*
G54D11*
X518Y1088D03*
X818Y1088D03*
X518Y988D03*
X818Y988D03*
X518Y888D03*
X818Y888D03*
X518Y788D03*
X818Y788D03*
X518Y688D03*
X818Y688D03*
X518Y588D03*
X818Y588D03*
X518Y488D03*
X818Y488D03*
X518Y388D03*
X818Y388D03*
G54D14*
X518Y1088D03*
G54D15*
X518Y216D02*
X518Y261D01*
G54D16*
X112Y1340D02*
X122Y1340D01*
X212Y1340D02*
X222Y1340D01*
X311Y1340D02*
X322Y1340D01*
X108Y1339D02*
X126Y1339D01*
X208Y1339D02*
X226Y1339D01*
X308Y1339D02*
X326Y1339D01*
X106Y1338D02*
X128Y1338D01*
X206Y1338D02*
X228Y1338D01*
X306Y1338D02*
X328Y1338D01*
X104Y1337D02*
X130Y1337D01*
X204Y1337D02*
X230Y1337D01*
X304Y1337D02*
X330Y1337D01*
X103Y1336D02*
X131Y1336D01*
X203Y1336D02*
X231Y1336D01*
X303Y1336D02*
X331Y1336D01*
X101Y1335D02*
X133Y1335D01*
X201Y1335D02*
X233Y1335D01*
X301Y1335D02*
X333Y1335D01*
X100Y1334D02*
X134Y1334D01*
X200Y1334D02*
X234Y1334D01*
X300Y1334D02*
X334Y1334D01*
X99Y1333D02*
X135Y1333D01*
X199Y1333D02*
X235Y1333D01*
X299Y1333D02*
X335Y1333D01*
X98Y1332D02*
X136Y1332D01*
X198Y1332D02*
X236Y1332D01*
X298Y1332D02*
X336Y1332D01*
X97Y1331D02*
X137Y1331D01*
X197Y1331D02*
X237Y1331D01*
X297Y1331D02*
X337Y1331D01*
X97Y1330D02*
X137Y1330D01*
X197Y1330D02*
X237Y1330D01*
X297Y1330D02*
X337Y1330D01*
X96Y1329D02*
X138Y1329D01*
X196Y1329D02*
X238Y1329D01*
X296Y1329D02*
X338Y1329D01*
X95Y1328D02*
X139Y1328D01*
X195Y1328D02*
X239Y1328D01*
X295Y1328D02*
X339Y1328D01*
X95Y1327D02*
X139Y1327D01*
X195Y1327D02*
X239Y1327D01*
X295Y1327D02*
X339Y1327D01*
X94Y1326D02*
X140Y1326D01*
X194Y1326D02*
X240Y1326D01*
X294Y1326D02*
X340Y1326D01*
X94Y1325D02*
X140Y1325D01*
X194Y1325D02*
X240Y1325D01*
X294Y1325D02*
X340Y1325D01*
X93Y1324D02*
X141Y1324D01*
X193Y1324D02*
X241Y1324D01*
X293Y1324D02*
X341Y1324D01*
X93Y1323D02*
X141Y1323D01*
X193Y1323D02*
X241Y1323D01*
X293Y1323D02*
X341Y1323D01*
X93Y1322D02*
X141Y1322D01*
X193Y1322D02*
X241Y1322D01*
X293Y1322D02*
X341Y1322D01*
X92Y1321D02*
X142Y1321D01*
X192Y1321D02*
X242Y1321D01*
X292Y1321D02*
X342Y1321D01*
X92Y1320D02*
X142Y1320D01*
X192Y1320D02*
X242Y1320D01*
X292Y1320D02*
X342Y1320D01*
X92Y1319D02*
X142Y1319D01*
X192Y1319D02*
X242Y1319D01*
X292Y1319D02*
X342Y1319D01*
X92Y1318D02*
X142Y1318D01*
X192Y1318D02*
X242Y1318D01*
X292Y1318D02*
X342Y1318D01*
X92Y1317D02*
X142Y1317D01*
X192Y1317D02*
X242Y1317D01*
X292Y1317D02*
X342Y1317D01*
X92Y1316D02*
X142Y1316D01*
X192Y1316D02*
X242Y1316D01*
X292Y1316D02*
X342Y1316D01*
X92Y1315D02*
X142Y1315D01*
X192Y1315D02*
X242Y1315D01*
X291Y1315D02*
X342Y1315D01*
X92Y1314D02*
X143Y1314D01*
X191Y1314D02*
X242Y1314D01*
X291Y1314D02*
X342Y1314D01*
X92Y1313D02*
X143Y1313D01*
X191Y1313D02*
X242Y1313D01*
X291Y1313D02*
X342Y1313D01*
X92Y1312D02*
X143Y1312D01*
X191Y1312D02*
X242Y1312D01*
X291Y1312D02*
X342Y1312D01*
X92Y1311D02*
X143Y1311D01*
X191Y1311D02*
X242Y1311D01*
X291Y1311D02*
X342Y1311D01*
X92Y1310D02*
X143Y1310D01*
X191Y1310D02*
X242Y1310D01*
X291Y1310D02*
X342Y1310D01*
X92Y1309D02*
X143Y1309D01*
X191Y1309D02*
X242Y1309D01*
X291Y1309D02*
X342Y1309D01*
X92Y1308D02*
X143Y1308D01*
X191Y1308D02*
X242Y1308D01*
X291Y1308D02*
X342Y1308D01*
X92Y1307D02*
X143Y1307D01*
X191Y1307D02*
X242Y1307D01*
X291Y1307D02*
X342Y1307D01*
X92Y1306D02*
X143Y1306D01*
X191Y1306D02*
X242Y1306D01*
X291Y1306D02*
X342Y1306D01*
X92Y1305D02*
X143Y1305D01*
X191Y1305D02*
X242Y1305D01*
X291Y1305D02*
X342Y1305D01*
X92Y1304D02*
X112Y1304D01*
X122Y1304D02*
X143Y1304D01*
X191Y1304D02*
X212Y1304D01*
X222Y1304D02*
X242Y1304D01*
X291Y1304D02*
X312Y1304D01*
X322Y1304D02*
X342Y1304D01*
X92Y1303D02*
X109Y1303D01*
X125Y1303D02*
X143Y1303D01*
X191Y1303D02*
X209Y1303D01*
X225Y1303D02*
X242Y1303D01*
X291Y1303D02*
X309Y1303D01*
X325Y1303D02*
X342Y1303D01*
X92Y1302D02*
X108Y1302D01*
X126Y1302D02*
X143Y1302D01*
X191Y1302D02*
X208Y1302D01*
X226Y1302D02*
X242Y1302D01*
X291Y1302D02*
X308Y1302D01*
X326Y1302D02*
X342Y1302D01*
X92Y1301D02*
X106Y1301D01*
X128Y1301D02*
X143Y1301D01*
X191Y1301D02*
X206Y1301D01*
X228Y1301D02*
X242Y1301D01*
X291Y1301D02*
X306Y1301D01*
X328Y1301D02*
X342Y1301D01*
X92Y1300D02*
X105Y1300D01*
X129Y1300D02*
X143Y1300D01*
X191Y1300D02*
X205Y1300D01*
X229Y1300D02*
X242Y1300D01*
X291Y1300D02*
X305Y1300D01*
X329Y1300D02*
X342Y1300D01*
X92Y1299D02*
X104Y1299D01*
X130Y1299D02*
X143Y1299D01*
X191Y1299D02*
X204Y1299D01*
X230Y1299D02*
X242Y1299D01*
X291Y1299D02*
X304Y1299D01*
X330Y1299D02*
X342Y1299D01*
X92Y1298D02*
X104Y1298D01*
X131Y1298D02*
X143Y1298D01*
X191Y1298D02*
X203Y1298D01*
X230Y1298D02*
X242Y1298D01*
X291Y1298D02*
X303Y1298D01*
X330Y1298D02*
X342Y1298D01*
X92Y1297D02*
X103Y1297D01*
X131Y1297D02*
X143Y1297D01*
X191Y1297D02*
X203Y1297D01*
X231Y1297D02*
X242Y1297D01*
X291Y1297D02*
X303Y1297D01*
X331Y1297D02*
X342Y1297D01*
X92Y1296D02*
X102Y1296D01*
X132Y1296D02*
X143Y1296D01*
X191Y1296D02*
X202Y1296D01*
X232Y1296D02*
X242Y1296D01*
X291Y1296D02*
X302Y1296D01*
X332Y1296D02*
X342Y1296D01*
X92Y1295D02*
X102Y1295D01*
X132Y1295D02*
X143Y1295D01*
X191Y1295D02*
X202Y1295D01*
X232Y1295D02*
X242Y1295D01*
X291Y1295D02*
X302Y1295D01*
X332Y1295D02*
X342Y1295D01*
X92Y1294D02*
X101Y1294D01*
X133Y1294D02*
X143Y1294D01*
X191Y1294D02*
X201Y1294D01*
X233Y1294D02*
X242Y1294D01*
X291Y1294D02*
X301Y1294D01*
X332Y1294D02*
X342Y1294D01*
X92Y1293D02*
X101Y1293D01*
X133Y1293D02*
X143Y1293D01*
X191Y1293D02*
X201Y1293D01*
X233Y1293D02*
X242Y1293D01*
X291Y1293D02*
X301Y1293D01*
X333Y1293D02*
X342Y1293D01*
X92Y1292D02*
X101Y1292D01*
X133Y1292D02*
X143Y1292D01*
X191Y1292D02*
X201Y1292D01*
X233Y1292D02*
X242Y1292D01*
X291Y1292D02*
X301Y1292D01*
X333Y1292D02*
X342Y1292D01*
X92Y1291D02*
X101Y1291D01*
X133Y1291D02*
X143Y1291D01*
X191Y1291D02*
X201Y1291D01*
X233Y1291D02*
X242Y1291D01*
X291Y1291D02*
X301Y1291D01*
X333Y1291D02*
X342Y1291D01*
X92Y1290D02*
X101Y1290D01*
X133Y1290D02*
X143Y1290D01*
X191Y1290D02*
X201Y1290D01*
X233Y1290D02*
X242Y1290D01*
X291Y1290D02*
X301Y1290D01*
X333Y1290D02*
X342Y1290D01*
X92Y1289D02*
X101Y1289D01*
X133Y1289D02*
X143Y1289D01*
X191Y1289D02*
X201Y1289D01*
X233Y1289D02*
X242Y1289D01*
X291Y1289D02*
X301Y1289D01*
X333Y1289D02*
X342Y1289D01*
X92Y1288D02*
X101Y1288D01*
X133Y1288D02*
X143Y1288D01*
X191Y1288D02*
X201Y1288D01*
X233Y1288D02*
X242Y1288D01*
X291Y1288D02*
X301Y1288D01*
X333Y1288D02*
X342Y1288D01*
X92Y1287D02*
X101Y1287D01*
X133Y1287D02*
X143Y1287D01*
X191Y1287D02*
X201Y1287D01*
X233Y1287D02*
X242Y1287D01*
X291Y1287D02*
X301Y1287D01*
X333Y1287D02*
X342Y1287D01*
X92Y1286D02*
X101Y1286D01*
X133Y1286D02*
X143Y1286D01*
X191Y1286D02*
X201Y1286D01*
X233Y1286D02*
X242Y1286D01*
X291Y1286D02*
X301Y1286D01*
X333Y1286D02*
X342Y1286D01*
X92Y1285D02*
X101Y1285D01*
X133Y1285D02*
X143Y1285D01*
X191Y1285D02*
X201Y1285D01*
X233Y1285D02*
X242Y1285D01*
X291Y1285D02*
X301Y1285D01*
X333Y1285D02*
X342Y1285D01*
X92Y1284D02*
X101Y1284D01*
X133Y1284D02*
X143Y1284D01*
X191Y1284D02*
X201Y1284D01*
X233Y1284D02*
X242Y1284D01*
X291Y1284D02*
X301Y1284D01*
X333Y1284D02*
X342Y1284D01*
X92Y1283D02*
X102Y1283D01*
X132Y1283D02*
X143Y1283D01*
X191Y1283D02*
X202Y1283D01*
X232Y1283D02*
X242Y1283D01*
X291Y1283D02*
X302Y1283D01*
X332Y1283D02*
X342Y1283D01*
X92Y1282D02*
X102Y1282D01*
X132Y1282D02*
X143Y1282D01*
X191Y1282D02*
X202Y1282D01*
X232Y1282D02*
X242Y1282D01*
X291Y1282D02*
X302Y1282D01*
X332Y1282D02*
X342Y1282D01*
X92Y1281D02*
X103Y1281D01*
X131Y1281D02*
X143Y1281D01*
X191Y1281D02*
X203Y1281D01*
X231Y1281D02*
X242Y1281D01*
X291Y1281D02*
X303Y1281D01*
X331Y1281D02*
X342Y1281D01*
X92Y1280D02*
X103Y1280D01*
X131Y1280D02*
X143Y1280D01*
X191Y1280D02*
X203Y1280D01*
X231Y1280D02*
X242Y1280D01*
X291Y1280D02*
X303Y1280D01*
X331Y1280D02*
X342Y1280D01*
X92Y1279D02*
X104Y1279D01*
X130Y1279D02*
X143Y1279D01*
X191Y1279D02*
X204Y1279D01*
X230Y1279D02*
X242Y1279D01*
X291Y1279D02*
X304Y1279D01*
X330Y1279D02*
X342Y1279D01*
X92Y1278D02*
X105Y1278D01*
X129Y1278D02*
X143Y1278D01*
X191Y1278D02*
X205Y1278D01*
X229Y1278D02*
X242Y1278D01*
X291Y1278D02*
X305Y1278D01*
X329Y1278D02*
X342Y1278D01*
X92Y1277D02*
X106Y1277D01*
X128Y1277D02*
X143Y1277D01*
X191Y1277D02*
X206Y1277D01*
X228Y1277D02*
X242Y1277D01*
X291Y1277D02*
X306Y1277D01*
X328Y1277D02*
X342Y1277D01*
X92Y1276D02*
X107Y1276D01*
X127Y1276D02*
X143Y1276D01*
X191Y1276D02*
X207Y1276D01*
X227Y1276D02*
X242Y1276D01*
X291Y1276D02*
X307Y1276D01*
X327Y1276D02*
X342Y1276D01*
X92Y1275D02*
X108Y1275D01*
X126Y1275D02*
X143Y1275D01*
X191Y1275D02*
X208Y1275D01*
X226Y1275D02*
X242Y1275D01*
X291Y1275D02*
X308Y1275D01*
X326Y1275D02*
X342Y1275D01*
X92Y1274D02*
X110Y1274D01*
X124Y1274D02*
X143Y1274D01*
X191Y1274D02*
X210Y1274D01*
X224Y1274D02*
X242Y1274D01*
X291Y1274D02*
X310Y1274D01*
X324Y1274D02*
X342Y1274D01*
X92Y1273D02*
X114Y1273D01*
X120Y1273D02*
X143Y1273D01*
X191Y1273D02*
X214Y1273D01*
X220Y1273D02*
X242Y1273D01*
X291Y1273D02*
X314Y1273D01*
X320Y1273D02*
X342Y1273D01*
X92Y1272D02*
X143Y1272D01*
X191Y1272D02*
X242Y1272D01*
X291Y1272D02*
X342Y1272D01*
X92Y1271D02*
X143Y1271D01*
X191Y1271D02*
X242Y1271D01*
X291Y1271D02*
X342Y1271D01*
X92Y1270D02*
X143Y1270D01*
X191Y1270D02*
X242Y1270D01*
X291Y1270D02*
X342Y1270D01*
X92Y1269D02*
X143Y1269D01*
X191Y1269D02*
X242Y1269D01*
X291Y1269D02*
X342Y1269D01*
X92Y1268D02*
X143Y1268D01*
X191Y1268D02*
X242Y1268D01*
X291Y1268D02*
X342Y1268D01*
X92Y1267D02*
X143Y1267D01*
X191Y1267D02*
X242Y1267D01*
X291Y1267D02*
X342Y1267D01*
X92Y1266D02*
X143Y1266D01*
X191Y1266D02*
X242Y1266D01*
X291Y1266D02*
X342Y1266D01*
X92Y1265D02*
X143Y1265D01*
X191Y1265D02*
X242Y1265D01*
X291Y1265D02*
X342Y1265D01*
X92Y1264D02*
X143Y1264D01*
X191Y1264D02*
X242Y1264D01*
X291Y1264D02*
X342Y1264D01*
X92Y1263D02*
X143Y1263D01*
X191Y1263D02*
X242Y1263D01*
X291Y1263D02*
X342Y1263D01*
X92Y1262D02*
X142Y1262D01*
X192Y1262D02*
X242Y1262D01*
X292Y1262D02*
X342Y1262D01*
X92Y1261D02*
X142Y1261D01*
X192Y1261D02*
X242Y1261D01*
X292Y1261D02*
X342Y1261D01*
X92Y1260D02*
X142Y1260D01*
X192Y1260D02*
X242Y1260D01*
X292Y1260D02*
X342Y1260D01*
X92Y1259D02*
X142Y1259D01*
X192Y1259D02*
X242Y1259D01*
X292Y1259D02*
X342Y1259D01*
X92Y1258D02*
X142Y1258D01*
X192Y1258D02*
X242Y1258D01*
X292Y1258D02*
X342Y1258D01*
X92Y1257D02*
X142Y1257D01*
X192Y1257D02*
X242Y1257D01*
X292Y1257D02*
X342Y1257D01*
X92Y1256D02*
X142Y1256D01*
X192Y1256D02*
X242Y1256D01*
X292Y1256D02*
X342Y1256D01*
X93Y1255D02*
X141Y1255D01*
X193Y1255D02*
X241Y1255D01*
X293Y1255D02*
X341Y1255D01*
X93Y1254D02*
X141Y1254D01*
X193Y1254D02*
X241Y1254D01*
X293Y1254D02*
X341Y1254D01*
X93Y1253D02*
X141Y1253D01*
X193Y1253D02*
X241Y1253D01*
X293Y1253D02*
X341Y1253D01*
X94Y1252D02*
X140Y1252D01*
X194Y1252D02*
X240Y1252D01*
X294Y1252D02*
X340Y1252D01*
X94Y1251D02*
X140Y1251D01*
X194Y1251D02*
X240Y1251D01*
X294Y1251D02*
X340Y1251D01*
X95Y1250D02*
X139Y1250D01*
X195Y1250D02*
X239Y1250D01*
X295Y1250D02*
X339Y1250D01*
X96Y1249D02*
X138Y1249D01*
X195Y1249D02*
X238Y1249D01*
X295Y1249D02*
X338Y1249D01*
X96Y1248D02*
X138Y1248D01*
X196Y1248D02*
X238Y1248D01*
X296Y1248D02*
X338Y1248D01*
X97Y1247D02*
X137Y1247D01*
X197Y1247D02*
X237Y1247D01*
X297Y1247D02*
X337Y1247D01*
X98Y1246D02*
X136Y1246D01*
X198Y1246D02*
X236Y1246D01*
X298Y1246D02*
X336Y1246D01*
X99Y1245D02*
X135Y1245D01*
X199Y1245D02*
X235Y1245D01*
X299Y1245D02*
X335Y1245D01*
X100Y1244D02*
X134Y1244D01*
X200Y1244D02*
X234Y1244D01*
X300Y1244D02*
X334Y1244D01*
X101Y1243D02*
X133Y1243D01*
X201Y1243D02*
X233Y1243D01*
X301Y1243D02*
X333Y1243D01*
X102Y1242D02*
X132Y1242D01*
X202Y1242D02*
X232Y1242D01*
X302Y1242D02*
X332Y1242D01*
X103Y1241D02*
X131Y1241D01*
X203Y1241D02*
X231Y1241D01*
X303Y1241D02*
X331Y1241D01*
X105Y1240D02*
X129Y1240D01*
X205Y1240D02*
X229Y1240D01*
X305Y1240D02*
X329Y1240D01*
X107Y1239D02*
X127Y1239D01*
X207Y1239D02*
X227Y1239D01*
X307Y1239D02*
X327Y1239D01*
X110Y1238D02*
X124Y1238D01*
X210Y1238D02*
X224Y1238D01*
X309Y1238D02*
X324Y1238D01*
X114Y1237D02*
X120Y1237D01*
X214Y1237D02*
X220Y1237D01*
X314Y1237D02*
X320Y1237D01*
X111Y1040D02*
X123Y1040D01*
X211Y1040D02*
X223Y1040D01*
X311Y1040D02*
X323Y1040D01*
X108Y1039D02*
X126Y1039D01*
X208Y1039D02*
X226Y1039D01*
X308Y1039D02*
X326Y1039D01*
X106Y1038D02*
X128Y1038D01*
X206Y1038D02*
X228Y1038D01*
X306Y1038D02*
X328Y1038D01*
X104Y1037D02*
X130Y1037D01*
X204Y1037D02*
X230Y1037D01*
X304Y1037D02*
X330Y1037D01*
X103Y1036D02*
X132Y1036D01*
X202Y1036D02*
X231Y1036D01*
X302Y1036D02*
X331Y1036D01*
X101Y1035D02*
X133Y1035D01*
X201Y1035D02*
X233Y1035D01*
X301Y1035D02*
X333Y1035D01*
X100Y1034D02*
X134Y1034D01*
X200Y1034D02*
X234Y1034D01*
X300Y1034D02*
X334Y1034D01*
X99Y1033D02*
X135Y1033D01*
X199Y1033D02*
X235Y1033D01*
X299Y1033D02*
X335Y1033D01*
X98Y1032D02*
X136Y1032D01*
X198Y1032D02*
X236Y1032D01*
X298Y1032D02*
X336Y1032D01*
X97Y1031D02*
X137Y1031D01*
X197Y1031D02*
X237Y1031D01*
X297Y1031D02*
X337Y1031D01*
X96Y1030D02*
X138Y1030D01*
X196Y1030D02*
X238Y1030D01*
X296Y1030D02*
X338Y1030D01*
X96Y1029D02*
X138Y1029D01*
X196Y1029D02*
X238Y1029D01*
X296Y1029D02*
X338Y1029D01*
X95Y1028D02*
X139Y1028D01*
X195Y1028D02*
X239Y1028D01*
X295Y1028D02*
X339Y1028D01*
X95Y1027D02*
X139Y1027D01*
X195Y1027D02*
X239Y1027D01*
X295Y1027D02*
X339Y1027D01*
X94Y1026D02*
X140Y1026D01*
X194Y1026D02*
X240Y1026D01*
X294Y1026D02*
X340Y1026D01*
X94Y1025D02*
X140Y1025D01*
X194Y1025D02*
X240Y1025D01*
X294Y1025D02*
X340Y1025D01*
X93Y1024D02*
X141Y1024D01*
X193Y1024D02*
X241Y1024D01*
X293Y1024D02*
X341Y1024D01*
X93Y1023D02*
X141Y1023D01*
X193Y1023D02*
X241Y1023D01*
X293Y1023D02*
X341Y1023D01*
X93Y1022D02*
X141Y1022D01*
X193Y1022D02*
X241Y1022D01*
X292Y1022D02*
X341Y1022D01*
X92Y1021D02*
X142Y1021D01*
X192Y1021D02*
X242Y1021D01*
X292Y1021D02*
X342Y1021D01*
X92Y1020D02*
X142Y1020D01*
X192Y1020D02*
X242Y1020D01*
X292Y1020D02*
X342Y1020D01*
X92Y1019D02*
X142Y1019D01*
X192Y1019D02*
X242Y1019D01*
X292Y1019D02*
X342Y1019D01*
X92Y1018D02*
X142Y1018D01*
X192Y1018D02*
X242Y1018D01*
X292Y1018D02*
X342Y1018D01*
X92Y1017D02*
X142Y1017D01*
X192Y1017D02*
X242Y1017D01*
X292Y1017D02*
X342Y1017D01*
X92Y1016D02*
X142Y1016D01*
X192Y1016D02*
X242Y1016D01*
X292Y1016D02*
X342Y1016D01*
X92Y1015D02*
X142Y1015D01*
X192Y1015D02*
X242Y1015D01*
X291Y1015D02*
X342Y1015D01*
X92Y1014D02*
X143Y1014D01*
X191Y1014D02*
X242Y1014D01*
X291Y1014D02*
X342Y1014D01*
X92Y1013D02*
X143Y1013D01*
X191Y1013D02*
X242Y1013D01*
X291Y1013D02*
X342Y1013D01*
X92Y1012D02*
X143Y1012D01*
X191Y1012D02*
X242Y1012D01*
X291Y1012D02*
X342Y1012D01*
X92Y1011D02*
X143Y1011D01*
X191Y1011D02*
X242Y1011D01*
X291Y1011D02*
X342Y1011D01*
X92Y1010D02*
X143Y1010D01*
X191Y1010D02*
X242Y1010D01*
X291Y1010D02*
X342Y1010D01*
X92Y1009D02*
X143Y1009D01*
X191Y1009D02*
X242Y1009D01*
X291Y1009D02*
X342Y1009D01*
X92Y1008D02*
X143Y1008D01*
X191Y1008D02*
X242Y1008D01*
X291Y1008D02*
X342Y1008D01*
X92Y1007D02*
X143Y1007D01*
X191Y1007D02*
X242Y1007D01*
X291Y1007D02*
X342Y1007D01*
X92Y1006D02*
X143Y1006D01*
X191Y1006D02*
X242Y1006D01*
X291Y1006D02*
X342Y1006D01*
X92Y1005D02*
X143Y1005D01*
X191Y1005D02*
X242Y1005D01*
X291Y1005D02*
X342Y1005D01*
X92Y1004D02*
X112Y1004D01*
X122Y1004D02*
X143Y1004D01*
X191Y1004D02*
X212Y1004D01*
X222Y1004D02*
X242Y1004D01*
X291Y1004D02*
X312Y1004D01*
X322Y1004D02*
X342Y1004D01*
X92Y1003D02*
X109Y1003D01*
X125Y1003D02*
X143Y1003D01*
X191Y1003D02*
X209Y1003D01*
X225Y1003D02*
X242Y1003D01*
X291Y1003D02*
X309Y1003D01*
X325Y1003D02*
X342Y1003D01*
X92Y1002D02*
X107Y1002D01*
X127Y1002D02*
X143Y1002D01*
X191Y1002D02*
X207Y1002D01*
X227Y1002D02*
X242Y1002D01*
X291Y1002D02*
X307Y1002D01*
X326Y1002D02*
X342Y1002D01*
X92Y1001D02*
X106Y1001D01*
X128Y1001D02*
X143Y1001D01*
X191Y1001D02*
X206Y1001D01*
X228Y1001D02*
X242Y1001D01*
X291Y1001D02*
X306Y1001D01*
X328Y1001D02*
X342Y1001D01*
X92Y1000D02*
X105Y1000D01*
X129Y1000D02*
X143Y1000D01*
X191Y1000D02*
X205Y1000D01*
X229Y1000D02*
X242Y1000D01*
X291Y1000D02*
X305Y1000D01*
X329Y1000D02*
X342Y1000D01*
X92Y999D02*
X104Y999D01*
X130Y999D02*
X143Y999D01*
X191Y999D02*
X204Y999D01*
X230Y999D02*
X242Y999D01*
X291Y999D02*
X304Y999D01*
X330Y999D02*
X342Y999D01*
X92Y998D02*
X103Y998D01*
X131Y998D02*
X143Y998D01*
X191Y998D02*
X203Y998D01*
X231Y998D02*
X242Y998D01*
X291Y998D02*
X303Y998D01*
X331Y998D02*
X342Y998D01*
X92Y997D02*
X103Y997D01*
X131Y997D02*
X143Y997D01*
X191Y997D02*
X203Y997D01*
X231Y997D02*
X242Y997D01*
X291Y997D02*
X303Y997D01*
X331Y997D02*
X342Y997D01*
X92Y996D02*
X102Y996D01*
X132Y996D02*
X143Y996D01*
X191Y996D02*
X202Y996D01*
X232Y996D02*
X242Y996D01*
X291Y996D02*
X302Y996D01*
X332Y996D02*
X342Y996D01*
X92Y995D02*
X102Y995D01*
X132Y995D02*
X143Y995D01*
X191Y995D02*
X202Y995D01*
X232Y995D02*
X242Y995D01*
X291Y995D02*
X302Y995D01*
X332Y995D02*
X342Y995D01*
X92Y994D02*
X101Y994D01*
X133Y994D02*
X143Y994D01*
X191Y994D02*
X201Y994D01*
X233Y994D02*
X242Y994D01*
X291Y994D02*
X301Y994D01*
X333Y994D02*
X342Y994D01*
X92Y993D02*
X101Y993D01*
X133Y993D02*
X143Y993D01*
X191Y993D02*
X201Y993D01*
X233Y993D02*
X242Y993D01*
X291Y993D02*
X301Y993D01*
X333Y993D02*
X342Y993D01*
X92Y992D02*
X101Y992D01*
X133Y992D02*
X143Y992D01*
X191Y992D02*
X201Y992D01*
X233Y992D02*
X242Y992D01*
X291Y992D02*
X301Y992D01*
X333Y992D02*
X342Y992D01*
X92Y991D02*
X101Y991D01*
X133Y991D02*
X143Y991D01*
X191Y991D02*
X201Y991D01*
X233Y991D02*
X242Y991D01*
X291Y991D02*
X301Y991D01*
X333Y991D02*
X342Y991D01*
X92Y990D02*
X101Y990D01*
X133Y990D02*
X143Y990D01*
X191Y990D02*
X201Y990D01*
X233Y990D02*
X242Y990D01*
X291Y990D02*
X301Y990D01*
X333Y990D02*
X342Y990D01*
X92Y989D02*
X101Y989D01*
X133Y989D02*
X143Y989D01*
X191Y989D02*
X201Y989D01*
X233Y989D02*
X242Y989D01*
X291Y989D02*
X301Y989D01*
X333Y989D02*
X342Y989D01*
X92Y988D02*
X101Y988D01*
X133Y988D02*
X143Y988D01*
X191Y988D02*
X201Y988D01*
X233Y988D02*
X242Y988D01*
X291Y988D02*
X301Y988D01*
X333Y988D02*
X342Y988D01*
X92Y987D02*
X101Y987D01*
X133Y987D02*
X143Y987D01*
X191Y987D02*
X201Y987D01*
X233Y987D02*
X242Y987D01*
X291Y987D02*
X301Y987D01*
X333Y987D02*
X342Y987D01*
X92Y986D02*
X101Y986D01*
X133Y986D02*
X143Y986D01*
X191Y986D02*
X201Y986D01*
X233Y986D02*
X242Y986D01*
X291Y986D02*
X301Y986D01*
X333Y986D02*
X342Y986D01*
X92Y985D02*
X101Y985D01*
X133Y985D02*
X143Y985D01*
X191Y985D02*
X201Y985D01*
X233Y985D02*
X242Y985D01*
X291Y985D02*
X301Y985D01*
X333Y985D02*
X342Y985D01*
X92Y984D02*
X101Y984D01*
X133Y984D02*
X143Y984D01*
X191Y984D02*
X201Y984D01*
X233Y984D02*
X242Y984D01*
X291Y984D02*
X301Y984D01*
X333Y984D02*
X342Y984D01*
X92Y983D02*
X102Y983D01*
X132Y983D02*
X143Y983D01*
X191Y983D02*
X202Y983D01*
X232Y983D02*
X242Y983D01*
X291Y983D02*
X302Y983D01*
X332Y983D02*
X342Y983D01*
X92Y982D02*
X102Y982D01*
X132Y982D02*
X143Y982D01*
X191Y982D02*
X202Y982D01*
X232Y982D02*
X242Y982D01*
X291Y982D02*
X302Y982D01*
X332Y982D02*
X342Y982D01*
X92Y981D02*
X103Y981D01*
X131Y981D02*
X143Y981D01*
X191Y981D02*
X203Y981D01*
X231Y981D02*
X242Y981D01*
X291Y981D02*
X303Y981D01*
X331Y981D02*
X342Y981D01*
X92Y980D02*
X103Y980D01*
X131Y980D02*
X143Y980D01*
X191Y980D02*
X203Y980D01*
X231Y980D02*
X242Y980D01*
X291Y980D02*
X303Y980D01*
X331Y980D02*
X342Y980D01*
X92Y979D02*
X104Y979D01*
X130Y979D02*
X143Y979D01*
X191Y979D02*
X204Y979D01*
X230Y979D02*
X242Y979D01*
X291Y979D02*
X304Y979D01*
X330Y979D02*
X342Y979D01*
X92Y978D02*
X105Y978D01*
X129Y978D02*
X143Y978D01*
X191Y978D02*
X205Y978D01*
X229Y978D02*
X242Y978D01*
X291Y978D02*
X305Y978D01*
X329Y978D02*
X342Y978D01*
X92Y977D02*
X106Y977D01*
X128Y977D02*
X143Y977D01*
X191Y977D02*
X206Y977D01*
X228Y977D02*
X242Y977D01*
X291Y977D02*
X306Y977D01*
X328Y977D02*
X342Y977D01*
X92Y976D02*
X107Y976D01*
X127Y976D02*
X143Y976D01*
X191Y976D02*
X207Y976D01*
X227Y976D02*
X242Y976D01*
X291Y976D02*
X307Y976D01*
X327Y976D02*
X342Y976D01*
X92Y975D02*
X109Y975D01*
X125Y975D02*
X143Y975D01*
X191Y975D02*
X209Y975D01*
X225Y975D02*
X242Y975D01*
X291Y975D02*
X309Y975D01*
X325Y975D02*
X342Y975D01*
X92Y974D02*
X111Y974D01*
X123Y974D02*
X143Y974D01*
X191Y974D02*
X211Y974D01*
X223Y974D02*
X242Y974D01*
X291Y974D02*
X311Y974D01*
X323Y974D02*
X342Y974D01*
X92Y973D02*
X115Y973D01*
X119Y973D02*
X143Y973D01*
X191Y973D02*
X215Y973D01*
X219Y973D02*
X242Y973D01*
X291Y973D02*
X315Y973D01*
X319Y973D02*
X342Y973D01*
X92Y972D02*
X143Y972D01*
X191Y972D02*
X242Y972D01*
X291Y972D02*
X342Y972D01*
X92Y971D02*
X143Y971D01*
X191Y971D02*
X242Y971D01*
X291Y971D02*
X342Y971D01*
X92Y970D02*
X143Y970D01*
X191Y970D02*
X242Y970D01*
X291Y970D02*
X342Y970D01*
X92Y969D02*
X143Y969D01*
X191Y969D02*
X242Y969D01*
X291Y969D02*
X342Y969D01*
X92Y968D02*
X143Y968D01*
X191Y968D02*
X242Y968D01*
X291Y968D02*
X342Y968D01*
X92Y967D02*
X143Y967D01*
X191Y967D02*
X242Y967D01*
X291Y967D02*
X342Y967D01*
X92Y966D02*
X143Y966D01*
X191Y966D02*
X242Y966D01*
X291Y966D02*
X342Y966D01*
X92Y965D02*
X143Y965D01*
X191Y965D02*
X242Y965D01*
X291Y965D02*
X342Y965D01*
X92Y964D02*
X143Y964D01*
X191Y964D02*
X242Y964D01*
X291Y964D02*
X342Y964D01*
X92Y963D02*
X143Y963D01*
X191Y963D02*
X242Y963D01*
X291Y963D02*
X342Y963D01*
X92Y962D02*
X142Y962D01*
X192Y962D02*
X242Y962D01*
X292Y962D02*
X342Y962D01*
X92Y961D02*
X142Y961D01*
X192Y961D02*
X242Y961D01*
X292Y961D02*
X342Y961D01*
X92Y960D02*
X142Y960D01*
X192Y960D02*
X242Y960D01*
X292Y960D02*
X342Y960D01*
X92Y959D02*
X142Y959D01*
X192Y959D02*
X242Y959D01*
X292Y959D02*
X342Y959D01*
X92Y958D02*
X142Y958D01*
X192Y958D02*
X242Y958D01*
X292Y958D02*
X342Y958D01*
X92Y957D02*
X142Y957D01*
X192Y957D02*
X242Y957D01*
X292Y957D02*
X342Y957D01*
X92Y956D02*
X142Y956D01*
X192Y956D02*
X242Y956D01*
X292Y956D02*
X342Y956D01*
X93Y955D02*
X141Y955D01*
X193Y955D02*
X241Y955D01*
X293Y955D02*
X341Y955D01*
X93Y954D02*
X141Y954D01*
X193Y954D02*
X241Y954D01*
X293Y954D02*
X341Y954D01*
X93Y953D02*
X141Y953D01*
X193Y953D02*
X241Y953D01*
X293Y953D02*
X341Y953D01*
X94Y952D02*
X140Y952D01*
X194Y952D02*
X240Y952D01*
X294Y952D02*
X340Y952D01*
X94Y951D02*
X140Y951D01*
X194Y951D02*
X240Y951D01*
X294Y951D02*
X339Y951D01*
X95Y950D02*
X139Y950D01*
X195Y950D02*
X239Y950D01*
X295Y950D02*
X339Y950D01*
X96Y949D02*
X138Y949D01*
X196Y949D02*
X238Y949D01*
X296Y949D02*
X338Y949D01*
X96Y948D02*
X138Y948D01*
X196Y948D02*
X238Y948D01*
X296Y948D02*
X338Y948D01*
X97Y947D02*
X137Y947D01*
X197Y947D02*
X237Y947D01*
X297Y947D02*
X337Y947D01*
X98Y946D02*
X136Y946D01*
X198Y946D02*
X236Y946D01*
X298Y946D02*
X336Y946D01*
X99Y945D02*
X135Y945D01*
X199Y945D02*
X235Y945D01*
X299Y945D02*
X335Y945D01*
X100Y944D02*
X134Y944D01*
X200Y944D02*
X234Y944D01*
X300Y944D02*
X334Y944D01*
X101Y943D02*
X133Y943D01*
X201Y943D02*
X233Y943D01*
X301Y943D02*
X333Y943D01*
X102Y942D02*
X132Y942D01*
X202Y942D02*
X232Y942D01*
X302Y942D02*
X332Y942D01*
X103Y941D02*
X131Y941D01*
X203Y941D02*
X231Y941D01*
X303Y941D02*
X330Y941D01*
X105Y940D02*
X129Y940D01*
X205Y940D02*
X229Y940D01*
X305Y940D02*
X329Y940D01*
X107Y939D02*
X127Y939D01*
X207Y939D02*
X227Y939D01*
X307Y939D02*
X327Y939D01*
X110Y938D02*
X124Y938D01*
X210Y938D02*
X224Y938D01*
X310Y938D02*
X324Y938D01*
X115Y937D02*
X119Y937D01*
X215Y937D02*
X219Y937D01*
X315Y937D02*
X319Y937D01*
D02*
G04 End of Copper1*
M02*