; NON-PLATED HOLES START AT T1
; THROUGH (PLATED) HOLES START AT T100
M48
INCH
T100C0.032000
T101C0.035000
T102C0.038000
T103C0.031496
%
T100
X001175Y013174
X003175Y013174
X002175Y010174
X001175Y010174
X003175Y010174
X002175Y013174
T101
X005175Y014174
X012175Y011174
X005175Y007174
X001175Y003174
X010175Y012174
X011175Y003174
X012175Y015174
X005175Y006174
X005175Y010174
X012175Y003174
X008175Y004174
X008175Y005174
X005175Y009174
X008175Y003174
X008175Y009174
X005175Y011174
X005175Y005174
X004175Y003174
X008175Y011174
X010175Y007174
X011175Y007174
X008175Y010174
X012175Y007174
X005175Y004174
X008175Y008174
X008175Y007174
X010175Y013174
X005175Y003174
X008175Y006174
X006175Y013174
X009175Y014174
X005175Y008174
T102
X002175Y007174
X009175Y004174
X011175Y011174
X002175Y006174
X010175Y014174
X002175Y005174
X009175Y006174
X009175Y005174
X009175Y007174
X011175Y014174
X011175Y010174
X002175Y004174
X011175Y009174
T103
X010175Y012174
X010175Y007174
T00
M30
