G04 MADE WITH FRITZING*
G04 WWW.FRITZING.ORG*
G04 DOUBLE SIDED*
G04 HOLES PLATED*
G04 CONTOUR ON CENTER OF CONTOUR VECTOR*
%ASAXBY*%
%FSLAX23Y23*%
%MOIN*%
%OFA0B0*%
%SFA1.0B1.0*%
%ADD10C,0.085000*%
%ADD11C,0.088000*%
%ADD12C,0.062000*%
%ADD13C,0.088740*%
%ADD14R,0.085000X0.085000*%
%ADD15R,0.001000X0.001000*%
%LNMASK1*%
G90*
G70*
G54D10*
X518Y1117D03*
X818Y1117D03*
X518Y1017D03*
X818Y1017D03*
X518Y917D03*
X818Y917D03*
X518Y817D03*
X818Y817D03*
X518Y717D03*
X818Y717D03*
X518Y617D03*
X818Y617D03*
X518Y517D03*
X818Y517D03*
X518Y417D03*
X818Y417D03*
X1018Y1217D03*
X1018Y717D03*
X518Y317D03*
X818Y317D03*
G54D11*
X1118Y917D03*
X1118Y1017D03*
X1118Y1117D03*
X918Y417D03*
X918Y517D03*
X918Y617D03*
X918Y717D03*
X218Y417D03*
X218Y517D03*
X218Y617D03*
X218Y717D03*
G54D10*
X1218Y1117D03*
X1218Y1517D03*
X1218Y717D03*
X1218Y317D03*
X1118Y717D03*
X1118Y317D03*
G54D12*
X118Y1017D03*
X218Y1017D03*
X218Y1317D03*
X118Y1317D03*
X118Y1017D03*
X218Y1017D03*
X218Y1317D03*
X118Y1317D03*
X218Y1017D03*
X318Y1017D03*
X318Y1317D03*
X218Y1317D03*
X218Y1017D03*
X318Y1017D03*
X318Y1317D03*
X218Y1317D03*
G54D10*
X518Y1417D03*
X918Y1417D03*
X618Y1317D03*
X1018Y1317D03*
X118Y317D03*
X418Y317D03*
G54D11*
X1018Y1417D03*
X1118Y1417D03*
G54D13*
X1018Y1217D03*
X1018Y717D03*
G54D14*
X518Y1117D03*
G54D15*
X111Y1374D02*
X123Y1374D01*
X211Y1374D02*
X223Y1374D01*
X311Y1374D02*
X323Y1374D01*
X107Y1373D02*
X127Y1373D01*
X207Y1373D02*
X227Y1373D01*
X307Y1373D02*
X326Y1373D01*
X105Y1372D02*
X129Y1372D01*
X205Y1372D02*
X229Y1372D01*
X305Y1372D02*
X329Y1372D01*
X103Y1371D02*
X131Y1371D01*
X203Y1371D02*
X231Y1371D01*
X303Y1371D02*
X331Y1371D01*
X101Y1370D02*
X133Y1370D01*
X201Y1370D02*
X233Y1370D01*
X301Y1370D02*
X333Y1370D01*
X100Y1369D02*
X134Y1369D01*
X200Y1369D02*
X234Y1369D01*
X300Y1369D02*
X334Y1369D01*
X98Y1368D02*
X136Y1368D01*
X198Y1368D02*
X236Y1368D01*
X298Y1368D02*
X336Y1368D01*
X97Y1367D02*
X137Y1367D01*
X197Y1367D02*
X237Y1367D01*
X297Y1367D02*
X337Y1367D01*
X96Y1366D02*
X138Y1366D01*
X196Y1366D02*
X238Y1366D01*
X296Y1366D02*
X338Y1366D01*
X95Y1365D02*
X139Y1365D01*
X195Y1365D02*
X239Y1365D01*
X295Y1365D02*
X339Y1365D01*
X94Y1364D02*
X140Y1364D01*
X194Y1364D02*
X240Y1364D01*
X294Y1364D02*
X340Y1364D01*
X93Y1363D02*
X141Y1363D01*
X193Y1363D02*
X241Y1363D01*
X293Y1363D02*
X341Y1363D01*
X93Y1362D02*
X142Y1362D01*
X192Y1362D02*
X241Y1362D01*
X292Y1362D02*
X341Y1362D01*
X92Y1361D02*
X142Y1361D01*
X192Y1361D02*
X242Y1361D01*
X292Y1361D02*
X342Y1361D01*
X91Y1360D02*
X143Y1360D01*
X191Y1360D02*
X243Y1360D01*
X291Y1360D02*
X343Y1360D01*
X91Y1359D02*
X143Y1359D01*
X191Y1359D02*
X243Y1359D01*
X291Y1359D02*
X343Y1359D01*
X90Y1358D02*
X144Y1358D01*
X190Y1358D02*
X244Y1358D01*
X290Y1358D02*
X344Y1358D01*
X90Y1357D02*
X144Y1357D01*
X190Y1357D02*
X244Y1357D01*
X290Y1357D02*
X344Y1357D01*
X89Y1356D02*
X145Y1356D01*
X189Y1356D02*
X245Y1356D01*
X289Y1356D02*
X345Y1356D01*
X89Y1355D02*
X145Y1355D01*
X189Y1355D02*
X245Y1355D01*
X289Y1355D02*
X345Y1355D01*
X88Y1354D02*
X146Y1354D01*
X188Y1354D02*
X246Y1354D01*
X288Y1354D02*
X346Y1354D01*
X88Y1353D02*
X146Y1353D01*
X188Y1353D02*
X246Y1353D01*
X288Y1353D02*
X346Y1353D01*
X88Y1352D02*
X146Y1352D01*
X188Y1352D02*
X246Y1352D01*
X288Y1352D02*
X346Y1352D01*
X87Y1351D02*
X147Y1351D01*
X187Y1351D02*
X247Y1351D01*
X287Y1351D02*
X347Y1351D01*
X87Y1350D02*
X147Y1350D01*
X187Y1350D02*
X247Y1350D01*
X287Y1350D02*
X347Y1350D01*
X87Y1349D02*
X147Y1349D01*
X187Y1349D02*
X247Y1349D01*
X287Y1349D02*
X347Y1349D01*
X87Y1348D02*
X147Y1348D01*
X187Y1348D02*
X247Y1348D01*
X287Y1348D02*
X347Y1348D01*
X87Y1347D02*
X147Y1347D01*
X187Y1347D02*
X247Y1347D01*
X287Y1347D02*
X347Y1347D01*
X87Y1346D02*
X147Y1346D01*
X187Y1346D02*
X247Y1346D01*
X287Y1346D02*
X347Y1346D01*
X87Y1345D02*
X147Y1345D01*
X187Y1345D02*
X247Y1345D01*
X287Y1345D02*
X347Y1345D01*
X87Y1344D02*
X147Y1344D01*
X187Y1344D02*
X247Y1344D01*
X286Y1344D02*
X347Y1344D01*
X87Y1343D02*
X148Y1343D01*
X186Y1343D02*
X247Y1343D01*
X286Y1343D02*
X347Y1343D01*
X87Y1342D02*
X148Y1342D01*
X186Y1342D02*
X247Y1342D01*
X286Y1342D02*
X347Y1342D01*
X87Y1341D02*
X148Y1341D01*
X186Y1341D02*
X247Y1341D01*
X286Y1341D02*
X347Y1341D01*
X87Y1340D02*
X148Y1340D01*
X186Y1340D02*
X247Y1340D01*
X286Y1340D02*
X347Y1340D01*
X87Y1339D02*
X148Y1339D01*
X186Y1339D02*
X247Y1339D01*
X286Y1339D02*
X347Y1339D01*
X87Y1338D02*
X148Y1338D01*
X186Y1338D02*
X247Y1338D01*
X286Y1338D02*
X347Y1338D01*
X87Y1337D02*
X148Y1337D01*
X186Y1337D02*
X247Y1337D01*
X286Y1337D02*
X347Y1337D01*
X87Y1336D02*
X148Y1336D01*
X186Y1336D02*
X247Y1336D01*
X286Y1336D02*
X347Y1336D01*
X87Y1335D02*
X148Y1335D01*
X186Y1335D02*
X247Y1335D01*
X286Y1335D02*
X347Y1335D01*
X87Y1334D02*
X148Y1334D01*
X186Y1334D02*
X247Y1334D01*
X286Y1334D02*
X347Y1334D01*
X87Y1333D02*
X148Y1333D01*
X186Y1333D02*
X247Y1333D01*
X286Y1333D02*
X347Y1333D01*
X87Y1332D02*
X148Y1332D01*
X186Y1332D02*
X247Y1332D01*
X286Y1332D02*
X347Y1332D01*
X87Y1331D02*
X148Y1331D01*
X186Y1331D02*
X247Y1331D01*
X286Y1331D02*
X347Y1331D01*
X87Y1330D02*
X148Y1330D01*
X186Y1330D02*
X247Y1330D01*
X286Y1330D02*
X347Y1330D01*
X87Y1329D02*
X148Y1329D01*
X186Y1329D02*
X247Y1329D01*
X286Y1329D02*
X347Y1329D01*
X87Y1328D02*
X112Y1328D01*
X122Y1328D02*
X148Y1328D01*
X186Y1328D02*
X212Y1328D01*
X222Y1328D02*
X247Y1328D01*
X286Y1328D02*
X312Y1328D01*
X322Y1328D02*
X347Y1328D01*
X87Y1327D02*
X110Y1327D01*
X124Y1327D02*
X148Y1327D01*
X186Y1327D02*
X210Y1327D01*
X224Y1327D02*
X247Y1327D01*
X286Y1327D02*
X310Y1327D01*
X324Y1327D02*
X347Y1327D01*
X87Y1326D02*
X109Y1326D01*
X125Y1326D02*
X148Y1326D01*
X186Y1326D02*
X209Y1326D01*
X225Y1326D02*
X247Y1326D01*
X286Y1326D02*
X309Y1326D01*
X325Y1326D02*
X347Y1326D01*
X87Y1325D02*
X108Y1325D01*
X126Y1325D02*
X148Y1325D01*
X186Y1325D02*
X208Y1325D01*
X226Y1325D02*
X247Y1325D01*
X286Y1325D02*
X308Y1325D01*
X326Y1325D02*
X347Y1325D01*
X87Y1324D02*
X107Y1324D01*
X127Y1324D02*
X148Y1324D01*
X186Y1324D02*
X207Y1324D01*
X227Y1324D02*
X247Y1324D01*
X286Y1324D02*
X307Y1324D01*
X327Y1324D02*
X347Y1324D01*
X87Y1323D02*
X107Y1323D01*
X127Y1323D02*
X148Y1323D01*
X186Y1323D02*
X207Y1323D01*
X227Y1323D02*
X247Y1323D01*
X286Y1323D02*
X307Y1323D01*
X327Y1323D02*
X347Y1323D01*
X87Y1322D02*
X106Y1322D01*
X128Y1322D02*
X148Y1322D01*
X186Y1322D02*
X206Y1322D01*
X228Y1322D02*
X247Y1322D01*
X286Y1322D02*
X306Y1322D01*
X328Y1322D02*
X347Y1322D01*
X87Y1321D02*
X106Y1321D01*
X128Y1321D02*
X148Y1321D01*
X186Y1321D02*
X206Y1321D01*
X228Y1321D02*
X247Y1321D01*
X286Y1321D02*
X306Y1321D01*
X328Y1321D02*
X347Y1321D01*
X87Y1320D02*
X106Y1320D01*
X128Y1320D02*
X148Y1320D01*
X186Y1320D02*
X206Y1320D01*
X228Y1320D02*
X247Y1320D01*
X286Y1320D02*
X306Y1320D01*
X328Y1320D02*
X347Y1320D01*
X87Y1319D02*
X106Y1319D01*
X128Y1319D02*
X148Y1319D01*
X186Y1319D02*
X206Y1319D01*
X228Y1319D02*
X247Y1319D01*
X286Y1319D02*
X306Y1319D01*
X328Y1319D02*
X347Y1319D01*
X87Y1318D02*
X106Y1318D01*
X128Y1318D02*
X148Y1318D01*
X186Y1318D02*
X206Y1318D01*
X228Y1318D02*
X247Y1318D01*
X286Y1318D02*
X305Y1318D01*
X328Y1318D02*
X347Y1318D01*
X87Y1317D02*
X106Y1317D01*
X128Y1317D02*
X148Y1317D01*
X186Y1317D02*
X206Y1317D01*
X228Y1317D02*
X247Y1317D01*
X286Y1317D02*
X306Y1317D01*
X328Y1317D02*
X347Y1317D01*
X87Y1316D02*
X106Y1316D01*
X128Y1316D02*
X148Y1316D01*
X186Y1316D02*
X206Y1316D01*
X228Y1316D02*
X247Y1316D01*
X286Y1316D02*
X306Y1316D01*
X328Y1316D02*
X347Y1316D01*
X87Y1315D02*
X106Y1315D01*
X128Y1315D02*
X148Y1315D01*
X186Y1315D02*
X206Y1315D01*
X228Y1315D02*
X247Y1315D01*
X286Y1315D02*
X306Y1315D01*
X328Y1315D02*
X347Y1315D01*
X87Y1314D02*
X106Y1314D01*
X128Y1314D02*
X148Y1314D01*
X186Y1314D02*
X206Y1314D01*
X228Y1314D02*
X247Y1314D01*
X286Y1314D02*
X306Y1314D01*
X328Y1314D02*
X347Y1314D01*
X87Y1313D02*
X107Y1313D01*
X127Y1313D02*
X148Y1313D01*
X186Y1313D02*
X207Y1313D01*
X227Y1313D02*
X247Y1313D01*
X286Y1313D02*
X307Y1313D01*
X327Y1313D02*
X347Y1313D01*
X87Y1312D02*
X107Y1312D01*
X127Y1312D02*
X148Y1312D01*
X186Y1312D02*
X207Y1312D01*
X227Y1312D02*
X247Y1312D01*
X286Y1312D02*
X307Y1312D01*
X327Y1312D02*
X347Y1312D01*
X87Y1311D02*
X108Y1311D01*
X126Y1311D02*
X148Y1311D01*
X186Y1311D02*
X208Y1311D01*
X226Y1311D02*
X247Y1311D01*
X286Y1311D02*
X308Y1311D01*
X326Y1311D02*
X347Y1311D01*
X87Y1310D02*
X109Y1310D01*
X125Y1310D02*
X148Y1310D01*
X186Y1310D02*
X209Y1310D01*
X225Y1310D02*
X247Y1310D01*
X286Y1310D02*
X309Y1310D01*
X325Y1310D02*
X347Y1310D01*
X87Y1309D02*
X110Y1309D01*
X124Y1309D02*
X148Y1309D01*
X186Y1309D02*
X210Y1309D01*
X224Y1309D02*
X247Y1309D01*
X286Y1309D02*
X310Y1309D01*
X324Y1309D02*
X347Y1309D01*
X87Y1308D02*
X111Y1308D01*
X123Y1308D02*
X148Y1308D01*
X186Y1308D02*
X211Y1308D01*
X223Y1308D02*
X247Y1308D01*
X286Y1308D02*
X311Y1308D01*
X323Y1308D02*
X347Y1308D01*
X87Y1307D02*
X114Y1307D01*
X120Y1307D02*
X148Y1307D01*
X186Y1307D02*
X214Y1307D01*
X220Y1307D02*
X247Y1307D01*
X286Y1307D02*
X314Y1307D01*
X320Y1307D02*
X347Y1307D01*
X87Y1306D02*
X148Y1306D01*
X186Y1306D02*
X247Y1306D01*
X286Y1306D02*
X347Y1306D01*
X87Y1305D02*
X148Y1305D01*
X186Y1305D02*
X247Y1305D01*
X286Y1305D02*
X347Y1305D01*
X87Y1304D02*
X148Y1304D01*
X186Y1304D02*
X247Y1304D01*
X286Y1304D02*
X347Y1304D01*
X87Y1303D02*
X148Y1303D01*
X186Y1303D02*
X247Y1303D01*
X286Y1303D02*
X347Y1303D01*
X87Y1302D02*
X148Y1302D01*
X186Y1302D02*
X247Y1302D01*
X286Y1302D02*
X347Y1302D01*
X87Y1301D02*
X148Y1301D01*
X186Y1301D02*
X247Y1301D01*
X286Y1301D02*
X347Y1301D01*
X87Y1300D02*
X148Y1300D01*
X186Y1300D02*
X247Y1300D01*
X286Y1300D02*
X347Y1300D01*
X87Y1299D02*
X148Y1299D01*
X186Y1299D02*
X247Y1299D01*
X286Y1299D02*
X347Y1299D01*
X87Y1298D02*
X148Y1298D01*
X186Y1298D02*
X247Y1298D01*
X286Y1298D02*
X347Y1298D01*
X87Y1297D02*
X148Y1297D01*
X186Y1297D02*
X247Y1297D01*
X286Y1297D02*
X347Y1297D01*
X87Y1296D02*
X148Y1296D01*
X186Y1296D02*
X247Y1296D01*
X286Y1296D02*
X347Y1296D01*
X87Y1295D02*
X148Y1295D01*
X186Y1295D02*
X247Y1295D01*
X286Y1295D02*
X347Y1295D01*
X87Y1294D02*
X148Y1294D01*
X186Y1294D02*
X247Y1294D01*
X286Y1294D02*
X347Y1294D01*
X87Y1293D02*
X148Y1293D01*
X186Y1293D02*
X247Y1293D01*
X286Y1293D02*
X347Y1293D01*
X87Y1292D02*
X148Y1292D01*
X186Y1292D02*
X247Y1292D01*
X286Y1292D02*
X347Y1292D01*
X87Y1291D02*
X147Y1291D01*
X187Y1291D02*
X247Y1291D01*
X287Y1291D02*
X347Y1291D01*
X87Y1290D02*
X147Y1290D01*
X187Y1290D02*
X247Y1290D01*
X287Y1290D02*
X347Y1290D01*
X87Y1289D02*
X147Y1289D01*
X187Y1289D02*
X247Y1289D01*
X287Y1289D02*
X347Y1289D01*
X87Y1288D02*
X147Y1288D01*
X187Y1288D02*
X247Y1288D01*
X287Y1288D02*
X347Y1288D01*
X87Y1287D02*
X147Y1287D01*
X187Y1287D02*
X247Y1287D01*
X287Y1287D02*
X347Y1287D01*
X87Y1286D02*
X147Y1286D01*
X187Y1286D02*
X247Y1286D01*
X287Y1286D02*
X347Y1286D01*
X87Y1285D02*
X147Y1285D01*
X187Y1285D02*
X247Y1285D01*
X287Y1285D02*
X347Y1285D01*
X88Y1284D02*
X146Y1284D01*
X188Y1284D02*
X246Y1284D01*
X288Y1284D02*
X346Y1284D01*
X88Y1283D02*
X146Y1283D01*
X188Y1283D02*
X246Y1283D01*
X288Y1283D02*
X346Y1283D01*
X88Y1282D02*
X146Y1282D01*
X188Y1282D02*
X246Y1282D01*
X288Y1282D02*
X346Y1282D01*
X89Y1281D02*
X145Y1281D01*
X189Y1281D02*
X245Y1281D01*
X289Y1281D02*
X345Y1281D01*
X89Y1280D02*
X145Y1280D01*
X189Y1280D02*
X245Y1280D01*
X289Y1280D02*
X345Y1280D01*
X89Y1279D02*
X145Y1279D01*
X189Y1279D02*
X245Y1279D01*
X289Y1279D02*
X345Y1279D01*
X90Y1278D02*
X144Y1278D01*
X190Y1278D02*
X244Y1278D01*
X290Y1278D02*
X344Y1278D01*
X90Y1277D02*
X144Y1277D01*
X190Y1277D02*
X244Y1277D01*
X290Y1277D02*
X344Y1277D01*
X91Y1276D02*
X143Y1276D01*
X191Y1276D02*
X243Y1276D01*
X291Y1276D02*
X343Y1276D01*
X92Y1275D02*
X142Y1275D01*
X192Y1275D02*
X242Y1275D01*
X292Y1275D02*
X342Y1275D01*
X92Y1274D02*
X142Y1274D01*
X192Y1274D02*
X242Y1274D01*
X292Y1274D02*
X342Y1274D01*
X93Y1273D02*
X141Y1273D01*
X193Y1273D02*
X241Y1273D01*
X293Y1273D02*
X341Y1273D01*
X94Y1272D02*
X140Y1272D01*
X194Y1272D02*
X240Y1272D01*
X294Y1272D02*
X340Y1272D01*
X95Y1271D02*
X139Y1271D01*
X195Y1271D02*
X239Y1271D01*
X295Y1271D02*
X339Y1271D01*
X95Y1270D02*
X139Y1270D01*
X195Y1270D02*
X239Y1270D01*
X295Y1270D02*
X338Y1270D01*
X97Y1269D02*
X137Y1269D01*
X197Y1269D02*
X237Y1269D01*
X297Y1269D02*
X337Y1269D01*
X98Y1268D02*
X136Y1268D01*
X198Y1268D02*
X236Y1268D01*
X298Y1268D02*
X336Y1268D01*
X99Y1267D02*
X135Y1267D01*
X199Y1267D02*
X235Y1267D01*
X299Y1267D02*
X335Y1267D01*
X100Y1266D02*
X134Y1266D01*
X200Y1266D02*
X234Y1266D01*
X300Y1266D02*
X334Y1266D01*
X102Y1265D02*
X132Y1265D01*
X202Y1265D02*
X232Y1265D01*
X302Y1265D02*
X332Y1265D01*
X104Y1264D02*
X130Y1264D01*
X204Y1264D02*
X230Y1264D01*
X304Y1264D02*
X330Y1264D01*
X106Y1263D02*
X128Y1263D01*
X206Y1263D02*
X228Y1263D01*
X306Y1263D02*
X328Y1263D01*
X109Y1262D02*
X125Y1262D01*
X209Y1262D02*
X225Y1262D01*
X309Y1262D02*
X325Y1262D01*
X114Y1261D02*
X120Y1261D01*
X214Y1261D02*
X220Y1261D01*
X314Y1261D02*
X320Y1261D01*
X111Y1074D02*
X123Y1074D01*
X211Y1074D02*
X223Y1074D01*
X311Y1074D02*
X323Y1074D01*
X107Y1073D02*
X127Y1073D01*
X207Y1073D02*
X227Y1073D01*
X307Y1073D02*
X327Y1073D01*
X105Y1072D02*
X129Y1072D01*
X205Y1072D02*
X229Y1072D01*
X305Y1072D02*
X329Y1072D01*
X103Y1071D02*
X131Y1071D01*
X203Y1071D02*
X231Y1071D01*
X303Y1071D02*
X331Y1071D01*
X101Y1070D02*
X133Y1070D01*
X201Y1070D02*
X233Y1070D01*
X301Y1070D02*
X333Y1070D01*
X100Y1069D02*
X134Y1069D01*
X200Y1069D02*
X234Y1069D01*
X299Y1069D02*
X334Y1069D01*
X98Y1068D02*
X136Y1068D01*
X198Y1068D02*
X236Y1068D01*
X298Y1068D02*
X336Y1068D01*
X97Y1067D02*
X137Y1067D01*
X197Y1067D02*
X237Y1067D01*
X297Y1067D02*
X337Y1067D01*
X96Y1066D02*
X138Y1066D01*
X196Y1066D02*
X238Y1066D01*
X296Y1066D02*
X338Y1066D01*
X95Y1065D02*
X139Y1065D01*
X195Y1065D02*
X239Y1065D01*
X295Y1065D02*
X339Y1065D01*
X94Y1064D02*
X140Y1064D01*
X194Y1064D02*
X240Y1064D01*
X294Y1064D02*
X340Y1064D01*
X93Y1063D02*
X141Y1063D01*
X193Y1063D02*
X241Y1063D01*
X293Y1063D02*
X341Y1063D01*
X92Y1062D02*
X142Y1062D01*
X192Y1062D02*
X242Y1062D01*
X292Y1062D02*
X341Y1062D01*
X92Y1061D02*
X142Y1061D01*
X192Y1061D02*
X242Y1061D01*
X292Y1061D02*
X342Y1061D01*
X91Y1060D02*
X143Y1060D01*
X191Y1060D02*
X243Y1060D01*
X291Y1060D02*
X343Y1060D01*
X91Y1059D02*
X143Y1059D01*
X191Y1059D02*
X243Y1059D01*
X291Y1059D02*
X343Y1059D01*
X90Y1058D02*
X144Y1058D01*
X190Y1058D02*
X244Y1058D01*
X290Y1058D02*
X344Y1058D01*
X90Y1057D02*
X144Y1057D01*
X190Y1057D02*
X244Y1057D01*
X290Y1057D02*
X344Y1057D01*
X89Y1056D02*
X145Y1056D01*
X189Y1056D02*
X245Y1056D01*
X289Y1056D02*
X345Y1056D01*
X89Y1055D02*
X145Y1055D01*
X189Y1055D02*
X245Y1055D01*
X289Y1055D02*
X345Y1055D01*
X88Y1054D02*
X146Y1054D01*
X188Y1054D02*
X246Y1054D01*
X288Y1054D02*
X346Y1054D01*
X88Y1053D02*
X146Y1053D01*
X188Y1053D02*
X246Y1053D01*
X288Y1053D02*
X346Y1053D01*
X88Y1052D02*
X146Y1052D01*
X188Y1052D02*
X246Y1052D01*
X288Y1052D02*
X346Y1052D01*
X87Y1051D02*
X147Y1051D01*
X187Y1051D02*
X247Y1051D01*
X287Y1051D02*
X347Y1051D01*
X87Y1050D02*
X147Y1050D01*
X187Y1050D02*
X247Y1050D01*
X287Y1050D02*
X347Y1050D01*
X87Y1049D02*
X147Y1049D01*
X187Y1049D02*
X247Y1049D01*
X287Y1049D02*
X347Y1049D01*
X87Y1048D02*
X147Y1048D01*
X187Y1048D02*
X247Y1048D01*
X287Y1048D02*
X347Y1048D01*
X87Y1047D02*
X147Y1047D01*
X187Y1047D02*
X247Y1047D01*
X287Y1047D02*
X347Y1047D01*
X87Y1046D02*
X147Y1046D01*
X187Y1046D02*
X247Y1046D01*
X287Y1046D02*
X347Y1046D01*
X87Y1045D02*
X147Y1045D01*
X187Y1045D02*
X247Y1045D01*
X287Y1045D02*
X347Y1045D01*
X87Y1044D02*
X147Y1044D01*
X187Y1044D02*
X247Y1044D01*
X286Y1044D02*
X347Y1044D01*
X87Y1043D02*
X148Y1043D01*
X186Y1043D02*
X247Y1043D01*
X286Y1043D02*
X347Y1043D01*
X87Y1042D02*
X148Y1042D01*
X186Y1042D02*
X247Y1042D01*
X286Y1042D02*
X347Y1042D01*
X87Y1041D02*
X148Y1041D01*
X186Y1041D02*
X247Y1041D01*
X286Y1041D02*
X347Y1041D01*
X87Y1040D02*
X148Y1040D01*
X186Y1040D02*
X247Y1040D01*
X286Y1040D02*
X347Y1040D01*
X87Y1039D02*
X148Y1039D01*
X186Y1039D02*
X247Y1039D01*
X286Y1039D02*
X347Y1039D01*
X87Y1038D02*
X148Y1038D01*
X186Y1038D02*
X247Y1038D01*
X286Y1038D02*
X347Y1038D01*
X87Y1037D02*
X148Y1037D01*
X186Y1037D02*
X247Y1037D01*
X286Y1037D02*
X347Y1037D01*
X87Y1036D02*
X148Y1036D01*
X186Y1036D02*
X247Y1036D01*
X286Y1036D02*
X347Y1036D01*
X87Y1035D02*
X148Y1035D01*
X186Y1035D02*
X247Y1035D01*
X286Y1035D02*
X347Y1035D01*
X87Y1034D02*
X148Y1034D01*
X186Y1034D02*
X247Y1034D01*
X286Y1034D02*
X347Y1034D01*
X87Y1033D02*
X148Y1033D01*
X186Y1033D02*
X247Y1033D01*
X286Y1033D02*
X347Y1033D01*
X87Y1032D02*
X148Y1032D01*
X186Y1032D02*
X247Y1032D01*
X286Y1032D02*
X347Y1032D01*
X87Y1031D02*
X148Y1031D01*
X186Y1031D02*
X247Y1031D01*
X286Y1031D02*
X347Y1031D01*
X87Y1030D02*
X148Y1030D01*
X186Y1030D02*
X247Y1030D01*
X286Y1030D02*
X347Y1030D01*
X87Y1029D02*
X148Y1029D01*
X186Y1029D02*
X247Y1029D01*
X286Y1029D02*
X347Y1029D01*
X87Y1028D02*
X112Y1028D01*
X122Y1028D02*
X148Y1028D01*
X186Y1028D02*
X212Y1028D01*
X222Y1028D02*
X247Y1028D01*
X286Y1028D02*
X312Y1028D01*
X322Y1028D02*
X347Y1028D01*
X87Y1027D02*
X110Y1027D01*
X124Y1027D02*
X148Y1027D01*
X186Y1027D02*
X210Y1027D01*
X224Y1027D02*
X247Y1027D01*
X286Y1027D02*
X310Y1027D01*
X324Y1027D02*
X347Y1027D01*
X87Y1026D02*
X109Y1026D01*
X125Y1026D02*
X148Y1026D01*
X186Y1026D02*
X209Y1026D01*
X225Y1026D02*
X247Y1026D01*
X286Y1026D02*
X309Y1026D01*
X325Y1026D02*
X347Y1026D01*
X87Y1025D02*
X108Y1025D01*
X126Y1025D02*
X148Y1025D01*
X186Y1025D02*
X208Y1025D01*
X226Y1025D02*
X247Y1025D01*
X286Y1025D02*
X308Y1025D01*
X326Y1025D02*
X347Y1025D01*
X87Y1024D02*
X107Y1024D01*
X127Y1024D02*
X148Y1024D01*
X186Y1024D02*
X207Y1024D01*
X227Y1024D02*
X247Y1024D01*
X286Y1024D02*
X307Y1024D01*
X327Y1024D02*
X347Y1024D01*
X87Y1023D02*
X107Y1023D01*
X127Y1023D02*
X148Y1023D01*
X186Y1023D02*
X207Y1023D01*
X227Y1023D02*
X247Y1023D01*
X286Y1023D02*
X307Y1023D01*
X327Y1023D02*
X347Y1023D01*
X87Y1022D02*
X106Y1022D01*
X128Y1022D02*
X148Y1022D01*
X186Y1022D02*
X206Y1022D01*
X228Y1022D02*
X247Y1022D01*
X286Y1022D02*
X306Y1022D01*
X328Y1022D02*
X347Y1022D01*
X87Y1021D02*
X106Y1021D01*
X128Y1021D02*
X148Y1021D01*
X186Y1021D02*
X206Y1021D01*
X228Y1021D02*
X247Y1021D01*
X286Y1021D02*
X306Y1021D01*
X328Y1021D02*
X347Y1021D01*
X87Y1020D02*
X106Y1020D01*
X128Y1020D02*
X148Y1020D01*
X186Y1020D02*
X206Y1020D01*
X228Y1020D02*
X247Y1020D01*
X286Y1020D02*
X306Y1020D01*
X328Y1020D02*
X347Y1020D01*
X87Y1019D02*
X106Y1019D01*
X128Y1019D02*
X148Y1019D01*
X186Y1019D02*
X206Y1019D01*
X228Y1019D02*
X247Y1019D01*
X286Y1019D02*
X306Y1019D01*
X328Y1019D02*
X347Y1019D01*
X87Y1018D02*
X106Y1018D01*
X128Y1018D02*
X148Y1018D01*
X186Y1018D02*
X206Y1018D01*
X228Y1018D02*
X247Y1018D01*
X286Y1018D02*
X305Y1018D01*
X328Y1018D02*
X347Y1018D01*
X87Y1017D02*
X106Y1017D01*
X128Y1017D02*
X148Y1017D01*
X186Y1017D02*
X206Y1017D01*
X228Y1017D02*
X247Y1017D01*
X286Y1017D02*
X306Y1017D01*
X328Y1017D02*
X347Y1017D01*
X87Y1016D02*
X106Y1016D01*
X128Y1016D02*
X148Y1016D01*
X186Y1016D02*
X206Y1016D01*
X228Y1016D02*
X247Y1016D01*
X286Y1016D02*
X306Y1016D01*
X328Y1016D02*
X347Y1016D01*
X87Y1015D02*
X106Y1015D01*
X128Y1015D02*
X148Y1015D01*
X186Y1015D02*
X206Y1015D01*
X228Y1015D02*
X247Y1015D01*
X286Y1015D02*
X306Y1015D01*
X328Y1015D02*
X347Y1015D01*
X87Y1014D02*
X106Y1014D01*
X128Y1014D02*
X148Y1014D01*
X186Y1014D02*
X206Y1014D01*
X228Y1014D02*
X247Y1014D01*
X286Y1014D02*
X306Y1014D01*
X328Y1014D02*
X347Y1014D01*
X87Y1013D02*
X107Y1013D01*
X127Y1013D02*
X148Y1013D01*
X186Y1013D02*
X207Y1013D01*
X227Y1013D02*
X247Y1013D01*
X286Y1013D02*
X307Y1013D01*
X327Y1013D02*
X347Y1013D01*
X87Y1012D02*
X107Y1012D01*
X127Y1012D02*
X148Y1012D01*
X186Y1012D02*
X207Y1012D01*
X227Y1012D02*
X247Y1012D01*
X286Y1012D02*
X307Y1012D01*
X327Y1012D02*
X347Y1012D01*
X87Y1011D02*
X108Y1011D01*
X126Y1011D02*
X148Y1011D01*
X186Y1011D02*
X208Y1011D01*
X226Y1011D02*
X247Y1011D01*
X286Y1011D02*
X308Y1011D01*
X326Y1011D02*
X347Y1011D01*
X87Y1010D02*
X109Y1010D01*
X125Y1010D02*
X148Y1010D01*
X186Y1010D02*
X209Y1010D01*
X225Y1010D02*
X247Y1010D01*
X286Y1010D02*
X309Y1010D01*
X325Y1010D02*
X347Y1010D01*
X87Y1009D02*
X110Y1009D01*
X124Y1009D02*
X148Y1009D01*
X186Y1009D02*
X210Y1009D01*
X224Y1009D02*
X247Y1009D01*
X286Y1009D02*
X310Y1009D01*
X324Y1009D02*
X347Y1009D01*
X87Y1008D02*
X111Y1008D01*
X123Y1008D02*
X148Y1008D01*
X186Y1008D02*
X211Y1008D01*
X223Y1008D02*
X247Y1008D01*
X286Y1008D02*
X311Y1008D01*
X322Y1008D02*
X347Y1008D01*
X87Y1007D02*
X115Y1007D01*
X120Y1007D02*
X148Y1007D01*
X186Y1007D02*
X214Y1007D01*
X219Y1007D02*
X247Y1007D01*
X286Y1007D02*
X314Y1007D01*
X319Y1007D02*
X347Y1007D01*
X87Y1006D02*
X148Y1006D01*
X186Y1006D02*
X247Y1006D01*
X286Y1006D02*
X347Y1006D01*
X87Y1005D02*
X148Y1005D01*
X186Y1005D02*
X247Y1005D01*
X286Y1005D02*
X347Y1005D01*
X87Y1004D02*
X148Y1004D01*
X186Y1004D02*
X247Y1004D01*
X286Y1004D02*
X347Y1004D01*
X87Y1003D02*
X148Y1003D01*
X186Y1003D02*
X247Y1003D01*
X286Y1003D02*
X347Y1003D01*
X87Y1002D02*
X148Y1002D01*
X186Y1002D02*
X247Y1002D01*
X286Y1002D02*
X347Y1002D01*
X87Y1001D02*
X148Y1001D01*
X186Y1001D02*
X247Y1001D01*
X286Y1001D02*
X347Y1001D01*
X87Y1000D02*
X148Y1000D01*
X186Y1000D02*
X247Y1000D01*
X286Y1000D02*
X347Y1000D01*
X87Y999D02*
X148Y999D01*
X186Y999D02*
X247Y999D01*
X286Y999D02*
X347Y999D01*
X87Y998D02*
X148Y998D01*
X186Y998D02*
X247Y998D01*
X286Y998D02*
X347Y998D01*
X87Y997D02*
X148Y997D01*
X186Y997D02*
X247Y997D01*
X286Y997D02*
X347Y997D01*
X87Y996D02*
X148Y996D01*
X186Y996D02*
X247Y996D01*
X286Y996D02*
X347Y996D01*
X87Y995D02*
X148Y995D01*
X186Y995D02*
X247Y995D01*
X286Y995D02*
X347Y995D01*
X87Y994D02*
X148Y994D01*
X186Y994D02*
X247Y994D01*
X286Y994D02*
X347Y994D01*
X87Y993D02*
X148Y993D01*
X186Y993D02*
X247Y993D01*
X286Y993D02*
X347Y993D01*
X87Y992D02*
X148Y992D01*
X186Y992D02*
X247Y992D01*
X286Y992D02*
X347Y992D01*
X87Y991D02*
X147Y991D01*
X187Y991D02*
X247Y991D01*
X287Y991D02*
X347Y991D01*
X87Y990D02*
X147Y990D01*
X187Y990D02*
X247Y990D01*
X287Y990D02*
X347Y990D01*
X87Y989D02*
X147Y989D01*
X187Y989D02*
X247Y989D01*
X287Y989D02*
X347Y989D01*
X87Y988D02*
X147Y988D01*
X187Y988D02*
X247Y988D01*
X287Y988D02*
X347Y988D01*
X87Y987D02*
X147Y987D01*
X187Y987D02*
X247Y987D01*
X287Y987D02*
X347Y987D01*
X87Y986D02*
X147Y986D01*
X187Y986D02*
X247Y986D01*
X287Y986D02*
X347Y986D01*
X87Y985D02*
X147Y985D01*
X187Y985D02*
X247Y985D01*
X287Y985D02*
X347Y985D01*
X88Y984D02*
X146Y984D01*
X188Y984D02*
X246Y984D01*
X288Y984D02*
X346Y984D01*
X88Y983D02*
X146Y983D01*
X188Y983D02*
X246Y983D01*
X288Y983D02*
X346Y983D01*
X88Y982D02*
X146Y982D01*
X188Y982D02*
X246Y982D01*
X288Y982D02*
X346Y982D01*
X89Y981D02*
X145Y981D01*
X189Y981D02*
X245Y981D01*
X289Y981D02*
X345Y981D01*
X89Y980D02*
X145Y980D01*
X189Y980D02*
X245Y980D01*
X289Y980D02*
X345Y980D01*
X89Y979D02*
X145Y979D01*
X189Y979D02*
X245Y979D01*
X289Y979D02*
X345Y979D01*
X90Y978D02*
X144Y978D01*
X190Y978D02*
X244Y978D01*
X290Y978D02*
X344Y978D01*
X90Y977D02*
X144Y977D01*
X190Y977D02*
X244Y977D01*
X290Y977D02*
X344Y977D01*
X91Y976D02*
X143Y976D01*
X191Y976D02*
X243Y976D01*
X291Y976D02*
X343Y976D01*
X92Y975D02*
X142Y975D01*
X192Y975D02*
X242Y975D01*
X292Y975D02*
X342Y975D01*
X92Y974D02*
X142Y974D01*
X192Y974D02*
X242Y974D01*
X292Y974D02*
X342Y974D01*
X93Y973D02*
X141Y973D01*
X193Y973D02*
X241Y973D01*
X293Y973D02*
X341Y973D01*
X94Y972D02*
X140Y972D01*
X194Y972D02*
X240Y972D01*
X294Y972D02*
X340Y972D01*
X95Y971D02*
X139Y971D01*
X195Y971D02*
X239Y971D01*
X295Y971D02*
X339Y971D01*
X96Y970D02*
X138Y970D01*
X196Y970D02*
X238Y970D01*
X295Y970D02*
X338Y970D01*
X97Y969D02*
X137Y969D01*
X197Y969D02*
X237Y969D01*
X297Y969D02*
X337Y969D01*
X98Y968D02*
X136Y968D01*
X198Y968D02*
X236Y968D01*
X298Y968D02*
X336Y968D01*
X99Y967D02*
X135Y967D01*
X199Y967D02*
X235Y967D01*
X299Y967D02*
X335Y967D01*
X100Y966D02*
X134Y966D01*
X200Y966D02*
X233Y966D01*
X300Y966D02*
X333Y966D01*
X102Y965D02*
X132Y965D01*
X202Y965D02*
X232Y965D01*
X302Y965D02*
X332Y965D01*
X104Y964D02*
X130Y964D01*
X204Y964D02*
X230Y964D01*
X304Y964D02*
X330Y964D01*
X106Y963D02*
X128Y963D01*
X206Y963D02*
X228Y963D01*
X306Y963D02*
X328Y963D01*
X109Y962D02*
X125Y962D01*
X209Y962D02*
X225Y962D01*
X309Y962D02*
X324Y962D01*
X115Y961D02*
X119Y961D01*
X214Y961D02*
X219Y961D01*
X314Y961D02*
X319Y961D01*
D02*
G04 End of Mask1*
M02*