G04 MADE WITH FRITZING*
G04 WWW.FRITZING.ORG*
G04 DOUBLE SIDED*
G04 HOLES PLATED*
G04 CONTOUR ON CENTER OF CONTOUR VECTOR*
%ASAXBY*%
%FSLAX23Y23*%
%MOIN*%
%OFA0B0*%
%SFA1.0B1.0*%
%ADD10C,0.075000*%
%ADD11C,0.078000*%
%ADD12C,0.052000*%
%ADD13C,0.078740*%
%ADD14R,0.075000X0.075000*%
%ADD15C,0.048000*%
%ADD16R,0.001000X0.001000*%
%LNCOPPER1*%
G90*
G70*
G54D10*
X518Y1117D03*
X818Y1117D03*
X518Y1017D03*
X818Y1017D03*
X518Y917D03*
X818Y917D03*
X518Y817D03*
X818Y817D03*
X518Y717D03*
X818Y717D03*
X518Y617D03*
X818Y617D03*
X518Y517D03*
X818Y517D03*
X518Y417D03*
X818Y417D03*
X1018Y1217D03*
X1018Y717D03*
X518Y317D03*
X818Y317D03*
G54D11*
X1118Y917D03*
X1118Y1017D03*
X1118Y1117D03*
X918Y417D03*
X918Y517D03*
X918Y617D03*
X918Y717D03*
X218Y417D03*
X218Y517D03*
X218Y617D03*
X218Y717D03*
G54D10*
X1218Y1117D03*
X1218Y1517D03*
X1218Y717D03*
X1218Y317D03*
X1118Y717D03*
X1118Y317D03*
G54D12*
X118Y1017D03*
X218Y1017D03*
X218Y1317D03*
X118Y1317D03*
X118Y1017D03*
X218Y1017D03*
X218Y1317D03*
X118Y1317D03*
X218Y1017D03*
X318Y1017D03*
X318Y1317D03*
X218Y1317D03*
X218Y1017D03*
X318Y1017D03*
X318Y1317D03*
X218Y1317D03*
G54D10*
X518Y1417D03*
X918Y1417D03*
X618Y1317D03*
X1018Y1317D03*
X118Y317D03*
X418Y317D03*
G54D11*
X1018Y1417D03*
X1118Y1417D03*
G54D13*
X1018Y1217D03*
X1018Y717D03*
G54D14*
X518Y1117D03*
G54D15*
X546Y317D02*
X789Y317D01*
D02*
X1018Y744D02*
X1018Y1191D01*
G54D16*
X111Y1369D02*
X123Y1369D01*
X211Y1369D02*
X223Y1369D01*
X311Y1369D02*
X323Y1369D01*
X108Y1368D02*
X126Y1368D01*
X208Y1368D02*
X226Y1368D01*
X308Y1368D02*
X326Y1368D01*
X106Y1367D02*
X128Y1367D01*
X206Y1367D02*
X228Y1367D01*
X306Y1367D02*
X328Y1367D01*
X104Y1366D02*
X130Y1366D01*
X204Y1366D02*
X230Y1366D01*
X304Y1366D02*
X330Y1366D01*
X103Y1365D02*
X131Y1365D01*
X203Y1365D02*
X231Y1365D01*
X303Y1365D02*
X331Y1365D01*
X101Y1364D02*
X133Y1364D01*
X201Y1364D02*
X233Y1364D01*
X301Y1364D02*
X333Y1364D01*
X100Y1363D02*
X134Y1363D01*
X200Y1363D02*
X234Y1363D01*
X300Y1363D02*
X334Y1363D01*
X99Y1362D02*
X135Y1362D01*
X199Y1362D02*
X235Y1362D01*
X299Y1362D02*
X335Y1362D01*
X98Y1361D02*
X136Y1361D01*
X198Y1361D02*
X236Y1361D01*
X298Y1361D02*
X336Y1361D01*
X97Y1360D02*
X137Y1360D01*
X197Y1360D02*
X237Y1360D01*
X297Y1360D02*
X337Y1360D01*
X97Y1359D02*
X137Y1359D01*
X196Y1359D02*
X237Y1359D01*
X296Y1359D02*
X337Y1359D01*
X96Y1358D02*
X138Y1358D01*
X196Y1358D02*
X238Y1358D01*
X296Y1358D02*
X338Y1358D01*
X95Y1357D02*
X139Y1357D01*
X195Y1357D02*
X239Y1357D01*
X295Y1357D02*
X339Y1357D01*
X95Y1356D02*
X139Y1356D01*
X195Y1356D02*
X239Y1356D01*
X295Y1356D02*
X339Y1356D01*
X94Y1355D02*
X140Y1355D01*
X194Y1355D02*
X240Y1355D01*
X294Y1355D02*
X340Y1355D01*
X94Y1354D02*
X140Y1354D01*
X194Y1354D02*
X240Y1354D01*
X294Y1354D02*
X340Y1354D01*
X93Y1353D02*
X141Y1353D01*
X193Y1353D02*
X241Y1353D01*
X293Y1353D02*
X341Y1353D01*
X93Y1352D02*
X141Y1352D01*
X193Y1352D02*
X241Y1352D01*
X293Y1352D02*
X341Y1352D01*
X93Y1351D02*
X141Y1351D01*
X193Y1351D02*
X241Y1351D01*
X293Y1351D02*
X341Y1351D01*
X92Y1350D02*
X142Y1350D01*
X192Y1350D02*
X242Y1350D01*
X292Y1350D02*
X342Y1350D01*
X92Y1349D02*
X142Y1349D01*
X192Y1349D02*
X242Y1349D01*
X292Y1349D02*
X342Y1349D01*
X92Y1348D02*
X142Y1348D01*
X192Y1348D02*
X242Y1348D01*
X292Y1348D02*
X342Y1348D01*
X92Y1347D02*
X142Y1347D01*
X192Y1347D02*
X242Y1347D01*
X292Y1347D02*
X342Y1347D01*
X92Y1346D02*
X142Y1346D01*
X192Y1346D02*
X242Y1346D01*
X292Y1346D02*
X342Y1346D01*
X92Y1345D02*
X142Y1345D01*
X192Y1345D02*
X242Y1345D01*
X292Y1345D02*
X342Y1345D01*
X92Y1344D02*
X142Y1344D01*
X192Y1344D02*
X242Y1344D01*
X291Y1344D02*
X342Y1344D01*
X92Y1343D02*
X143Y1343D01*
X191Y1343D02*
X242Y1343D01*
X291Y1343D02*
X342Y1343D01*
X92Y1342D02*
X143Y1342D01*
X191Y1342D02*
X242Y1342D01*
X291Y1342D02*
X342Y1342D01*
X92Y1341D02*
X143Y1341D01*
X191Y1341D02*
X242Y1341D01*
X291Y1341D02*
X342Y1341D01*
X92Y1340D02*
X143Y1340D01*
X191Y1340D02*
X242Y1340D01*
X291Y1340D02*
X342Y1340D01*
X92Y1339D02*
X143Y1339D01*
X191Y1339D02*
X242Y1339D01*
X291Y1339D02*
X342Y1339D01*
X92Y1338D02*
X143Y1338D01*
X191Y1338D02*
X242Y1338D01*
X291Y1338D02*
X342Y1338D01*
X92Y1337D02*
X143Y1337D01*
X191Y1337D02*
X242Y1337D01*
X291Y1337D02*
X342Y1337D01*
X92Y1336D02*
X143Y1336D01*
X191Y1336D02*
X242Y1336D01*
X291Y1336D02*
X342Y1336D01*
X92Y1335D02*
X143Y1335D01*
X191Y1335D02*
X242Y1335D01*
X291Y1335D02*
X342Y1335D01*
X92Y1334D02*
X143Y1334D01*
X191Y1334D02*
X242Y1334D01*
X291Y1334D02*
X342Y1334D01*
X92Y1333D02*
X112Y1333D01*
X122Y1333D02*
X143Y1333D01*
X191Y1333D02*
X212Y1333D01*
X222Y1333D02*
X242Y1333D01*
X291Y1333D02*
X312Y1333D01*
X322Y1333D02*
X342Y1333D01*
X92Y1332D02*
X109Y1332D01*
X125Y1332D02*
X143Y1332D01*
X191Y1332D02*
X209Y1332D01*
X225Y1332D02*
X242Y1332D01*
X291Y1332D02*
X309Y1332D01*
X325Y1332D02*
X342Y1332D01*
X92Y1331D02*
X108Y1331D01*
X126Y1331D02*
X143Y1331D01*
X191Y1331D02*
X208Y1331D01*
X226Y1331D02*
X242Y1331D01*
X291Y1331D02*
X308Y1331D01*
X326Y1331D02*
X342Y1331D01*
X92Y1330D02*
X106Y1330D01*
X128Y1330D02*
X143Y1330D01*
X191Y1330D02*
X206Y1330D01*
X228Y1330D02*
X242Y1330D01*
X291Y1330D02*
X306Y1330D01*
X328Y1330D02*
X342Y1330D01*
X92Y1329D02*
X105Y1329D01*
X129Y1329D02*
X143Y1329D01*
X191Y1329D02*
X205Y1329D01*
X229Y1329D02*
X242Y1329D01*
X291Y1329D02*
X305Y1329D01*
X329Y1329D02*
X342Y1329D01*
X92Y1328D02*
X104Y1328D01*
X130Y1328D02*
X143Y1328D01*
X191Y1328D02*
X204Y1328D01*
X230Y1328D02*
X242Y1328D01*
X291Y1328D02*
X304Y1328D01*
X330Y1328D02*
X342Y1328D01*
X92Y1327D02*
X103Y1327D01*
X131Y1327D02*
X143Y1327D01*
X191Y1327D02*
X203Y1327D01*
X231Y1327D02*
X242Y1327D01*
X291Y1327D02*
X303Y1327D01*
X331Y1327D02*
X342Y1327D01*
X92Y1326D02*
X103Y1326D01*
X131Y1326D02*
X143Y1326D01*
X191Y1326D02*
X203Y1326D01*
X231Y1326D02*
X242Y1326D01*
X291Y1326D02*
X303Y1326D01*
X331Y1326D02*
X342Y1326D01*
X92Y1325D02*
X102Y1325D01*
X132Y1325D02*
X143Y1325D01*
X191Y1325D02*
X202Y1325D01*
X232Y1325D02*
X242Y1325D01*
X291Y1325D02*
X302Y1325D01*
X332Y1325D02*
X342Y1325D01*
X92Y1324D02*
X102Y1324D01*
X132Y1324D02*
X143Y1324D01*
X191Y1324D02*
X202Y1324D01*
X232Y1324D02*
X242Y1324D01*
X291Y1324D02*
X302Y1324D01*
X332Y1324D02*
X342Y1324D01*
X92Y1323D02*
X101Y1323D01*
X133Y1323D02*
X143Y1323D01*
X191Y1323D02*
X201Y1323D01*
X233Y1323D02*
X242Y1323D01*
X291Y1323D02*
X301Y1323D01*
X333Y1323D02*
X342Y1323D01*
X92Y1322D02*
X101Y1322D01*
X133Y1322D02*
X143Y1322D01*
X191Y1322D02*
X201Y1322D01*
X233Y1322D02*
X242Y1322D01*
X291Y1322D02*
X301Y1322D01*
X333Y1322D02*
X342Y1322D01*
X92Y1321D02*
X101Y1321D01*
X133Y1321D02*
X143Y1321D01*
X191Y1321D02*
X201Y1321D01*
X233Y1321D02*
X242Y1321D01*
X291Y1321D02*
X301Y1321D01*
X333Y1321D02*
X342Y1321D01*
X92Y1320D02*
X101Y1320D01*
X133Y1320D02*
X143Y1320D01*
X191Y1320D02*
X201Y1320D01*
X233Y1320D02*
X242Y1320D01*
X291Y1320D02*
X301Y1320D01*
X333Y1320D02*
X342Y1320D01*
X92Y1319D02*
X101Y1319D01*
X133Y1319D02*
X143Y1319D01*
X191Y1319D02*
X201Y1319D01*
X233Y1319D02*
X242Y1319D01*
X291Y1319D02*
X301Y1319D01*
X333Y1319D02*
X342Y1319D01*
X92Y1318D02*
X101Y1318D01*
X133Y1318D02*
X143Y1318D01*
X191Y1318D02*
X201Y1318D01*
X233Y1318D02*
X242Y1318D01*
X291Y1318D02*
X301Y1318D01*
X333Y1318D02*
X342Y1318D01*
X92Y1317D02*
X101Y1317D01*
X133Y1317D02*
X143Y1317D01*
X191Y1317D02*
X201Y1317D01*
X233Y1317D02*
X242Y1317D01*
X291Y1317D02*
X301Y1317D01*
X333Y1317D02*
X342Y1317D01*
X92Y1316D02*
X101Y1316D01*
X133Y1316D02*
X143Y1316D01*
X191Y1316D02*
X201Y1316D01*
X233Y1316D02*
X242Y1316D01*
X291Y1316D02*
X301Y1316D01*
X333Y1316D02*
X342Y1316D01*
X92Y1315D02*
X101Y1315D01*
X133Y1315D02*
X143Y1315D01*
X191Y1315D02*
X201Y1315D01*
X233Y1315D02*
X242Y1315D01*
X291Y1315D02*
X301Y1315D01*
X333Y1315D02*
X342Y1315D01*
X92Y1314D02*
X101Y1314D01*
X133Y1314D02*
X143Y1314D01*
X191Y1314D02*
X201Y1314D01*
X233Y1314D02*
X242Y1314D01*
X291Y1314D02*
X301Y1314D01*
X333Y1314D02*
X342Y1314D01*
X92Y1313D02*
X101Y1313D01*
X133Y1313D02*
X143Y1313D01*
X191Y1313D02*
X201Y1313D01*
X233Y1313D02*
X242Y1313D01*
X291Y1313D02*
X301Y1313D01*
X333Y1313D02*
X342Y1313D01*
X92Y1312D02*
X102Y1312D01*
X132Y1312D02*
X143Y1312D01*
X191Y1312D02*
X202Y1312D01*
X232Y1312D02*
X242Y1312D01*
X291Y1312D02*
X302Y1312D01*
X332Y1312D02*
X342Y1312D01*
X92Y1311D02*
X102Y1311D01*
X132Y1311D02*
X143Y1311D01*
X191Y1311D02*
X202Y1311D01*
X232Y1311D02*
X242Y1311D01*
X291Y1311D02*
X302Y1311D01*
X332Y1311D02*
X342Y1311D01*
X92Y1310D02*
X103Y1310D01*
X131Y1310D02*
X143Y1310D01*
X191Y1310D02*
X203Y1310D01*
X231Y1310D02*
X242Y1310D01*
X291Y1310D02*
X303Y1310D01*
X331Y1310D02*
X342Y1310D01*
X92Y1309D02*
X103Y1309D01*
X131Y1309D02*
X143Y1309D01*
X191Y1309D02*
X203Y1309D01*
X231Y1309D02*
X242Y1309D01*
X291Y1309D02*
X303Y1309D01*
X331Y1309D02*
X342Y1309D01*
X92Y1308D02*
X104Y1308D01*
X130Y1308D02*
X143Y1308D01*
X191Y1308D02*
X204Y1308D01*
X230Y1308D02*
X242Y1308D01*
X291Y1308D02*
X304Y1308D01*
X330Y1308D02*
X342Y1308D01*
X92Y1307D02*
X105Y1307D01*
X129Y1307D02*
X143Y1307D01*
X191Y1307D02*
X205Y1307D01*
X229Y1307D02*
X242Y1307D01*
X291Y1307D02*
X305Y1307D01*
X329Y1307D02*
X342Y1307D01*
X92Y1306D02*
X106Y1306D01*
X128Y1306D02*
X143Y1306D01*
X191Y1306D02*
X206Y1306D01*
X228Y1306D02*
X242Y1306D01*
X291Y1306D02*
X306Y1306D01*
X328Y1306D02*
X342Y1306D01*
X92Y1305D02*
X107Y1305D01*
X127Y1305D02*
X143Y1305D01*
X191Y1305D02*
X207Y1305D01*
X227Y1305D02*
X242Y1305D01*
X291Y1305D02*
X307Y1305D01*
X327Y1305D02*
X342Y1305D01*
X92Y1304D02*
X109Y1304D01*
X125Y1304D02*
X143Y1304D01*
X191Y1304D02*
X209Y1304D01*
X225Y1304D02*
X242Y1304D01*
X291Y1304D02*
X308Y1304D01*
X325Y1304D02*
X342Y1304D01*
X92Y1303D02*
X110Y1303D01*
X124Y1303D02*
X143Y1303D01*
X191Y1303D02*
X210Y1303D01*
X224Y1303D02*
X242Y1303D01*
X291Y1303D02*
X310Y1303D01*
X323Y1303D02*
X342Y1303D01*
X92Y1302D02*
X114Y1302D01*
X120Y1302D02*
X143Y1302D01*
X191Y1302D02*
X214Y1302D01*
X220Y1302D02*
X242Y1302D01*
X291Y1302D02*
X314Y1302D01*
X320Y1302D02*
X342Y1302D01*
X92Y1301D02*
X143Y1301D01*
X191Y1301D02*
X242Y1301D01*
X291Y1301D02*
X342Y1301D01*
X92Y1300D02*
X143Y1300D01*
X191Y1300D02*
X242Y1300D01*
X291Y1300D02*
X342Y1300D01*
X92Y1299D02*
X143Y1299D01*
X191Y1299D02*
X242Y1299D01*
X291Y1299D02*
X342Y1299D01*
X92Y1298D02*
X143Y1298D01*
X191Y1298D02*
X242Y1298D01*
X291Y1298D02*
X342Y1298D01*
X92Y1297D02*
X143Y1297D01*
X191Y1297D02*
X242Y1297D01*
X291Y1297D02*
X342Y1297D01*
X92Y1296D02*
X143Y1296D01*
X191Y1296D02*
X242Y1296D01*
X291Y1296D02*
X342Y1296D01*
X92Y1295D02*
X143Y1295D01*
X191Y1295D02*
X242Y1295D01*
X291Y1295D02*
X342Y1295D01*
X92Y1294D02*
X143Y1294D01*
X191Y1294D02*
X242Y1294D01*
X291Y1294D02*
X342Y1294D01*
X92Y1293D02*
X143Y1293D01*
X191Y1293D02*
X242Y1293D01*
X291Y1293D02*
X342Y1293D01*
X92Y1292D02*
X143Y1292D01*
X191Y1292D02*
X242Y1292D01*
X291Y1292D02*
X342Y1292D01*
X92Y1291D02*
X142Y1291D01*
X192Y1291D02*
X242Y1291D01*
X292Y1291D02*
X342Y1291D01*
X92Y1290D02*
X142Y1290D01*
X192Y1290D02*
X242Y1290D01*
X292Y1290D02*
X342Y1290D01*
X92Y1289D02*
X142Y1289D01*
X192Y1289D02*
X242Y1289D01*
X292Y1289D02*
X342Y1289D01*
X92Y1288D02*
X142Y1288D01*
X192Y1288D02*
X242Y1288D01*
X292Y1288D02*
X342Y1288D01*
X92Y1287D02*
X142Y1287D01*
X192Y1287D02*
X242Y1287D01*
X292Y1287D02*
X342Y1287D01*
X92Y1286D02*
X142Y1286D01*
X192Y1286D02*
X242Y1286D01*
X292Y1286D02*
X342Y1286D01*
X92Y1285D02*
X142Y1285D01*
X192Y1285D02*
X242Y1285D01*
X292Y1285D02*
X342Y1285D01*
X93Y1284D02*
X141Y1284D01*
X193Y1284D02*
X241Y1284D01*
X293Y1284D02*
X341Y1284D01*
X93Y1283D02*
X141Y1283D01*
X193Y1283D02*
X241Y1283D01*
X293Y1283D02*
X341Y1283D01*
X93Y1282D02*
X141Y1282D01*
X193Y1282D02*
X241Y1282D01*
X293Y1282D02*
X341Y1282D01*
X94Y1281D02*
X140Y1281D01*
X194Y1281D02*
X240Y1281D01*
X294Y1281D02*
X340Y1281D01*
X94Y1280D02*
X140Y1280D01*
X194Y1280D02*
X240Y1280D01*
X294Y1280D02*
X340Y1280D01*
X95Y1279D02*
X139Y1279D01*
X195Y1279D02*
X239Y1279D01*
X295Y1279D02*
X339Y1279D01*
X96Y1278D02*
X138Y1278D01*
X196Y1278D02*
X238Y1278D01*
X295Y1278D02*
X338Y1278D01*
X96Y1277D02*
X138Y1277D01*
X196Y1277D02*
X238Y1277D01*
X296Y1277D02*
X338Y1277D01*
X97Y1276D02*
X137Y1276D01*
X197Y1276D02*
X237Y1276D01*
X297Y1276D02*
X337Y1276D01*
X98Y1275D02*
X136Y1275D01*
X198Y1275D02*
X236Y1275D01*
X298Y1275D02*
X336Y1275D01*
X99Y1274D02*
X135Y1274D01*
X199Y1274D02*
X235Y1274D01*
X299Y1274D02*
X335Y1274D01*
X100Y1273D02*
X134Y1273D01*
X200Y1273D02*
X234Y1273D01*
X300Y1273D02*
X334Y1273D01*
X101Y1272D02*
X133Y1272D01*
X201Y1272D02*
X233Y1272D01*
X301Y1272D02*
X333Y1272D01*
X102Y1271D02*
X132Y1271D01*
X202Y1271D02*
X232Y1271D01*
X302Y1271D02*
X332Y1271D01*
X103Y1270D02*
X131Y1270D01*
X203Y1270D02*
X231Y1270D01*
X303Y1270D02*
X331Y1270D01*
X105Y1269D02*
X129Y1269D01*
X205Y1269D02*
X229Y1269D01*
X305Y1269D02*
X329Y1269D01*
X107Y1268D02*
X127Y1268D01*
X207Y1268D02*
X227Y1268D01*
X307Y1268D02*
X327Y1268D01*
X110Y1267D02*
X124Y1267D01*
X210Y1267D02*
X224Y1267D01*
X310Y1267D02*
X324Y1267D01*
X114Y1266D02*
X120Y1266D01*
X214Y1266D02*
X220Y1266D01*
X314Y1266D02*
X320Y1266D01*
X111Y1069D02*
X123Y1069D01*
X211Y1069D02*
X223Y1069D01*
X311Y1069D02*
X323Y1069D01*
X108Y1068D02*
X126Y1068D01*
X208Y1068D02*
X226Y1068D01*
X308Y1068D02*
X326Y1068D01*
X106Y1067D02*
X128Y1067D01*
X206Y1067D02*
X228Y1067D01*
X306Y1067D02*
X328Y1067D01*
X104Y1066D02*
X130Y1066D01*
X204Y1066D02*
X230Y1066D01*
X304Y1066D02*
X330Y1066D01*
X103Y1065D02*
X132Y1065D01*
X202Y1065D02*
X231Y1065D01*
X302Y1065D02*
X331Y1065D01*
X101Y1064D02*
X133Y1064D01*
X201Y1064D02*
X233Y1064D01*
X301Y1064D02*
X333Y1064D01*
X100Y1063D02*
X134Y1063D01*
X200Y1063D02*
X234Y1063D01*
X300Y1063D02*
X334Y1063D01*
X99Y1062D02*
X135Y1062D01*
X199Y1062D02*
X235Y1062D01*
X299Y1062D02*
X335Y1062D01*
X98Y1061D02*
X136Y1061D01*
X198Y1061D02*
X236Y1061D01*
X298Y1061D02*
X336Y1061D01*
X97Y1060D02*
X137Y1060D01*
X197Y1060D02*
X237Y1060D01*
X297Y1060D02*
X337Y1060D01*
X96Y1059D02*
X138Y1059D01*
X196Y1059D02*
X238Y1059D01*
X296Y1059D02*
X337Y1059D01*
X96Y1058D02*
X138Y1058D01*
X196Y1058D02*
X238Y1058D01*
X296Y1058D02*
X338Y1058D01*
X95Y1057D02*
X139Y1057D01*
X195Y1057D02*
X239Y1057D01*
X295Y1057D02*
X339Y1057D01*
X95Y1056D02*
X139Y1056D01*
X195Y1056D02*
X239Y1056D01*
X295Y1056D02*
X339Y1056D01*
X94Y1055D02*
X140Y1055D01*
X194Y1055D02*
X240Y1055D01*
X294Y1055D02*
X340Y1055D01*
X94Y1054D02*
X140Y1054D01*
X194Y1054D02*
X240Y1054D01*
X294Y1054D02*
X340Y1054D01*
X93Y1053D02*
X141Y1053D01*
X193Y1053D02*
X241Y1053D01*
X293Y1053D02*
X341Y1053D01*
X93Y1052D02*
X141Y1052D01*
X193Y1052D02*
X241Y1052D01*
X293Y1052D02*
X341Y1052D01*
X93Y1051D02*
X141Y1051D01*
X193Y1051D02*
X241Y1051D01*
X292Y1051D02*
X341Y1051D01*
X92Y1050D02*
X142Y1050D01*
X192Y1050D02*
X242Y1050D01*
X292Y1050D02*
X342Y1050D01*
X92Y1049D02*
X142Y1049D01*
X192Y1049D02*
X242Y1049D01*
X292Y1049D02*
X342Y1049D01*
X92Y1048D02*
X142Y1048D01*
X192Y1048D02*
X242Y1048D01*
X292Y1048D02*
X342Y1048D01*
X92Y1047D02*
X142Y1047D01*
X192Y1047D02*
X242Y1047D01*
X292Y1047D02*
X342Y1047D01*
X92Y1046D02*
X142Y1046D01*
X192Y1046D02*
X242Y1046D01*
X292Y1046D02*
X342Y1046D01*
X92Y1045D02*
X142Y1045D01*
X192Y1045D02*
X242Y1045D01*
X292Y1045D02*
X342Y1045D01*
X92Y1044D02*
X142Y1044D01*
X192Y1044D02*
X242Y1044D01*
X291Y1044D02*
X342Y1044D01*
X92Y1043D02*
X143Y1043D01*
X191Y1043D02*
X242Y1043D01*
X291Y1043D02*
X342Y1043D01*
X92Y1042D02*
X143Y1042D01*
X191Y1042D02*
X242Y1042D01*
X291Y1042D02*
X342Y1042D01*
X92Y1041D02*
X143Y1041D01*
X191Y1041D02*
X242Y1041D01*
X291Y1041D02*
X342Y1041D01*
X92Y1040D02*
X143Y1040D01*
X191Y1040D02*
X242Y1040D01*
X291Y1040D02*
X342Y1040D01*
X92Y1039D02*
X143Y1039D01*
X191Y1039D02*
X242Y1039D01*
X291Y1039D02*
X342Y1039D01*
X92Y1038D02*
X143Y1038D01*
X191Y1038D02*
X242Y1038D01*
X291Y1038D02*
X342Y1038D01*
X92Y1037D02*
X143Y1037D01*
X191Y1037D02*
X242Y1037D01*
X291Y1037D02*
X342Y1037D01*
X92Y1036D02*
X143Y1036D01*
X191Y1036D02*
X242Y1036D01*
X291Y1036D02*
X342Y1036D01*
X92Y1035D02*
X143Y1035D01*
X191Y1035D02*
X242Y1035D01*
X291Y1035D02*
X342Y1035D01*
X92Y1034D02*
X143Y1034D01*
X191Y1034D02*
X242Y1034D01*
X291Y1034D02*
X342Y1034D01*
X92Y1033D02*
X112Y1033D01*
X122Y1033D02*
X143Y1033D01*
X191Y1033D02*
X212Y1033D01*
X222Y1033D02*
X242Y1033D01*
X291Y1033D02*
X312Y1033D01*
X322Y1033D02*
X342Y1033D01*
X92Y1032D02*
X109Y1032D01*
X125Y1032D02*
X143Y1032D01*
X191Y1032D02*
X209Y1032D01*
X225Y1032D02*
X242Y1032D01*
X291Y1032D02*
X309Y1032D01*
X325Y1032D02*
X342Y1032D01*
X92Y1031D02*
X107Y1031D01*
X127Y1031D02*
X143Y1031D01*
X191Y1031D02*
X207Y1031D01*
X227Y1031D02*
X242Y1031D01*
X291Y1031D02*
X307Y1031D01*
X326Y1031D02*
X342Y1031D01*
X92Y1030D02*
X106Y1030D01*
X128Y1030D02*
X143Y1030D01*
X191Y1030D02*
X206Y1030D01*
X228Y1030D02*
X242Y1030D01*
X291Y1030D02*
X306Y1030D01*
X328Y1030D02*
X342Y1030D01*
X92Y1029D02*
X105Y1029D01*
X129Y1029D02*
X143Y1029D01*
X191Y1029D02*
X205Y1029D01*
X229Y1029D02*
X242Y1029D01*
X291Y1029D02*
X305Y1029D01*
X329Y1029D02*
X342Y1029D01*
X92Y1028D02*
X104Y1028D01*
X130Y1028D02*
X143Y1028D01*
X191Y1028D02*
X204Y1028D01*
X230Y1028D02*
X242Y1028D01*
X291Y1028D02*
X304Y1028D01*
X330Y1028D02*
X342Y1028D01*
X92Y1027D02*
X103Y1027D01*
X131Y1027D02*
X143Y1027D01*
X191Y1027D02*
X203Y1027D01*
X231Y1027D02*
X242Y1027D01*
X291Y1027D02*
X303Y1027D01*
X331Y1027D02*
X342Y1027D01*
X92Y1026D02*
X103Y1026D01*
X131Y1026D02*
X143Y1026D01*
X191Y1026D02*
X203Y1026D01*
X231Y1026D02*
X242Y1026D01*
X291Y1026D02*
X303Y1026D01*
X331Y1026D02*
X342Y1026D01*
X92Y1025D02*
X102Y1025D01*
X132Y1025D02*
X143Y1025D01*
X191Y1025D02*
X202Y1025D01*
X232Y1025D02*
X242Y1025D01*
X291Y1025D02*
X302Y1025D01*
X332Y1025D02*
X342Y1025D01*
X92Y1024D02*
X102Y1024D01*
X132Y1024D02*
X143Y1024D01*
X191Y1024D02*
X202Y1024D01*
X232Y1024D02*
X242Y1024D01*
X291Y1024D02*
X302Y1024D01*
X332Y1024D02*
X342Y1024D01*
X92Y1023D02*
X101Y1023D01*
X133Y1023D02*
X143Y1023D01*
X191Y1023D02*
X201Y1023D01*
X233Y1023D02*
X242Y1023D01*
X291Y1023D02*
X301Y1023D01*
X333Y1023D02*
X342Y1023D01*
X92Y1022D02*
X101Y1022D01*
X133Y1022D02*
X143Y1022D01*
X191Y1022D02*
X201Y1022D01*
X233Y1022D02*
X242Y1022D01*
X291Y1022D02*
X301Y1022D01*
X333Y1022D02*
X342Y1022D01*
X92Y1021D02*
X101Y1021D01*
X133Y1021D02*
X143Y1021D01*
X191Y1021D02*
X201Y1021D01*
X233Y1021D02*
X242Y1021D01*
X291Y1021D02*
X301Y1021D01*
X333Y1021D02*
X342Y1021D01*
X92Y1020D02*
X101Y1020D01*
X133Y1020D02*
X143Y1020D01*
X191Y1020D02*
X201Y1020D01*
X233Y1020D02*
X242Y1020D01*
X291Y1020D02*
X301Y1020D01*
X333Y1020D02*
X342Y1020D01*
X92Y1019D02*
X101Y1019D01*
X133Y1019D02*
X143Y1019D01*
X191Y1019D02*
X201Y1019D01*
X233Y1019D02*
X242Y1019D01*
X291Y1019D02*
X301Y1019D01*
X333Y1019D02*
X342Y1019D01*
X92Y1018D02*
X101Y1018D01*
X133Y1018D02*
X143Y1018D01*
X191Y1018D02*
X201Y1018D01*
X233Y1018D02*
X242Y1018D01*
X291Y1018D02*
X301Y1018D01*
X333Y1018D02*
X342Y1018D01*
X92Y1017D02*
X101Y1017D01*
X133Y1017D02*
X143Y1017D01*
X191Y1017D02*
X201Y1017D01*
X233Y1017D02*
X242Y1017D01*
X291Y1017D02*
X301Y1017D01*
X333Y1017D02*
X342Y1017D01*
X92Y1016D02*
X101Y1016D01*
X133Y1016D02*
X143Y1016D01*
X191Y1016D02*
X201Y1016D01*
X233Y1016D02*
X242Y1016D01*
X291Y1016D02*
X301Y1016D01*
X333Y1016D02*
X342Y1016D01*
X92Y1015D02*
X101Y1015D01*
X133Y1015D02*
X143Y1015D01*
X191Y1015D02*
X201Y1015D01*
X233Y1015D02*
X242Y1015D01*
X291Y1015D02*
X301Y1015D01*
X333Y1015D02*
X342Y1015D01*
X92Y1014D02*
X101Y1014D01*
X133Y1014D02*
X143Y1014D01*
X191Y1014D02*
X201Y1014D01*
X233Y1014D02*
X242Y1014D01*
X291Y1014D02*
X301Y1014D01*
X333Y1014D02*
X342Y1014D01*
X92Y1013D02*
X101Y1013D01*
X133Y1013D02*
X143Y1013D01*
X191Y1013D02*
X201Y1013D01*
X233Y1013D02*
X242Y1013D01*
X291Y1013D02*
X301Y1013D01*
X333Y1013D02*
X342Y1013D01*
X92Y1012D02*
X102Y1012D01*
X132Y1012D02*
X143Y1012D01*
X191Y1012D02*
X202Y1012D01*
X232Y1012D02*
X242Y1012D01*
X291Y1012D02*
X302Y1012D01*
X332Y1012D02*
X342Y1012D01*
X92Y1011D02*
X102Y1011D01*
X132Y1011D02*
X143Y1011D01*
X191Y1011D02*
X202Y1011D01*
X232Y1011D02*
X242Y1011D01*
X291Y1011D02*
X302Y1011D01*
X332Y1011D02*
X342Y1011D01*
X92Y1010D02*
X103Y1010D01*
X131Y1010D02*
X143Y1010D01*
X191Y1010D02*
X203Y1010D01*
X231Y1010D02*
X242Y1010D01*
X291Y1010D02*
X303Y1010D01*
X331Y1010D02*
X342Y1010D01*
X92Y1009D02*
X103Y1009D01*
X131Y1009D02*
X143Y1009D01*
X191Y1009D02*
X203Y1009D01*
X231Y1009D02*
X242Y1009D01*
X291Y1009D02*
X303Y1009D01*
X331Y1009D02*
X342Y1009D01*
X92Y1008D02*
X104Y1008D01*
X130Y1008D02*
X143Y1008D01*
X191Y1008D02*
X204Y1008D01*
X230Y1008D02*
X242Y1008D01*
X291Y1008D02*
X304Y1008D01*
X330Y1008D02*
X342Y1008D01*
X92Y1007D02*
X105Y1007D01*
X129Y1007D02*
X143Y1007D01*
X191Y1007D02*
X205Y1007D01*
X229Y1007D02*
X242Y1007D01*
X291Y1007D02*
X305Y1007D01*
X329Y1007D02*
X342Y1007D01*
X92Y1006D02*
X106Y1006D01*
X128Y1006D02*
X143Y1006D01*
X191Y1006D02*
X206Y1006D01*
X228Y1006D02*
X242Y1006D01*
X291Y1006D02*
X306Y1006D01*
X328Y1006D02*
X342Y1006D01*
X92Y1005D02*
X107Y1005D01*
X127Y1005D02*
X143Y1005D01*
X191Y1005D02*
X207Y1005D01*
X227Y1005D02*
X242Y1005D01*
X291Y1005D02*
X307Y1005D01*
X327Y1005D02*
X342Y1005D01*
X92Y1004D02*
X109Y1004D01*
X125Y1004D02*
X143Y1004D01*
X191Y1004D02*
X209Y1004D01*
X225Y1004D02*
X242Y1004D01*
X291Y1004D02*
X309Y1004D01*
X325Y1004D02*
X342Y1004D01*
X92Y1003D02*
X111Y1003D01*
X123Y1003D02*
X143Y1003D01*
X191Y1003D02*
X211Y1003D01*
X223Y1003D02*
X242Y1003D01*
X291Y1003D02*
X311Y1003D01*
X323Y1003D02*
X342Y1003D01*
X92Y1002D02*
X115Y1002D01*
X119Y1002D02*
X143Y1002D01*
X191Y1002D02*
X215Y1002D01*
X219Y1002D02*
X242Y1002D01*
X291Y1002D02*
X315Y1002D01*
X319Y1002D02*
X342Y1002D01*
X92Y1001D02*
X143Y1001D01*
X191Y1001D02*
X242Y1001D01*
X291Y1001D02*
X342Y1001D01*
X92Y1000D02*
X143Y1000D01*
X191Y1000D02*
X242Y1000D01*
X291Y1000D02*
X342Y1000D01*
X92Y999D02*
X143Y999D01*
X191Y999D02*
X242Y999D01*
X291Y999D02*
X342Y999D01*
X92Y998D02*
X143Y998D01*
X191Y998D02*
X242Y998D01*
X291Y998D02*
X342Y998D01*
X92Y997D02*
X143Y997D01*
X191Y997D02*
X242Y997D01*
X291Y997D02*
X342Y997D01*
X92Y996D02*
X143Y996D01*
X191Y996D02*
X242Y996D01*
X291Y996D02*
X342Y996D01*
X92Y995D02*
X143Y995D01*
X191Y995D02*
X242Y995D01*
X291Y995D02*
X342Y995D01*
X92Y994D02*
X143Y994D01*
X191Y994D02*
X242Y994D01*
X291Y994D02*
X342Y994D01*
X92Y993D02*
X143Y993D01*
X191Y993D02*
X242Y993D01*
X291Y993D02*
X342Y993D01*
X92Y992D02*
X143Y992D01*
X191Y992D02*
X242Y992D01*
X291Y992D02*
X342Y992D01*
X92Y991D02*
X142Y991D01*
X192Y991D02*
X242Y991D01*
X292Y991D02*
X342Y991D01*
X92Y990D02*
X142Y990D01*
X192Y990D02*
X242Y990D01*
X292Y990D02*
X342Y990D01*
X92Y989D02*
X142Y989D01*
X192Y989D02*
X242Y989D01*
X292Y989D02*
X342Y989D01*
X92Y988D02*
X142Y988D01*
X192Y988D02*
X242Y988D01*
X292Y988D02*
X342Y988D01*
X92Y987D02*
X142Y987D01*
X192Y987D02*
X242Y987D01*
X292Y987D02*
X342Y987D01*
X92Y986D02*
X142Y986D01*
X192Y986D02*
X242Y986D01*
X292Y986D02*
X342Y986D01*
X92Y985D02*
X142Y985D01*
X192Y985D02*
X242Y985D01*
X292Y985D02*
X342Y985D01*
X93Y984D02*
X141Y984D01*
X193Y984D02*
X241Y984D01*
X293Y984D02*
X341Y984D01*
X93Y983D02*
X141Y983D01*
X193Y983D02*
X241Y983D01*
X293Y983D02*
X341Y983D01*
X93Y982D02*
X141Y982D01*
X193Y982D02*
X241Y982D01*
X293Y982D02*
X341Y982D01*
X94Y981D02*
X140Y981D01*
X194Y981D02*
X240Y981D01*
X294Y981D02*
X340Y981D01*
X94Y980D02*
X140Y980D01*
X194Y980D02*
X240Y980D01*
X294Y980D02*
X339Y980D01*
X95Y979D02*
X139Y979D01*
X195Y979D02*
X239Y979D01*
X295Y979D02*
X339Y979D01*
X96Y978D02*
X138Y978D01*
X196Y978D02*
X238Y978D01*
X296Y978D02*
X338Y978D01*
X96Y977D02*
X138Y977D01*
X196Y977D02*
X238Y977D01*
X296Y977D02*
X338Y977D01*
X97Y976D02*
X137Y976D01*
X197Y976D02*
X237Y976D01*
X297Y976D02*
X337Y976D01*
X98Y975D02*
X136Y975D01*
X198Y975D02*
X236Y975D01*
X298Y975D02*
X336Y975D01*
X99Y974D02*
X135Y974D01*
X199Y974D02*
X235Y974D01*
X299Y974D02*
X335Y974D01*
X100Y973D02*
X134Y973D01*
X200Y973D02*
X234Y973D01*
X300Y973D02*
X334Y973D01*
X101Y972D02*
X133Y972D01*
X201Y972D02*
X233Y972D01*
X301Y972D02*
X333Y972D01*
X102Y971D02*
X132Y971D01*
X202Y971D02*
X232Y971D01*
X302Y971D02*
X332Y971D01*
X103Y970D02*
X131Y970D01*
X203Y970D02*
X231Y970D01*
X303Y970D02*
X331Y970D01*
X105Y969D02*
X129Y969D01*
X205Y969D02*
X229Y969D01*
X305Y969D02*
X329Y969D01*
X107Y968D02*
X127Y968D01*
X207Y968D02*
X227Y968D01*
X307Y968D02*
X327Y968D01*
X110Y967D02*
X124Y967D01*
X210Y967D02*
X224Y967D01*
X310Y967D02*
X324Y967D01*
X115Y966D02*
X119Y966D01*
X215Y966D02*
X219Y966D01*
X315Y966D02*
X319Y966D01*
D02*
G04 End of Copper1*
M02*